<svg width="65" height="34" viewBox="0 0 65 34" fill="none" xmlns="http://www.w3.org/2000/svg">
<path d="M53.0866 0.181609C52.3938 0.428207 51.5366 1.22671 51.2195 1.93128C50.6911 3.04684 50.9025 4.54992 51.7127 5.48934C53.2393 7.27423 56.1515 6.89847 57.2083 4.78477C57.6076 3.99801 57.6311 2.7885 57.2671 1.98999C56.5625 0.416464 54.7071 -0.382043 53.0866 0.181609ZM55.0712 1.95477C55.4939 2.16614 55.764 2.57713 55.8344 3.14078C56.0106 4.43249 54.4723 5.39539 53.4037 4.66734C52.2412 3.89232 52.4173 2.26008 53.6973 1.81385C54.1905 1.64945 54.5427 1.68468 55.0712 1.95477Z" fill="#174A94"/>
<path d="M17.3524 2.17842C16.5656 2.35456 15.3444 2.87125 14.7807 3.2705L14.452 3.50535L14.8512 4.65615C15.0743 5.29025 15.2857 5.84216 15.3327 5.88913C15.3796 5.93611 15.7084 5.79519 16.0607 5.57208C16.9884 4.98494 17.7399 4.76183 18.7615 4.76183C20.2176 4.75009 20.934 5.34897 20.934 6.55847C20.934 7.39221 20.5699 7.93237 19.7362 8.34337C19.2665 8.56648 18.9377 8.6252 17.7399 8.66043L16.2956 8.7074V10.0461V11.3847H17.6225C18.4445 11.3847 19.1725 11.4552 19.5131 11.5491C20.8518 11.9601 21.5093 12.7821 21.5093 14.0269C21.4976 15.4125 20.6404 16.2697 19.0551 16.4928C17.9748 16.6338 16.2956 16.2228 15.2387 15.5534L14.769 15.2599L14.6398 15.5769C14.5694 15.7648 14.3932 16.2815 14.2288 16.7394C14.0762 17.1974 13.9235 17.6554 13.8883 17.7493C13.7944 17.9842 14.9217 18.5713 16.1194 18.9236C16.8944 19.1467 17.3289 19.1937 18.6441 19.1819C20.0415 19.1819 20.3351 19.135 21.0866 18.8766C23.353 18.0664 24.586 16.5398 24.7269 14.3791C24.8091 13.0052 24.4803 11.9719 23.67 11.0912C23.353 10.7389 22.895 10.3396 22.6601 10.1987C22.4253 10.0578 22.2139 9.92864 22.1904 9.90516C22.1669 9.89341 22.4488 9.61159 22.8011 9.27105C23.1768 8.91877 23.5996 8.36686 23.7757 7.99109C24.0575 7.41569 24.1045 7.19258 24.1045 6.27665C24.1045 5.36071 24.0575 5.12586 23.764 4.49175C23.3999 3.69324 22.7189 2.97693 21.9673 2.58942C20.8048 2.00228 18.9377 1.83788 17.3524 2.17842Z" fill="#174A94"/>
<path d="M33.9586 2.17798C28.9679 3.01172 25.8913 7.16866 26.1966 12.676C26.2788 13.9795 26.3727 14.4374 26.772 15.4943C27.6879 17.8428 29.7312 19.252 32.2206 19.252C34.7688 19.252 36.8825 17.6432 37.6575 15.095C37.9863 14.0264 37.9981 12.2885 37.681 11.2786C36.9295 8.87136 34.851 7.47397 32.2676 7.66185C31.5043 7.70882 31.0463 7.83799 29.9895 8.27248C29.602 8.43687 30.3418 7.23911 31.0698 6.51106C32.1737 5.40724 33.6885 4.80836 35.4147 4.80836H36.3776V3.39923V1.9901L35.6495 2.00184C35.2385 2.01359 34.487 2.08404 33.9586 2.17798ZM33.2422 9.98692C34.6866 10.4331 35.5321 12.4177 35.0389 14.1439C34.6866 15.3416 33.4536 16.3163 32.3028 16.3163C30.5297 16.3163 29.1088 14.3787 29.4728 12.4412C29.8368 10.4566 31.4339 9.41152 33.2422 9.98692Z" fill="#174A94"/>
<path d="M43.188 2.15411C41.8963 2.52987 40.6516 3.53975 39.9353 4.80797C38.5262 7.28569 38.2091 11.6423 39.219 14.7893C40.0645 17.4432 41.7319 19.0402 43.8574 19.2163C46.8165 19.4512 49.0359 17.6076 49.8931 14.2022C50.4216 12.065 50.4098 8.82399 49.8579 6.74552C49.306 4.62008 48.0026 2.91739 46.5112 2.33025C45.6775 2.01319 43.9865 1.91925 43.188 2.15411ZM45.6305 5.01934C46.7461 5.81785 47.4154 9.1293 47.0749 12.2529C46.7578 15.1064 45.8889 16.5507 44.4797 16.5507C42.8005 16.5507 41.7789 14.3313 41.7789 10.6793C41.7789 7.84934 42.4717 5.60648 43.5638 4.91365C44.0805 4.5966 45.1021 4.64357 45.6305 5.01934Z" fill="#174A94"/>
<path d="M11.1304 15.4232C5.04762 16.8206 1.23122 18.676 0.256571 20.7192C-0.999904 23.3614 2.39375 25.8978 9.66252 27.7649C12.105 28.3872 14.935 28.9157 17.8824 29.2914C19.867 29.538 23.9182 29.9373 24.5171 29.9373C24.7285 29.9373 24.752 30.0547 24.7754 31.8983L24.8107 33.8594L26.9831 32.051C28.1808 31.0529 29.59 29.8786 30.1301 29.4324C30.6703 28.9861 31.0931 28.5751 31.0696 28.5047C31.0461 28.446 29.6252 27.2365 27.9225 25.8156L24.8107 23.2439L24.7754 24.8879C24.752 26.4967 24.7402 26.5319 24.4819 26.5319C24.0004 26.5319 20.1371 26.1796 18.54 25.9917C16.0975 25.7099 12.9975 25.1697 11.0012 24.6648C2.21761 22.4572 2.13541 19.2866 10.7781 17.0672C11.647 16.8441 12.3986 16.621 12.4338 16.574C12.5043 16.4918 13.0092 15.1649 13.0092 15.071C13.0092 15.0005 12.974 15.0122 11.1304 15.4232Z" fill="#174A94"/>
<path d="M51.1974 15.8105C51.0565 16.1745 50.9626 16.4916 50.9743 16.5033C50.986 16.515 51.6436 16.656 52.4304 16.8321C55.1547 17.431 57.926 18.5113 58.9594 19.3685C60.0397 20.2727 60.0397 21.4 58.9594 22.2925C56.6695 24.1713 50.0584 25.7214 41.3687 26.4142C39.9596 26.5199 34.6166 26.7665 33.4776 26.7665H32.9727V28.4692V30.1719H33.7242C36.519 30.1719 42.5313 29.7609 45.8897 29.3381C59.6052 27.6237 66.7096 23.7134 63.2572 19.7795C62.3648 18.7697 59.9223 17.4662 57.3154 16.609C55.9767 16.1745 52.0077 15.1411 51.6554 15.1411C51.5027 15.1411 51.3736 15.3408 51.1974 15.8105Z" fill="#174A94"/>
</svg>
