<svg width="215" height="184" viewBox="0 0 215 184" fill="none" xmlns="http://www.w3.org/2000/svg">
<g opacity="0.5" filter="url(#filter0_b_601_1122)">
<path d="M0 160.569C19.2949 156.894 34.4551 148.165 45.4808 134.382C56.5064 120.599 62.2489 104.29 62.7083 85.4532C59.9519 86.372 57.1955 87.2909 54.4391 88.2097C51.6827 88.6692 48.6966 88.8989 45.4808 88.8989C32.6175 88.8989 22.281 84.764 14.4712 76.4944C7.12072 67.7653 3.44551 57.6579 3.44551 46.1723C3.44551 32.3895 7.35043 21.3633 15.1603 13.0937C23.4295 4.36456 34.2254 0 47.5481 0C60.8707 0 71.8964 4.82397 80.625 14.4719C89.813 24.1199 94.4071 38.3621 94.4071 57.1985C94.4071 83.3858 90.5021 105.668 82.6923 124.045C74.8825 141.963 63.8568 155.975 49.6154 166.082C35.3739 175.73 18.8355 181.703 0 184V160.569ZM120.593 160.569C139.428 156.894 154.359 148.165 165.385 134.382C176.41 120.599 182.153 104.29 182.612 85.4532C180.315 86.372 177.559 87.2909 174.343 88.2097C171.587 88.6692 168.6 88.8989 165.385 88.8989C152.521 88.8989 142.415 84.764 135.064 76.4944C127.714 67.7653 124.038 57.6579 124.038 46.1723C124.038 32.3895 127.943 21.3633 135.753 13.0937C144.022 4.36456 154.818 0 168.141 0C181.464 0 192.489 4.82397 201.218 14.4719C210.406 24.1199 215 38.3621 215 57.1985C215 83.3858 211.095 105.668 203.285 124.045C195.475 141.963 184.45 155.975 170.208 166.082C155.967 175.73 139.428 181.703 120.593 184V160.569Z" fill="url(#paint0_linear_601_1122)"/>
</g>
<defs>
<filter id="filter0_b_601_1122" x="-30" y="-30" width="275" height="244" filterUnits="userSpaceOnUse" color-interpolation-filters="sRGB">
<feFlood flood-opacity="0" result="BackgroundImageFix"/>
<feGaussianBlur in="BackgroundImageFix" stdDeviation="15"/>
<feComposite in2="SourceAlpha" operator="in" result="effect1_backgroundBlur_601_1122"/>
<feBlend mode="normal" in="SourceGraphic" in2="effect1_backgroundBlur_601_1122" result="shape"/>
</filter>
<linearGradient id="paint0_linear_601_1122" x1="179.308" y1="14.1818" x2="80.2553" y2="187.397" gradientUnits="userSpaceOnUse">
<stop stop-color="#174A94"/>
<stop offset="1" stop-color="#15386B"/>
</linearGradient>
</defs>
</svg>
