<svg width="174" height="172" viewBox="0 0 174 172" fill="none" xmlns="http://www.w3.org/2000/svg">
<path opacity="0.8" d="M86.1296 82.9442C86.1296 82.9442 83.9638 76.0368 78.0304 68.5752C72.0841 61.1136 59.051 53.4201 54.2197 51.2937C49.3884 49.1674 50.2085 53.0979 50.2085 53.0979C50.2085 53.0979 32.8824 50.1468 29.8708 50.4174C26.8592 50.688 28.333 54.5541 28.333 54.5541C28.333 54.5541 15.1077 58.3043 12.4036 59.9667C9.69963 61.6291 9.73808 63.923 9.73808 63.923L7.77735 64.5416C7.77735 64.5416 0.805873 67.2478 0.0497751 69.1164C-0.719138 70.9851 7.67483 78.4853 7.67483 78.4853C7.67483 78.4853 7.09814 79.207 7.85424 82.0808C8.04647 82.8153 15.9406 88.6016 15.9406 88.6016C15.9406 88.6016 13.7877 90.3542 16.0944 93.0089C18.414 95.6636 33.6513 101.437 33.6513 101.437C33.6513 101.437 33.4334 104.208 38.3929 104.556C43.3396 104.904 53.4764 101.179 53.4764 101.179C53.4764 101.179 52.8741 102.713 54.476 104.375C56.0779 106.051 63.2032 102.172 70.6744 98.0735C78.1457 93.9755 87.4367 87.1325 87.4367 87.1325C87.4367 87.1325 90.397 88.4985 94.9849 91.5269C99.5727 94.5683 108.12 105.651 112.913 110.651C117.706 115.651 125.677 127.469 125.677 127.469C125.677 127.469 116.117 125.317 111.106 125.149C106.083 124.982 101.482 127.495 101.482 127.495C101.482 127.495 100.098 127.379 92.2809 124.299C84.4636 121.219 71.6612 119.002 68.2652 118.847C64.8691 118.706 65.1126 122.546 65.1126 122.546C65.1126 122.546 51.6054 123.667 47.1201 124.814C42.6476 125.961 43.4805 128.667 43.4805 128.667C43.4805 128.667 30.7038 134.299 25.6802 138.448C20.6566 142.598 24.6037 144.467 24.6037 144.467C24.6037 144.467 16.9018 152.56 18.2089 156.761C19.5161 160.949 31.7802 160.614 31.7802 160.614C31.7802 160.614 30.9985 163.295 32.5107 165.125C34.0229 166.954 48.6451 166.826 48.6451 166.826C48.6451 166.826 49.0936 168.295 51.7592 169.493C54.4247 170.692 69.9696 168.372 69.9696 168.372C69.9696 168.372 70.1874 169.107 70.6488 171.001C71.1101 172.895 72.8915 171.774 76.3516 170.292C79.7989 168.81 87.3727 161.684 90.7815 153.99C94.1775 146.31 92.9473 136.799 93.3317 134.531C93.7162 132.263 98.0862 131.683 100.38 130.832C102.674 129.982 104.712 128.384 108.39 128.049C112.068 127.714 124.024 129.492 126.626 130.446C129.227 131.399 131.342 133.551 137.442 138.41C143.542 143.268 157.869 152.676 166.097 157.418C174.311 162.161 173.658 160.163 173.952 158.462C174.247 156.761 173.081 157.379 173.081 157.379C173.081 157.379 168.557 154.995 164.072 152.637C159.586 150.279 146.81 140.871 138.813 135.008C130.816 129.144 121.512 116.618 119.936 114.968C118.347 113.306 116.732 111.231 116.322 107.713C115.912 104.195 117.206 90.264 117.206 90.264C117.206 90.264 119.898 89.0011 122.538 87.5062C125.178 86.0113 132.239 80.2637 135.494 75.9981C138.749 71.7454 135.571 71.9129 135.571 71.9129C135.571 71.9129 144.58 58.5233 146.784 53.5103C149.001 48.4973 144.323 50.3659 144.323 50.3659C144.323 50.3659 146.028 40.7522 146.746 33.0973C147.463 25.4424 141.825 26.7956 141.825 26.7956C141.825 26.7956 138.467 14.7205 137.07 11.1121C135.686 7.49086 131.585 9.05018 131.585 9.05018C131.585 9.05018 131.29 6.83362 131.342 4.79747C131.38 2.76133 129.637 0.183931 128.099 0.00351316C126.562 -0.189792 122.679 7.65839 122.679 7.65839C122.679 7.65839 121.628 7.31044 119.757 7.36198C117.898 7.41353 116.361 11.125 114.259 15.1715C112.17 19.218 109.248 22.8393 109.248 22.8393C109.248 22.8393 108.761 22.5815 108.223 21.267C107.685 19.9526 105.34 18.1097 103.174 21.9114C100.995 25.7131 100.278 38.0975 100.278 38.0975C100.278 38.0975 96.9072 35.4943 95.5231 35.8036C94.1391 36.1 94.7158 39.6954 94.4338 46.1518C94.1647 52.5953 99.8803 63.6524 99.8803 63.6524C99.8803 63.6524 97.9196 63.8585 97.2404 65.5596C96.574 67.2607 99.5984 69.6835 102.238 72.5186C104.878 75.3537 114.297 88.3438 114.297 88.3438C114.297 88.3438 113.669 91.1017 113.669 96.2564C113.669 101.411 113.849 108.512 113.849 108.512C113.849 108.512 109.722 102.623 103.456 95.0064C97.1891 87.3773 86.1296 82.9957 86.1296 82.9957M82.9386 83.988C81.3239 82.7251 77.3896 80.8565 77.3896 80.8565C77.3896 80.8565 72.3404 86.2304 70.7641 88.0732C69.175 89.916 68.1627 92.6868 67.2015 91.7589C66.2404 90.8439 68.3292 88.434 70.2259 86.3463C72.1226 84.2587 74.8137 79.9029 74.8137 79.9029C74.8137 79.9029 71.7637 78.292 68.4318 77.5703C65.1126 76.8486 63.908 76.8357 63.908 76.8357C63.908 76.8357 63.6645 81.2431 60.025 84.6839C56.3855 88.1248 52.3615 91.1532 51.1184 92.3517C49.8753 93.5502 47.7608 94.4909 48.1837 93.2667C48.6066 92.0424 54.7067 87.4417 57.3594 84.7097C59.9994 81.9905 61.5756 76.2172 61.5756 76.2172C61.5756 76.2172 56.7443 74.0908 53.6686 73.6913C50.5802 73.3047 50.0035 74.4388 50.0035 74.4388C50.0035 74.4388 44.1726 82.4931 39.1746 85.0061C34.1767 87.5191 31.3702 90.1609 29.576 90.4573C27.7819 90.7537 26.18 89.9032 29.6145 88.0088C33.0618 86.1144 40.5971 82.6736 43.9163 79.0523C47.2226 75.444 48.1581 73.2532 48.1581 73.2532C48.1581 73.2532 43.4549 72.4284 37.1242 72.3897C30.7807 72.3511 29.3325 72.4026 29.3325 72.4026C29.3325 72.4026 24.3859 76.3847 21.1052 78.3693C17.8245 80.3539 17.1581 81.2431 16.8505 80.2508C16.543 79.2585 20.9898 76.243 23.2966 74.5805C25.5905 72.9052 26.7695 71.4619 26.7695 71.4619C26.7695 71.4619 17.5041 71.9387 13.6852 72.1964C9.86623 72.4413 8.55908 72.583 8.17462 71.7583C7.79017 70.9335 16.0175 69.7092 17.5554 69.4902C19.106 69.2711 19.7596 69.2067 19.7596 69.2067C19.7596 69.2067 15.4408 65.289 16.8377 64.5802C18.2346 63.8714 22.438 69.1809 22.438 69.1809C22.438 69.1809 26.9874 69.1036 33.395 69.3871C39.8026 69.6706 41.9171 69.967 41.9171 69.967C41.9171 69.967 42.0581 66.539 39.841 63.7168C37.6112 60.8945 35.9324 59.7992 36.996 59.3352C38.0597 58.8713 41.5839 61.9642 43.0705 65.0055C44.557 68.0468 45.4156 69.9541 45.4156 69.9541C45.4156 69.9541 53.438 71.0882 56.0266 71.6294C58.6153 72.1707 60.9605 73.2016 60.9605 73.2016C60.9605 73.2016 57.4363 66.1911 55.3731 63.4591C53.3098 60.727 52.9254 59.4899 53.9762 59.8378C55.0271 60.1858 60.3838 65.2761 61.7038 68.2272C63.0237 71.1912 63.9464 74.1553 63.9464 74.1553C63.9464 74.1553 70.6744 75.4311 74.6087 77.2997C78.543 79.1683 80.5678 80.4441 81.9262 81.3591C83.2846 82.2741 84.6302 85.251 83.0155 83.988M94.3313 131.567C93.0882 132.353 89.6794 133.448 88.18 134.711C86.6934 135.987 84.8352 145.098 83.1949 149.802C81.5546 154.493 77.1589 160.627 78.0047 158.191C78.8505 155.756 82.631 145.794 83.4896 142.547C84.3483 139.286 84.643 136.773 84.643 136.773C84.643 136.773 77.1846 141.284 73.4041 143.01C69.6236 144.724 68.8419 148.642 65.2408 153.952C61.6397 159.261 58.1155 162.148 57.1416 162.045C56.1676 161.941 60.1403 158.269 62.6265 155.047C65.1126 151.825 68.3292 145.279 68.3292 145.279C68.3292 145.279 57.3722 149.802 53.2842 150.536C49.2089 151.271 48.4657 151.915 48.4657 151.915C48.4657 151.915 44.5442 157.882 41.6608 159.454C38.7774 161.026 37.2652 160.846 38.2391 160.124C39.2259 159.403 43.032 156.464 44.352 154.686C45.6719 152.908 45.5438 152.018 45.5438 152.018C45.5438 152.018 36.6628 153.732 32.2032 153.23C27.7306 152.727 27.6025 152.25 29.4607 151.786C31.3317 151.335 43.865 150.111 43.865 150.111C43.865 150.111 42.8654 147.727 40.1101 146.696C37.3549 145.665 32.7029 143.616 33.7666 143.139C34.8175 142.662 39.3669 143.41 41.5326 144.763C43.6984 146.103 47.2226 148.797 47.2226 148.797C47.2226 148.797 59.2048 146.657 64.7666 144.235C70.3284 141.799 75.3392 138.887 75.3392 138.887C75.3392 138.887 71.6612 136.129 67.5219 135.794C63.3698 135.459 54.5144 136.773 54.2069 135.781C53.8865 134.789 62.2933 133.654 65.3689 134.041C68.4446 134.428 75.3264 136.606 76.5182 137.031C77.7228 137.456 81.5033 136.155 83.5409 134.969C85.5785 133.77 87.6418 132.185 87.6418 132.185C87.6418 132.185 81.7596 130.523 77.2999 129.621C72.8402 128.719 70.008 129.08 70.5078 128.1C71.0076 127.121 78.9659 128.023 82.426 128.822C85.8989 129.621 89.7819 130.845 89.7819 130.845C89.7819 130.845 92.4859 130.007 93.4471 130.098C94.4082 130.188 95.5616 130.794 94.3185 131.58M113.849 80.2766C113.631 78.3049 113.746 72.1964 113.746 72.1964C113.746 72.1964 104.532 61.5647 103.366 58.2785C102.2 54.9794 101.687 52.866 102.495 52.866C103.289 52.866 106.288 59.3997 109.364 63.691C112.439 67.9953 114.131 69.9025 114.131 69.9025C114.131 69.9025 113.951 62.3894 114.259 58.6393C114.567 54.8763 114.592 53.6649 114.592 53.6649C114.592 53.6649 107.749 46.358 106.813 43.394C105.891 40.43 106.801 40.2882 108.056 41.7831C109.325 43.278 115.028 51.6288 115.028 51.6288C115.028 51.6288 116.361 41.2161 116.873 39.4119C117.386 37.6206 111.939 34.3473 111.555 32.2854C111.183 30.2364 112.234 30.9967 113.913 32.4916C115.579 33.9865 117.463 37.8655 117.463 37.8655C117.463 37.8655 118.193 34.1283 119.103 32.3499C120.026 30.5715 119.885 29.6694 119.885 29.6694C119.885 29.6694 115.566 26.5636 116.22 25.2749C116.886 23.9733 120.308 28.458 120.308 28.458C120.308 28.458 121.461 23.097 122.64 21.2413C123.793 19.3855 124.832 17.4525 125.024 19.4113C125.229 21.3701 122.217 26.7956 121.512 29.3085C120.808 31.8215 120.961 33.136 120.961 33.136C120.961 33.136 126.972 28.69 128.458 27.4013C129.932 26.1126 130.086 27.8394 129.483 28.9735C128.881 30.0946 120.833 35.7391 120.833 35.7391C120.833 35.7391 119.18 38.1619 118.36 42.0667C117.552 45.9585 117.271 48.4973 117.271 48.4973C117.271 48.4973 121.115 47.84 126.382 43.2007C131.649 38.5614 133.738 36.5768 135.02 36.8345C136.301 37.0923 135.494 37.9042 132.277 40.5331C129.048 43.162 123.294 47.956 121.077 48.6519C118.86 49.3349 117.142 50.7009 117.142 50.7009C117.142 50.7009 116.22 53.3041 116.322 55.4176C116.438 57.531 116.566 59.6703 116.566 59.6703C116.566 59.6703 122.128 58.0723 125.152 56.165C128.176 54.2577 130.15 50.1468 131.278 49.9148C132.405 49.6829 133.11 52.3247 130.957 54.0773C128.804 55.83 123.627 59.9022 121.013 60.5853C118.385 61.2683 116.438 62.2992 116.438 62.2992C116.438 62.2992 115.848 68.5752 115.963 70.7015C116.079 72.8279 115.963 75.4311 115.963 75.4311C115.963 75.4311 119.398 74.3614 121.218 72.0289C123.037 69.6964 125.049 67.8664 125.165 69.168C125.293 70.4696 124.127 73.1501 121.653 74.7352C119.18 76.3203 115.579 78.1245 115.579 78.1245C115.579 78.1245 115.938 81.4106 115.989 82.4545C116.04 83.5112 115.835 87.1067 115.515 86.1144C115.194 85.1221 114.054 82.2612 113.836 80.2895" fill="#102F5C"/>
</svg>
