<svg width="373" height="878" viewBox="0 0 373 878" fill="none" xmlns="http://www.w3.org/2000/svg">
<g clip-path="url(#clip0_285_27989)">
<g opacity="0.2">
<path d="M36.8991 340.87C36.8991 340.87 40.4657 354.956 47.8067 359.007C55.1477 363.059 64.0957 342.164 64.0957 342.164C64.0957 342.164 68.1471 362.57 74.5005 374.607C80.9029 386.643 99.0353 396.804 124.166 402.874C149.296 408.945 170.784 395.137 176.42 391.481C182.006 387.826 194.804 390.437 202.011 390.024C209.169 389.612 212.41 387.992 212.41 387.992C212.41 387.992 302.605 426.532 349.251 452.385C395.946 478.236 449.496 542.58 468.431 567.99C487.365 593.4 528.919 670.382 544.882 721.074C560.895 771.814 607.078 845.956 610.233 852.884C613.386 859.763 615.987 861.305 620.03 860.201C624.123 859.145 620.432 854.001 620.432 854.001C620.432 854.001 609.523 835.815 596.011 809.457C582.547 783.048 561.91 741.876 552.727 710.869C543.543 679.813 513.841 619.712 479.18 567.814C444.469 515.869 406.304 482.983 361.903 450.138C317.502 417.293 217.372 379.887 217.372 379.887L214.581 375.256C214.581 375.256 209.127 368.643 206.536 360.864C203.896 353.085 202.71 323.459 198.838 300.837C194.965 278.216 186.376 271.845 164.996 256.576C143.616 241.307 109.695 259.712 109.695 259.712C109.695 259.712 114.189 252.407 119.269 243.316C124.349 234.226 124.462 211.877 111.87 212.845C99.2781 213.813 86.3317 261.79 86.3317 261.79C86.3317 261.79 79.6592 240.775 76.6474 232.075C73.6356 223.375 63.7318 217.387 58.8924 229.564C54.0545 241.791 72.1282 281.026 72.1282 281.026C72.1282 281.026 54.3986 264.666 41.6889 253.556C28.9791 242.447 10.3962 238.537 15.5842 255.913C20.7217 273.241 58.9539 298.562 58.9539 298.562C58.9539 298.562 39.3266 304.014 26.4047 310.345C13.4828 316.676 4.79303 333.094 13.0618 343.502C21.3291 353.861 36.9526 341.016 36.9526 341.016M55.3565 347.141C51.9478 351.369 50.5127 352.64 46.4506 346.574C42.3871 340.459 40.2673 338.559 43.233 334.295C46.1987 330.032 68.7083 307.747 68.7083 307.747C68.7083 307.747 58.8144 342.912 55.358 347.19M125.044 397.789C109.133 394.536 84.9588 387.601 75.373 362.795C65.7872 337.988 69.1244 334.646 70.6952 337.889C72.266 341.132 71.6691 357.209 90.5921 369.163C109.515 381.117 126.205 385.772 140.511 386.275C154.816 386.728 167.208 388.909 167.208 388.909C167.208 388.909 140.908 401.094 124.995 397.791M169.359 383.688C169.359 383.688 133.206 381.78 117.881 376.789C102.554 371.75 87.0446 362.247 80.5481 351.982C74.0516 341.717 73.1252 335.41 74.1339 326.491C75.144 317.621 78.4528 308.436 79.1375 311.607C79.8222 314.779 78.7331 330.821 87.494 341.264C96.2044 351.659 107.922 364.075 124.147 369.578C140.372 375.131 156.785 377.093 163.441 377.973C170.098 378.853 174.504 380.047 174.504 380.047L169.311 383.739L169.359 383.688ZM186.045 353.917C186.045 353.917 151.369 329.275 133.366 316.901C115.365 304.575 96.6125 296.643 96.2351 288.994C95.8577 281.344 102.993 281.817 112.991 286.034C122.989 290.252 150.359 310.398 161.321 320.529C172.331 330.658 183.256 341.183 184.84 344.868C186.375 348.554 186.045 353.917 186.045 353.917ZM116.312 262.558C119.962 261.466 138.507 251.037 155.487 258.826C172.419 266.617 191.106 282.163 194.173 297.589C197.24 313.016 194.28 324.007 194.28 324.007C194.28 324.007 174.182 295.833 163.28 284.424C152.377 272.965 138.894 267.183 130.859 266.197C122.874 265.209 112.71 263.649 116.361 262.557M125.38 268.522C142.177 271.848 155.643 285.243 165.647 296.188C175.7 307.132 184.227 313.063 188.487 324.083C192.698 335.104 194.009 342.775 190.104 340.29C186.199 337.804 156.989 305.485 138.915 293.996C120.89 282.506 107.228 278.939 104.594 277.889C102.008 276.837 108.581 265.148 125.379 268.473M102.949 228.092C111.258 216.989 115.329 216.817 116.698 223.16C118.068 229.504 113.307 247.572 105.918 258.254C98.4818 268.988 89.7593 272.884 89.7593 272.884C89.7593 272.884 94.6378 239.146 102.949 228.092ZM87.939 300.538C90.0186 296.203 103.43 302.872 125.745 318.21C148.009 333.502 169.626 345.227 174.695 350.477C179.715 355.728 183.134 364.907 179.484 365.999C175.833 367.091 141.165 349.226 117.292 331.086C93.421 312.995 85.8594 304.873 87.939 300.538ZM110.364 334.241C130.451 348.959 153.124 364.778 160.107 368.349C166.992 371.924 170.405 374.375 170.405 374.375C170.405 374.375 137.437 372.223 124.934 364.742C112.43 357.211 93.1225 343.894 88.4683 332.837C83.8141 321.78 80.5382 310.828 83.6024 311.473C86.7157 312.116 90.2779 319.523 110.364 334.241ZM63.0095 235.825C64.9533 226.976 69.2541 229.547 72.8373 236.02C76.4711 242.541 83.5641 264.476 84.4189 271.67C85.2736 278.863 85.1854 287.362 82.9 288.118C80.5656 288.876 78.6948 283.824 78.6948 283.824C78.6948 283.824 61.0642 244.625 63.0095 235.825ZM33.7956 271.964C19.6091 255.841 14.6609 249.704 21.7812 249.686C28.9522 249.716 46.8606 263.861 58.7068 274.014C70.5529 284.168 75.6276 296.145 73.378 296.458C71.1284 296.771 47.933 288.089 33.7956 271.964ZM36.1281 311.968C45.2713 308.992 59.4999 303.653 63.5203 303.434C67.5422 303.264 63.6546 307.899 63.6546 307.899C63.6546 307.899 42.1727 328.434 34.2289 333.731C26.2851 339.028 15.801 341.505 16.4529 332.154C17.0557 322.805 26.985 314.944 36.1267 311.919" fill="#102F5C"/>
<path d="M232.107 268.997C256.776 295.658 285.716 291.252 291.965 291.653C298.214 292.055 306.034 295.699 311.054 300.95C316.074 306.202 320.623 305.623 320.623 305.623C320.623 305.623 330.054 346.493 361.297 389.261C392.54 432.029 436.817 473.816 470.76 510.021C504.654 546.226 522.768 591.698 554.135 653.271C585.502 714.844 625.161 800.674 632.861 819.939C640.563 839.253 641.913 838.427 644.306 836.341C646.649 834.258 646.898 831.107 644.152 824.707C641.405 818.258 615.331 757.95 592.045 710.326C568.71 662.704 523.104 565.316 500.737 530.285C478.37 495.255 415.478 437.036 380.997 402.567C346.517 368.097 328.7 304.741 328.7 304.741C328.7 304.741 328.794 302.971 330.372 299.928C331.901 296.886 332.468 287.98 333.55 278.224C334.681 268.466 344.519 254.321 350.769 226.975C357.018 199.63 348.805 168.201 325.942 141.191C303.08 114.18 271.515 130.943 271.515 130.943C271.515 130.943 275.017 124.895 282.49 113.768C289.963 102.592 301.505 76.5114 287.4 72.9085C273.296 69.3057 249.64 123.694 249.64 123.694C249.64 123.694 244.106 63.7993 226.299 69.344C208.881 74.7788 225.11 135.973 225.826 138.554C225.714 138.066 224.965 136.026 221.467 130.778C217.405 124.713 185.04 85.465 177.478 105.091C169.918 124.766 208.52 150.959 208.52 150.959C208.52 150.959 192.443 150.362 176.815 156.529C161.186 162.646 153.692 174.756 158.788 185.8C163.885 196.893 205.814 178.542 205.814 178.542C205.814 178.542 202.299 184.148 202.323 197.996C202.299 211.895 207.531 242.185 232.2 268.847M320.845 144.782C337.081 163.741 344.741 176.77 346.986 197.525C349.18 218.233 341.936 227.192 341.936 227.192C341.936 227.192 333.986 198.014 327.542 179.694C321.098 161.373 313.308 150.558 307.425 144.35C301.59 138.142 293.529 131.361 293.529 131.361C293.529 131.361 304.608 125.822 320.845 144.782ZM279.13 132.678C285.773 133.117 303.233 140.499 311.949 157.621C320.665 174.744 329.159 195.9 331.419 208.994C333.73 222.135 338.419 232.749 336.546 240.663C334.674 248.626 324.094 252.824 324.094 252.824C324.094 252.824 314.905 215.089 307.539 197.14C300.173 179.191 291.394 156.717 284.553 151.324C277.713 145.981 266.373 141.214 266.373 141.214C266.373 141.214 272.339 132.195 279.031 132.632M314.577 240.096C314.577 240.096 288.301 210.634 279.63 191.742C271.007 172.849 258.878 153.275 259.628 148.833C260.33 144.392 265.694 144.77 272.605 149.228C279.467 153.687 286.573 161.331 292.125 172.852C297.629 184.424 306.329 209.159 308.455 217.788C310.58 226.416 314.626 240.094 314.626 240.094M280.556 82.1015C286.563 79.3671 293.291 79.3612 287.531 91.9592C281.771 104.557 272.033 123.659 265.954 127.28C259.924 130.899 252.24 131.768 252.24 131.768C252.24 131.768 274.55 84.8849 280.557 82.1505M253.227 151.53C257.325 157.152 270.986 188.466 283.236 207.153C295.388 225.842 308.113 237.442 311.567 246.178C315.022 254.914 316.969 265.757 313.298 267.783C309.577 269.81 307.326 270.074 304.356 267.659C301.335 265.196 274.54 229.906 260.691 202.134C246.842 174.361 241.633 157.919 242.885 152.184C244.136 146.45 249.128 145.858 253.227 151.53ZM225.227 79.4437C229.243 72.5458 234.299 77.3538 237.288 86.9386C240.228 96.5248 244.692 124.088 242.461 131.571C240.182 139.055 232.33 142.533 232.33 142.533C232.33 142.533 221.21 86.2926 225.275 79.3932M224.71 163.486C225.939 158.636 230.776 159.424 234.238 161.874C237.7 164.323 237.244 163.846 246.681 183.697C256.117 203.548 266.118 222.548 278.355 240.792C290.591 259.037 293.782 265.522 294.489 267.808C295.246 270.094 292.168 269.008 292.168 269.008C292.168 269.008 269.872 260.839 258.548 248.46C247.274 236.079 233.253 217.299 227.85 197.67C222.398 178.043 223.479 168.287 224.659 163.438M246.286 244.065C265.492 265.439 276.184 266.591 281.669 270.993C287.204 275.394 291.279 281.901 291.136 283.674C291.136 283.674 280.056 289.212 263.532 281.901C246.957 274.542 223.801 252.451 214.045 223.623C204.289 194.794 210.62 179.969 213.129 175.228C215.688 170.485 217.365 172.35 218.127 181.364C218.889 190.377 227.08 222.69 246.286 244.065ZM189.051 125.762C181.776 114.096 179.064 107.204 183.193 105.705C187.321 104.156 197.705 109.786 209.757 123.518C221.909 137.297 220.542 150.646 220.542 150.646C220.542 150.646 196.327 137.428 189.051 125.762ZM163.625 180.056C161.799 173.236 168.651 164.288 182.306 161.127C195.913 157.968 219.138 159.479 219.138 159.479C219.138 159.479 214.394 169.935 205.694 172.947C196.994 175.959 165.401 186.878 163.625 180.056Z" fill="#102F5C"/>
</g>
</g>
<defs>
<clipPath id="clip0_285_27989">
<rect width="373" height="878" fill="white"/>
</clipPath>
</defs>
</svg>
