<svg width="468" height="296" viewBox="0 0 468 296" fill="none" xmlns="http://www.w3.org/2000/svg">
<g opacity="0.1">
<path d="M467.786 72.9429C438.425 72.9429 422.977 59.1667 410.572 48.1282C399.584 38.3259 391.638 31.2613 374.24 31.2613C356.843 31.2613 348.897 38.3259 337.909 48.1282C325.474 59.1667 310.144 72.9429 280.606 72.9429C251.069 72.9429 235.857 59.1667 223.451 48.1282C212.463 38.3259 204.518 31.2613 187.12 31.2613C169.723 31.2613 161.777 38.3259 150.789 48.1282C138.383 59.1667 122.935 72.9429 93.5453 72.9429C64.1555 72.9429 48.7369 59.1667 36.3312 48.1282C25.3432 38.3259 17.3976 31.2613 0 31.2613V0C29.3603 0 44.8084 13.835 57.2142 24.8147C68.2021 34.617 76.1477 41.6817 93.5453 41.6817C110.943 41.6817 118.889 34.617 129.876 24.8147C142.282 13.835 157.73 0 187.12 0C216.51 0 231.929 13.835 244.334 24.8147C255.322 34.617 263.268 41.6817 280.665 41.6817C298.063 41.6817 306.009 34.617 316.997 24.8147C329.402 13.835 344.851 0 374.24 0C403.63 0 419.049 13.835 431.455 24.8147C442.443 34.617 450.388 41.6817 467.786 41.6817V72.9429Z" fill="#102F5C"/>
<path d="M467.786 184.472C438.425 184.472 422.977 170.698 410.572 159.607C399.584 149.815 391.638 142.736 374.24 142.736C356.843 142.736 348.897 149.815 337.909 159.607C325.474 170.816 310.144 184.472 280.606 184.472C251.069 184.472 235.798 170.698 223.392 159.607C212.404 149.815 204.459 142.736 187.061 142.736C169.664 142.736 161.718 149.815 150.73 159.607C138.383 170.816 122.935 184.472 93.5453 184.472C64.1555 184.472 48.7369 170.816 36.3312 159.725C25.3432 149.933 17.3976 142.854 0 142.854V111.529C29.3603 111.529 44.8084 125.304 57.2142 136.394C68.2021 146.187 76.1477 153.295 93.5453 153.295C110.943 153.295 118.889 146.128 129.965 136.394C142.371 125.304 157.819 111.529 187.209 111.529C216.599 111.529 232.017 125.304 244.423 136.394C255.322 146.128 263.268 153.295 280.606 153.295C297.945 153.295 305.95 146.187 316.938 136.394C329.343 125.304 344.791 111.529 374.181 111.529C403.571 111.529 418.99 125.304 431.395 136.394C442.383 146.187 450.329 153.295 467.727 153.295L467.786 184.472Z" fill="#102F5C"/>
<path d="M467.786 295.999C438.425 295.999 422.977 282.213 410.572 271.165C399.584 261.355 391.638 254.284 374.24 254.284C356.843 254.284 348.897 261.355 337.909 271.165C325.474 282.242 310.144 295.999 280.606 295.999C251.069 295.999 235.798 282.213 223.392 271.165C212.404 261.355 204.459 254.284 187.061 254.284C169.664 254.284 161.718 261.355 150.73 271.165C138.324 282.213 122.876 295.999 93.4863 295.999C64.0964 295.999 48.7369 282.242 36.3312 271.195C25.3432 261.384 17.3976 254.314 0 254.314V223.057C29.3603 223.057 44.8084 236.815 57.2142 247.862C68.2021 257.672 76.1477 264.743 93.5453 264.743C110.943 264.743 118.889 257.702 129.965 247.862C142.371 236.815 157.819 223.057 187.209 223.057C216.599 223.057 232.017 236.815 244.423 247.862C255.322 257.702 263.268 264.743 280.606 264.743C297.945 264.743 305.95 257.672 316.938 247.862C329.343 236.815 344.791 223.057 374.181 223.057C403.571 223.057 418.99 236.815 431.396 247.862C442.383 257.672 450.329 264.743 467.727 264.743L467.786 295.999Z" fill="#102F5C"/>
</g>
</svg>
