<svg width="50" height="50" viewBox="0 0 50 50" fill="none" xmlns="http://www.w3.org/2000/svg">
<circle opacity="0.3" cx="25" cy="25" r="24" stroke="#F2E9E1" stroke-width="2"/>
<path d="M37.1875 18.5C37.1875 18.175 37.025 17.9312 36.7812 17.7687L31.0938 14.5187C30.9312 14.4375 30.85 14.4375 30.6875 14.4375C30.525 14.4375 30.4438 14.4375 30.2812 14.5187L25 17.525L19.7188 14.5187C19.5563 14.4375 19.475 14.4375 19.3125 14.4375C19.15 14.4375 19.0687 14.4375 18.9062 14.5187L13.2188 17.7687C12.975 17.9312 12.8125 18.175 12.8125 18.5V34.75C12.8125 35.2375 13.1375 35.5625 13.625 35.5625C13.7875 35.5625 13.8687 35.4812 14.0312 35.4812L19.3125 32.475L24.5938 35.4812C24.7563 35.5625 24.8375 35.5625 25 35.5625C25.1625 35.5625 25.2437 35.5625 25.4062 35.4812L30.6875 32.475L35.9688 35.4812C36.05 35.5625 36.2125 35.5625 36.375 35.5625C36.8625 35.5625 37.1875 35.2375 37.1875 34.75V18.5ZM14.4375 18.9875L18.5 16.6312V31.0125L14.4375 33.3687V18.9875ZM24.1875 33.3687L20.125 31.0125V16.6312L24.1875 18.9875V33.3687ZM29.875 31.0125L25.8125 33.3687V18.9875L29.875 16.6312V31.0125ZM31.5 31.0125V16.6312L35.5625 18.9875V33.3687L31.5 31.0125Z" fill="#F2E9E1"/>
</svg>
