<svg width="26" height="22" viewBox="0 0 26 22" fill="none" xmlns="http://www.w3.org/2000/svg">
<path d="M25.1875 4.5C25.1875 4.175 25.025 3.93125 24.7812 3.76875L19.0938 0.51875C18.9312 0.4375 18.85 0.4375 18.6875 0.4375C18.525 0.4375 18.4438 0.4375 18.2812 0.51875L13 3.525L7.71875 0.51875C7.55625 0.4375 7.475 0.4375 7.3125 0.4375C7.15 0.4375 7.06875 0.4375 6.90625 0.51875L1.21875 3.76875C0.975 3.93125 0.8125 4.175 0.8125 4.5V20.75C0.8125 21.2375 1.1375 21.5625 1.625 21.5625C1.7875 21.5625 1.86875 21.4812 2.03125 21.4812L7.3125 18.475L12.5938 21.4812C12.7563 21.5625 12.8375 21.5625 13 21.5625C13.1625 21.5625 13.2437 21.5625 13.4062 21.4812L18.6875 18.475L23.9688 21.4812C24.05 21.5625 24.2125 21.5625 24.375 21.5625C24.8625 21.5625 25.1875 21.2375 25.1875 20.75V4.5ZM2.4375 4.9875L6.5 2.63125V17.0125L2.4375 19.3687V4.9875ZM12.1875 19.3687L8.125 17.0125V2.63125L12.1875 4.9875V19.3687ZM17.875 17.0125L13.8125 19.3687V4.9875L17.875 2.63125V17.0125ZM19.5 17.0125V2.63125L23.5625 4.9875V19.3687L19.5 17.0125Z" fill="#F2E9E1"/>
</svg>
