<svg width="89" height="89" viewBox="0 0 89 89" fill="none" xmlns="http://www.w3.org/2000/svg">
<g filter="url(#filter0_b_285_27790)">
<path d="M42.4951 0.418976C41.5105 1.02357 0.449847 40.5295 0.208009 41.0823C-0.0856509 41.8078 -0.0683768 43.0688 0.259832 43.7598C0.950798 45.1936 1.67631 45.4354 5.33843 45.4527H8.13684V65.7843C8.13684 85.2523 8.15411 86.1678 8.46505 86.8415C8.63779 87.2388 9.05237 87.7398 9.36331 87.9643L9.95063 88.3789L43.8598 88.4307C81.8801 88.4653 78.529 88.5862 79.4445 87.2043L79.9109 86.496L79.9627 65.9744L79.9973 45.4527H82.8993C86.2678 45.4527 86.9242 45.2627 87.6843 44.1053C88.2025 43.3107 88.3234 42.0324 87.9434 41.1514C87.7188 40.5814 46.8827 1.26541 45.6735 0.436256C44.8271 -0.133797 43.3934 -0.15107 42.4951 0.418976ZM56.8845 37.7139C58.2146 38.4739 58.7155 39.994 58.0246 41.3069C57.8 41.7387 52.3759 48.9248 45.9672 57.2682C35.9137 70.362 34.2035 72.4867 33.6162 72.7631C32.7007 73.1949 32.027 73.1777 31.1114 72.694C29.7986 72.0376 29.1595 70.3102 29.7986 69.101C30.0232 68.6691 52.5141 39.2685 53.2914 38.3876C54.2761 37.282 55.6407 37.0229 56.8845 37.7139ZM31.0251 37.7657C32.6316 38.1975 34.0308 39.0267 35.3436 40.3568C36.7601 41.7733 37.382 42.8616 37.8484 44.6926C38.6948 47.992 37.7965 51.205 35.3436 53.6579C31.5778 57.4237 25.7392 57.4582 21.9562 53.7443C18.9159 50.7386 18.2595 46.2818 20.2806 42.4297C21.4034 40.3223 23.7872 38.4394 26.2056 37.7657C27.363 37.4547 29.7986 37.4547 31.0251 37.7657ZM62.3431 54.5389C64.0014 55.0916 65.1588 55.8517 66.4198 57.2164C68.6309 59.6002 69.4082 62.7268 68.5963 65.9053C67.3699 70.7247 62.4986 73.8514 57.6791 72.9358C55.2952 72.4694 52.7041 70.7075 51.3913 68.6518C48.6274 64.3506 49.8366 58.5119 54.0861 55.6617C56.6254 53.9861 59.4583 53.5888 62.3431 54.5389Z" fill="url(#paint0_linear_285_27790)"/>
</g>
<path opacity="0.2" d="M27.0499 43.534C25.668 44.1731 24.8906 45.4514 24.8906 47.0406C24.9079 49.649 27.2226 51.3246 29.8138 50.6164C30.8675 50.3227 32.0594 49.0099 32.3012 47.8871C32.6813 46.1078 31.9212 44.415 30.3665 43.6376C29.2955 43.1194 28.0518 43.0676 27.0499 43.534Z" fill="white"/>
<path opacity="0.2" d="M57.8009 60.1184C55.1752 61.3449 54.847 65.0243 57.2481 66.648C58.7855 67.6845 60.6166 67.5636 61.9812 66.3025C64.4687 64.0051 62.8449 59.7729 59.4592 59.7902C58.8891 59.7902 58.2154 59.9284 57.8009 60.1184Z" fill="white"/>
<defs>
<filter id="filter0_b_285_27790" x="-30" y="-30" width="148.164" height="148.449" filterUnits="userSpaceOnUse" color-interpolation-filters="sRGB">
<feFlood flood-opacity="0" result="BackgroundImageFix"/>
<feGaussianBlur in="BackgroundImageFix" stdDeviation="15"/>
<feComposite in2="SourceAlpha" operator="in" result="effect1_backgroundBlur_285_27790"/>
<feBlend mode="normal" in="SourceGraphic" in2="effect1_backgroundBlur_285_27790" result="shape"/>
</filter>
<linearGradient id="paint0_linear_285_27790" x1="21.4334" y1="82.6543" x2="69.841" y2="6.85078" gradientUnits="userSpaceOnUse">
<stop stop-color="white" stop-opacity="0"/>
<stop offset="1" stop-color="white" stop-opacity="0.4"/>
</linearGradient>
</defs>
</svg>
