<svg width="32" height="20" viewBox="0 0 32 20" fill="none" xmlns="http://www.w3.org/2000/svg">
<path fill-rule="evenodd" clip-rule="evenodd" d="M27.5351 12.4315C28.5961 13.4854 29.7159 14.4769 30.6675 15.6371C31.0878 16.1526 31.4858 16.6847 31.7903 17.283C32.2216 18.1335 31.8309 19.0695 31.0813 19.1202L26.4217 19.1181C25.2199 19.2196 24.2612 18.7273 23.4551 17.8913C22.8099 17.2228 22.2125 16.5112 21.5922 15.8201C21.3379 15.5377 21.0717 15.2719 20.7537 15.0618C20.1176 14.6417 19.5655 14.7703 19.202 15.4453C18.8317 16.1318 18.7478 16.892 18.7114 17.6571C18.6615 18.7734 18.3298 19.0669 17.2277 19.118C14.8722 19.231 12.6368 18.8684 10.5601 17.6595C8.7293 16.5938 7.30956 15.0893 6.07383 13.386C3.66783 10.0693 1.82532 6.4248 0.169346 2.67822C-0.203402 1.83411 0.0691967 1.38099 0.984619 1.36495C2.50472 1.33491 4.02461 1.33705 5.54649 1.36282C6.16431 1.37201 6.57331 1.73253 6.81186 2.32635C7.63428 4.38376 8.6406 6.34119 9.90376 8.15557C10.2402 8.63863 10.5832 9.12168 11.0716 9.46167C11.612 9.83813 12.0234 9.71336 12.2776 9.10094C12.4389 8.71261 12.5095 8.29435 12.5459 7.87845C12.6663 6.44758 12.6822 5.01916 12.471 3.59332C12.3413 2.70345 11.8486 2.12738 10.9759 1.95898C10.5305 1.87313 10.5968 1.70452 10.8125 1.44589C11.187 0.999832 11.5393 0.722168 12.2414 0.722168H17.5075C18.3366 0.888638 18.5207 1.26755 18.6342 2.11626L18.6387 8.06758C18.6297 8.39614 18.8 9.37111 19.3817 9.58858C19.8472 9.7434 20.1541 9.36449 20.4334 9.06416C21.6942 7.70267 22.5941 6.09368 23.398 4.42759C23.7548 3.695 24.0616 2.93417 24.3588 2.17399C24.5791 1.6099 24.9247 1.33234 25.5493 1.34464L30.6176 1.34924C30.7679 1.34924 30.9199 1.35148 31.0655 1.37682C31.9195 1.5249 32.1535 1.89868 31.8898 2.74718C31.4742 4.0784 30.6655 5.18777 29.8748 6.30228C29.0296 7.49216 28.1256 8.6413 27.2874 9.83824C26.5174 10.9312 26.5785 11.4822 27.5351 12.4315Z" fill="white"/>
</svg>
