<svg width="23" height="23" viewBox="0 0 23 23" fill="none" xmlns="http://www.w3.org/2000/svg">
<path d="M6.29228 0.614469C3.35278 0.873292 1.89228 1.70522 1.22673 3.48001C0.820011 4.55228 0.46875 7.56573 0.46875 9.91363V11.3372L1.43009 11.2447C1.96623 11.2077 3.1864 11.1153 4.12925 11.0598C6.699 10.8935 8.08556 10.4128 9.26875 9.2296C10.4519 8.0464 10.9326 6.65985 11.099 4.0901C11.1545 3.14724 11.2469 1.92707 11.2839 1.39094L11.3763 0.429595L9.58304 0.448082C8.58472 0.46657 7.10573 0.540519 6.29228 0.614469Z" fill="white"/>
<path d="M11.6549 1.39094C11.6919 1.92707 11.7843 3.14724 11.8398 4.0901C12.0062 6.65985 12.4869 8.0464 13.6701 9.2296C14.8533 10.4128 16.2398 10.8935 18.8096 11.0598C19.7524 11.1153 20.9726 11.2077 21.5087 11.2447L22.4701 11.3372V10.0061C22.4701 7.63968 22.1188 4.5338 21.7306 3.53548C21.2684 2.29682 20.6028 1.63128 19.3457 1.1506C18.2734 0.762368 15.6112 0.448082 13.0785 0.429595H11.5625L11.6549 1.39094Z" fill="white"/>
<path d="M0.46875 13.0381C0.487237 15.2566 0.783036 18.1221 1.1343 19.1574C1.92925 21.5793 4.14774 22.3927 9.86035 22.4297H11.3763L11.2839 21.4499C11.2469 20.9322 11.1545 19.712 11.099 18.7692C10.9326 16.1994 10.4519 14.8129 9.26875 13.6297C8.08556 12.4465 6.699 11.9658 4.12925 11.7994C3.1864 11.744 1.96623 11.6515 1.44858 11.6146L0.46875 11.5221V13.0381Z" fill="white"/>
<path d="M19.5491 11.7255C16.3138 11.9288 14.9457 12.3725 13.6886 13.6297C12.4869 14.8129 12.0062 16.1994 11.8398 18.7692C11.7843 19.712 11.6919 20.9322 11.6549 21.4499L11.5625 22.4297H13.0785C15.5928 22.4112 18.2734 22.0969 19.3272 21.7087C20.6028 21.228 21.2684 20.5625 21.7306 19.3423C22.1188 18.307 22.4701 15.2381 22.4701 12.8532C22.4701 11.707 22.4331 11.5221 22.1558 11.5406C21.9709 11.5591 20.7877 11.633 19.5491 11.7255Z" fill="white"/>
</svg>
