<svg width="132" height="156" viewBox="0 0 132 156" fill="none" xmlns="http://www.w3.org/2000/svg">
<path opacity="0.9" d="M74.3272 0.217049C73.6535 0.168816 73.0038 0.144699 72.3302 0.0964661C71.8249 0.0964661 71.3437 0.0964661 70.8384 0.0723496C69.8279 0.168816 68.8414 0.0723496 67.8549 0.192932C67.3256 0.192932 66.7963 0.192932 66.291 0.192932C65.5932 0.265282 64.9195 0.337632 64.2218 0.409981C63.7887 0.409981 63.3556 0.434098 62.9225 0.458214C61.118 0.723496 59.2413 1.01289 57.5571 1.35053C57.2443 1.35053 56.9315 1.37464 56.6187 1.37464C55.9691 1.47111 55.2713 1.56757 54.5736 1.68816C53.7796 1.80874 52.8653 2.12226 52.1194 2.31519C51.8547 2.3393 51.566 2.38754 51.3013 2.41165C51.1089 2.484 50.8923 2.55635 50.6758 2.6287C50.3389 2.67694 50.0021 2.72517 49.6652 2.7734C48.6306 3.0628 47.4757 3.40043 46.4652 3.71395C46.2005 3.76218 45.9118 3.81041 45.6471 3.85865C42.5915 4.87154 39.5358 5.90855 36.7448 7.21084C36.5764 7.25908 36.3839 7.30731 36.2395 7.35554C35.8546 7.52436 35.4455 7.78964 35.0846 7.95846C34.9162 8.03081 34.7237 8.07904 34.5553 8.15139C32.7989 9.06782 31.0425 9.98425 29.3823 11.0213C28.1552 11.793 26.9763 12.6612 25.7732 13.457C25.0996 13.9635 24.4259 14.4699 23.7762 15.0005C23.3913 15.2417 23.0063 15.4828 22.6213 15.7481C22.2845 15.9893 22.0439 16.3751 21.7792 16.6886C21.3461 17.0745 20.889 17.4845 20.4318 17.8704C20.0228 18.3286 19.5175 18.7144 19.1085 19.1726C18.8198 19.4862 18.5551 19.7997 18.2664 20.1132C12.4678 25.9253 8.2332 33.6185 5.03316 42.3969C4.96098 42.7104 4.8888 43.0239 4.79256 43.3374C4.23917 44.8809 3.70984 46.6896 3.22863 48.3054C3.13239 48.7154 3.0602 49.1254 2.98802 49.5595C2.65118 50.7894 2.31433 52.357 1.97749 53.6352C1.95343 53.9728 1.9053 54.3104 1.88124 54.6722C1.80906 54.9857 1.73688 55.2992 1.64064 55.6127C1.59252 56.071 1.5444 56.5533 1.49628 57.0115C-0.0435893 63.6435 -0.476677 72.8078 0.581982 79.0781C0.606042 79.464 0.630102 79.8499 0.654163 80.2357C0.750405 80.501 0.822586 80.7663 0.894767 81.0316C0.918827 81.2968 0.942888 81.5621 0.966948 81.8274C1.03913 82.0445 1.13537 82.2615 1.20755 82.4786C1.25567 82.7438 1.27973 83.0091 1.32785 83.2744C1.4241 83.5156 1.49628 83.7567 1.59252 83.9979C1.64064 84.2391 1.6647 84.4802 1.71282 84.7214C2.16997 86.1201 2.67524 87.543 3.25269 88.8694C4.43165 91.5464 6.13994 93.8374 7.99259 95.9356C8.69034 96.7073 9.33997 97.5273 10.1099 98.2508C10.9761 99.1672 11.8423 100.084 12.7084 101C13.719 101.916 14.5851 103.002 15.5716 103.894C15.9325 104.256 16.2934 104.618 16.6543 104.955C17.328 105.872 17.5446 107.367 17.9536 108.5C18.6754 110.526 19.686 112.48 20.7446 114.24C21.3221 115.181 22.3807 116.652 23.2469 117.279C23.6559 117.592 24.8108 117.279 24.9792 117.809C24.9792 117.978 25.0274 118.171 25.0514 118.364C25.1236 118.557 25.1958 118.75 25.268 118.943C25.292 119.232 25.3402 119.522 25.3883 119.811C25.4605 120.076 25.5567 120.342 25.6289 120.607C25.6529 120.944 25.7011 121.282 25.7251 121.62C26.086 123.404 26.3026 125.454 26.5672 127.359C26.5672 127.866 26.5913 128.396 26.6154 128.927C26.8078 130.47 26.856 132.352 27.0003 133.919C27.0003 134.498 27.0003 135.077 27.0003 135.656C27.0484 136.668 27.0966 137.657 27.1447 138.646C27.1447 139.032 27.1447 139.442 27.1447 139.828C27.1447 140.214 27.1206 140.624 27.0966 141.009C27.0966 142.408 27.0966 143.807 27.1206 145.206C27.0966 145.857 27.0725 146.508 27.0244 147.159C27.0244 147.521 26.9763 147.883 26.9522 148.268C26.9041 149.088 26.8319 150.005 26.9522 150.752C27.1687 152.417 27.6259 153.815 28.4199 154.949C29.0936 155.938 30.6575 156.492 31.644 155.407C32.2936 154.708 32.3899 153.454 32.7508 152.441C32.8951 152.151 33.0154 151.862 33.1598 151.572C33.232 151.283 33.3042 150.994 33.4004 150.728C33.8094 149.74 34.2666 148.606 34.7237 147.641C35.0365 146.99 35.2049 146.387 35.5658 145.76C36.6004 143.759 37.6832 141.733 38.9343 139.972C39.4155 139.297 39.7283 138.622 40.2336 137.971C41.3885 136.524 42.5434 135.149 43.6983 133.726C44.6847 132.496 45.9359 131.435 46.9705 130.205C49.1119 127.649 51.3976 125.237 53.5871 122.777C53.8518 122.536 54.1164 122.295 54.3811 122.054C55.0067 121.427 55.5841 120.752 56.3059 120.221C56.8593 119.835 57.3165 119.256 57.918 118.919C58.1104 118.846 58.3029 118.774 58.4714 118.702C58.8804 118.364 59.3135 118.026 59.7466 117.689C59.915 117.64 60.0834 117.592 60.2759 117.544C60.4443 117.448 60.6127 117.351 60.7812 117.255C61.0218 117.206 61.2864 117.182 61.527 117.134C61.6954 117.062 61.8639 116.989 62.0323 116.893C62.297 116.845 62.5616 116.796 62.8263 116.748C63.3316 116.579 63.9571 116.29 64.4383 116.121C64.6308 116.073 64.8233 116.025 65.0158 116.001C65.1842 115.904 65.3526 115.808 65.5211 115.711C66.5075 115.374 67.3978 114.915 68.3361 114.554C68.5767 114.529 68.8414 114.481 69.1061 114.457C69.3948 114.361 69.7076 114.288 70.0204 114.192C70.3572 114.168 70.67 114.144 71.0068 114.119C72.9076 113.782 75.049 113.565 77.046 113.324C77.455 113.324 77.8881 113.324 78.3212 113.299C79.019 113.227 79.7167 113.179 80.4385 113.107C80.8716 113.082 81.3047 113.058 81.7378 113.034C86.8867 111.853 91.7469 110.309 96.3425 108.5C98.2673 107.753 100.144 106.788 101.924 105.872C103.344 105.124 104.74 104.473 106.063 103.629C106.977 103.05 107.843 102.375 108.734 101.772C109.864 101 110.995 100.204 111.958 99.2395C112.27 98.9984 112.583 98.7331 112.872 98.4678C113.69 97.6479 114.508 96.8279 115.302 96.0079C116.264 94.9468 117.083 93.7892 118.045 92.7281C120.643 89.8823 123.17 86.8919 125.359 83.5879C126.105 82.4786 126.731 81.2727 127.404 80.1634C127.477 79.9704 127.549 79.8016 127.597 79.6087C127.717 79.4399 127.838 79.271 127.958 79.0781C128.03 78.9093 128.078 78.7405 128.126 78.5717C128.247 78.3787 128.367 78.1858 128.487 77.9688C128.559 77.7276 128.656 77.4864 128.728 77.2453C129.257 76.1118 129.786 74.7854 130.195 73.5313C130.268 73.2419 130.316 72.9284 130.388 72.6149C130.556 72.0843 130.725 71.5779 130.869 70.975C131.014 70.3479 130.989 69.6486 131.23 69.1421V69.0939C131.23 69.0939 131.374 69.0939 131.447 69.0939C131.639 66.4169 131.808 63.74 132 61.0631C131.928 61.0631 131.856 61.0631 131.759 61.0631C131.543 59.4714 131.615 57.8797 131.326 56.3121C131.158 55.4198 130.917 54.3828 130.749 53.5146C130.701 53.2493 130.677 52.984 130.653 52.7188C130.556 52.5017 130.484 52.2605 130.388 52.0194C130.34 51.7541 130.292 51.4647 130.268 51.1753C130.171 50.9824 130.099 50.7894 130.027 50.5965C129.979 50.3312 129.931 50.09 129.883 49.8248C129.786 49.6559 129.714 49.463 129.642 49.2942C129.594 49.1013 129.57 48.9325 129.546 48.7395C129.377 48.209 129.065 47.606 128.896 47.0755C126.995 41.5287 124.397 36.633 121.534 31.9544C120.234 29.8322 118.743 27.8064 117.371 25.7323C117.155 25.4912 116.938 25.2259 116.746 24.9606C115.952 23.8754 115.134 22.8142 114.34 21.729C114.003 21.2949 113.642 20.8849 113.281 20.4508C112.896 19.9203 112.415 19.462 112.03 18.9074C111.164 17.6533 110.081 16.5198 109.094 15.3864C107.651 13.7464 106.279 11.9618 104.643 10.4907C102.959 8.99547 101.082 7.66906 99.0854 6.43912C98.8688 6.36677 98.6763 6.2703 98.4838 6.19795C98.3395 6.10148 98.1951 5.9809 98.0748 5.88444C97.4974 5.59504 97.0883 5.45034 96.4868 5.18506C96.3184 5.06447 96.15 4.96801 95.9816 4.84742C95.741 4.77507 95.5244 4.70272 95.2838 4.63037C95.1154 4.50979 94.9229 4.41333 94.7545 4.31686C94.5139 4.24451 94.2733 4.17216 94.0327 4.09981C93.768 3.97923 93.5515 3.85865 93.2868 3.71395C93.0221 3.6416 92.7575 3.56925 92.5169 3.52101C92.3003 3.42455 92.0838 3.30397 91.8672 3.18338C91.5304 3.08692 91.1935 3.01457 90.8567 2.9181C89.9424 2.58047 88.7875 2.1946 87.801 1.92932C87.4401 1.88109 87.0792 1.80874 86.7183 1.73639C84.9619 1.25406 82.8686 0.988778 80.9919 0.55468C79.9333 0.458214 78.8746 0.337632 77.8159 0.241165C77.2866 0.192932 76.7813 0.168816 76.252 0.120583C75.6264 0.0723496 74.9768 0.0482331 74.3512 0M23.68 43.0721C23.68 42.3969 23.704 41.7216 23.7281 41.0222C23.68 40.2987 23.7522 39.5029 23.8243 38.707C23.8725 38.1524 23.9206 37.6218 23.9687 37.0912C24.065 36.2472 24.1612 35.4031 24.2334 34.559C24.3056 33.8837 24.3777 33.1844 24.4499 32.5091C24.6905 31.448 24.7627 30.3868 25.0033 29.3981C25.0996 28.7469 25.1958 28.0958 25.292 27.4687C25.4364 26.8658 25.5808 26.2629 25.7251 25.66C25.8214 25.0088 25.9417 24.3577 26.062 23.6824C26.4469 22.3319 26.7838 20.7402 27.1447 19.4138C27.1928 19.0762 27.265 18.7386 27.3372 18.4009C27.4575 17.8945 27.1928 17.3157 27.4815 16.9539C27.6018 16.8816 27.7462 16.7851 27.8906 16.7128C28.2996 16.4234 28.7327 16.134 29.1417 15.8446C30.1763 15.1452 31.1868 14.3976 32.3417 13.8188C32.9432 13.5294 33.5207 13.0953 34.0981 12.7576C35.3974 12.01 36.817 11.4312 38.1644 10.7319C38.3568 10.6836 38.5734 10.6113 38.7659 10.5389C39.3433 10.2495 39.9208 10.0084 40.5945 9.79132C40.7629 9.69485 40.9554 9.59838 41.1238 9.50192C41.2922 9.45368 41.4847 9.40545 41.6531 9.38133C41.7975 9.28487 41.9418 9.21252 42.0862 9.11605C42.2787 9.06782 42.4952 9.0437 42.6877 8.99547C42.8321 8.92312 42.9524 8.85077 43.0967 8.7543C43.3373 8.70607 43.5539 8.65784 43.7704 8.58549C45.0456 8.12727 46.4652 7.66906 47.7645 7.25908C48.0291 7.21084 48.3179 7.16261 48.6066 7.11438C48.775 7.04203 48.9434 6.96968 49.1118 6.89733C49.3765 6.8491 49.6171 6.82498 49.8818 6.77675C50.0983 6.68028 50.3149 6.60793 50.5314 6.51147C50.7961 6.46323 51.0848 6.43912 51.3495 6.39088C51.5901 6.29442 51.8307 6.22207 52.0713 6.14972C52.3359 6.10148 52.5765 6.07737 52.8412 6.05325C53.1059 5.9809 53.3946 5.88443 53.6593 5.78797C54.0202 5.71562 54.4292 5.73974 54.7179 5.59504C54.8623 5.59504 54.9104 5.61915 54.9826 5.66739C55.151 6.17383 54.8382 6.68028 54.6939 7.1385C54.5254 7.71729 54.4292 8.32021 54.2367 8.82665C53.8518 9.69485 53.7074 10.5872 53.2984 11.4071C52.6487 12.7094 51.9269 13.9635 51.2292 15.2417C51.1089 15.3864 50.9886 15.531 50.8683 15.6757C49.3765 18.3768 47.4998 20.7161 45.8156 23.1519C44.8532 24.5265 43.8667 25.877 42.808 27.1552C42.5193 27.4929 42.3268 27.8787 42.0381 28.2405C40.1133 30.6521 38.1644 32.9432 36.6967 35.8854C36.6245 36.1507 36.5283 36.3919 36.4561 36.6571C36.3117 36.9706 36.1914 37.2842 36.047 37.5977C35.8546 38.2247 35.7583 38.8759 35.5899 39.4547C35.1568 41.0463 35.253 43.1686 35.4455 44.5674C35.4696 45.0738 35.5177 45.6044 35.5418 46.1108C36.1433 49.0048 36.9613 51.6817 38.1884 54.0452C38.814 55.2751 39.5117 56.5051 40.2817 57.6385C40.402 57.8073 41.0516 58.5791 40.9794 58.8202C40.8832 59.0614 40.5223 59.0132 40.2576 59.0614C40.0411 59.1338 39.8005 59.2302 39.5839 59.3267C39.3193 59.3749 39.0546 59.4231 38.7899 59.4714C37.7072 59.8331 36.6004 60.1949 35.5177 60.5807C34.9162 60.7978 34.3388 61.1113 33.7132 61.3525C33.3763 61.4731 32.462 62.1966 32.053 62.0519C31.5959 61.9072 30.8741 61.0148 30.5372 60.7013C29.2139 59.5196 28.1552 58.0485 27.265 56.505C25.7011 53.7558 24.5702 50.8618 23.9206 47.2925C23.8965 46.8584 23.8484 46.4485 23.8484 46.0144C23.7762 45.4838 23.7281 44.9773 23.6559 44.4468V43.1204L23.68 43.0721ZM57.533 90.1717C56.9315 92.4869 55.6322 94.6092 54.2848 96.1044C53.6593 96.8279 52.9856 97.5032 52.3359 98.2025C51.8788 98.6125 51.4216 99.0225 50.9645 99.4325C50.6758 99.7219 49.7134 99.8666 49.4968 99.336C49.4246 99.0948 49.6893 98.9019 49.7855 98.8055C50.0983 98.4196 50.4833 98.0096 50.7239 97.5273C50.8442 97.2861 51.0126 97.1173 51.1329 96.9002C51.566 96.0562 51.9269 95.0674 52.2156 94.1027C52.3841 93.548 52.3119 92.9451 52.4562 92.3422C52.4803 91.9564 52.5284 91.5705 52.5525 91.1846C52.4803 90.5335 52.6006 89.8341 52.5044 89.2312C52.2156 87.5671 51.7344 86.0237 51.181 84.6008C51.157 84.4561 51.1089 84.2873 51.0848 84.1426C50.9886 83.9738 50.8923 83.7808 50.7961 83.612C50.6036 83.1538 50.4833 82.7197 50.2427 82.2615C49.8337 81.4898 49.4487 80.6698 48.9675 79.9222C48.6788 79.464 48.2457 78.9817 48.1494 78.3546C48.0532 77.6794 48.6306 77.2453 48.8712 76.9076C49.7134 75.7018 51.0126 74.8095 52.0953 73.869C54.2127 72.0602 56.4743 70.3962 58.8082 68.8527C59.2894 68.5151 59.7466 68.1775 60.2037 67.8157C61.0458 67.261 61.8879 66.6822 62.73 66.1517C63.3797 65.7417 64.1737 65.4041 64.6549 64.8494C64.8955 64.5841 65.2083 64.2223 65.3286 63.8847C65.4489 63.4988 65.4008 62.8959 65.6173 62.6306C65.6654 62.6306 65.7376 62.6065 65.7857 62.5824C66.4594 62.6306 66.7963 62.9442 67.3256 63.113C68.8414 63.5712 70.0685 64.1982 71.3437 64.8735C71.488 64.9941 71.6324 65.1147 71.7768 65.2111C72.2099 65.4764 73.3648 65.9828 73.3407 66.5616C72.9798 66.8752 72.3783 66.9957 71.9211 67.1887C71.8008 67.261 71.6565 67.3575 71.5362 67.454C71.3437 67.5263 71.1271 67.5745 70.9346 67.6469C70.4294 67.9363 69.9001 68.1533 69.3467 68.4186C67.085 69.6003 64.703 70.6856 62.6338 72.1326C61.5511 72.9043 60.5646 74.2789 59.8669 75.5089C59.7466 75.6777 59.6263 75.8224 59.506 75.9912C59.4338 76.1841 59.3616 76.3771 59.2894 76.57C59.1691 76.7871 59.0488 77.0041 58.9285 77.2453C58.8804 77.5106 58.8082 77.7517 58.736 78.017C58.6157 78.3546 58.4473 78.644 58.327 79.0299C58.2307 79.5605 58.1104 80.091 58.0142 80.6216C57.8458 81.2486 57.8458 81.9962 57.6774 82.7438C57.6533 83.1538 57.6052 83.5638 57.5811 83.9497C57.5811 84.4561 57.5811 84.9867 57.5811 85.4931C57.7255 86.8195 57.8458 88.7006 57.4608 90.1958M57.9901 62.3654C57.6533 62.5342 57.1721 62.7271 56.8593 62.9442C56.7631 63.0165 56.8112 63.1371 56.739 63.2336C56.6187 63.33 56.4984 63.4265 56.4022 63.4988C55.8247 63.9088 55.2473 64.2706 54.6698 64.6564C53.3224 65.6452 51.951 66.6581 50.5795 67.6469C50.3389 67.8639 50.0983 68.0569 49.8337 68.2739C48.9675 68.8768 48.0773 69.5762 47.3554 70.3479C47.0908 70.565 46.8261 70.782 46.5614 70.9991C45.2862 72.1808 43.9148 73.5313 43.0727 75.1954C43.0005 75.4124 42.9524 75.6053 42.8802 75.8224C42.7118 76.2806 42.5434 76.6906 42.423 77.2212C42.2546 77.9446 42.4712 78.6199 42.5915 79.1022C42.6396 79.4399 42.6877 79.7775 42.7358 80.1151C42.8561 80.5975 43.1449 81.1763 43.3614 81.6104C43.578 82.0445 43.6983 82.4544 43.9148 82.8644C44.6607 84.3114 45.6953 85.6619 46.2246 87.3019C46.5855 88.363 46.7058 89.5929 46.8261 90.8229C47.0667 93.331 45.2141 95.6221 43.9148 96.5144C43.5539 96.7555 42.6396 97.7925 42.1103 97.5514C42.014 97.5032 41.8937 97.4067 41.8697 97.3102C41.8697 96.9967 41.8697 96.7073 41.8697 96.3938C41.7975 95.8873 41.7253 95.3809 41.6531 94.8503C41.605 94.5609 41.4606 94.3439 41.3644 94.0786C40.8591 92.6798 40.2817 91.5464 39.5839 90.3647C38.2125 88.1459 36.432 86.2166 34.9884 84.0703C34.3388 83.1056 33.4485 82.165 33.0635 80.9592C32.6545 79.7293 33.1839 77.3659 33.6169 76.3288C33.7132 75.9912 33.7854 75.6295 33.8816 75.2918C34.0019 75.0024 34.1463 74.713 34.2666 74.4236C34.3388 74.1825 34.3869 73.9172 34.4591 73.676C34.6997 73.0249 35.0846 72.3014 35.3734 71.6985C35.6861 70.9991 35.8305 70.4444 36.1673 69.7933C36.2636 69.6486 36.3598 69.4797 36.4801 69.335C36.9854 68.3463 37.3704 67.3334 37.9959 66.4893C38.0922 66.2722 38.1884 66.0793 38.3087 65.8623C38.7418 65.2594 39.1027 64.5117 39.5358 63.9329C39.7042 63.6918 39.8005 63.4024 40.0411 63.2577C40.5704 62.8959 41.2682 62.8718 41.9659 62.703C42.1824 62.6306 42.399 62.5583 42.5915 62.4618C43.0005 62.3413 43.578 62.3413 43.9629 62.2689C44.3479 62.2689 44.7329 62.2689 45.1178 62.2689C45.3584 62.1483 45.599 62.0519 45.8396 61.9554C46.4652 61.7866 47.0667 61.883 47.7163 61.7383C48.0291 61.6178 48.3419 61.4972 48.6306 61.4007C48.9915 61.4007 49.3525 61.4248 49.6893 61.4489C50.6758 61.3284 51.8066 61.256 52.8412 61.1354C53.2502 61.1354 53.6352 61.1354 54.0442 61.1354C54.2127 61.0872 54.357 60.9184 54.5976 60.8943C54.9826 60.8701 55.3916 60.846 55.7766 60.7978C56.0172 60.7978 56.2819 60.7978 56.5225 60.8219C57.4368 60.8943 59.2894 60.8219 59.6263 61.3766C59.4819 61.883 58.4232 62.1724 57.9901 62.3895M29.0936 79.6087C29.1898 80.3322 29.262 81.0798 29.3582 81.8033C29.8154 83.3226 30.6094 84.5526 31.4034 85.7825C31.7402 86.1925 32.0771 86.6266 32.4139 87.0607C33.7854 89.0383 35.3974 90.847 36.6486 92.921C37.0335 93.548 37.3222 94.2233 37.5869 94.9468C37.6832 95.1639 37.7794 95.3568 37.8756 95.5738C37.9478 95.8632 38.0681 96.3697 37.9719 96.7555C37.8275 97.262 36.817 97.9373 36.3358 98.1061C36.0711 98.1784 35.8064 98.2267 35.5418 98.299C35.3012 98.4196 35.0124 98.5161 34.7237 98.6366C34.5794 98.709 34.4591 98.8778 34.2906 98.8778C33.9297 98.9502 33.0876 97.7684 32.8229 97.5514C31.4274 96.442 29.8876 95.3809 28.2274 94.5368C28.0109 94.4645 27.7943 94.3921 27.5537 94.2957C27.4094 94.1992 27.2409 94.0786 27.0966 93.9821C26.856 93.9098 26.5913 93.8133 26.3507 93.741C25.7732 93.4757 25.0274 93.1139 24.4499 92.8728C24.2334 92.8004 24.0168 92.7281 23.8003 92.6557C23.6319 92.5593 23.4875 92.4387 23.3191 92.3422C23.1507 92.2699 22.9822 92.2216 22.8138 92.1493C22.2845 91.7634 21.8033 91.2329 21.4183 90.7023C21.1536 90.3406 21.0093 89.9065 20.8649 89.4482C20.7687 89.2794 20.6965 89.1347 20.6003 88.9659C20.5521 88.7489 20.504 88.5559 20.4799 88.363C20.3115 87.8083 20.0709 87.2054 19.9987 86.506C20.0469 86.1925 20.095 85.879 20.1672 85.5655C20.3356 84.8179 20.3356 84.1185 20.5762 83.4432C20.7446 82.9609 21.0333 82.575 21.1777 82.1409C21.4424 81.2727 21.3702 80.3804 21.6108 79.4399C21.707 78.9817 21.9236 78.6681 22.092 78.2823C22.1401 78.0411 22.2364 77.7758 22.3085 77.5347C22.5491 77.0041 22.9101 76.3771 23.1747 75.8947C23.4153 75.4365 23.5356 75.0507 23.8243 74.6407C23.9928 74.3995 24.2093 74.0619 24.4259 73.8207C24.6183 73.6278 24.8108 73.459 25.0033 73.266C25.1477 73.049 25.1717 72.7837 25.3402 72.5667C26.2785 71.1679 27.4334 70.0344 28.6605 68.9492C29.0695 68.6115 29.4545 68.298 29.8395 67.9604C30.0801 67.8157 30.3447 67.6469 30.6575 67.5987C31.0665 67.5504 31.5237 67.6469 31.8365 67.5022C32.1733 67.3575 32.6305 67.0681 32.8711 66.8028C33.0876 66.5616 33.1598 66.3928 33.4245 66.2481C33.4485 66.2481 33.4966 66.2481 33.5207 66.2722C33.4726 66.8752 33.2079 67.0922 33.0154 67.5022C32.6786 68.2016 32.3417 68.9009 32.0049 69.5762C31.9327 69.8174 31.8365 70.0585 31.7643 70.3238C31.668 70.4926 31.5477 70.6856 31.4515 70.8544C31.3793 71.0956 31.3071 71.3608 31.235 71.602C31.1147 71.8432 30.9944 72.0843 30.8741 72.3255C30.8019 72.5908 30.7297 72.8802 30.6575 73.1455C30.3688 73.9172 29.9838 74.906 29.7432 75.7259C29.6951 75.9912 29.647 76.2565 29.5748 76.5218C29.3342 77.4141 28.9492 78.4993 29.0695 79.6087M33.5929 66.0793C33.5448 65.9587 33.641 65.7899 33.6651 65.6935C33.6891 65.6935 33.7372 65.6452 33.7854 65.6211C33.8335 65.6452 33.8575 65.6935 33.9057 65.7176C33.9297 65.9346 33.8094 66.1034 33.641 66.1275C33.641 66.1034 33.6169 66.0793 33.5929 66.0552M5.92339 53.6593C6.09182 52.9599 6.164 52.2605 6.35648 51.6817C6.50084 51.0065 6.66927 50.3312 6.81363 49.656C6.93393 49.3183 7.05423 48.9807 7.17454 48.6189C7.24672 48.2572 7.3189 47.8954 7.41514 47.5578C7.53544 47.172 7.67981 46.7861 7.82417 46.4002C8.13695 45.2185 8.52192 44.1574 8.90689 43.1204C8.97907 42.8551 9.05125 42.5898 9.09937 42.3004C9.21967 42.0834 9.33997 41.8422 9.43622 41.6251C9.5084 41.3599 9.58058 41.1187 9.65276 40.8534C9.77306 40.6364 9.89336 40.3952 10.0137 40.1782C11.6017 36.1507 13.4784 32.485 15.7641 29.2534C16.0288 28.8675 16.2213 28.5057 16.4859 28.1199C17.1596 27.107 18.0258 26.1423 18.7957 25.2018C19.1326 24.8159 19.301 24.3818 19.7581 24.1407C19.8063 24.1407 19.8544 24.1407 19.9025 24.1407C20.0709 24.4542 19.9025 25.1294 19.7822 25.5394C19.5657 26.697 19.3251 27.8546 19.1085 29.0122C19.0123 29.8322 18.892 30.6521 18.7957 31.4721C18.3386 33.3773 18.2183 35.4995 18.0498 37.67C17.9777 38.7794 17.9295 39.8888 17.8574 40.974C17.8574 41.5769 17.8333 42.1798 17.8092 42.8069C17.8574 43.6027 17.9055 44.3985 17.9536 45.1944C17.9536 45.5803 17.9536 45.942 17.9536 46.3279C18.0258 46.7861 18.122 47.2443 18.1942 47.6784C18.2183 48.0401 18.2423 48.3778 18.2664 48.7395C18.3386 49.0048 18.4108 49.2701 18.507 49.5354C18.5551 49.8489 18.5792 50.1624 18.6273 50.4759C18.6995 50.6447 18.7717 50.8135 18.8438 50.9824C18.892 51.2718 18.9401 51.5612 18.9882 51.8506C19.0844 52.0676 19.1566 52.2847 19.2529 52.5017C19.2769 52.6705 19.301 52.8634 19.3491 53.0323C19.4454 53.2252 19.5416 53.4181 19.6378 53.6111C20.1672 55.3957 20.889 57.1321 21.7552 58.6514C22.7416 60.3396 23.8484 61.883 25.0514 63.3783C25.4845 63.8365 25.9176 64.3188 26.3266 64.777C26.471 64.9217 26.7357 65.0423 26.7838 65.2594C26.856 65.6452 26.1823 66.1034 25.9898 66.2481C25.4605 66.7546 24.9071 67.2369 24.3777 67.7192C23.9928 68.1533 23.6078 68.7321 22.9341 68.8286C22.5732 68.8286 22.2364 68.7804 21.8995 68.7804C20.6484 68.9009 19.0604 68.5151 18.122 68.2257C17.7611 68.1533 17.3762 68.0569 16.9912 67.9845C16.7506 67.8639 16.4859 67.7434 16.2453 67.6469C15.9807 67.5504 15.74 67.4781 15.4754 67.4057C13.334 66.3446 11.9626 64.6323 10.7114 62.7995C10.2543 62.1483 9.70088 61.5213 9.26779 60.846C8.44974 59.592 7.75199 58.2897 7.00611 56.9874C6.66927 56.3845 5.89933 55.3957 5.77903 54.6722C5.73091 54.3587 5.85121 54.021 5.89933 53.7558M15.8122 89.4C15.716 90.7264 15.4754 92.2458 15.5957 93.5239C15.6679 94.3439 15.4754 95.1397 15.5716 95.8874C15.6197 96.3214 15.8603 98.2267 15.6679 98.5161C15.4513 98.7813 15.0904 98.2508 14.9701 98.1061C14.3205 97.4308 13.6709 96.7555 13.0212 96.0803C11.4092 94.2474 9.77306 92.5352 8.40162 90.4853C7.99259 89.8582 7.53544 89.2071 7.24672 88.5077C7.05423 88.0495 6.76551 87.5913 6.54897 87.133C6.47678 86.9401 6.42866 86.7231 6.35648 86.5301C6.26024 86.3372 5.92339 86.0237 6.11588 85.6861C6.164 85.6137 6.18806 85.6137 6.26024 85.5655C7.05423 85.6378 7.72793 85.9996 8.44974 86.1925C9.79712 86.5542 11.4092 86.5301 12.8769 86.6266C13.5746 86.6748 14.3686 86.7231 15.0182 86.6266C15.3551 86.5784 15.6679 86.3854 15.9807 86.5543C16.2213 87.3019 15.8844 88.5077 15.8122 89.3759M18.4829 76.8835C18.3386 77.2935 18.098 77.7758 17.9055 78.234C17.7371 78.644 17.4002 79.0058 17.1837 79.3916C17.0393 79.681 16.8228 80.3563 16.7265 80.6457C16.4619 80.7663 16.0769 80.6457 15.716 80.6457C15.4032 80.6939 15.0423 80.718 14.6573 80.7904C12.1791 81.2004 8.90689 80.5975 7.03017 79.6328C6.4046 79.3193 6.09182 78.7164 5.58655 78.2823C5.34594 78.1135 5.1294 77.9446 4.8888 77.7758C4.60007 77.6311 4.26323 77.6552 4.0948 77.3658C3.8542 76.9317 3.99856 76.2324 3.92638 75.6536C3.8542 74.8819 3.78202 74.1342 3.7339 73.3866C3.7339 72.7596 3.7339 72.1085 3.75796 71.4814C3.75796 70.4926 3.80608 69.528 3.83014 68.5392C3.75796 67.8157 3.8542 66.7305 3.99856 66.007C4.11886 65.4041 3.95044 64.2706 4.33541 63.9571C4.76849 64.0053 4.81662 64.367 4.98504 64.6082C5.44219 65.3317 5.97152 66.0311 6.47678 66.7063C7.51138 68.0569 8.64222 69.4797 9.98961 70.565C10.952 71.3608 12.131 72.012 13.3099 72.639C13.5746 72.7114 13.8152 72.8078 14.0799 72.8802C14.2964 73.0008 14.513 73.0972 14.7054 73.2178C15.0423 73.2902 15.4032 73.3866 15.74 73.459C16.2453 73.6278 16.6784 73.7966 17.2318 73.9172C17.7611 74.0378 19.1807 74.0378 19.4213 74.3513C19.4935 74.8336 18.892 75.6777 18.6995 76.0877C18.6273 76.3288 18.5551 76.57 18.4589 76.8353M26.1341 108.38C25.9176 108.766 25.9176 109.561 25.4364 109.61C25.1236 109.658 25.0274 109.248 24.9071 109.055C24.474 108.452 24.065 107.873 23.6319 107.27C23.1988 106.619 22.6454 106.016 22.1161 105.437C21.8995 105.172 21.6589 104.883 21.4424 104.618C21.1055 104.28 20.6484 103.87 20.4078 103.46C20.1431 102.929 20.119 102.447 19.9987 101.748C19.9025 101.362 19.8303 100.976 19.7341 100.614C19.6619 99.9872 19.6138 99.3842 19.5657 98.7813C19.3732 97.8408 19.4935 96.5626 19.3491 95.5497C19.301 95.2121 19.2529 94.6574 19.4454 94.4645C19.9747 94.5127 20.2393 94.9468 20.5521 95.2121C21.0574 95.6221 21.7311 95.8391 22.2604 96.2009C22.501 96.3697 22.8379 96.3697 23.1025 96.4903C23.271 96.5867 23.4394 96.7073 23.5837 96.8038C23.8484 96.9002 24.1131 96.9726 24.4018 97.0691C25.9417 97.8408 27.5537 98.4919 28.853 99.4325C29.3342 99.7942 30.6094 100.445 30.7056 101.072C30.7778 101.555 30.2485 101.772 30.0801 102.013C29.4545 102.833 28.7567 103.653 28.1552 104.545C27.3612 105.727 26.8078 107.077 26.1101 108.356M28.3236 115.856C28.1552 115.759 28.1552 115.639 28.083 115.47C27.65 114.626 27.8906 114.361 28.2274 113.541C28.3236 113.203 28.4199 112.89 28.4921 112.552C28.7327 111.901 29.0936 111.129 29.3823 110.55C29.4785 110.285 29.5507 110.02 29.647 109.754C29.7432 109.586 29.8635 109.417 29.9598 109.248C30.0079 109.055 30.0801 108.886 30.1522 108.693L30.5131 108.163C30.5853 107.994 30.6575 107.801 30.7056 107.632C30.8019 107.536 30.8981 107.415 30.9703 107.319C31.4515 106.475 31.9087 105.413 32.7267 104.931C32.7508 104.931 32.7989 104.931 32.8229 104.931C33.0154 105.052 33.3282 106.426 33.4726 106.74C33.7372 107.415 33.9778 108.139 34.2425 108.862C34.3388 109.031 34.435 109.2 34.5072 109.368C34.9403 110.623 35.0846 111.756 34.2425 112.865C33.9538 113.251 33.0395 113.372 32.5342 113.541C32.3658 113.613 32.2455 113.709 32.0771 113.782C31.9086 113.83 31.7162 113.878 31.5477 113.951C31.4274 114.023 31.2831 114.119 31.1628 114.192C31.0184 114.24 30.8741 114.288 30.7297 114.361C30.1522 114.65 29.5267 115.036 29.0214 115.422C28.853 115.542 28.6364 115.88 28.3477 115.783M42.6155 128.951C42.3027 128.517 42.2546 127.914 41.9418 127.48C41.1719 126.419 40.1854 125.478 38.7659 125.02C37.4666 124.586 36.2395 124.924 35.8064 125.864C35.3012 126.974 35.9749 128.083 36.6967 128.421C36.9613 128.469 37.2019 128.517 37.4666 128.589C37.8275 128.686 38.2847 128.975 38.5253 129.216C38.7659 129.506 38.9824 130.085 39.0546 130.519C39.0546 130.76 39.1027 131.001 39.1027 131.242C39.223 131.604 39.608 131.797 39.7283 132.159C39.8245 132.448 39.2471 133.003 39.1027 133.147C38.7899 133.485 38.5493 133.895 38.2606 134.257C37.9478 134.643 37.5629 135.004 37.3222 135.438C37.0816 135.824 36.7448 136.186 36.4801 136.548C35.9508 137.271 35.5177 138.067 34.9884 138.767C34.8921 138.959 34.82 139.128 34.7237 139.297C34.5072 139.659 34.1944 140.117 33.9538 140.479C33.8575 140.696 33.7613 140.937 33.641 141.154C32.6545 142.722 31.7643 144.555 31.0184 146.363C30.9462 146.411 30.9462 146.411 30.8259 146.411C30.465 145.784 30.8981 143.59 30.8259 142.649C30.8259 141.636 30.8019 140.648 30.7778 139.635V138.742C30.8741 138.357 31.1147 138.236 31.259 137.922C31.3071 137.73 31.3553 137.537 31.4034 137.344C31.5477 136.861 31.7162 136.451 31.9087 135.969C32.2696 135.028 32.8951 134.112 33.4726 133.413C34.0981 132.665 35.3974 132.279 35.8305 131.411C36.5042 130.036 35.253 128.541 33.8094 128.71C33.0154 128.806 32.053 129.578 31.5237 130.012C31.2831 130.229 31.0184 130.76 30.5853 130.736C30.3447 130.47 30.4891 129.94 30.441 129.482C30.3688 128.855 30.2966 128.252 30.2004 127.625C30.2004 127.166 30.1522 126.708 30.1522 126.274C29.9838 125.189 29.8154 123.863 29.647 122.826C29.647 122.488 29.5989 122.174 29.5748 121.837C29.4785 121.354 29.0936 120.727 29.3342 120.1C29.5026 119.666 30.5853 119.039 30.9944 118.774C32.053 118.075 33.232 117.279 34.5553 116.917C34.7959 116.893 35.0124 116.869 35.253 116.821C35.4937 116.748 35.7343 116.7 35.9749 116.628C36.1673 116.628 36.3839 116.603 36.6004 116.579C37.5629 116.652 38.0922 116.821 38.7659 117.062C39.0065 117.158 39.223 117.182 39.4155 117.303C39.8005 117.64 40.0411 118.123 40.426 118.436C40.6426 118.557 40.8832 118.653 41.1238 118.774C41.4125 119.015 41.605 119.425 41.7975 119.763C41.99 120.149 42.2546 120.583 42.4471 120.993C42.4952 121.186 42.5434 121.379 42.5915 121.571C42.784 122.174 43.0246 122.946 43.1689 123.573C43.217 123.983 43.2411 124.369 43.2652 124.779C43.3855 125.695 43.4095 126.829 43.5058 127.818C43.578 128.372 43.0246 128.975 42.6155 128.927M42.9043 113.83C42.6155 114.023 42.3509 114.288 41.9418 114.337C41.6291 114.361 41.0035 113.854 40.7869 113.709C40.5223 113.541 39.7523 113.324 39.4396 113.179C39.199 113.082 38.7659 113.082 38.5974 112.914C38.3809 112.721 38.5493 112.287 38.5974 111.997C38.6937 111.274 38.7659 110.43 38.6456 109.803C38.4531 108.814 38.02 107.801 37.6591 106.957C37.611 106.74 37.5628 106.547 37.4907 106.33C37.3222 105.823 37.0095 105.22 36.841 104.714C36.7929 104.545 36.7689 104.352 36.7207 104.183C36.6004 103.846 35.9267 102.544 36.1192 102.182C36.2876 101.844 36.7207 101.892 37.0816 101.748C37.7313 101.482 38.5974 101.314 39.3914 101.193C39.7523 101.193 40.1133 101.193 40.4982 101.193C41.2922 101.241 42.1824 101.241 42.8561 101.458C43.2652 101.579 43.5539 101.796 44.0351 101.916C44.7088 102.085 45.6231 101.989 45.8637 102.495C45.984 102.761 45.8637 103.267 45.7915 103.581C45.575 104.521 45.6712 105.703 45.4306 106.667C45.4306 106.933 45.4306 107.222 45.4306 107.487C45.4065 107.777 45.3825 108.09 45.3584 108.38C45.3584 108.983 45.3825 109.561 45.4065 110.164C45.4547 110.454 45.5509 110.888 45.4547 111.25C45.19 112.335 43.7223 113.324 42.9043 113.83ZM55.6803 115.711C55.536 115.976 54.2127 116.941 53.8999 117.158C53.1059 117.713 52.4322 118.509 51.7344 119.184C51.3254 119.594 50.8201 119.98 50.4352 120.438C49.6652 121.354 48.8231 122.198 48.0291 123.091C47.7885 123.356 47.5479 123.911 47.1148 123.935C46.8983 123.694 46.9945 123.356 46.9224 122.97C46.8502 122.464 46.7058 121.957 46.5855 121.403C46.4893 121.186 46.393 120.969 46.2968 120.752C46.0081 119.859 45.7675 119.112 45.3584 118.316C45.19 118.002 44.8291 117.713 44.8532 117.255C45.3103 116.845 45.8637 116.483 46.369 116.145C47.3314 115.47 48.6788 113.637 49.0637 112.262C49.3043 111.418 49.3043 110.333 49.2081 109.441C49.1119 108.452 49.2562 107.27 49.3765 106.306C49.4487 105.727 49.4246 104.159 49.6893 103.87C49.7374 103.798 49.7855 103.798 49.8818 103.749C50.1946 103.773 50.2427 103.942 50.4592 104.039C50.6998 104.111 50.9164 104.159 51.157 104.232C51.3735 104.304 51.4938 104.473 51.6623 104.569C53.8036 105.847 55.0067 107.873 55.56 110.526C55.5841 110.912 55.6082 111.298 55.6563 111.708C55.7525 112.238 55.8006 112.841 55.8488 113.468C55.8488 113.758 55.8247 114.047 55.8006 114.337C55.8247 114.674 55.8247 115.422 55.7044 115.711M57.2683 104.642C57.0037 104.473 56.7631 104.015 56.5706 103.773C56.2337 103.291 55.5119 102.616 55.0548 102.23C54.8382 102.061 54.2367 101.82 54.357 101.386C54.4292 101.145 55.127 100.711 55.3194 100.469C55.945 99.7701 56.5946 99.0707 57.2443 98.3714C58.8323 96.4661 60.1315 94.1268 60.9736 91.4258C61.0699 90.9917 61.118 90.5094 61.1902 90.0753C61.4548 88.9418 61.4789 87.543 61.3827 86.4095C61.3827 85.5655 61.3827 84.6973 61.3827 83.8532C61.3345 83.2021 61.503 82.2133 61.6473 81.6345C61.7195 81.128 61.7917 80.6457 61.8879 80.1393C62.2488 78.837 62.8503 77.4382 63.5481 76.4977C64.9436 74.6407 67.085 73.7725 69.1782 72.7114C71.3918 71.5779 73.6535 70.3962 76.0355 69.4556C76.7573 69.528 76.7573 69.9862 77.046 70.4444C77.1422 70.5168 77.2144 70.6132 77.3107 70.6856C77.6235 71.1679 77.9362 71.6261 78.249 72.1085C78.3453 72.3979 78.4174 72.6872 78.4896 72.9766C78.4896 73.1696 78.5378 73.3384 78.5618 73.5313C78.6581 73.7484 79.1152 74.9542 78.9949 75.1712C78.8024 75.4848 78.0806 75.6536 77.7438 75.8224C76.9979 76.2324 76.1798 76.6182 75.458 77.0765C74.664 77.607 73.87 78.1376 73.076 78.6681C72.4505 79.1746 71.8489 79.6569 71.2474 80.1634C70.285 80.8627 69.3226 81.7551 68.6249 82.7197C67.903 83.7085 67.3256 84.8902 66.9647 86.289C66.5797 87.8324 66.8203 89.8582 66.9647 91.1846C66.9647 91.7152 66.9647 92.2458 66.9647 92.7763C67.0128 93.4998 67.0609 94.1992 67.1331 94.9227C67.1331 95.2603 67.085 95.5979 67.085 95.9597C67.1572 96.5626 67.085 97.672 66.8925 98.1784C66.0504 100.783 63.8609 102.037 61.7195 103.171C61.0458 103.532 60.2518 103.942 59.4819 104.208C59.2653 104.28 59.0247 104.328 58.7841 104.376C58.4473 104.569 57.7255 104.931 57.2443 104.618M71.488 107.922C71.2234 108.114 70.9828 108.404 70.694 108.597C69.6594 109.296 68.5286 110.164 67.3737 110.695C67.2053 110.743 67.0128 110.767 66.8444 110.815C66.7 110.888 66.5557 110.984 66.4113 111.081C66.1707 111.105 65.9301 111.153 65.6895 111.177C65.4729 111.274 65.2805 111.346 65.0639 111.443C64.7992 111.491 64.5586 111.515 64.294 111.563C64.1015 111.66 63.8849 111.756 63.6925 111.852C63.4759 111.877 63.2834 111.925 63.0669 111.949C62.9225 112.021 62.7782 112.118 62.6097 112.19C62.3932 112.238 62.1526 112.287 61.9361 112.359C61.7676 112.455 61.6233 112.528 61.4789 112.6C61.3105 112.648 61.118 112.697 60.9496 112.745C60.5887 112.89 60.2037 113.131 59.8187 113.275C59.7706 113.275 59.6984 113.251 59.6503 113.227C59.4578 112.865 59.5781 112.262 59.53 111.78C59.4578 111.418 59.3856 111.057 59.3135 110.695C59.1932 110.116 59.2413 109.586 59.0247 109.127C58.9285 108.886 58.8804 108.524 59.121 108.38C59.53 108.114 60.0353 108.114 60.5406 107.946C61.0218 107.777 61.5992 107.487 62.0564 107.294C62.2488 107.246 62.4173 107.198 62.5857 107.15C65.2083 105.847 67.5181 104.352 69.082 101.844C69.1782 101.699 69.2985 101.555 69.4188 101.41C70.1647 99.9389 71.0068 97.7202 70.7903 95.3568C70.7903 94.8021 70.8143 94.2474 70.8384 93.6927C70.7662 92.8969 70.694 92.1011 70.6459 91.3052C70.6459 90.9676 70.6459 90.6541 70.6459 90.3164C70.4775 88.773 70.4775 87.2536 71.0309 85.879C71.3677 85.059 72.7392 83.7085 73.4369 83.2262C74.5197 82.4544 75.4821 81.5139 76.637 80.7904C77.3107 80.3563 78.0084 79.9704 78.7062 79.5605C78.9708 79.4399 79.2114 79.3434 79.4761 79.2228C80.0054 79.2469 79.9814 79.7775 80.0536 80.2116C80.1739 80.9592 80.2701 81.6586 80.3663 82.3821C80.3663 82.6474 80.3663 82.9368 80.3663 83.2021C80.5107 84.3838 80.7032 85.5655 80.7994 86.6989C80.8957 87.6154 80.6069 88.6283 80.4626 89.3277C80.4626 89.5206 80.4866 89.7135 80.5107 89.9064C80.4626 90.4852 80.3904 91.064 80.3423 91.6428C80.246 92.294 80.1498 92.9451 80.0776 93.5963C79.8851 94.4404 79.7167 95.1638 79.4761 96.0079C79.2355 96.9244 78.8265 97.8649 78.4656 98.6366C78.1768 99.2878 78.0325 99.7942 77.7197 100.421C77.4791 100.855 77.1182 101.338 76.8535 101.748C75.434 104.111 73.6054 106.402 71.4399 107.922M125.359 55.9745C125.6 55.6127 125.889 55.2028 126.105 54.841C126.274 54.5998 126.322 54.3587 126.514 54.1657C126.899 54.2381 126.899 54.7445 126.995 55.0581C127.092 55.3957 127.092 55.8539 127.164 56.2639C127.236 56.6739 127.38 57.0597 127.429 57.5179C127.453 57.8556 127.477 58.2173 127.501 58.555C127.597 59.1096 127.669 59.6643 127.717 60.2672C127.717 60.7013 127.717 61.1113 127.717 61.5454C128.174 66.1999 126.803 71.2885 125.456 74.6889C125.383 74.906 125.311 75.123 125.263 75.3642C122.737 81.2486 119.08 85.4931 115.278 89.8823C113.594 91.8599 111.958 93.8616 110.129 95.6703C109.263 96.5144 108.252 97.3102 107.242 97.9855C106.231 98.6849 105.293 99.4566 104.21 100.084C103.392 100.542 102.598 101.145 101.756 101.579C98.532 103.243 95.2838 104.907 91.6266 106.065C91.1454 106.209 90.568 106.523 90.1108 106.692C89.8461 106.74 89.5815 106.812 89.3409 106.86C88.8597 107.029 88.21 107.319 87.7288 107.463C87.4642 107.512 87.1995 107.56 86.9589 107.608C86.7905 107.68 86.622 107.753 86.4777 107.849C86.189 107.897 85.9243 107.946 85.6356 107.994C85.0822 108.163 84.3604 108.452 83.807 108.597C83.5183 108.645 83.2536 108.669 82.9889 108.717C82.1709 108.91 81.2566 109.272 80.3423 109.368H78.9949C78.2971 109.441 77.6234 109.489 76.9498 109.561C76.6129 109.586 75.867 109.682 75.6986 109.465C75.6746 109.007 76.4204 108.573 76.661 108.283C77.5513 107.319 78.4174 106.282 79.1874 105.196C80.7513 103.026 81.834 100.445 82.8927 97.6961C83.1333 97.0932 83.2295 96.3214 83.422 95.7185C83.7829 94.5851 83.831 93.1863 84.1198 92.0046C84.2401 91.5223 84.1198 90.7988 84.3604 90.4129C84.6732 89.9064 85.5393 90.0753 86.189 89.9788C86.5017 89.9064 86.8145 89.81 87.1033 89.7376C87.4401 89.6894 87.801 89.6653 88.1619 89.6412C88.4506 89.5688 88.7634 89.4724 89.0521 89.4C89.3649 89.3518 89.7018 89.3277 90.0146 89.2794C91.8432 88.7247 93.768 88.4112 95.5725 87.8565C98.7244 86.8437 101.828 85.4931 104.427 83.8291C106.255 82.6956 107.94 81.2245 109.335 79.5846C110.514 78.1858 111.501 76.6906 112.631 75.2195C115.807 71.0714 118.598 66.4652 121.558 62.1001C121.847 61.666 121.991 61.2319 122.304 60.8219C123.29 59.4232 124.18 57.8556 125.143 56.4568C125.215 56.3121 125.287 56.1433 125.359 55.9745ZM113.473 39.7199C113.546 39.4305 113.642 39.1411 113.714 38.8517C113.955 38.2247 114.316 37.4048 114.58 36.7777C114.676 36.4883 114.749 36.1989 114.845 35.9095C115.086 35.2584 115.422 34.4143 115.711 33.7873C116.024 33.1361 116.024 32.292 116.553 31.9062C116.601 31.9062 116.625 31.9062 116.698 31.9303C116.986 32.075 117.179 32.6538 117.347 32.9191C117.756 33.5943 118.213 34.2937 118.622 34.969C119.681 36.7054 120.74 38.4659 121.678 40.2987C122.231 41.3357 122.592 42.5175 123.218 43.5304C123.483 43.9645 123.627 44.4709 123.819 44.9773C123.916 45.1703 124.012 45.3632 124.132 45.5561C124.18 45.7491 124.253 45.942 124.301 46.1349C124.445 46.4002 124.782 46.8584 124.613 47.2925C124.517 47.5337 124.301 47.5578 124.108 47.6784C123.747 47.8954 123.314 48.4019 123.122 48.7636C122.52 49.9212 121.726 50.9582 121.101 52.0435C120.283 53.4181 119.465 54.7928 118.574 56.0709C118.093 56.7462 117.756 57.4456 117.323 58.145C117.083 58.5308 116.722 58.9408 116.481 59.3267C115.567 60.8219 114.628 62.2207 113.714 63.6918C113.161 64.56 112.487 65.4282 111.885 66.2722C111.26 67.1646 110.755 68.081 110.129 68.9733C109.552 69.7933 108.83 70.6132 108.3 71.4332C107.675 72.3737 107.001 73.2419 106.328 74.1101C105.702 74.8819 105.197 75.6536 104.547 76.4012C103.705 77.3659 102.67 78.0893 101.588 78.8128C101.251 79.0299 100.914 79.2469 100.577 79.4881C100.12 79.7293 99.6628 79.9704 99.2538 80.2116C99.0613 80.284 98.8688 80.3322 98.7004 80.4045C98.3635 80.5975 97.9064 80.7904 97.5695 80.9833C97.353 81.0557 97.1365 81.1039 96.9199 81.1763C96.4868 81.3692 95.8853 81.6827 95.4282 81.8274C93.2387 82.4786 91.0973 83.0815 88.7875 83.612C88.4747 83.6603 88.1379 83.7085 87.8251 83.7567C87.5363 83.8532 87.2236 83.9255 86.9348 83.9979C86.5017 84.0702 86.0687 84.0702 85.6837 84.1667C85.419 84.2391 84.8416 84.5043 84.5288 84.2873C84.1919 84.0461 84.216 82.2133 84.1438 81.6345C83.9513 79.9946 83.6626 78.1617 83.2536 76.6665C83.1333 76.16 83.1333 75.6295 82.9649 75.2195C82.8205 74.8819 82.8686 74.4478 82.7483 74.086C82.6761 73.9413 82.604 73.7966 82.5318 73.6519C82.5077 73.5072 82.5799 73.2902 82.628 73.2178C82.9649 72.8561 84.216 72.8802 84.7694 72.7114C85.5874 72.4461 86.4536 72.3014 87.2957 72.0843C87.4882 71.9879 87.7048 71.9155 87.9213 71.8191C88.1619 71.7708 88.4025 71.7467 88.6191 71.6985C88.8116 71.602 89.004 71.5055 89.1725 71.4332C89.8221 71.2403 90.3033 71.1438 90.9048 70.9267C91.0492 70.8303 91.2176 70.7338 91.386 70.6615C91.9394 70.4685 92.4447 70.3721 92.9499 70.1068C93.0702 70.0344 93.1665 69.9621 93.2868 69.8897C97.8342 67.8639 101.323 65.5488 104.186 61.5936C104.499 61.1837 104.691 60.7496 104.932 60.2672C105.052 60.0743 105.173 59.9055 105.293 59.7125C105.341 59.5196 105.413 59.3267 105.485 59.1338C106.135 57.8315 106.737 56.3604 107.386 55.0339C107.482 54.7445 107.579 54.4551 107.675 54.1657C107.771 53.9969 107.867 53.8522 107.94 53.6834C108.036 53.394 108.132 53.1046 108.228 52.7911C108.325 52.6223 108.397 52.4776 108.493 52.3088C108.565 52.0676 108.637 51.8023 108.71 51.5853C108.83 51.3682 108.95 51.1271 109.07 50.91C109.143 50.6688 109.215 50.4518 109.287 50.2106C110.129 48.209 110.971 46.0144 111.837 43.9886C111.91 43.6992 112.006 43.4098 112.078 43.1204C112.559 42.011 113.016 40.7328 113.498 39.6235M95.8853 42.9274C95.9575 42.6622 96.0537 42.3969 96.1259 42.1316C96.2462 41.9145 96.3665 41.6975 96.4628 41.4804C97.1124 39.7682 97.6177 37.9835 98.1711 36.1748C98.2673 35.7407 98.3395 35.3307 98.4117 34.9207C98.532 34.4143 98.6763 33.932 98.8207 33.4255C98.8929 32.8708 98.9891 32.3162 99.0613 31.7615C99.2538 30.7727 99.4222 29.7839 99.6147 28.7951C99.7831 26.9382 99.9756 25.0571 100.168 23.2001C100.24 22.139 100.312 21.102 100.361 20.0408C100.433 18.4492 100.505 16.8333 100.601 15.2417C100.601 14.7834 100.601 14.3252 100.625 13.867C100.601 13.457 100.529 12.8782 100.673 12.5406C100.697 12.5406 100.721 12.5165 100.746 12.5165C101.275 12.5406 101.491 13.0229 101.78 13.2882C102.334 13.7947 102.839 14.3252 103.368 14.8799C104.403 15.9651 105.389 17.1227 106.352 18.2803C107.675 19.8238 109.022 21.3431 110.225 22.9831C110.779 23.7307 111.404 24.4059 111.934 25.1535C112.102 25.3706 112.583 25.7082 112.439 26.1423C112.27 26.697 111.934 27.2999 111.741 27.8305C111.669 28.0958 111.597 28.3852 111.525 28.6746C111.404 28.8916 111.308 29.1087 111.188 29.3257C111.091 29.6392 111.019 29.9527 110.947 30.2421C110.827 30.4592 110.731 30.6762 110.634 30.8933C110.562 31.1586 110.466 31.448 110.418 31.7132C110.298 31.9785 110.153 32.2438 110.033 32.5091C109.961 32.7503 109.888 33.0155 109.816 33.2808C109.72 33.522 109.576 33.7632 109.479 33.9802C109.407 34.2455 109.335 34.5108 109.263 34.8002C108.661 36.1748 108.204 37.6218 107.627 39.0929C107.531 39.2858 107.41 39.5029 107.314 39.7199C106.977 40.5158 106.809 41.191 106.52 41.9869C106.4 42.2281 106.279 42.4692 106.159 42.7104C105.846 43.4821 105.702 44.085 105.413 44.8326C105.317 45.0256 105.197 45.2185 105.1 45.4114C105.028 45.6767 104.956 45.9179 104.884 46.1832C104.788 46.3761 104.667 46.569 104.571 46.7861C104.475 47.0755 104.403 47.3408 104.331 47.606C104.21 47.8231 104.09 48.0401 103.994 48.2572C103.657 49.1495 103.344 49.9695 102.959 50.7653C102.839 51.0547 102.767 51.3682 102.67 51.6576C102.213 52.6223 101.756 53.7316 101.275 54.6963C101.179 54.9616 101.106 55.2269 101.01 55.468C100.336 56.8186 99.7831 58.2897 98.8688 59.3508C97.3049 61.1837 95.2838 62.4377 93.1905 63.6677C92.7334 63.9329 92.2522 64.0294 91.771 64.2706C89.6537 65.3558 87.1995 66.0552 84.7694 66.8028C84.4807 66.851 84.1919 66.8993 83.9032 66.9234C83.6867 66.9957 83.4701 67.0922 83.2536 67.1646C82.9408 67.2128 82.628 67.2369 82.3152 67.2851C81.8821 67.4057 81.3047 67.6951 80.7513 67.4781C80.5588 67.1163 80.7032 66.3446 80.5829 65.9346C80.5107 65.7417 80.4145 65.5488 80.3423 65.3799C80.2942 65.0664 80.246 64.777 80.222 64.4635C80.1498 64.1741 80.0776 63.8847 80.0295 63.5953V62.5101C79.9333 61.4007 80.2701 60.219 80.5829 59.4714C80.6551 59.2061 80.7272 58.9167 80.7994 58.6514C80.9197 58.4585 81.04 58.2656 81.1363 58.0726C81.5212 57.2527 81.8581 56.6015 82.3634 55.9263C82.7243 55.4439 83.2055 55.0339 83.6145 54.5757C84.9619 53.0805 86.5739 51.7782 88.3063 50.7171C88.4747 50.6447 88.6672 50.5483 88.8597 50.4759C89.9664 49.7765 91.1214 49.1736 92.18 48.426C93.768 47.2684 95.0432 44.8809 95.9575 42.9033M78.0806 29.3498C78.1768 29.1087 78.249 28.8675 78.3212 28.6263C79.019 27.1311 79.7167 25.4912 80.3182 23.8754C80.3904 23.5619 80.4626 23.2242 80.5588 22.9107C81.2566 20.909 81.7137 18.618 82.2431 16.3269C82.4837 14.6629 82.7002 12.9747 82.9408 11.3107C82.9649 10.9007 83.013 10.4907 83.037 10.1048C83.1092 9.74308 83.1573 9.23663 83.1092 8.85077C83.1333 8.22374 83.1814 7.57259 83.2055 6.94556C83.1333 6.39088 83.0852 5.57092 83.2536 5.06447C83.3498 5.01624 83.4461 4.99212 83.5182 4.94389C84.0235 4.96801 84.3844 5.13682 84.8175 5.25741C85.2987 5.35387 85.7799 5.42622 86.2611 5.52269C86.6702 5.66739 87.1033 5.81209 87.5123 5.95678C87.8491 6.02913 88.186 6.07737 88.5228 6.14972C88.7875 6.2703 89.0521 6.36677 89.3168 6.48735C89.6296 6.5597 89.9424 6.65616 90.2552 6.72851C90.5439 6.8491 90.8567 6.9938 91.1454 7.1385C91.386 7.18673 91.6026 7.25908 91.8432 7.30731C92.0838 7.42789 92.3244 7.54848 92.565 7.66906C93.383 7.98257 94.153 8.24786 94.8507 8.68195C95.1154 8.85077 95.38 8.82665 95.4763 9.16428C95.356 9.45368 95.1635 9.57427 95.0673 9.9119C94.8988 10.4907 94.8748 11.3107 94.9229 11.9377C94.9229 12.7576 94.8988 13.5535 94.8988 14.3735C94.8748 15.6999 94.8507 17.0504 94.8267 18.4009C94.7785 19.2691 94.7304 20.1373 94.6582 21.0055C94.6101 21.5843 94.562 22.1872 94.5139 22.766C94.4657 23.2242 94.4176 23.6824 94.3936 24.1407C94.3454 24.5989 94.3214 25.033 94.2733 25.4912C94.1048 26.5764 93.9605 27.6376 93.8161 28.7228C93.768 29.0845 93.7439 29.4463 93.6958 29.808C93.4793 30.7727 93.3349 31.7132 93.1184 32.6297C93.0221 33.112 92.9499 33.6185 92.8537 34.1249C92.7575 34.4384 92.6372 34.7519 92.5169 35.0896C92.4447 35.4513 92.3725 35.8372 92.2762 36.1989C92.0356 37.0189 91.6266 37.9836 91.3379 38.7553C91.2416 39.0688 91.1454 39.4064 91.0492 39.7199C90.9289 39.8888 90.8567 40.0576 90.7604 40.2505C90.6642 40.5158 90.592 40.757 90.5198 41.0222C90.0627 41.9387 89.5815 42.9757 88.9318 43.6992C88.0657 44.6156 86.3574 45.2909 85.2506 45.9661C83.3258 47.1237 81.3047 48.6913 79.8129 50.3553C79.4039 50.8135 78.8746 51.1994 78.4896 51.6817C77.9122 52.4535 77.3588 53.177 76.8535 54.0452C76.7332 54.214 76.6129 54.3587 76.5167 54.5034C75.9392 55.6369 75.458 56.8186 74.9768 58.0967C74.6881 58.8444 74.664 59.809 74.4715 60.629C74.3753 61.0631 74.4715 61.6419 74.255 61.9072C73.87 61.9795 73.1723 61.4248 72.9076 61.2319C72.6911 61.1354 72.4745 61.039 72.258 60.9666C72.0896 60.846 71.9211 60.7254 71.7527 60.6049C71.5121 60.5325 71.2956 60.436 71.079 60.3637C70.9347 60.2672 70.7903 60.1708 70.6219 60.0743C70.3813 59.9778 70.0925 59.9055 69.8279 59.809C69.6354 59.7126 69.4429 59.592 69.2264 59.4955C68.9617 59.4231 68.673 59.3508 68.4083 59.3026C67.5421 58.9649 66.4353 58.5791 65.497 58.3379C65.1361 58.2897 64.7752 58.2173 64.4143 58.1691C63.6684 57.9762 62.9225 57.8556 62.1285 57.6626C61.5992 57.5421 60.9736 57.5421 60.5406 57.3732C60.3721 57.0838 60.6368 56.7944 60.7812 56.505C60.9015 56.3362 60.9977 56.1915 61.118 56.0227C61.4548 55.4198 61.7436 54.8892 62.1045 54.3587C62.3932 53.9487 62.5616 53.5387 62.8263 53.1046C63.6684 51.8264 64.5346 50.5241 65.4248 49.246C66.2188 48.1125 67.2053 46.979 67.879 45.7491C68.0955 45.3632 68.4805 44.9532 68.7452 44.6156C69.0339 44.2297 69.2023 43.868 69.491 43.4821C69.7316 43.1445 70.0444 42.7827 70.285 42.4451C71.464 40.757 72.5708 39.0206 73.7978 37.3806C73.8941 37.1877 73.9903 37.0189 74.0866 36.826C74.3272 36.4642 74.664 36.006 74.9046 35.6201C74.9768 35.4513 75.049 35.2825 75.1212 35.1378C75.2415 34.9931 75.3377 34.8725 75.434 34.7278C75.6986 34.1973 75.843 33.7873 76.1317 33.2808C76.8054 32.0991 77.431 30.7004 78.0565 29.4463M77.4791 5.49857C77.5753 6.51147 77.431 7.66906 77.3588 8.73019C77.0941 12.4682 76.6851 15.9169 75.7708 18.9074C75.6746 19.3897 75.5783 19.8479 75.458 20.3302C74.6159 22.8142 73.7016 25.0812 72.7151 27.3964C72.4745 27.9511 72.0655 28.5781 71.8249 29.1328C71.7527 29.3257 71.7046 29.5186 71.6324 29.7116C71.4159 30.1698 71.055 30.7004 70.7903 31.1344C70.4775 31.665 70.3331 32.1715 70.0204 32.6779C67.9752 35.8613 65.7857 38.8517 63.6203 41.8904C62.6097 43.3374 61.6233 44.7603 60.6127 46.1832C59.5541 47.7025 58.6157 49.3183 57.5571 50.8135C57.2202 51.2718 57.0758 51.7541 56.739 52.2123C56.1616 53.0082 55.7044 53.8763 55.2473 54.8169C55.127 54.9857 55.0307 55.1304 54.9104 55.2992C54.742 55.661 54.333 56.8909 54.0924 57.0597C53.8999 57.2044 53.539 57.1562 53.2502 57.1803C52.3119 57.3009 51.2292 57.1803 50.2186 57.3009C49.6412 57.3732 47.8848 57.7591 47.3073 57.4697C46.9224 57.2768 46.6336 56.698 46.393 56.3604C46.0321 55.878 45.6712 55.4198 45.3103 54.9375C45.0938 54.5998 44.9253 54.2622 44.7088 53.9246C43.0246 51.2959 41.4606 48.1607 40.9554 44.5191C40.7869 43.3857 40.8591 41.5769 41.1479 40.4193C41.2441 40.0093 41.2441 39.5752 41.3885 39.2135C41.605 38.6347 41.9178 37.9353 42.2065 37.453C42.3028 37.2359 42.399 37.0189 42.4952 36.8018C43.217 35.7648 44.0351 34.776 44.781 33.7873C45.4306 32.9432 46.0562 32.0991 46.7299 31.2791C47.187 30.7003 47.5479 30.0974 48.0051 29.5186C49.3765 27.734 50.6998 25.877 52.0472 24.0201C52.9856 22.6937 53.948 21.2708 54.8863 19.9203C55.1991 19.4862 55.3435 19.0279 55.6322 18.5697C55.8969 18.1839 56.2578 17.7015 56.4743 17.2916C57.1721 15.9893 57.8217 14.687 58.5195 13.3606C58.6157 13.0712 58.712 12.7576 58.8082 12.4683C59.3616 11.1901 59.7706 9.69485 60.2518 8.27197C60.324 7.83787 60.4202 7.40378 60.5165 6.96968C60.6368 6.48735 60.7812 6.02913 60.9015 5.57092C60.9977 5.16094 60.9977 4.63038 61.2624 4.46156C61.503 4.29274 61.9601 4.38921 62.297 4.36509C63.0669 4.26863 63.7406 4.22039 64.6068 4.12393C65.6414 4.05158 66.676 3.97923 67.7106 3.88276C67.9993 3.88276 68.3121 3.88276 68.6008 3.90688C69.6835 3.88276 70.7903 3.85865 71.873 3.83453C72.9798 3.88276 74.0866 3.931 75.1933 3.97923C75.6746 4.00335 77.2626 4.05158 77.431 4.29274C77.6235 4.58214 77.431 5.13682 77.4791 5.52269" fill="white"/>
</svg>
