<svg width="53" height="33" viewBox="0 0 53 33" fill="none" xmlns="http://www.w3.org/2000/svg">
<path d="M52.4091 8.22103C49.1197 8.22103 47.3889 6.66839 45.999 5.42429C44.768 4.31953 43.8778 3.5233 41.9286 3.5233C39.9794 3.5233 39.0892 4.31953 37.8582 5.42429C36.465 6.66839 34.7475 8.22103 31.4382 8.22103C28.1289 8.22103 26.4246 6.66839 25.0347 5.42429C23.8037 4.31953 22.9135 3.5233 20.9643 3.5233C19.0151 3.5233 18.1249 4.31953 16.8939 5.42429C15.504 6.66839 13.7732 8.22103 10.4805 8.22103C7.18776 8.22103 5.46031 6.66839 4.07042 5.42429C2.83936 4.31953 1.94917 3.5233 0 3.5233L0 0C3.28943 0 5.02018 1.55927 6.41008 2.79674C7.64113 3.90151 8.53133 4.69774 10.4805 4.69774C12.4297 4.69774 13.3199 3.90151 14.5509 2.79674C15.9408 1.55927 17.6716 0 20.9643 0C24.257 0 25.9845 1.55927 27.3744 2.79674C28.6054 3.90151 29.4956 4.69774 31.4448 4.69774C33.394 4.69774 34.2842 3.90151 35.5152 2.79674C36.9051 1.55927 38.6359 0 41.9286 0C45.2213 0 46.9488 1.55927 48.3387 2.79674C49.5697 3.90151 50.4599 4.69774 52.4091 4.69774V8.22103Z" fill="white"/>
<path d="M52.4091 19.5235C49.1197 19.5235 47.3889 18.1651 45.999 17.0714C44.768 16.1057 43.8778 15.4076 41.9286 15.4076C39.9794 15.4076 39.0892 16.1057 37.8582 17.0714C36.465 18.1767 34.7474 19.5235 31.4382 19.5235C28.1289 19.5235 26.418 18.1651 25.0281 17.0714C23.797 16.1057 22.9068 15.4076 20.9577 15.4076C19.0085 15.4076 18.1183 16.1057 16.8873 17.0714C15.504 18.1767 13.7732 19.5235 10.4805 19.5235C7.18776 19.5235 5.46031 18.1767 4.07042 17.083C2.83936 16.1173 1.94917 15.4192 0 15.4192L0 12.3301C3.28943 12.3301 5.02018 13.6885 6.41008 14.7822C7.64113 15.7479 8.53133 16.4489 10.4805 16.4489C12.4297 16.4489 13.3199 15.7421 14.5608 14.7822C15.9507 13.6885 17.6815 12.3301 20.9742 12.3301C24.267 12.3301 25.9944 13.6885 27.3843 14.7822C28.6054 15.7421 29.4956 16.4489 31.4382 16.4489C33.3807 16.4489 34.2775 15.7479 35.5086 14.7822C36.8985 13.6885 38.6292 12.3301 41.922 12.3301C45.2147 12.3301 46.9422 13.6885 48.332 14.7822C49.5631 15.7479 50.4533 16.4489 52.4025 16.4489L52.4091 19.5235Z" fill="white"/>
<path d="M52.4091 32.8812C49.1197 32.8812 47.3889 31.3273 45.999 30.0822C44.768 28.9766 43.8778 28.1797 41.9286 28.1797C39.9794 28.1797 39.0892 28.9766 37.8582 30.0822C36.465 31.3307 34.7474 32.8812 31.4382 32.8812C28.1289 32.8812 26.418 31.3273 25.0281 30.0822C23.797 28.9766 22.9068 28.1797 20.9577 28.1797C19.0085 28.1797 18.1183 28.9766 16.8873 30.0822C15.4974 31.3273 13.7666 32.8812 10.4739 32.8812C7.18114 32.8812 5.46031 31.3307 4.07042 30.0856C2.83936 28.9799 1.94917 28.183 0 28.183L0 24.6602C3.28943 24.6602 5.02018 26.2107 6.41008 27.4559C7.64113 28.5615 8.53133 29.3584 10.4805 29.3584C12.4297 29.3584 13.3199 28.5648 14.5608 27.4559C15.9507 26.2107 17.6815 24.6602 20.9742 24.6602C24.267 24.6602 25.9944 26.2107 27.3843 27.4559C28.6054 28.5648 29.4956 29.3584 31.4382 29.3584C33.3807 29.3584 34.2775 28.5615 35.5086 27.4559C36.8985 26.2107 38.6292 24.6602 41.922 24.6602C45.2147 24.6602 46.9422 26.2107 48.332 27.4559C49.5631 28.5615 50.4533 29.3584 52.4025 29.3584L52.4091 32.8812Z" fill="white"/>
</svg>
