<svg width="158" height="34" viewBox="0 0 158 34" fill="none" xmlns="http://www.w3.org/2000/svg">
<mask id="mask0_578_223" style="mask-type:luminance" maskUnits="userSpaceOnUse" x="0" y="0" width="158" height="34">
<path d="M157.712 0H0V33.67H157.712V0Z" fill="white"/>
</mask>
<g mask="url(#mask0_578_223)">
<path d="M87.8867 11.5436H87.7964L79.883 0.240234H78.1289V14.6369H79.9131V3.37357H80.0035L87.9169 14.6369H89.6709V0.240234H87.8867V11.5436Z" fill="white"/>
<path d="M111.174 0.24059H106.012V14.6373H107.816V9.5006H111.163C111.782 9.5266 112.399 9.42433 112.976 9.2002C113.552 8.9761 114.076 8.63507 114.513 8.19877C114.95 7.76247 115.292 7.2404 115.515 6.66573C115.739 6.09107 115.841 5.47637 115.813 4.8606C115.84 4.2467 115.739 3.63393 115.515 3.06121C115.292 2.48849 114.951 1.96834 114.515 1.53385C114.078 1.09935 113.556 0.75999 112.981 0.537347C112.405 0.314704 111.79 0.213644 111.174 0.24059ZM113.095 7.1006C112.529 7.63727 111.729 7.90393 110.702 7.90393H107.816V1.83726H110.702C111.737 1.83726 112.537 2.1017 113.102 2.63059C113.393 2.92155 113.619 3.27075 113.765 3.65513C113.911 4.03953 113.974 4.4504 113.949 4.8606C113.973 5.27273 113.909 5.68523 113.762 6.0712C113.615 6.4572 113.388 6.80793 113.095 7.1006Z" fill="white"/>
<path d="M123.856 0C121.805 0 120.182 0.666667 118.986 2C117.79 3.33333 117.191 5.14557 117.191 7.43667C117.191 9.72777 117.79 11.5389 118.986 12.87C120.182 14.2011 121.805 14.8678 123.856 14.87C125.905 14.87 127.527 14.2033 128.723 12.87C129.919 11.5367 130.518 9.72557 130.518 7.43667C130.524 5.14557 129.929 3.33333 128.733 2C127.537 0.666667 125.912 0 123.856 0ZM127.368 11.6667C126.925 12.158 126.383 12.551 125.777 12.8201C125.172 13.0891 124.516 13.2281 123.853 13.2281C123.19 13.2281 122.534 13.0891 121.928 12.8201C121.323 12.551 120.781 12.158 120.338 11.6667C119.474 10.6267 119.043 9.2211 119.043 7.45C119.043 5.6789 119.474 4.27 120.338 3.22333C120.781 2.73196 121.323 2.33897 121.928 2.06994C122.534 1.80091 123.19 1.66187 123.853 1.66187C124.516 1.66187 125.172 1.80091 125.777 2.06994C126.383 2.33897 126.925 2.73196 127.368 3.22333C128.231 4.26557 128.663 5.67443 128.663 7.45C128.663 9.22557 128.235 10.6311 127.378 11.6667H127.368Z" fill="white"/>
<path d="M134.062 0.240234H132.258V14.6369H141.038V13.0202H134.062V0.240234Z" fill="white"/>
<path d="M144.953 0.240234H143.148V14.6402H144.953V0.240234Z" fill="white"/>
<path d="M156.731 8.1236C156.075 7.5036 154.999 7.00803 153.504 6.63693L151.991 6.23693C151.231 6.08193 150.51 5.7746 149.872 5.3336C149.669 5.17593 149.504 4.97357 149.392 4.7423C149.28 4.511 149.223 4.25707 149.226 4.00027C149.221 3.66353 149.299 3.33069 149.454 3.03124C149.608 2.73178 149.835 2.47498 150.113 2.2836C150.783 1.81817 151.587 1.58401 152.403 1.61693C153.22 1.57924 154.027 1.81382 154.696 2.2836C154.984 2.49841 155.223 2.77231 155.396 3.08683C155.57 3.40137 155.673 3.7492 155.7 4.10693H157.501C157.493 3.53577 157.357 2.97359 157.102 2.46187C156.847 1.95015 156.48 1.50193 156.028 1.15027C155.014 0.357517 153.751 -0.050143 152.463 0.000266595C150.961 0.000266595 149.734 0.379157 148.781 1.13693C148.327 1.47865 147.96 1.92264 147.712 2.43252C147.464 2.9424 147.34 3.50363 147.351 4.07027C147.333 4.50857 147.406 4.94587 147.564 5.3552C147.722 5.76457 147.963 6.13723 148.272 6.45027C148.888 7.05917 149.863 7.5336 151.198 7.8736L153.052 8.3536C153.827 8.5085 154.556 8.8393 155.181 9.32027C155.397 9.50467 155.569 9.73463 155.685 9.9935C155.801 10.2524 155.858 10.5336 155.851 10.8169C155.85 11.1646 155.763 11.5068 155.596 11.8123C155.43 12.1179 155.189 12.3773 154.897 12.5669C154.185 13.0504 153.337 13.2935 152.476 13.2603C151.567 13.296 150.668 13.049 149.906 12.5536C149.584 12.3448 149.314 12.0669 149.115 11.7404C148.915 11.4139 148.792 11.0471 148.754 10.6669H146.953C146.979 11.2608 147.135 11.8418 147.41 12.3692C147.686 12.8966 148.074 13.3578 148.547 13.7203C149.524 14.4847 150.78 14.8669 152.316 14.8669C153.978 14.8669 155.296 14.4825 156.269 13.7136C156.743 13.3447 157.123 12.8688 157.376 12.3251C157.629 11.7815 157.749 11.1857 157.725 10.5869C157.743 10.1298 157.663 9.67413 157.492 9.2497C157.321 8.82523 157.061 8.44153 156.731 8.1236Z" fill="white"/>
<path d="M73.9776 8.6969L70.8477 0.240234H69.0635L66.2148 7.93357L65.6424 9.48023L63.7344 14.6369H65.629L67.189 10.2002C67.7691 10.2571 68.3321 10.427 68.8459 10.7002C69.7441 11.1627 70.7446 11.392 71.7549 11.3669C72.2044 11.3712 72.653 11.3299 73.0939 11.2436L74.2856 14.6236H76.1802L74.4563 9.9569L73.9776 8.6969ZM71.7549 9.7569C70.985 9.77827 70.2228 9.5966 69.5456 9.23023C68.9792 8.93917 68.3703 8.73787 67.7413 8.63357L69.9272 2.42357H69.9874L72.5482 9.70357C72.2855 9.74047 72.0203 9.7583 71.7549 9.7569Z" fill="white"/>
<path d="M101.888 8.6969L98.7478 0.240234H96.9737L94.125 7.93357L93.5526 9.48023L91.6445 14.6369H93.5358L95.0991 10.2002C95.6792 10.2571 96.2423 10.427 96.7561 10.7002C97.6539 11.1627 98.6544 11.392 99.665 11.3669C100.115 11.3712 100.563 11.3299 101.004 11.2436L102.196 14.6236H104.104L102.383 9.9569L101.888 8.6969ZM99.665 9.7569C98.8948 9.77923 98.1326 9.5975 97.4557 9.23023C96.8893 8.93917 96.2804 8.73787 95.6514 8.63357L97.8373 2.42357H97.8976L100.458 9.70357C100.196 9.74047 99.9305 9.7583 99.665 9.7569Z" fill="white"/>
<path d="M53.0137 8.35962C49.6863 8.35962 47.9356 6.79962 46.5297 5.54962C45.2844 4.43962 44.3839 3.63962 42.4123 3.63962C40.4406 3.63962 39.5402 4.43962 38.2949 5.54962C36.8856 6.79962 35.1483 8.35962 31.8008 8.35962C28.4534 8.35962 26.7294 6.79962 25.3235 5.54962C24.0783 4.43962 23.1778 3.63962 21.2061 3.63962C19.2345 3.63962 18.334 4.43962 17.0888 5.54962C15.6828 6.79962 13.9321 8.35962 10.6014 8.35962C7.27068 8.35962 5.5233 6.79962 4.11737 5.54962C2.87212 4.43962 1.97165 3.63962 0 3.63962V0.0996094C3.32737 0.0996094 5.07809 1.66628 6.48403 2.90961C7.72928 4.01962 8.62975 4.81962 10.6014 4.81962C12.5731 4.81962 13.4735 4.01962 14.7188 2.90961C16.1247 1.66628 17.8754 0.0996094 21.2061 0.0996094C24.5369 0.0996094 26.2842 1.66628 27.6902 2.90961C28.9354 4.01962 29.8359 4.81962 31.8075 4.81962C33.7792 4.81962 34.6797 4.01962 35.9249 2.90961C37.3308 1.66628 39.0816 0.0996094 42.4123 0.0996094C45.743 0.0996094 47.4904 1.66628 48.8963 2.90961C50.1416 4.01962 51.042 4.81962 53.0137 4.81962V8.35962Z" fill="white"/>
<path d="M53.0137 21.0011C49.6863 21.0011 47.9356 19.4445 46.5297 18.1911C45.2844 17.0845 44.3839 16.2845 42.4123 16.2845C40.4406 16.2845 39.5402 17.0845 38.2949 18.1911C36.8856 19.4578 35.1483 21.0011 31.8008 21.0011C28.4534 21.0011 26.7228 19.4445 25.3168 18.1911C24.0716 17.0845 23.1711 16.2845 21.1994 16.2845C19.2278 16.2845 18.3273 17.0845 17.0821 18.1911C15.6828 19.4578 13.9321 21.0011 10.6014 21.0011C7.27068 21.0011 5.5233 19.4578 4.11737 18.2045C2.87212 17.0978 1.97165 16.2978 0 16.2978V12.7578C3.32737 12.7578 5.07809 14.3145 6.48403 15.5678C7.72928 16.6745 8.62975 17.4778 10.6014 17.4778C12.5731 17.4778 13.4735 16.6678 14.7288 15.5678C16.1347 14.3145 17.8855 12.7578 21.2162 12.7578C24.5469 12.7578 26.2943 14.3145 27.7002 15.5678C28.9354 16.6678 29.8359 17.4778 31.8008 17.4778C33.7658 17.4778 34.673 16.6745 35.9182 15.5678C37.3242 14.3145 39.0749 12.7578 42.4056 12.7578C45.7363 12.7578 47.4837 14.3145 48.8896 15.5678C50.1349 16.6745 51.0353 17.4778 53.007 17.4778L53.0137 21.0011Z" fill="white"/>
<path d="M53.0137 33.6673C49.6863 33.6673 47.9356 32.1074 46.5297 30.8574C45.2844 29.7474 44.3839 28.9474 42.4123 28.9474C40.4406 28.9474 39.5402 29.7474 38.2949 30.8574C36.8856 32.1107 35.1483 33.6673 31.8008 33.6673C28.4534 33.6673 26.7228 32.1074 25.3168 30.8574C24.0716 29.7474 23.1711 28.9474 21.1994 28.9474C19.2278 28.9474 18.3273 29.7474 17.0821 30.8574C15.6761 32.1074 13.9254 33.6673 10.5947 33.6673C7.26398 33.6673 5.5233 32.1107 4.11737 30.8607C2.87212 29.7507 1.97165 28.9507 0 28.9507V25.4141C3.32737 25.4141 5.07809 26.9707 6.48403 28.2207C7.72928 29.3307 8.62975 30.1307 10.6014 30.1307C12.5731 30.1307 13.4735 29.3341 14.7288 28.2207C16.1347 26.9707 17.8855 25.4141 21.2162 25.4141C24.5469 25.4141 26.2943 26.9707 27.7002 28.2207C28.9354 29.3341 29.8359 30.1307 31.8008 30.1307C33.7658 30.1307 34.673 29.3307 35.9182 28.2207C37.3242 26.9707 39.0749 25.4141 42.4056 25.4141C45.7363 25.4141 47.4837 26.9707 48.8896 28.2207C50.1349 29.3307 51.0353 30.1307 53.007 30.1307L53.0137 33.6673Z" fill="white"/>
<path d="M65.502 29.753V33.4864H64.3203V24.0564H67.8686C68.673 24.0175 69.4607 24.2926 70.0646 24.823C70.34 25.0856 70.556 25.4037 70.6982 25.7561C70.8402 26.1085 70.9048 26.487 70.888 26.8664C70.9041 27.473 70.7273 28.0691 70.3826 28.5697C70.0448 29.051 69.5524 29.4036 68.9867 29.5697L71.1759 33.4864H69.7934L67.7648 29.753H65.502ZM65.502 25.0864V28.7164H67.7648C68.0189 28.7333 68.274 28.7002 68.5154 28.619C68.7564 28.5378 68.9793 28.41 69.1708 28.243C69.3422 28.0674 69.4747 27.8581 69.5601 27.6285C69.6454 27.3989 69.6816 27.1541 69.6662 26.9097C69.6816 26.6636 69.6434 26.4172 69.5544 26.1871C69.4657 25.957 69.3278 25.7487 69.1507 25.5764C68.7503 25.239 68.2348 25.0683 67.7113 25.0997L65.502 25.0864Z" fill="white"/>
<path d="M78.9116 32.4266V33.4867H73.0469V24.0566H78.9116V25.1133H74.2252V28.14H78.6673V29.1866H74.2285V32.4266H78.9116Z" fill="white"/>
<path d="M80.6719 30.89H81.8569C81.882 31.1381 81.9627 31.3773 82.0932 31.5902C82.2234 31.8031 82.4002 31.9841 82.6101 32.12C83.1061 32.4438 83.6909 32.6057 84.2838 32.5833C84.8468 32.6056 85.4018 32.4466 85.8671 32.13C86.0609 32.0101 86.222 31.844 86.3351 31.6467C86.4486 31.4495 86.5108 31.2272 86.5165 31C86.5216 30.8147 86.4851 30.6307 86.4097 30.4612C86.3344 30.2917 86.2223 30.141 86.0814 30.02C85.6706 29.7057 85.1933 29.4891 84.6855 29.3867L83.4737 29.0533C82.763 28.9171 82.1016 28.5963 81.5556 28.1233C81.3534 27.9187 81.1958 27.675 81.0923 27.4072C80.9885 27.1395 80.941 26.8534 80.9531 26.5667C80.945 26.1954 81.0254 25.8275 81.1877 25.4932C81.3501 25.1589 81.5897 24.8676 81.887 24.6433C82.5809 24.1252 83.4339 23.8626 84.3005 23.9C85.1468 23.8663 85.9773 24.1333 86.6437 24.6533C86.939 24.8844 87.1787 25.1782 87.3454 25.5132C87.5124 25.8482 87.6018 26.2161 87.6078 26.59H86.4262C86.4067 26.355 86.3371 26.1268 86.2216 25.9209C86.1061 25.715 85.9475 25.5362 85.7567 25.3967C85.3188 25.0872 84.7899 24.9323 84.2537 24.9567C83.7197 24.9344 83.1932 25.0866 82.754 25.39C82.5719 25.515 82.4236 25.683 82.3225 25.8791C82.2214 26.0751 82.1705 26.293 82.1749 26.5133C82.1719 26.6826 82.2084 26.8502 82.2813 27.0029C82.3546 27.1557 82.4624 27.2893 82.5967 27.3933C83.0158 27.6879 83.4908 27.8943 83.9926 28L84.9968 28.26C85.7711 28.407 86.4968 28.7426 87.109 29.2367C87.325 29.4461 87.494 29.6988 87.6048 29.978C87.7156 30.2573 87.7658 30.5567 87.7517 30.8567C87.7668 31.2487 87.6881 31.6386 87.5224 31.9945C87.3564 32.3503 87.108 32.6618 86.7977 32.9033C86.0462 33.443 85.132 33.71 84.2068 33.66C83.3221 33.6983 82.451 33.4323 81.7397 32.9067C81.423 32.67 81.1629 32.3664 80.9785 32.0177C80.7937 31.669 80.6889 31.2838 80.6719 30.89Z" fill="white"/>
<path d="M90.9707 33.4867H89.7891V24.0566H90.9707V33.4867Z" fill="white"/>
<path d="M93.4805 24.0566H96.6639C98.0651 24.0566 99.1611 24.4711 99.9511 25.3C100.741 26.1289 101.135 27.2844 101.133 28.7666C101.133 30.2533 100.74 31.4111 99.9545 32.24C99.1688 33.0689 98.0718 33.4843 96.6639 33.4867H93.4805V24.0566ZM94.6621 25.1133V32.4266H96.5836C97.6547 32.4266 98.4816 32.1133 99.0573 31.4833C99.6331 30.8533 99.9243 29.9533 99.9243 28.78C99.9243 27.6066 99.6364 26.6933 99.0607 26.0633C98.4849 25.4333 97.6614 25.1133 96.5836 25.1133H94.6621Z" fill="white"/>
<path d="M109.128 32.4266V33.4867H103.27V24.0566H109.128V25.1133H104.441V28.14H108.893V29.1866H104.441V32.4266H109.128Z" fill="white"/>
<path d="M112.528 33.4867H111.359V24.0566H112.508L117.693 31.46H117.753V24.0566H118.921V33.4867H117.773L112.588 26.1066H112.528V33.4867Z" fill="white"/>
<path d="M125.327 33.644C124.741 33.6683 124.157 33.561 123.618 33.3301C123.079 33.0993 122.6 32.751 122.214 32.3108C121.444 31.4308 121.062 30.2475 121.062 28.7508C121.062 27.2541 121.447 26.0841 122.224 25.2075C122.608 24.7682 123.086 24.4204 123.624 24.1897C124.161 23.9589 124.743 23.8511 125.327 23.8741C126.277 23.8471 127.206 24.1513 127.955 24.7341C128.669 25.2933 129.136 26.1076 129.257 27.0041H128.062C127.925 26.4081 127.578 25.8807 127.085 25.5175C126.572 25.1567 125.954 24.9751 125.327 25.0008C124.902 24.9867 124.479 25.0729 124.093 25.2525C123.707 25.4321 123.37 25.6999 123.108 26.0341C122.519 26.8271 122.224 27.799 122.274 28.7841C122.222 29.7725 122.514 30.7486 123.101 31.5475C123.366 31.8819 123.706 32.1493 124.094 32.3277C124.482 32.5062 124.907 32.5906 125.334 32.5741C125.955 32.5962 126.567 32.4299 127.091 32.0975C127.567 31.7853 127.912 31.3113 128.062 30.7641H129.257C129.09 31.6197 128.614 32.3847 127.918 32.9141C127.158 33.4336 126.248 33.6903 125.327 33.644Z" fill="white"/>
<path d="M137.189 32.4266V33.4867H131.324V24.0566H137.189V25.1133H132.503V28.14H136.948V29.1866H132.503V32.4266H137.189Z" fill="white"/>
</g>
</svg>
