<svg width="19" height="13" viewBox="0 0 19 13" fill="none" xmlns="http://www.w3.org/2000/svg">
<path d="M18.2004 8.04967H18C16.8541 8.04967 16.2439 7.49379 15.7876 7.07815L15.7863 7.07702L18.2004 8.04967ZM18.2004 8.04967L18.2 7.8493M18.2004 8.04967L18.2 7.8493M18.2 7.8493L18.1979 6.69486L18.1975 6.49523M18.2 7.8493L18.1975 6.49523M2.18568 7.08121C1.98229 6.89652 1.82776 6.75758 1.65097 6.66014C1.48161 6.56679 1.28498 6.50859 1 6.50859H0.8V6.30859V5.14869V4.94869H1C2.14588 4.94869 2.75615 5.50457 3.21245 5.92021L3.2137 5.92134L2.18568 7.08121ZM2.18568 7.08121C2.6428 7.49759 3.25186 8.04967 4.39957 8.04967C5.54686 8.04967 6.15691 7.49814 6.61286 7.07642C6.81601 6.89194 6.97044 6.75313 7.14709 6.65577C7.31646 6.56243 7.51309 6.50423 7.79807 6.50423C8.08305 6.50423 8.27968 6.56243 8.44904 6.65577C8.62582 6.7532 8.78035 6.89214 8.98372 7.07681L2.18568 7.08121ZM10.0173 5.92148C10.2194 6.10539 10.3732 6.24464 10.5496 6.34266C10.7183 6.43645 10.9143 6.49523 11.1976 6.49523C11.4813 6.49523 11.6779 6.43686 11.8477 6.34318C12.0249 6.24544 12.18 6.10612 12.3833 5.92155L10.0173 5.92148ZM10.0173 5.92148L10.0146 5.91902C9.55847 5.50356 8.94933 4.94869 7.80344 4.94869C6.65648 4.94869 6.04622 5.50456 5.58987 5.92024L5.58905 5.921L5.58844 5.92155L5.58591 5.9238C5.382 6.10638 5.22747 6.24474 5.05073 6.34244C4.8807 6.43643 4.68407 6.49523 4.39957 6.49523C4.11474 6.49523 3.91816 6.43682 3.74878 6.34324C3.57192 6.24552 3.4174 6.10632 3.21392 5.92155L10.0173 5.92148ZM18.1975 6.49523H17.9979M18.1975 6.49523H17.9979M17.9979 6.49523C17.713 6.49523 17.5164 6.43682 17.3471 6.34324M17.9979 6.49523L17.3471 6.34324M18.2004 12.2H18C16.8569 12.2 16.2468 11.6457 15.7912 11.2318L15.7863 11.2273L15.7861 11.2272C15.5827 11.0419 15.4281 10.9027 15.2513 10.8051C15.082 10.7117 14.8854 10.6535 14.6004 10.6535C14.3154 10.6535 14.1189 10.7117 13.9495 10.8051C13.7728 10.9027 13.6182 11.0419 13.4148 11.2272L13.4146 11.2273L13.4064 11.2348C12.95 11.6495 12.3443 12.2 11.1976 12.2C10.0544 12.2 9.45083 11.6516 8.99643 11.2387L8.98391 11.2273L8.98372 11.2272C8.78031 11.0419 8.62573 10.9027 8.44895 10.8051C8.27964 10.7117 8.08305 10.6535 7.79807 10.6535C7.51309 10.6535 7.31649 10.7117 7.14718 10.8051C6.9704 10.9027 6.81582 11.0419 6.61241 11.2272L6.61223 11.2273L6.60737 11.2318C6.15172 11.6457 5.54159 12.2 4.39742 12.2C3.25524 12.2 2.64839 11.6487 2.19314 11.2351L2.18584 11.2284L2.18565 11.2283C1.98224 11.043 1.82766 10.9038 1.65088 10.8062C1.48157 10.7128 1.28498 10.6546 1 10.6546H0.8V10.4546V9.29577V9.09577H1C2.14425 9.09577 2.75442 9.65009 3.21036 10.0643L3.21373 10.0674L3.21392 10.0675C3.41733 10.2528 3.57191 10.392 3.74869 10.4896C3.918 10.583 4.11459 10.6412 4.39957 10.6412C4.68466 10.6412 4.88134 10.5832 5.0511 10.4899C5.22831 10.3924 5.38366 10.2531 5.58863 10.0674L18.2004 12.2ZM18.2004 12.2L18.2 11.9996L18.1979 10.8408L18.1975 10.6412H17.9979C17.7129 10.6412 17.5163 10.583 17.347 10.4896C17.1702 10.392 17.0156 10.2528 16.8122 10.0675L16.812 10.0674L16.8073 10.0631C16.3516 9.64908 15.7425 9.09577 14.5983 9.09577C13.453 9.09577 12.8428 9.65008 12.3868 10.0643L12.3835 10.0674L12.3833 10.0675C12.1801 10.2526 12.0249 10.3919 11.8478 10.4895C11.6781 10.5831 11.4814 10.6412 11.1976 10.6412C10.9137 10.6412 10.7177 10.5833 10.5492 10.4901C10.3734 10.3929 10.2196 10.2538 10.0182 10.0683L10.0172 10.0674L10.0125 10.0631C9.55675 9.64908 8.9477 9.09577 7.80344 9.09577C6.65811 9.09577 6.04795 9.65008 5.59196 10.0643L5.58882 10.0672L18.2004 12.2ZM17.3471 6.34324C17.1702 6.24552 17.0157 6.10632 16.8122 5.92155L17.3471 6.34324ZM18 3.90644H18.2V3.70644V2.54654V2.34654H18C17.715 2.34654 17.5184 2.28834 17.3491 2.1949C17.1723 2.09735 17.0178 1.95812 16.8143 1.77285L16.8138 1.77232L16.8008 1.76056C16.3467 1.35022 15.738 0.8 14.6004 0.8C13.4619 0.8 12.852 1.35119 12.3977 1.76174L12.386 1.77232L12.3854 1.77285C12.182 1.95812 12.0274 2.09735 11.8507 2.1949C11.6814 2.28834 11.4848 2.34654 11.1998 2.34654C10.9148 2.34654 10.7182 2.28834 10.5489 2.1949C10.3721 2.09735 10.2175 1.95812 10.0141 1.77285L10.0135 1.77232L10.0005 1.76056C9.54653 1.35022 8.93776 0.8 7.80022 0.8C6.66165 0.8 6.05177 1.35119 5.59752 1.76174L5.58581 1.77232L5.58522 1.77285C5.38181 1.95812 5.22723 2.09735 5.05045 2.1949C4.88114 2.28834 4.68455 2.34654 4.39957 2.34654C4.11459 2.34654 3.918 2.28834 3.74869 2.1949C3.57191 2.09735 3.41733 1.95812 3.21392 1.77285L3.21333 1.77232C3.20943 1.76879 3.20551 1.76525 3.20158 1.7617C2.74737 1.3512 2.13749 0.8 1 0.8H0.8V1V2.1599V2.3599H1C1.28498 2.3599 1.48157 2.4181 1.65088 2.51153C1.82766 2.60909 1.98224 2.74832 2.18565 2.93359L2.18584 2.93376L2.19206 2.93941C2.64746 3.35314 3.25648 3.90644 4.39957 3.90644C5.54371 3.90644 6.15384 3.35214 6.60949 2.9382L6.61437 2.93376L6.61456 2.93359C6.81797 2.74832 6.97255 2.60909 7.14933 2.51153C7.31864 2.4181 7.51524 2.3599 7.80022 2.3599C8.08519 2.3599 8.28179 2.4181 8.4511 2.51153C8.62788 2.60909 8.78246 2.74832 8.98587 2.93359L8.98606 2.93376L9.0012 2.94752C9.45506 3.35996 10.0564 3.90644 11.1976 3.90644C12.3415 3.90644 12.9472 3.35745 13.4028 2.94447L13.4144 2.93392L13.4148 2.93359C13.6182 2.74832 13.7728 2.60909 13.9495 2.51153C14.1189 2.4181 14.3155 2.3599 14.6004 2.3599C14.8854 2.3599 15.082 2.4181 15.2513 2.51153C15.4281 2.60909 15.5827 2.74832 15.7861 2.93359L15.7863 2.93376L15.7912 2.93824C16.2468 3.35214 16.8569 3.90644 18 3.90644ZM8.98394 7.07702L8.99292 7.0852C9.44802 7.49979 10.0516 8.04967 11.1976 8.04967C12.3505 8.04967 12.9564 7.4978 13.4149 7.07669C13.6182 6.89208 13.7727 6.75318 13.9495 6.65577C14.1188 6.56243 14.3155 6.50423 14.6004 6.50423C14.8854 6.50423 15.082 6.56243 15.2514 6.65577C15.4282 6.7532 15.5827 6.89214 15.7861 7.07681L8.98394 7.07702ZM12.3847 5.92024L12.3835 5.92134H16.812L16.8094 5.91902C16.3533 5.50356 15.7442 4.94869 14.5983 4.94869C13.4513 4.94869 12.8411 5.50456 12.3847 5.92024ZM9.88268 10.2154C10.2788 10.5802 10.5675 10.8412 11.1976 10.8412C11.8277 10.8412 12.1186 10.5791 12.518 10.2154L12.518 10.2153C12.9689 9.80578 13.5303 9.29577 14.5983 9.29577C15.6652 9.29577 16.2255 9.80476 16.6761 10.2141L16.6775 10.2154C17.0768 10.5791 17.3656 10.8412 17.9979 10.8412L17.9996 11.8C17.9998 11.8 17.9999 11.8 18 11.8V12L17.8 12.0004L17.8 11.9938C16.8623 11.9346 16.3438 11.4636 15.9223 11.0807L15.9208 11.0793C15.5214 10.7156 15.2327 10.4535 14.6004 10.4535C13.9682 10.4535 13.6794 10.7156 13.2801 11.0793L13.2749 11.084C12.8239 11.4939 12.267 12 11.1976 12C10.1317 12 9.57706 11.496 9.12791 11.088L9.11839 11.0793C8.71908 10.7156 8.43032 10.4535 7.79807 10.4535C7.16581 10.4535 6.87706 10.7156 6.47774 11.0793L6.4762 11.0807C6.02562 11.49 5.46427 12 4.39742 12C3.33257 12 2.77454 11.493 2.3244 11.0841L2.32033 11.0804C1.92101 10.7167 1.63225 10.4546 1 10.4546V10.2546V9.49577L9.88268 10.2154Z" fill="#174A94" stroke="#174A94" stroke-width="0.4"/>
</svg>
