<svg width="19" height="13" viewBox="0 0 19 13" fill="none" xmlns="http://www.w3.org/2000/svg">
<path d="M17.9977 3.70605C16.9307 3.70605 16.3693 3.1949 15.9184 2.78533C15.5191 2.42164 15.2303 2.15951 14.5981 2.15951C13.9658 2.15951 13.6771 2.42164 13.2778 2.78533C12.8258 3.1949 12.2687 3.70605 11.1953 3.70605C10.1219 3.70605 9.56904 3.1949 9.1182 2.78533C8.71888 2.42164 8.43013 2.15951 7.79787 2.15951C7.16562 2.15951 6.87686 2.42164 6.47755 2.78533C6.0267 3.1949 5.4653 3.70605 4.39723 3.70605C3.32916 3.70605 2.76883 3.1949 2.31798 2.78533C1.91866 2.42164 1.62991 2.15951 0.997656 2.15951V0.999609C2.06465 0.999609 2.62606 1.51294 3.0769 1.92032C3.47622 2.28402 3.76497 2.54615 4.39723 2.54615C5.02948 2.54615 5.31823 2.28402 5.71755 1.92032C6.1684 1.51294 6.7298 0.999609 7.79787 0.999609C8.86594 0.999609 9.42627 1.51294 9.87712 1.92032C10.2764 2.28402 10.5652 2.54615 11.1974 2.54615C11.8297 2.54615 12.1185 2.28402 12.5178 1.92032C12.9686 1.51294 13.53 0.999609 14.5981 0.999609C15.6662 0.999609 16.2265 1.51294 16.6773 1.92032C17.0767 2.28402 17.3654 2.54615 17.9977 2.54615V3.70605Z" fill="#174A94"/>
<path d="M17.9977 7.84928C16.9307 7.84928 16.3693 7.33923 15.9184 6.92857C15.5191 6.56596 15.2303 6.30383 14.5981 6.30383C13.9658 6.30383 13.6771 6.56596 13.2778 6.92857C12.8258 7.3436 12.2687 7.84928 11.1953 7.84928C10.1219 7.84928 9.56689 7.33923 9.11605 6.92857C8.71673 6.56596 8.42798 6.30383 7.79572 6.30383C7.16347 6.30383 6.87472 6.56596 6.4754 6.92857C6.0267 7.3436 5.4653 7.84928 4.39723 7.84928C3.32916 7.84928 2.76883 7.3436 2.31798 6.93293C1.91866 6.57033 1.62991 6.3082 0.997656 6.3082V5.1483C2.06465 5.1483 2.62606 5.65835 3.0769 6.06902C3.47622 6.43162 3.76497 6.69484 4.39723 6.69484C5.02948 6.69484 5.31823 6.42944 5.72077 6.06902C6.17162 5.65835 6.73302 5.1483 7.80109 5.1483C8.86916 5.1483 9.42949 5.65835 9.88034 6.06902C10.2764 6.42944 10.5652 6.69484 11.1953 6.69484C11.8254 6.69484 12.1163 6.43162 12.5156 6.06902C12.9665 5.65835 13.5279 5.1483 14.5959 5.1483C15.664 5.1483 16.2243 5.65835 16.6752 6.06902C17.0745 6.43162 17.3633 6.69484 17.9955 6.69484L17.9977 7.84928Z" fill="#174A94"/>
<path d="M17.9977 11.9996C16.9307 11.9996 16.3693 11.4885 15.9184 11.0789C15.5191 10.7152 15.2303 10.4531 14.5981 10.4531C13.9658 10.4531 13.6771 10.7152 13.2778 11.0789C12.8258 11.4896 12.2687 11.9996 11.1953 11.9996C10.1219 11.9996 9.56689 11.4885 9.11605 11.0789C8.71673 10.7152 8.42798 10.4531 7.79572 10.4531C7.16347 10.4531 6.87472 10.7152 6.4754 11.0789C6.02456 11.4885 5.46315 11.9996 4.39508 11.9996C3.32701 11.9996 2.76883 11.4896 2.31798 11.08C1.91866 10.7163 1.62991 10.4542 0.997656 10.4542V9.29538C2.06465 9.29538 2.62606 9.80543 3.0769 10.215C3.47622 10.5787 3.76497 10.8408 4.39723 10.8408C5.02948 10.8408 5.31823 10.5798 5.72077 10.215C6.17162 9.80543 6.73302 9.29538 7.80109 9.29538C8.86916 9.29538 9.42949 9.80543 9.88034 10.215C10.2764 10.5798 10.5652 10.8408 11.1953 10.8408C11.8254 10.8408 12.1163 10.5787 12.5156 10.215C12.9665 9.80543 13.5279 9.29538 14.5959 9.29538C15.664 9.29538 16.2243 9.80543 16.6752 10.215C17.0745 10.5787 17.3633 10.8408 17.9955 10.8408L17.9977 11.9996Z" fill="#174A94"/>
<path fill-rule="evenodd" clip-rule="evenodd" d="M18.3977 4.10605H17.9977C16.7772 4.10605 16.1184 3.50743 15.6573 3.08857L15.6494 3.0814C15.4423 2.89272 15.3048 2.77037 15.1523 2.68625C15.0149 2.61038 14.8519 2.55951 14.5981 2.55951C14.3443 2.55951 14.1813 2.61038 14.0438 2.68625C13.8914 2.77037 13.7543 2.89238 13.5471 3.08106L13.532 3.09475C13.0708 3.51282 12.4165 4.10605 11.1953 4.10605C9.97662 4.10605 9.32644 3.51512 8.867 3.09755C8.86105 3.09214 8.85512 3.08676 8.84923 3.0814C8.64207 2.89272 8.50455 2.77037 8.35212 2.68625C8.21464 2.61038 8.0517 2.55951 7.79787 2.55951C7.54404 2.55951 7.3811 2.61038 7.24362 2.68625C7.09119 2.77037 6.95405 2.89238 6.74689 3.08106L6.7387 3.0885C6.27757 3.50745 5.61871 4.10605 4.39723 4.10605C3.17678 4.10605 2.51901 3.50842 2.05814 3.08969L2.04902 3.0814C1.84186 2.89272 1.70433 2.77037 1.55191 2.68625C1.41442 2.61038 1.25149 2.55951 0.997656 2.55951H0.597656V0.599609H0.997656C2.21227 0.599609 2.87093 1.19496 3.33033 1.6102C3.33527 1.61467 3.34018 1.61911 3.34508 1.62354L3.34625 1.6246C3.55341 1.81328 3.69055 1.93529 3.84297 2.01941C3.98046 2.09528 4.1434 2.14615 4.39723 2.14615C4.65106 2.14615 4.81399 2.09528 4.95148 2.01941C5.10391 1.93529 5.24105 1.81328 5.44821 1.6246L5.44937 1.62353C5.45425 1.61914 5.45914 1.61472 5.46405 1.61027C5.92354 1.19495 6.58219 0.599609 7.79787 0.599609C9.01255 0.599609 9.67011 1.19401 10.1293 1.60912L10.1465 1.6246C10.3536 1.81328 10.4908 1.93529 10.6432 2.01941C10.7807 2.09528 10.9436 2.14615 11.1974 2.14615C11.4513 2.14615 11.6142 2.09528 11.7517 2.01941C11.9041 1.93529 12.0413 1.81328 12.2484 1.6246L12.2496 1.62353L12.2643 1.61027C12.7238 1.19495 13.3824 0.599609 14.5981 0.599609C15.8128 0.599609 16.4703 1.194 16.9296 1.60912L16.9467 1.6246C17.1538 1.81328 17.291 1.93529 17.4434 2.01941C17.5809 2.09528 17.7438 2.14615 17.9977 2.14615H18.3977V4.10605ZM18.3984 8.24928H17.9977C16.7743 8.24928 16.1153 7.649 15.6535 7.22829L15.6495 7.22469C15.4422 7.03645 15.3051 6.91462 15.1525 6.83054C15.0149 6.7547 14.8519 6.70384 14.5981 6.70384C14.3443 6.70384 14.1812 6.7547 14.0436 6.83054C13.8913 6.9145 13.7544 7.0361 13.5476 7.22388C13.0823 7.65113 12.4278 8.24928 11.1953 8.24928C9.97176 8.24928 9.31938 7.65492 8.85854 7.23508L8.84715 7.22469C8.63985 7.03645 8.50272 6.91462 8.35016 6.83054C8.21257 6.7547 8.04955 6.70384 7.79572 6.70384C7.5419 6.70384 7.37888 6.7547 7.24129 6.83054C7.08906 6.91444 6.95219 7.03592 6.74564 7.22348C6.28236 7.65197 5.6237 8.24928 4.39723 8.24928C3.17004 8.24928 2.51225 7.65095 2.04885 7.22885C1.84168 7.04073 1.70459 6.91896 1.55209 6.83491C1.4145 6.75907 1.25148 6.7082 0.997656 6.7082H0.597656V4.7483H0.997656C2.221 4.7483 2.88 5.34858 3.34186 5.76929L3.3458 5.77289C3.55332 5.96133 3.69045 6.08342 3.84316 6.16779C3.98078 6.24383 4.14369 6.29484 4.39723 6.29484C4.6501 6.29484 4.8131 6.24358 4.95163 6.16701C5.10545 6.08198 5.24307 5.95982 5.45267 5.77216L5.45574 5.76936C5.9177 5.34856 6.57668 4.7483 7.80109 4.7483C9.02445 4.7483 9.68233 5.34758 10.144 5.76814L10.1495 5.77316C10.3557 5.96077 10.4921 6.08282 10.6444 6.16745C10.7815 6.24364 10.9436 6.29484 11.1953 6.29484C11.4476 6.29484 11.6106 6.24392 11.7488 6.16768C11.9017 6.08329 12.0395 5.96105 12.2464 5.77315L12.2506 5.76936C12.7125 5.34856 13.3715 4.7483 14.5959 4.7483C15.8193 4.7483 16.4772 5.34758 16.9389 5.76814L16.9441 5.77289C17.1516 5.96133 17.2887 6.08342 17.4414 6.16779C17.5791 6.24383 17.742 6.29484 17.9955 6.29484H18.3948L18.3984 8.24928ZM16.6752 6.06902C16.2243 5.65835 15.664 5.1483 14.5959 5.1483C13.5279 5.1483 12.9665 5.65835 12.5156 6.06902C12.1163 6.43162 11.8254 6.69484 11.1953 6.69484C10.5681 6.69484 10.2791 6.43187 9.88579 6.07398L9.88034 6.06902C9.42949 5.65835 8.86916 5.1483 7.80109 5.1483C6.73302 5.1483 6.17162 5.65835 5.72077 6.06902L5.70649 6.08181C5.31133 6.4357 5.02198 6.69484 4.39723 6.69484C3.76608 6.69484 3.47723 6.43254 3.079 6.07092L3.0769 6.06902C2.68605 5.713 2.2121 5.28228 1.39766 5.17396C1.27265 5.15733 1.13963 5.1483 0.997656 5.1483V6.3082C1.62991 6.3082 1.91866 6.57033 2.31798 6.93293C2.76883 7.3436 3.32916 7.84928 4.39723 7.84928C5.4653 7.84928 6.0267 7.3436 6.4754 6.92857C6.87472 6.56596 7.16347 6.30383 7.79572 6.30383C8.42798 6.30383 8.71673 6.56596 9.11605 6.92857L9.12228 6.93424C9.57201 7.34391 10.1268 7.84928 11.1953 7.84928C12.2687 7.84928 12.8258 7.3436 13.2778 6.92857C13.6771 6.56596 13.9658 6.30383 14.5981 6.30383C15.2303 6.30383 15.5191 6.56596 15.9184 6.92857C16.3093 7.28458 16.7832 7.71528 17.5976 7.82362C17.7226 7.84024 17.8557 7.84928 17.9977 7.84928L17.9955 6.69484C17.3644 6.69484 17.0755 6.43254 16.6773 6.07092L16.6752 6.06902ZM18.3984 12.3996H17.9977C16.7772 12.3996 16.1183 11.801 15.6573 11.3821L15.6494 11.375C15.4423 11.1863 15.3048 11.0639 15.1523 10.9798C15.0149 10.904 14.8519 10.8531 14.5981 10.8531C14.3443 10.8531 14.1813 10.904 14.0438 10.9798C13.8914 11.0639 13.7543 11.186 13.5471 11.3746L13.5358 11.3849C13.0738 11.8048 12.4194 12.3996 11.1953 12.3996C9.97459 12.3996 9.32228 11.8068 8.86228 11.3888L8.84708 11.375C8.63992 11.1863 8.5024 11.0639 8.34998 10.9798C8.21249 10.904 8.04956 10.8531 7.79572 10.8531C7.54189 10.8531 7.37896 10.904 7.24147 10.9798C7.08905 11.0639 6.9519 11.186 6.74474 11.3746L6.73659 11.3821C6.27545 11.801 5.61659 12.3996 4.39508 12.3996C3.17552 12.3996 2.51993 11.8039 2.05916 11.3853L2.04902 11.3761C1.84186 11.1874 1.70433 11.065 1.55191 10.9809C1.41442 10.9051 1.25149 10.8542 0.997656 10.8542H0.597656V8.89538H0.997656C2.21923 8.89538 2.87811 9.49397 3.33957 9.91321L3.34587 9.91893C3.55303 10.1076 3.69055 10.23 3.84297 10.3141C3.98046 10.39 4.1434 10.4408 4.39723 10.4408C4.65128 10.4408 4.81439 10.3901 4.95236 10.3142C5.10526 10.2301 5.24314 10.108 5.45181 9.91893M5.45181 9.91893L5.45803 9.91328C5.91958 9.49396 6.57844 8.89538 7.80109 8.89538C9.02269 8.89538 9.68046 9.49298 10.1418 9.91207L10.1493 9.91893L10.1513 9.92077C10.3561 10.1093 10.4925 10.2311 10.6436 10.3147C10.7802 10.3902 10.9424 10.4408 11.1953 10.4408C11.4479 10.4408 11.6109 10.39 11.7489 10.314C11.9017 10.2298 12.0395 10.1076 12.2463 9.91928L12.2529 9.91328C12.7144 9.49396 13.3733 8.89538 14.5959 8.89538C15.8175 8.89538 16.4753 9.49298 16.9366 9.91207L16.9441 9.91893C17.1513 10.1076 17.2888 10.23 17.4413 10.3141C17.5787 10.39 17.7417 10.4408 17.9955 10.4408H18.3948L18.3984 12.3996M5.72077 10.215C5.31823 10.5798 5.02948 10.8408 4.39723 10.8408C3.76497 10.8408 3.47622 10.5787 3.0769 10.215C2.68606 9.85994 2.21206 9.42933 1.39766 9.32103C1.27265 9.30441 1.13963 9.29538 0.997656 9.29538V10.4542C1.62991 10.4542 1.91866 10.7163 2.31798 11.08L2.32206 11.0837C2.77219 11.4926 3.33023 11.9996 4.39508 11.9996C5.46193 11.9996 6.02328 11.4897 6.47386 11.0803L6.4754 11.0789C6.87472 10.7152 7.16347 10.4531 7.79572 10.4531C8.42798 10.4531 8.71673 10.7152 9.11605 11.0789L9.12557 11.0876C9.57472 11.4956 10.1294 11.9996 11.1953 11.9996C12.2646 11.9996 12.8216 11.4935 13.2726 11.0836L13.2778 11.0789C13.6771 10.7152 13.9658 10.4531 14.5981 10.4531C15.2303 10.4531 15.5191 10.7152 15.9184 11.0789L15.92 11.0803C16.3105 11.4351 16.7843 11.8655 17.5976 11.9739C17.7226 11.9906 17.8557 11.9996 17.9977 11.9996L17.9955 10.8408C17.3633 10.8408 17.0745 10.5787 16.6752 10.215L16.6738 10.2137C16.2232 9.80437 15.6629 9.29538 14.5959 9.29538C13.5279 9.29538 12.9665 9.80543 12.5156 10.215C12.1163 10.5787 11.8254 10.8408 11.1953 10.8408C10.5652 10.8408 10.2764 10.5798 9.88034 10.215L9.87893 10.2137C9.42832 9.80437 8.86805 9.29538 7.80109 9.29538C6.73302 9.29538 6.17162 9.80543 5.72077 10.215ZM16.6773 1.92032C17.0767 2.28402 17.3654 2.54615 17.9977 2.54615V3.70605C17.8557 3.70605 17.7227 3.697 17.5977 3.68034C16.7843 3.57197 16.3105 3.14157 15.92 2.78677L15.9184 2.78533C15.5191 2.42164 15.2303 2.15951 14.5981 2.15951C13.9658 2.15951 13.6771 2.42164 13.2778 2.78533L13.2692 2.79311C12.8188 3.20134 12.2619 3.70605 11.1953 3.70605C10.1315 3.70605 9.57901 3.20404 9.13036 2.79639L9.1182 2.78533C8.71888 2.42164 8.43013 2.15951 7.79787 2.15951C7.16562 2.15951 6.87686 2.42164 6.47755 2.78533L6.47597 2.78676C6.0254 3.19609 5.46405 3.70605 4.39723 3.70605C3.33147 3.70605 2.77125 3.19711 2.32091 2.78799L2.31798 2.78533C1.91866 2.42164 1.62991 2.15951 0.997656 2.15951V0.999609C1.13963 0.999609 1.27265 1.0087 1.39766 1.02542C2.2063 1.13356 2.67928 1.561 3.06854 1.91277L3.0769 1.92032C3.47622 2.28402 3.76497 2.54615 4.39723 2.54615C5.02948 2.54615 5.31823 2.28402 5.71755 1.92032L5.72591 1.91277C6.17534 1.50663 6.73639 0.999609 7.79787 0.999609C8.85831 0.999609 9.41824 1.50563 9.86744 1.91158L9.87712 1.92032C10.2764 2.28402 10.5652 2.54615 11.1974 2.54615C11.8297 2.54615 12.1185 2.28402 12.5178 1.92032L12.5261 1.91277C12.9756 1.50663 13.5366 0.999609 14.5981 0.999609C15.6585 0.999609 16.2185 1.50563 16.6677 1.91158L16.6773 1.92032Z" fill="#174A94"/>
</svg>
