<svg width="26" height="26" viewBox="0 0 26 26" fill="none" xmlns="http://www.w3.org/2000/svg">
<path d="M8.05022 12.9989C10.1016 12.9989 11.7645 11.3359 11.7645 9.2846C11.7645 7.23325 10.1016 5.57031 8.05022 5.57031C5.99888 5.57031 4.33594 7.23325 4.33594 9.2846C4.33594 11.3359 5.99888 12.9989 8.05022 12.9989Z" stroke="#F2E9E1" stroke-width="2" stroke-linecap="round" stroke-linejoin="round"/>
<path d="M11.1445 6.80859H19.1922C20.2173 6.80859 21.6683 7.21097 21.6683 9.28478C21.6683 11.3586 20.2173 11.761 19.1922 11.761H11.1445M17.9541 21.6657C16.969 21.6657 16.0242 21.2744 15.3277 20.5778C14.6311 19.8813 14.2398 18.9365 14.2398 17.9515C14.2398 16.9664 14.6311 16.0216 15.3277 15.3251C16.0242 14.6285 16.969 14.2372 17.9541 14.2372C18.9391 14.2372 19.8839 14.6285 20.5805 15.3251C21.277 16.0216 21.6683 16.9664 21.6683 17.9515C21.6683 18.9365 21.277 19.8813 20.5805 20.5778C19.8839 21.2744 18.9391 21.6657 17.9541 21.6657Z" stroke="#F2E9E1" stroke-width="2" stroke-linecap="round" stroke-linejoin="round"/>
<path d="M14.8597 15.4746H6.81213C5.78699 15.4746 4.33594 15.877 4.33594 17.9508C4.33594 20.0246 5.78699 20.427 6.81213 20.427H14.8597" stroke="#F2E9E1" stroke-width="2" stroke-linecap="round" stroke-linejoin="round"/>
</svg>
