<svg width="50" height="50" viewBox="0 0 50 50" fill="none" xmlns="http://www.w3.org/2000/svg">
<circle opacity="0.3" cx="25" cy="25" r="24" stroke="#F2E9E1" stroke-width="2"/>
<path d="M20.0502 24.9989C22.1016 24.9989 23.7645 23.3359 23.7645 21.2846C23.7645 19.2333 22.1016 17.5703 20.0502 17.5703C17.9989 17.5703 16.3359 19.2333 16.3359 21.2846C16.3359 23.3359 17.9989 24.9989 20.0502 24.9989Z" stroke="#F2E9E1" stroke-width="2" stroke-linecap="round" stroke-linejoin="round"/>
<path d="M23.1445 18.8086H31.1922C32.2173 18.8086 33.6683 19.211 33.6683 21.2848C33.6683 23.3586 32.2173 23.761 31.1922 23.761H23.1445M29.9541 33.6657C28.969 33.6657 28.0242 33.2744 27.3277 32.5778C26.6311 31.8813 26.2398 30.9365 26.2398 29.9515C26.2398 28.9664 26.6311 28.0216 27.3277 27.3251C28.0242 26.6285 28.969 26.2372 29.9541 26.2372C30.9391 26.2372 31.8839 26.6285 32.5805 27.3251C33.277 28.0216 33.6683 28.9664 33.6683 29.9515C33.6683 30.9365 33.277 31.8813 32.5805 32.5778C31.8839 33.2744 30.9391 33.6657 29.9541 33.6657Z" stroke="#F2E9E1" stroke-width="2" stroke-linecap="round" stroke-linejoin="round"/>
<path d="M26.8597 27.4746H18.8121C17.787 27.4746 16.3359 27.877 16.3359 29.9508C16.3359 32.0246 17.787 32.427 18.8121 32.427H26.8597" stroke="#F2E9E1" stroke-width="2" stroke-linecap="round" stroke-linejoin="round"/>
</svg>
