<svg width="43" height="46" viewBox="0 0 43 46" fill="none" xmlns="http://www.w3.org/2000/svg">
<path d="M5.85995 0.170704C5.66229 0.260548 5.37479 0.476173 5.21308 0.63789C4.61112 1.27578 4.64706 0.503124 4.64706 12.2996V22.982L3.55097 23.018C2.18534 23.0629 1.71815 23.2336 1.06229 23.9523C0.289638 24.7969 0.325576 24.3207 0.352529 32.5324L0.379482 39.7559L0.586123 40.1512C0.900576 40.7262 1.5205 41.2922 2.0955 41.4988C2.58065 41.6875 2.68847 41.6875 14.3232 41.6875C26.0478 41.6875 26.0658 41.6875 26.4521 41.4988C26.9283 41.2742 27.4045 40.7262 27.5392 40.259C27.6201 40.0164 27.6471 38.3363 27.6471 34.4641C27.6471 28.5613 27.665 28.732 27.1529 28.0672C27.0361 27.9055 26.7396 27.6809 26.506 27.573L26.0748 27.3574L14.3771 27.3125C2.68847 27.2676 2.67948 27.2676 2.42792 27.0789C1.54745 26.423 1.54745 25.327 2.42792 24.6711C2.64354 24.5094 2.8412 24.4734 3.66776 24.4555L4.64706 24.4195V24.9496C4.64706 25.3898 4.683 25.5156 4.8537 25.6773C5.06034 25.875 5.39276 25.9289 5.68026 25.8211C6.09354 25.6594 6.08456 26.0188 6.08456 13.5395V1.82383L6.31815 1.6082L6.55175 1.39258L19.615 1.36563L32.6783 1.34766V4.73477C32.6783 7.97813 32.6873 8.13984 32.867 8.49922C32.9748 8.73281 33.1904 8.97539 33.3791 9.09219C33.7115 9.29883 33.7474 9.29883 37.1525 9.32578L40.5846 9.35273V26.7645V44.1762L40.351 44.3918L40.1174 44.6074H23.3346H6.55175L6.32714 44.4008C6.20136 44.284 6.08456 44.0504 6.05761 43.8707C5.97675 43.4035 5.77011 43.2148 5.3119 43.2148C4.83573 43.2148 4.64706 43.4395 4.64706 44.0055C4.64706 44.7512 5.1412 45.4969 5.85995 45.8293C6.21034 45.991 6.84823 46 23.3346 46C39.749 46 40.4678 45.991 40.8092 45.8293C41.2674 45.6227 41.6447 45.2453 41.8514 44.7871C42.0131 44.4457 42.0221 43.691 42.0221 26.1625C42.0221 9.8918 42.0041 7.86133 41.8873 7.56485C41.6986 7.11563 35.0232 0.422268 34.5111 0.179688C34.1517 0 33.9092 0 20.181 0C6.77636 0 6.20136 0.00898361 5.85995 0.170704ZM37.2603 4.80664L40.3599 7.90625H37.2334H34.1158V4.80664C34.1158 3.09961 34.1248 1.70703 34.1428 1.70703C34.1517 1.70703 35.5533 3.09961 37.2603 4.80664ZM14.0807 28.75C20.5314 28.777 25.8142 28.8039 25.8232 28.8219C25.8322 28.8309 25.9221 28.9297 26.0299 29.0375C26.2096 29.2262 26.2096 29.325 26.2096 34.518V39.8098L25.985 40.0254L25.7693 40.25H14.2963C1.61034 40.25 2.45487 40.2859 2.01464 39.675L1.81698 39.3965L1.79003 33.8891L1.77206 28.3816L2.05956 28.5434C2.33808 28.6961 3.03886 28.7051 14.0807 28.75Z" fill="white"/>
<path d="M6.29961 31.1133L6.03906 31.3379V34.5453V37.7528L6.25469 37.9235C6.5332 38.1481 7.01836 38.1481 7.25195 37.9145C7.41367 37.7528 7.43164 37.618 7.43164 36.6567V35.5785H8.11445C9.00391 35.5785 9.41719 35.4528 9.91133 35.0125C10.4953 34.5004 10.702 34.0512 10.702 33.2875C10.693 32.2723 10.3066 31.6434 9.37227 31.1582C9.0668 30.9875 8.81523 30.9516 7.78203 30.9246C6.58711 30.8887 6.56016 30.8887 6.29961 31.1133ZM8.73438 32.47C9.3543 32.7305 9.47109 33.4762 8.94102 33.9164C8.71641 34.1051 8.58164 34.141 8.11445 34.141H7.54844L7.48555 33.593C7.45859 33.2875 7.43164 32.8832 7.43164 32.6946V32.3442H7.92578C8.2043 32.3442 8.56367 32.3981 8.73438 32.47Z" fill="white"/>
<path d="M19.2461 30.9693C19.1473 30.9962 18.9945 31.0771 18.9137 31.158C18.7609 31.2837 18.752 31.5623 18.752 34.5091C18.752 37.7076 18.752 37.7255 18.9496 37.9142C19.1562 38.1029 19.5605 38.1478 19.8301 38.0041C20.0906 37.8603 20.1895 37.4111 20.1895 36.288V35.2369L21.052 35.2009C21.8246 35.174 21.9324 35.156 22.0852 34.9584C22.3098 34.6798 22.3098 34.1947 22.0762 33.9611C21.9234 33.8084 21.7797 33.7814 21.043 33.7814H20.1895V33.0626V32.3439H21.1328C21.9594 32.3439 22.1031 32.3169 22.2559 32.1642C22.4895 31.9306 22.4895 31.4455 22.2648 31.1669C22.1031 30.9603 22.0402 30.9513 20.7555 30.9334C20.0277 30.9244 19.3449 30.9423 19.2461 30.9693Z" fill="white"/>
<path d="M12.329 31.2113L12.1044 31.4359V34.4817C12.1044 38.318 11.9607 38.0035 13.7126 38.0035C15.213 38.0035 15.5993 37.8957 16.2732 37.2758C17.6747 35.991 17.7376 33.143 16.39 31.8223C15.7431 31.1844 15.3118 31.0496 13.8384 31.0137C12.5716 30.9777 12.5626 30.9777 12.329 31.2113ZM14.9165 32.559C15.5634 32.8375 15.8958 33.4934 15.9048 34.4996C15.9048 35.8742 15.3208 36.566 14.1259 36.566H13.5419V34.4996V32.4332H14.081C14.3775 32.4332 14.7548 32.4871 14.9165 32.559Z" fill="white"/>
<path d="M21.7086 7.45724C21.3043 7.57404 20.9179 7.92443 20.7203 8.32872C20.5586 8.67013 20.5316 8.84083 20.5676 9.5506C20.6125 10.5029 20.864 11.3295 21.4929 12.5873L21.8883 13.3869L21.5738 14.3123C21.1336 15.5791 20.5406 16.9986 19.9027 18.3463L19.3636 19.4783L18.5371 19.7658C16.857 20.3588 15.4105 21.2123 14.8355 21.967C14.3054 22.6588 14.2785 23.5932 14.7636 24.285C15.5273 25.3721 16.7672 25.2643 18.034 23.9885C18.573 23.4494 19.5613 22.0838 20.1273 21.0955L20.3699 20.6822L21.6906 20.3678C23.4605 19.9455 23.8648 19.8647 25.3023 19.685L26.5242 19.5233L27.0633 19.9904C29.1656 21.7963 30.5851 22.2365 31.6812 21.41C32.0586 21.1225 32.409 20.3858 32.409 19.8736C32.409 18.6158 31.1871 18.0498 28.4289 18.0408L27.0992 18.0318L26.3535 17.1693C25.4101 16.0733 24.6644 15.094 23.9906 14.0428L23.4605 13.2162L23.7031 12.2369C24.0355 10.9162 24.1793 9.61349 24.0625 8.89474C23.8918 7.8256 23.4066 7.35841 22.4902 7.37638C22.1847 7.37638 21.8343 7.41232 21.7086 7.45724ZM22.6609 9.18224C22.6879 9.39787 22.6699 9.84708 22.625 10.1975C22.5711 10.5389 22.5261 10.8803 22.5261 10.9342C22.5261 10.9971 22.4902 11.051 22.4453 11.051C22.3195 11.051 21.9871 9.90099 21.9871 9.45177C21.9871 8.9756 22.0949 8.8049 22.4004 8.8049C22.5711 8.8049 22.616 8.86779 22.6609 9.18224ZM23.3797 15.7498C23.6222 16.1092 24.1523 16.81 24.5566 17.3041L25.2843 18.2205L24.2691 18.3733C23.7121 18.4541 22.8136 18.6158 22.2836 18.7326C21.7535 18.8404 21.3043 18.9303 21.2953 18.9213C21.2773 18.9123 21.448 18.517 21.6547 18.0498C21.8703 17.5736 22.2207 16.7201 22.4453 16.1451C22.6609 15.5701 22.8586 15.094 22.8855 15.094C22.9125 15.1029 23.1281 15.3904 23.3797 15.7498ZM30.5582 19.694C30.9894 19.8377 31.0433 19.9635 30.7918 20.2151C30.639 20.3678 30.5402 20.3947 30.3156 20.3498C29.9922 20.2779 29.3273 19.9365 28.9949 19.667L28.7703 19.4783L29.489 19.5233C29.8843 19.5502 30.3695 19.6221 30.5582 19.694ZM18.0609 21.6705C16.8211 23.3596 15.8777 24.0154 15.8777 23.1979C15.8777 22.8744 16.4976 22.3084 17.3601 21.8592C18.0699 21.4908 18.2316 21.4459 18.0609 21.6705Z" fill="white"/>
</svg>
