<svg width="99" height="123" viewBox="0 0 99 123" fill="none" xmlns="http://www.w3.org/2000/svg">
<path d="M0 114.89V7.47989C0.00222929 6.136 0.364723 4.81745 1.04951 3.66242C1.73429 2.50738 2.71616 1.55837 3.89221 0.914848C5.06825 0.271324 6.39519 -0.0430259 7.73396 0.00473389C9.07273 0.0524937 10.3741 0.460602 11.5016 1.1863L94.7907 54.8765C95.8454 55.5544 96.7131 56.4874 97.3141 57.5898C97.9152 58.6922 98.2302 59.9286 98.2302 61.1851C98.2302 62.4416 97.9152 63.6779 97.3141 64.7803C96.7131 65.8827 95.8454 66.8158 94.7907 67.4936L11.5016 121.199C10.3741 121.925 9.07273 122.333 7.73396 122.38C6.39519 122.428 5.06825 122.114 3.89221 121.47C2.71616 120.827 1.73429 119.878 1.04951 118.723C0.364723 117.568 0.00222929 116.249 0 114.905V114.89Z" fill="white"/>
</svg>
