<svg width="556" height="1027" viewBox="0 0 556 1027" fill="none" xmlns="http://www.w3.org/2000/svg">
<path opacity="0.4" d="M412.528 1014.17C417.861 1017.14 421.057 1006.46 421.363 1009.12C421.937 1014.18 423.704 1021.09 426.983 1025.16C430.277 1029.2 437.706 1021.09 438.589 1016.02C439.487 1010.92 438.548 999.377 439.759 1000.54C448.907 1009.09 457.33 995.924 448.141 984.493C444.472 979.924 439.107 976.116 441.915 977.138C446.829 978.928 451.252 971.857 450.065 968.665C446.568 959.119 443.465 953.525 437.391 947.498C434.678 944.795 420.956 933.246 418.597 929.222C416.237 925.197 420.012 926.248 422.816 926.289C425.653 926.344 425.574 923.131 420.509 915.231C415.412 907.316 395.05 890.685 395.05 890.685C395.05 890.685 390.989 887.929 387.607 886.712C384.24 885.463 383.824 879.579 379.258 872.858C374.707 866.104 366.987 858.509 367.269 855.114C367.551 851.719 370.677 854.462 375.919 857.623C381.113 860.8 391.896 867.892 391.896 867.892C391.896 867.892 402.105 874.789 405.624 877.366C409.158 879.911 419.783 892.691 426.99 899.14C434.164 905.573 443.166 922.836 445.104 927.994C447.042 933.151 447.838 930.902 449.545 931.519C451.252 932.135 451.483 936.676 452.71 940.279C453.921 943.914 456.165 951.726 459.463 956.746C462.728 961.751 466.753 959.392 467.285 961.488C467.817 963.584 473.035 972.812 477.794 978.057C482.585 983.317 485.833 975.255 485.833 975.255C485.833 975.255 492.323 987.166 498.286 989.965C502.379 991.912 505.852 987.252 507.384 989.471C511.62 995.486 523.046 999.002 526.265 991.908C527.389 989.462 526.56 987.578 520.992 976.615C517.434 969.589 511.395 962.912 513.749 965.052C516.168 967.222 522.455 964.724 519.698 955.766C516.909 946.792 500.64 932.933 496.968 929.029C493.296 925.125 488.239 923.307 477.956 918.296C467.673 913.285 458.954 914.547 454.592 914.236C450.262 913.94 448.098 909.341 443.504 904.489C438.911 899.637 434.558 893.291 425.858 886.602C417.142 879.945 404.044 867.83 402.97 865.555C401.911 863.247 404.232 861.254 405.741 861.462C407.25 861.67 413.577 865.269 421.412 869.077C429.248 872.884 454.152 889.283 454.152 889.283C454.152 889.283 460.426 887.72 458.793 885.218C457.16 882.716 452.667 874.108 452.667 874.108C452.667 874.108 457.978 873.498 463.229 874.742C468.497 876.033 467.78 881.495 474.275 886.39C480.755 891.316 491.501 893.293 495.795 888.474C500.073 883.687 487.543 878.783 484.153 871.484C480.748 864.217 488.931 868.778 493.64 869.843C498.35 870.907 506.112 876.601 509.834 872.569C513.54 868.49 497.6 863.336 495.454 859.687C493.275 856.023 497.771 856.712 502.055 853.809C506.306 850.892 509.179 856.062 513.301 857.867C517.408 859.704 523.552 862.863 528.362 860.172C533.14 857.466 526.17 857.443 520.961 854.297C515.752 851.152 517.848 850.62 518.101 848.192C518.338 845.716 520.646 844.658 523.902 842.678C527.173 840.667 529.046 841.675 531.867 841.763C534.703 841.819 540.923 843.171 544.389 840.585C547.872 838.047 544.112 836.964 540.064 833.273C535.984 829.567 537.225 832.235 533.722 829.706C530.188 827.161 533.445 826.084 534.634 823.67C535.822 821.255 540.424 820.073 542.715 818.967C545.023 817.909 548.054 817.39 551.508 815.819C554.945 814.2 555.532 813.46 555.074 809.477C554.616 805.495 552.28 807.52 547.599 805.489C542.919 803.457 546.609 799.41 546.609 799.41L549.597 787.775C549.597 787.775 550.119 782.886 546.49 777.081C542.876 771.323 539.162 769.32 533.515 767.26C527.899 765.215 522.32 768.285 521.266 771.077C520.276 773.9 527.145 777.678 529.758 779.275C532.339 780.856 538.45 779.882 541.063 781.478C543.676 783.075 543.46 790.618 543.46 790.618L539.023 801.094L532.496 805.085C532.496 805.085 529.13 803.836 527.676 800.792C526.238 797.716 523.939 792.74 520.128 786.573C516.317 780.407 513.204 776.73 508.212 779.06C503.221 781.39 511.907 789.014 513.105 793.584C514.303 798.153 514.849 799.315 513.632 802.696C512.383 806.062 504.9 795.992 501.31 796.284C497.688 796.56 497.322 803.758 497.322 803.758C497.322 803.758 499.26 808.915 498.543 814.377C497.827 819.839 498.201 827.625 498.201 827.625C498.201 827.625 497.062 834.22 495.287 837.374C493.496 840.561 492.521 834.45 491.673 831.616C490.794 828.766 490.088 820.196 490.088 820.196C490.088 820.196 489.325 813.558 485.805 810.982C482.271 808.437 480.148 810.838 476.665 813.377C473.183 815.915 476.448 820.92 478.192 826.651C479.903 832.367 479.163 831.78 477.164 836.475C475.133 841.155 474.328 836.419 472.344 832.182C470.377 827.991 469.166 824.356 466.335 817.284C463.504 810.212 460.401 813.519 455.409 815.849C450.418 818.179 453.989 825.839 454.965 832.852C455.895 839.882 455.271 835.507 452.12 838.831C449.017 842.138 449.307 844.825 445.071 847.71C440.852 850.643 439.848 845.5 440.325 841.531C440.819 837.609 444.118 834.631 444.877 827.267C445.668 819.919 443.54 820.435 437.966 816.489C432.425 812.558 428.507 817.164 425.344 821.422C422.212 825.696 419.899 833.771 416.134 839.704C412.369 845.638 399.847 846.815 393.181 848.545C386.514 850.274 376.685 844.145 364.798 835.665C352.927 827.233 325.235 801.859 313.828 790.392C302.421 778.925 290.27 765.889 289.617 762.481C288.933 759.057 300.724 764.276 305.373 766.293C310.054 768.324 315.517 769.041 320.291 774.254C325.083 779.515 337.701 794.617 344.154 801.412C350.575 808.193 362.417 817.593 362.744 813.278C363.055 808.917 349.012 789.804 349.012 789.804C349.012 789.804 349.322 785.442 351.825 783.81C354.327 782.177 355.386 784.485 358.531 788.177C361.612 791.84 378.82 806.694 382.505 809.663C386.205 812.601 378.787 793.66 379.614 791.426C380.425 789.146 383.162 793.036 388.917 797.343C394.672 801.65 410.931 808.525 415.066 809.395C419.201 810.265 409.543 797.513 404.937 793.595C400.283 789.694 405.987 789.821 410.363 789.197C414.706 788.559 428.384 793.852 428.384 793.852C428.384 793.852 434.993 794.056 437.524 791.457C440.04 788.89 431.437 786.365 428.643 784.408C425.864 782.418 431.58 780.708 433.269 780.374C434.989 780.055 440.646 780.199 443.889 779.154C447.164 778.124 449.431 770.969 449.431 770.969C449.431 770.969 450.509 765.325 447.73 763.336C444.967 761.394 444.769 760.986 445.597 758.753C446.392 756.504 451.79 753.073 456.07 749.189C460.318 745.289 458.786 739.031 456.065 735.188C453.345 731.345 450.284 732.75 445.113 735.622C439.927 738.527 446.796 742.305 447.841 745.548C448.887 748.79 445.278 748.131 440.181 749.117C435.037 750.12 439.894 759.529 435.282 762.628C430.67 765.727 430.754 761.924 429.029 757.142C427.257 752.378 427.604 753.131 422.803 749.788C418.001 746.444 418.833 749.311 415.911 752.978C412.974 756.678 416.493 759.255 414.504 762.034C412.547 764.827 410.79 760.031 410.106 756.607C409.453 753.199 410.657 750.752 408.569 745.25C406.433 739.684 400.182 747.297 400.182 747.297C400.182 747.297 392.588 755.016 388.882 759.095C385.176 763.174 383.058 758.558 379.089 758.081C375.12 757.604 376.897 755.352 377.751 751.249C378.621 747.114 380.536 746.222 378.779 741.425C377.054 736.644 370.308 747.276 370.308 747.276C370.308 747.276 364.281 753.348 356.801 756.376C349.32 759.404 353.253 754.766 351.301 750.544C349.35 746.321 353.193 743.602 355.779 738.166C358.398 732.746 352.348 732.769 345.738 732.565C339.114 732.392 328.567 743.843 323.049 745.961C317.53 748.08 320.27 743.972 318.724 738.649C317.162 733.278 314.255 736.091 309.7 737.256C305.13 738.454 293.131 747.762 289.665 750.348C286.183 752.886 285.151 748.709 285.151 748.709C285.151 748.709 278.766 747.043 262.989 729.184C247.212 711.324 235.624 699.496 235.92 695.167C236.262 690.82 240.282 695.478 243.774 699.924C247.234 704.355 258.099 715.642 264.076 717.506C270.084 719.384 261.637 710.267 258.719 706.016C255.801 701.765 261.462 702.89 265.204 703.926C268.979 704.977 278.86 716.189 284.984 714.28C291.077 712.356 279.601 704.66 277.089 699.308C274.592 693.924 279.227 696.875 283.574 697.218C287.904 697.514 298.963 708.227 304.033 709.111C309.136 710.01 308.451 706.586 305.398 701.957C302.299 697.345 301.661 693.905 305.278 691.744C308.942 689.566 314.455 694.464 320.602 698.605C326.718 702.731 337.699 710.231 343.749 710.208C349.799 710.185 341.353 701.068 341.353 701.068C341.353 701.068 341.076 697.447 344.877 696.629C348.694 695.778 361.725 715.782 365.79 719.52C369.855 723.258 367.081 714.253 369.795 712.093C372.492 709.887 373.722 714.472 378.297 718.374C382.903 722.292 383.273 716.076 383.723 713.977C384.19 711.925 381.466 707.099 384.024 702.631C386.614 698.177 393.872 709.709 398.015 716.661C402.174 723.58 398.705 725.184 399.542 729.935C400.379 734.686 407.368 726.758 408.461 721.083C409.57 715.454 399.862 710.638 398.289 707.184C396.685 703.715 399.414 701.524 397.415 697.318C395.448 693.128 390.82 696.179 386.879 694.735C382.97 693.307 386.574 692.08 386.764 686.407C386.906 680.75 383.076 682.535 376.707 680.837C370.338 679.139 359.745 678.49 359.745 678.49C359.745 678.49 358.473 675.806 361.036 673.222C363.567 670.623 365.161 667.108 363.164 663.805C361.184 660.549 353.353 661.841 349.583 662.675C345.767 663.525 334.147 673.602 330.302 675.419C326.472 677.204 327.66 674.79 327.416 671.183C327.124 667.594 332.236 666.576 332.926 662.983C333.601 659.422 333.221 658.653 328.907 658.325C324.545 658.014 322.578 653.824 318.776 654.642C314.96 655.492 306.846 669.081 303.951 670.879C301.088 672.693 301.884 670.444 303.705 666.37C305.509 662.249 308.209 661.024 306.998 657.389C305.754 653.739 305.394 653.92 303.311 653.517C301.243 653.082 296.812 656.542 294.444 658.552C292.155 660.56 291.428 659.038 286.858 660.235C282.288 661.433 278.832 671.003 276.242 675.456C273.637 679.942 269.378 676.778 269.378 676.778C269.378 676.778 271.367 673.999 273.018 668.55C274.702 663.117 272.953 664.402 269.405 662.792C265.857 661.182 259.714 671.042 256.656 673.429C253.534 675.787 252.979 676.542 249.006 675.083C245.098 673.654 251.037 670.403 252.268 666.087C253.53 661.786 251.462 661.351 247.48 661.808C243.497 662.266 238.557 669.679 235.41 673.985C232.278 678.259 225.29 677.286 220.248 675.436C215.192 673.618 212.847 669.561 207.069 659.204C201.291 648.847 181.309 611.968 179.705 608.499C178.085 605.062 179.668 603.384 183.272 602.158C186.875 600.932 188.721 603.81 192.98 606.974C197.255 610.106 203.411 620.329 207.319 621.758C211.275 623.17 206.016 615.844 207.551 614.183C209.087 612.521 214.088 617.176 221.263 623.609C228.469 630.058 236.379 631.979 240.417 628.685C244.487 625.407 234.32 616.608 230.24 612.902C226.192 609.211 230.944 608.375 234.913 608.852C238.882 609.329 241.814 612.646 252.023 619.543C262.232 626.44 266.127 628.803 271.483 627.274C276.806 625.729 268.865 611.677 270.826 609.865C272.769 608.005 275.701 611.322 280.882 615.434C286.062 619.547 292.418 622.179 295.869 619.625C299.319 617.072 293.778 613.141 290.106 609.236C286.434 605.332 289.227 606.387 292.877 605.144C296.512 603.933 304.154 608.314 311.12 616.256C318.086 624.198 328.646 632.831 332.976 633.127C337.338 633.438 334.396 623.137 332.945 620.995C331.478 618.886 335.1 618.609 338.676 619.253C342.237 619.928 350.323 629.226 352.446 626.825C354.601 624.439 348.098 613.463 346.479 610.026C344.859 606.589 353.704 608.523 360.786 612.678C367.854 616.864 371.259 624.131 372.022 630.768C372.785 637.406 366.722 638.363 366.411 642.724C366.083 647.039 374.973 648.054 378.758 647.188C382.559 646.37 384.48 638.461 382.135 634.405C379.791 630.348 383.958 631.233 386.835 628.485C389.759 625.72 387.58 622.056 384.481 617.444C381.381 612.832 376.687 611.735 372.565 609.931C368.443 608.126 370.179 607.775 371.912 606.522C373.661 605.237 377.491 603.452 373.651 598.252C369.827 593.021 362.014 595.263 358.169 597.08C354.339 598.865 349.464 597.408 349.519 594.572C349.606 591.751 353.696 593.54 356.12 588.694C358.512 583.833 352.896 581.788 349.53 580.539C346.18 579.337 335.522 587.558 328.131 588.668C320.756 589.825 323.024 582.67 325.345 580.676C327.682 578.651 336.221 577.931 337.257 574.189C338.307 570.415 334.199 567.675 327.622 567.486C320.997 567.314 313.013 576.18 308.762 579.098C304.526 581.984 305.788 577.683 307.398 574.136C309.007 570.588 310.798 567.402 303.174 563.067C295.533 558.686 287.475 569.439 287.475 569.439C287.475 569.439 282.987 574.832 278.566 576.375C274.177 577.933 279.195 573.733 280.263 570.006C281.298 566.264 280.268 562.99 272.135 562.61C264.017 562.197 257.555 570.337 252.448 576.455C247.355 582.54 245.713 581.955 242.438 582.984C239.164 584.014 243.563 577.324 243.887 572.028C244.211 566.732 240.358 562.467 234.252 565.325C228.114 568.169 219.875 578.561 214.496 582.941C209.07 587.339 212.318 579.278 213.548 574.962C214.81 570.661 214.7 567.432 208.497 566.127C202.326 564.837 192.139 576.106 187.666 581.467C183.162 586.813 178.971 588.779 176.829 590.23C174.688 591.682 172.07 584.985 169.876 581.354C167.73 577.705 154.738 554.818 148.233 542.939C141.743 531.028 131.461 513.901 130.582 511.051C129.702 508.202 133.292 507.91 138.242 507.481C143.176 507.084 153.987 513.21 160.356 514.907C166.726 516.605 166.962 523.031 172.851 527.715C178.772 532.415 192.204 546.218 196.899 547.315C201.608 548.379 194.66 532.486 194.66 532.486C194.66 532.486 202.372 533.999 207.082 535.064C211.791 536.129 199.56 518.976 203.348 519.092C207.136 519.209 220.805 530.537 234.317 535.437C247.782 540.355 257.714 543.63 259.203 538.771C260.675 533.864 247.81 526.369 247.867 524.436C247.909 522.534 251.725 521.684 255.031 523.885C258.385 526.069 263.871 532.836 273.784 544.063C283.697 555.289 288.165 556.945 291.273 555.522C294.35 554.084 287.592 544.634 287.513 541.42C287.402 538.191 293.592 540.431 293.592 540.431C293.592 540.431 298.004 544.922 301.067 544.419C304.13 543.916 295.573 531.57 294.693 528.721C293.814 525.871 296.244 527.028 301.078 530.386C305.911 533.745 311.953 539.757 324.108 545.777C336.232 551.782 352.26 554.115 352.26 554.115C352.26 554.115 350.896 549.153 347.63 544.148C344.364 539.143 342.115 538.347 337.717 532.921C333.35 527.51 330.348 527.062 328.91 523.985C327.471 520.909 338.189 523.853 342.143 524.362C346.112 524.839 347.171 527.147 351.751 532.934C356.331 538.721 367.214 554.173 371.141 556.552C375.068 558.93 379.833 557.159 374.013 548.703C368.208 540.216 365.063 536.524 365.317 534.095C365.585 531.635 370.474 532.158 373.213 536.951C375.905 541.761 387.751 565.162 391.354 563.935C395.005 562.693 387.505 539.635 387.505 539.635C387.505 539.635 397.367 545.779 401.438 555.519C405.541 565.275 406.85 573.074 412.748 571.724C418.645 570.374 413.992 554.357 417.327 555.591C420.709 556.808 425.75 558.658 429.954 564.658C434.141 570.611 440.926 578.193 440.663 573.636C440.4 569.08 440.732 557.749 435.681 548.915C430.63 540.08 415.147 538.908 415.147 538.908C415.147 538.908 415.569 537.775 418.672 534.468C421.79 531.129 421.18 525.819 415.606 521.873C410.065 517.942 385.252 524.839 381.454 526.639C377.592 528.409 375.053 524.926 375.053 524.926C375.053 524.926 393.491 514.447 395.915 509.601C398.307 504.74 392.423 505.155 383.551 505.09C374.68 505.025 363.717 510.591 363.717 510.591C363.717 510.591 369.046 502.03 367.515 496.674C365.97 491.351 357.722 495.661 351.163 499.637C344.604 503.613 342.75 503.554 342.75 503.554C342.75 503.554 344.947 499.267 343.009 494.11C341.071 488.953 318.062 500.629 313.992 503.907C309.922 507.186 310.075 508.513 307.854 506.751C305.634 504.988 309.469 496.187 307.85 492.75C306.23 489.313 301.096 497.3 297.071 499.659C293.015 502.003 289.512 499.473 289.512 499.473C289.512 499.473 288.269 495.823 281.69 494.731C275.126 493.608 248.029 507.613 244.244 508.478C240.428 509.328 235.668 504.083 235.668 504.083C235.668 504.083 241.695 498.011 245.794 493.766C249.893 489.521 249.116 483.818 243.861 481.592C238.606 479.366 218.276 496.787 215.819 497.5C213.33 498.198 213.686 492.917 213.017 489.461C212.364 486.053 212.211 484.725 206.648 487.764C201.069 490.834 193.224 493.061 193.224 493.061C193.224 493.061 192.869 486.226 185.823 487.186C178.825 488.13 153.116 501.031 149.526 501.323C145.936 501.614 127.424 492.962 119.589 489.155C111.753 485.347 93.1526 466.497 87.0337 461.389C80.9468 456.297 77.9863 453.947 77.921 449.799C77.8238 445.635 89.6377 443.885 92.8668 443.775C96.0487 443.681 98.593 449.048 102.765 455.033C106.937 461.018 121.716 466.718 126.591 468.175C131.467 469.633 138.322 474.346 138.229 471.164C138.118 467.936 133.261 458.527 132.609 455.119C131.924 451.695 137.165 454.856 140.911 456.874C144.593 458.861 152.374 465.505 156.509 466.374C160.644 467.244 171.185 474.927 172.966 473.657C174.715 472.372 167.957 462.921 164.733 456.015C161.509 449.109 151.176 439.917 150.51 437.444C149.812 434.955 153.614 434.137 156.242 435.701C158.823 437.282 164.854 445.211 171.044 447.45C177.218 449.722 190.893 454.033 193.506 455.63C196.119 457.226 197.613 457.466 196.203 453.423C194.811 449.428 190.731 445.722 187.77 443.372C184.81 441.022 178.251 432.882 175.665 429.416C173.126 425.933 177.08 426.442 180.264 427.252C183.464 428.108 192.998 438.566 200.64 442.947C208.281 447.329 221.108 448.806 223.986 446.96C226.882 445.162 219.717 436.812 212.361 430.017C204.974 423.208 196.116 422.208 196.774 418.6C197.449 415.039 204.17 419.375 210.66 422.385C217.214 425.425 222.839 434.454 230.63 439.181C238.452 443.923 249.923 446.519 255.415 446.27C260.906 446.021 261.312 444.92 253.467 434.128C245.636 423.305 235.857 421.357 230.394 420.639C224.931 419.922 218.894 419.01 219.131 416.534C219.384 414.106 227.017 412.405 237.369 413.646C247.768 414.869 255.654 422.857 260.4 429.036C265.146 435.216 265.668 430.328 265.668 430.328C265.668 430.328 267.272 433.797 270.53 432.72C273.773 431.675 268.523 422.432 268.523 422.432C268.523 422.432 277.715 425.12 286.65 437.332C295.568 449.497 291.45 461.693 293.333 469.686C295.201 477.712 295.983 476.398 299.254 474.386C302.525 472.375 301.151 460.428 301.151 460.428C301.151 460.428 307.789 459.665 306.967 454.882C306.162 450.146 301.818 441.884 302.901 438.125C303.937 434.383 311.607 437.797 313.216 434.25C314.826 430.703 306.458 424.799 301.897 419.962C297.303 415.11 290.059 415.663 286.151 414.234C282.242 412.805 287.686 412.573 292.331 409.489C296.975 406.405 302.132 404.468 305.385 401.506C308.701 398.575 312.036 399.809 310.811 397.109C309.571 394.44 302.54 395.369 302.54 395.369C302.54 395.369 300.417 388.869 292.526 387.898C284.603 386.911 283.779 390.127 278.118 389.001C272.489 387.891 269.312 393.085 266.323 391.701C263.349 390.286 271.009 386.716 269.658 380.819C268.307 374.922 261.748 378.898 249.865 384.419C238.015 389.955 233.563 400.463 228.555 402.746C223.596 405.091 227.528 400.454 225.016 395.102C222.504 389.75 219.566 393.449 214.728 397.107C209.889 400.765 207.215 409.021 203.385 410.806C199.555 412.591 199.36 413.165 196.521 412.127C193.713 411.105 198.094 403.465 195.341 399.606C192.621 395.763 192.381 397.256 187.723 401.275C183.082 405.34 181.08 409.054 178.383 411.26C175.654 413.451 174.492 413.996 166.893 416.615C159.247 419.25 157.906 420.337 152.401 421.521C146.864 422.69 151.411 415.443 153.455 409.828C155.499 404.213 156.592 398.538 155.426 393.983C154.228 389.413 153.067 389.959 144.079 393.681C135.124 397.419 128.666 410.658 125.687 416.259C122.676 421.845 120.089 427.281 115.535 428.446C110.917 429.661 118.014 420.764 118.143 416.042C118.273 411.319 115.594 405.575 112.117 401.097C108.625 396.651 107.634 399.473 104.152 402.012C100.686 404.597 98.43 410.739 92.8091 415.711C87.1714 420.635 85.8752 432.919 82.7886 436.273C79.6701 439.612 78.6079 436.323 71.8209 436.74C65.0018 437.142 60.0291 431.521 50.1123 428.213C40.1633 424.89 33.0578 414.686 25.6432 409.746C18.2287 404.806 8.25988 396.415 8.25988 396.415C8.25988 396.415 9.07067 394.135 12.5112 393.498C15.9198 392.846 21.0872 397.893 27.0821 400.706C33.0298 403.536 30.2274 395.498 30.2274 395.498C30.2274 395.498 35.6769 397.15 45.567 402.327C55.4419 407.536 58.963 411.015 62.4136 408.461C65.8962 405.923 60.3227 401.977 60.3227 401.977C60.3227 401.977 59.0826 399.308 55.9981 394.664C52.8984 390.052 46.0812 391.357 46.3481 387.994C46.6302 384.599 50.9181 386.796 58.4486 387.949C65.9792 389.101 68.5789 391.632 70.8866 390.574C73.1776 389.468 76.5442 390.717 82.1177 394.663C87.6912 398.61 94.6477 399.567 96.0459 396.547C97.4608 393.573 92.156 387.167 91.1106 383.925C90.0651 380.682 87.2859 378.693 82.6774 373.873C78.084 369.02 79.5509 371.13 82.4461 369.332C85.3092 367.518 89.1911 370.816 95.9109 374.249C102.614 377.635 108.34 382.909 112.758 380.384C117.175 377.859 111.088 372.766 111.088 372.766C111.088 372.766 112.642 372.055 113.09 369.053C113.554 366.019 104.68 365.051 102.381 360.075C100.05 355.084 107.886 358.891 115.251 359.651C122.615 360.41 128.9 365.911 134.336 368.498C139.74 371.069 146.447 375.437 148.57 373.036C150.74 370.618 144.411 366.116 142.386 363.78C140.392 361.458 138.519 360.45 133.926 355.597C129.3 350.73 130.059 352.267 131.761 350.999C133.51 349.714 138.204 350.81 144.588 352.476C150.957 354.174 156.93 363.956 162.003 365.822C167.092 367.655 171.611 374.393 172.481 370.259C173.351 366.124 162.697 354.31 164.322 350.73C165.932 347.183 173.291 354.959 181.026 362.522C188.746 370.117 192.849 379.873 196.091 378.828C199.334 377.783 196.35 369.383 196.35 369.383C196.35 369.383 197.706 368.264 196.493 363.726C195.295 359.156 193.704 354.752 197.9 354.671C202.049 354.606 205.148 359.218 206.697 365.523C208.214 371.813 209.32 374.104 213.229 375.533C217.137 376.962 216.8 383.192 220.861 385.949C224.954 388.72 231.474 378.647 231.492 370.696C231.543 362.76 221.611 359.484 221.611 359.484C221.611 359.484 223.249 354.97 221.158 348.485C219.067 342.001 208.613 343.613 204.659 343.104C200.705 342.595 201.111 341.494 201.046 337.346C200.981 333.198 202.424 329.258 200.635 324.446C198.863 319.681 192.576 322.179 182.034 326.613C171.525 331.062 165.614 333.346 162.232 332.129C158.85 330.912 166.191 325.622 167.495 319.42C168.8 313.218 167.306 312.977 161.269 312.065C155.232 311.153 146.384 317.138 140.523 323.603C134.694 330.083 133.59 328.695 133.59 328.695C133.59 328.695 134.423 319.445 125.967 316.362C117.544 313.295 107.455 328.727 105.485 332.456C103.482 336.169 102.029 342.026 96.8391 343.948C91.6815 345.886 99.0648 338.694 97.5193 333.371C95.9418 328.033 91.011 329.411 83.5004 333.327C76.0064 337.289 71.8756 350.42 68.559 353.352C65.2425 356.283 67.5136 350.109 66.5421 344.981C65.5387 339.837 61.1801 340.508 54.4835 343.124C47.7718 345.773 43.4463 359.478 39.5423 363.149C35.6703 366.835 36.988 359.699 33.9955 357.333C31.0351 354.984 28.5327 356.616 19.055 365.242C9.5621 373.9 8.59172 381.79 7.14814 385.73C5.70455 389.671 5.2045 387.59 -0.0904721 388.168C-5.40067 388.778 -16.0675 377.898 -31.207 363.479C-46.3146 349.074 -55.4727 338.403 -59.8579 332.042C-64.2279 325.649 -62.2675 323.837 -57.0128 326.063C-51.758 328.29 -44.3203 339.279 -38.5654 343.586C-32.8259 347.925 -34.0374 344.29 -31.7482 342.282C-29.4119 340.257 -29.4858 342.143 -25.406 345.849C-21.3581 349.54 -13.0454 349.378 -10.9824 344.713C-8.95139 340.033 -17.0792 332.636 -21.1591 328.93C-25.207 325.24 -21.4358 325.309 -17.6344 324.491C-13.8179 323.64 -5.87135 330.676 3.68485 334.165C13.241 337.654 15.5773 335.629 14.3792 331.059C13.1811 326.489 6.43268 324.023 11.2715 320.365C16.1103 316.707 22.6186 320.667 30.8893 322.407C39.1599 324.147 41.4542 324.023 47.1252 323.232C52.8281 322.456 54.8084 325.712 56.2233 322.738C57.6535 319.733 49.9517 316.303 45.5145 313.76C41.0604 311.17 39.3534 310.554 43.4235 307.276C47.4935 303.997 56.0695 308.392 65.5804 312.8C75.1231 317.224 86.0489 318.659 88.6807 312.304C91.3126 305.949 72.0661 298.594 72.0661 298.594C72.0661 298.594 67.7915 295.462 71.4234 293.269C75.0874 291.091 83.5793 299.289 91.2625 301.769C98.9457 304.249 112.74 305.754 115.132 300.893C117.523 296.032 108.716 287.096 105.756 284.746C102.795 282.396 104.165 280.342 107.421 278.363C110.692 276.351 121.816 278.194 127.097 278.55C132.394 278.875 131.275 277.519 134.698 276.835C138.107 276.182 138.26 277.51 146.235 283.579C154.21 289.649 163.808 291.236 162.097 285.52C160.353 279.789 149.209 272.878 146.989 271.116C144.769 269.353 151.796 267.443 166.343 268.601C180.891 269.76 191.484 282.526 196.428 289.113C201.34 295.686 205.845 290.34 211.531 289.517C217.234 288.741 216.569 299.286 214.149 305.114C211.743 310.91 205.188 306.967 201.858 310.833C198.56 314.714 207.228 321.388 214.079 321.001C220.898 320.599 222.738 308.574 223.215 304.605C223.692 300.636 226.194 299.004 226.518 293.708C226.842 288.411 218.142 281.723 218.142 281.723C218.142 281.723 221.746 280.496 219.839 275.354C217.901 270.197 211.277 270.025 205.648 268.915C200.019 267.805 203.456 266.186 206.591 262.894C209.71 259.555 209.571 257.292 204.89 255.261C200.241 253.245 185.166 263.991 179.993 265.96C174.836 267.898 177.967 263.624 181.284 260.693C184.569 257.747 190.93 253.362 192.205 248.127C193.496 242.859 191.123 239.769 182.265 238.77C173.407 237.77 158.827 245.497 154.002 248.22C149.224 250.926 144.45 258.732 141.674 257.725C138.867 256.702 141.411 253.169 140.453 247.105C139.463 241.027 136.336 238.284 131.715 234.399C127.076 230.466 111.806 241.786 107.18 245.82C102.54 249.885 94.1121 266.853 90.6009 270.359C87.1048 273.832 89.7501 266.542 88.9313 262.741C88.0806 258.925 87.4279 255.516 74.0131 254.779C60.6136 254.01 48.5254 274.138 46.9024 278.62C45.2321 283.119 44.524 282.547 40.7495 281.495C36.9749 280.444 31.7709 270.282 28.223 268.672C24.6751 267.062 11.8943 277.685 6.91263 286.999C1.93101 296.314 1.14893 297.628 -3.18108 297.332C-7.5431 297.021 -4.35061 291.796 -4.0131 285.565C-3.64358 279.349 -7.41276 271.281 -13.8525 272.452C-20.3242 273.607 -27.1047 280.027 -30.9854 289.747C-34.8342 299.484 -34.6681 299.876 -41.5006 301.213C-48.365 302.534 -44.0128 295.861 -45.7984 292.031C-47.584 288.201 -52.4228 291.859 -57.6677 296.617C-62.8959 301.423 -65.2223 310.432 -65.2223 310.432C-65.2223 310.432 -65.2169 313.141 -65.9687 314.391C-66.8132 315.753 -68.4149 315.658 -68.4149 315.658C-68.4149 315.658 -79.1184 299.663 -87.9944 285.597C-96.8703 271.531 -102.814 260.781 -104.587 256.017C-106.344 251.22 -98.6015 251.846 -95.3304 249.834C-92.0272 247.838 -89.0988 250.173 -83.6359 250.89C-78.173 251.607 -74.5411 249.414 -66.9518 248.713C-59.3473 247.979 -52.1729 254.412 -50.4105 252.192C-48.6482 249.972 -57.825 247.252 -59.2918 245.143C-60.7115 243.016 -53.8942 241.712 -48.208 240.889C-42.5051 240.113 -31.158 240.415 -27.3414 239.564C-23.5248 238.714 -25.7452 236.952 -26.4298 233.528C-27.0826 230.12 -21.6197 230.837 -16.1148 229.653C-10.6099 228.469 -3.13475 232.458 5.24649 237.427C13.643 242.363 25.0535 245.911 28.8835 244.126C32.7135 242.341 28.5684 234.487 23.6429 228.849C18.6854 223.196 14.6875 223.686 14.8036 219.898C14.9196 216.11 18.1201 216.967 23.1902 217.85C28.2924 218.749 39.1539 229.054 45.5516 229.785C51.9493 230.516 49.8029 226.868 45.8104 220.341C41.818 213.814 34.274 213.596 30.2127 210.84C26.1194 208.069 33.1919 205.239 39.0896 203.889C44.9872 202.539 53.8453 203.539 60.5937 206.005C67.3421 208.471 79.2865 215.018 83.0879 214.2C86.8892 213.381 81.7505 207.368 75.8448 202.636C69.892 197.921 66.6359 199.901 65.4092 196.298C64.1825 192.694 69.0865 193.185 74.5494 193.903C80.0123 194.62 86.5206 198.58 95.0411 205.811C103.562 213.042 113.03 219.351 116.26 219.241C119.457 219.115 105.329 203.805 109.085 203.906C112.873 204.023 124.868 214.75 128.766 218.095C132.633 221.425 126.325 209.875 128.661 207.85C130.997 205.825 137.237 212.245 140.882 218.018C144.495 223.776 140.078 226.301 140.086 232.383C140.109 238.433 151.238 233.259 152.345 226.649C153.468 220.086 148.413 210.269 151.34 208.486C154.203 206.672 160.269 206.618 159.811 202.636C159.353 198.653 153.737 196.608 147.622 192.483C141.489 188.31 134.836 189.104 130.701 188.234C126.566 187.364 135.277 180.02 135.179 175.857C135.114 171.708 137.058 169.849 128.532 169.635C120.053 169.403 105.611 178.49 105.611 178.49C105.611 178.49 106.198 177.75 108.002 173.629C109.807 169.508 109.335 166.46 104.431 165.969C99.5272 165.479 88.3292 174.423 84.818 177.928C81.3067 181.433 77.6027 186.415 73.212 187.071C68.8366 187.694 76.0672 179.175 78.5177 172.46C80.9683 165.744 82.7592 162.558 76.1635 161.419C69.5678 160.28 66.6306 163.98 64.9638 169.46C63.312 174.909 53.9971 182.946 49.7911 184.944C45.5684 186.895 47.4315 180.92 48.5378 174.309C49.6759 167.714 49.2733 160.896 39.7572 163.504C30.2562 166.08 26.7915 181.685 23.599 186.91C20.4218 192.104 19.3209 191.697 16.4293 185.577C13.5849 179.439 14.4678 174.37 7.28465 173.971C0.101452 173.572 -2.7018 186.55 -5.37571 194.806C-8.08154 203.047 -13.4338 205.559 -18.1566 205.429C-22.8793 205.299 -17.9985 199.74 -20.0894 193.255C-22.1803 186.77 -25.0621 187.634 -30.2196 189.572C-35.3772 191.509 -38.2777 200.324 -41.4737 213.468C-44.685 226.645 -50.3694 228.371 -54.7868 230.896C-59.2042 233.421 -57.5946 229.873 -57.5892 222.857C-57.5838 215.841 -59.3193 216.191 -65.7438 217.329C-72.2155 218.485 -73.7467 234.147 -73.7467 234.147C-73.7467 234.147 -76.1751 233.893 -78.0713 226.834C-79.9675 219.776 -80.8371 223.911 -85.5885 224.747C-90.3247 225.552 -97.4765 237.285 -98.8327 238.404C-100.206 239.476 -106.168 236.678 -109.716 235.068C-113.264 233.458 -118.874 224.396 -125.129 218.008C-131.369 211.588 -135.661 195.39 -137.966 188.529C-140.238 181.684 -139.635 180.912 -132.887 183.378C-126.123 185.813 -113.723 195.439 -107.043 192.775C-100.363 190.111 -108.356 170.976 -105.656 169.751C-102.972 168.479 -98.6892 177.693 -94.262 182.153C-89.8499 186.644 -84.8351 190.364 -76.6617 187.94C-68.4563 185.532 -76.7314 169.791 -77.5082 164.088C-78.285 158.386 -76.2912 160.707 -68.7153 160.94C-61.1242 161.141 -51.4009 178.041 -42.6081 174.893C-33.8001 171.712 -44.9301 154.966 -44.6194 150.604C-44.3239 146.275 -42.8151 146.483 -38.1344 148.514C-33.4856 150.531 -23.3875 163.1 -17.3372 163.077C-11.2869 163.055 -10.5835 158.527 -14.3392 149.525C-18.0631 140.538 -24.4187 137.905 -27.9245 134.394C-31.4304 130.883 -29.23 127.577 -15.449 121.117C-1.63614 114.672 10.1957 117.087 14.8311 120.037C19.4665 122.988 28.4298 134.233 34.7587 138.735C41.0723 143.269 46.3825 142.659 44.3202 135.208C42.2427 127.788 35.231 120.766 29.2967 117C23.3624 113.235 26.2442 112.372 28.686 111.691C31.175 110.993 36.6513 110.776 46.8555 112.573C56.9957 114.34 69.915 126.997 78.5044 130.457C84.0758 132.677 87.1298 132.523 87.7776 130.008L16.1815 95.9371C14.0032 97.1356 12.6189 96.0064 11.5449 93.7307L-7.89709 84.4788C-13.3395 90.4764 -19.1448 99.7913 -22.0387 100.845C-26.4427 102.436 -25.8231 92.8096 -28.8756 88.1808C-31.9754 83.5688 -40.9022 86.3398 -46.7818 91.8549C-52.6142 97.3532 -63.2874 114.507 -63.2874 114.507C-63.2874 114.507 -66.8585 106.848 -72.474 104.803C-78.0896 102.758 -82.3543 106.61 -86.4297 116.905C-90.4732 127.215 -95.1173 130.299 -95.1173 130.299C-95.1173 130.299 -94.0078 124.671 -98.5304 116.95C-103.036 109.277 -107.846 111.968 -114.402 116.926C-118.383 119.934 -126.258 131.126 -133.553 137.967C-138.203 142.382 -143.263 143.62 -144.711 144.108C-148.314 145.334 -152.925 127.415 -153.944 122.304C-154.947 117.16 -154.373 117.355 -156.645 110.509C-158.902 103.632 -158.968 99.4834 -160.058 97.1605C-161.117 94.8529 -160.594 68.9471 -159.919 65.3863C-159.277 61.8102 -154.248 64.5951 -148.994 66.8211C-143.739 69.0473 -138.724 72.7668 -135.903 72.8546C-133.082 72.9423 -128.752 73.2382 -119.783 77.467C-110.814 81.6957 -103.168 79.0605 -103.168 79.0605C-103.168 79.0605 -90.4985 86.2266 -76.1489 86.9772C-61.7674 87.743 -62.3414 87.5482 -63.9323 83.1445C-65.5231 78.7407 -78.9745 72.8886 -78.3451 70.2472C-77.6836 67.6211 -71.5967 72.7135 -64.0796 74.8006C-56.5944 76.8725 -44.7305 79.3028 -42.5335 75.0154C-41.5566 73.1275 -43.4927 69.6966 -45.916 66.4652L-88.4452 46.2268C-89.6175 51.0802 -90.6926 55.235 -91.9405 57.0331C-95.2838 61.8336 -95.7418 57.8513 -96.7284 52.7547C-97.3964 49.3783 -98.4955 45.0126 -98.9336 41.2357L-115.913 33.1556C-118.208 36.4945 -122.605 47.3817 -127.009 53.8342C-131.753 60.6735 -133.568 57.8104 -133.568 57.8104C-133.568 57.8104 -130.08 48.2555 -138.387 41.4006C-146.71 34.5777 -152.999 49.1126 -157.51 48.456C-162.038 47.752 -164.713 42.9892 -167.875 14.1142C-168.103 12.2021 -168.285 10.1942 -168.451 8.15439L-184.887 0.332973C-184.847 2.39112 -184.761 4.35342 -184.68 6.07818C-184.075 18.4044 -180.588 29.8669 -183.57 34.4862C-186.536 39.1528 -194.57 34.9376 -203.636 35.4464C-212.734 35.94 -214.373 40.454 -215.589 43.8353C-216.838 47.2015 -216.098 47.7889 -218.435 49.8141C-220.771 51.8393 -232.603 49.4243 -236.688 52.7347C-240.758 56.0131 -241.082 61.3094 -244.533 63.863C-248.031 66.4334 -252.887 57.0249 -259.799 55.1477C-266.742 53.2554 -275.534 56.4038 -279.938 57.994C-284.342 59.5842 -283.769 59.779 -282.768 63.9408C-281.736 68.1179 -277.246 75.8231 -272.939 78.9704C-268.68 82.1345 -265.132 83.7443 -267.134 87.4577C-269.137 91.1711 -275.382 91.7676 -278.929 90.1577C-282.477 88.5478 -286.492 88.9901 -293.296 89.3599C-300.115 89.7617 -302.741 89.0999 -303.958 92.4813C-305.207 95.8474 -297.158 100.031 -296.294 102.912C-295.414 105.762 -299.582 104.877 -306.235 105.671C-312.872 106.434 -316.832 112.941 -320.175 117.742C-323.502 122.589 -313.783 125.489 -310.988 127.446C-308.209 129.435 -314.439 130 -317.979 134.472C-321.504 138.912 -317.914 138.62 -317.906 144.702C-317.882 150.752 -317.808 148.865 -318.544 153.378C-319.215 157.92 -312.73 155.831 -309.066 153.653C-305.402 151.475 -304.973 156.424 -303.941 160.601C-302.909 164.778 -298.081 166.252 -294.306 167.304C-290.564 168.34 -289.713 172.156 -284.671 174.006C-279.583 175.839 -280.878 167.106 -276.026 162.514C-271.174 157.921 -273.083 151.797 -276.71 146.974C-280.368 142.135 -283.422 149.622 -288.131 148.558C-292.825 147.461 -296.817 140.934 -294.968 135.893C-293.103 130.821 -291.096 132.207 -288.135 134.557C-285.175 136.907 -279.725 138.559 -271.825 133.496C-263.91 128.4 -264.336 115.532 -260.325 114.108C-256.329 112.716 -256.68 119.881 -249.468 119.314C-242.271 118.778 -237.996 100.892 -234.527 99.2888C-231.089 97.6698 -232.117 107.494 -225.34 108.993C-218.563 110.493 -210.699 91.4134 -208.876 88.242C-207.101 85.0873 -205.018 85.4903 -202.433 88.0534C-199.866 90.5693 -197.711 88.1834 -193.946 82.2501C-190.166 76.2848 -186.628 70.9102 -185.115 63.1993C-183.571 55.5035 -180.485 52.1492 -178.372 51.6647C-176.291 51.1649 -176.525 54.5431 -175.596 61.573C-174.667 68.603 -171.276 97.8219 -170.304 102.95C-169.301 108.094 -171.372 106.677 -175.046 110.772C-178.784 114.836 -185.324 119.762 -193.922 122.336C-202.504 124.958 -210.108 125.692 -217.265 132.324C-224.453 138.942 -217.524 141.769 -217.64 145.557C-217.756 149.344 -224.111 146.712 -231.337 148.214C-238.53 149.732 -244.349 154.296 -247.915 160.637C-251.514 166.963 -243.984 168.115 -243.692 171.705C-243.432 175.279 -255.824 171.735 -261.134 172.345C-266.445 172.955 -268.175 175.19 -275.364 181.808C-282.552 188.425 -271.779 188.533 -271.908 193.255C-271.984 195.885 -278.736 195.652 -284.711 197.907C-289.444 199.693 -293.322 203.887 -295.699 206.245C-301.171 211.562 -293.848 214.223 -290.342 217.735C-286.836 221.246 -299.511 221.096 -306.389 223.352C-313.25 225.655 -315.1 230.696 -317.047 240.475C-319.041 250.27 -311.366 246.668 -308.629 250.558C-305.909 254.402 -315.97 255.849 -321.41 261.181C-326.865 266.545 -319.864 266.504 -321.321 271.379C-322.778 276.254 -330.846 280.022 -331.184 286.253C-331.521 292.484 -324.296 290.981 -321.78 288.414C-319.249 285.815 -318.583 288.288 -315.207 296.522C-311.862 304.74 -306.007 305.292 -301.246 298.421C-296.518 291.534 -308.606 290.644 -310.391 286.815C-312.177 282.985 -305.834 286.552 -301.278 286.289C-296.768 286.043 -301.259 278.338 -304.359 273.726C-307.411 269.097 -307.037 267.981 -304.489 265.429C-301.973 262.862 -299.646 266.871 -294.812 270.23C-289.979 273.589 -284.974 270.324 -276.864 264.655C-268.769 259.017 -274.273 239.184 -270.43 236.464C-266.587 233.745 -259.634 242.622 -252.714 238.464C-245.779 234.275 -249.331 218.664 -244.9 215.204C-240.47 211.745 -236.833 223.553 -226.431 216.857C-216.013 210.129 -220.769 196.965 -217.832 193.265C-214.894 189.565 -214.334 202.811 -204.046 200.805C-193.805 198.817 -195.951 174.151 -195.289 171.525C-194.628 168.898 -191.881 170.872 -190.137 176.604C-188.425 182.32 -182.19 183.64 -175.455 178.14C-168.688 172.655 -169.904 155.019 -170.954 137.776C-171.972 120.548 -172.069 116.384 -167.665 114.794C-163.261 113.204 -163.96 131.732 -161.245 142.592C-158.53 153.452 -151.328 179.936 -150.643 183.359C-149.959 186.783 -152.854 188.581 -158.794 191.833C-164.733 195.084 -171.176 195.273 -178.365 201.89C-185.521 208.523 -184.716 213.259 -184.513 218.767C-184.263 224.258 -176.211 220.522 -172.861 221.724C-169.494 222.973 -177.293 224.28 -183.987 227.879C-190.712 231.462 -191.915 233.909 -194.518 239.297C-197.105 244.732 -184.657 245.441 -183.446 249.076C-182.234 252.711 -189.648 247.771 -196.694 248.732C-203.693 249.675 -208.337 252.759 -214.827 261.865C-221.35 270.957 -211.269 270.46 -211.778 274.413C-212.027 276.255 -217.101 275.214 -221.662 275.239C-226.809 275.26 -231.512 276.159 -231.512 276.159C-231.512 276.159 -236.193 276.519 -239.546 280.021C-241.192 281.748 -241.478 286.552 -242.813 287.956C-246.879 292.217 -239.366 293.322 -240.416 297.096C-241.452 300.838 -249.501 296.655 -259.423 300.364C-269.378 304.057 -270.595 307.439 -274.512 312.045C-278.413 316.698 -270.627 316.325 -270.577 320.505C-270.512 324.653 -277.136 324.481 -285.185 329.199C-293.299 333.886 -293.359 343.739 -295.265 351.616C-297.185 359.525 -287.173 353.898 -283.233 355.342C-279.324 356.77 -284.089 358.542 -289.834 361.219C-295.579 363.897 -298.045 370.644 -301.292 378.705C-304.54 386.767 -295.219 384.733 -290.135 384.681C-285.02 384.645 -284.825 384.071 -289.145 390.76C-293.465 397.448 -295.76 397.572 -297.833 404.154C-299.891 410.703 -293.013 408.447 -294.304 413.715C-295.595 418.982 -294.165 428.093 -291.908 434.97C-289.619 441.863 -284.317 435.171 -284.317 435.171C-284.317 435.171 -282.083 435.999 -273.739 435.853C-265.426 435.691 -259.436 424.504 -261.221 420.674C-263.007 416.844 -268.738 418.587 -273.627 418.064C-278.516 417.542 -280.57 416.172 -282.551 412.916C-284.563 409.645 -280.019 410.317 -277.198 410.405C-274.362 410.46 -277.91 408.85 -279.737 406.922C-281.597 404.978 -281.828 400.437 -280.959 396.303C-280.089 392.168 -277.207 391.304 -275.042 387.001C-272.845 382.714 -271.323 381.988 -267.572 376.989C-263.82 371.99 -266.605 368.117 -262.714 365.38C-258.871 362.66 -254.578 378.859 -252.511 379.294C-250.443 379.729 -253.259 372.625 -255.518 364.844C-257.761 357.032 -254.708 349.545 -253.478 345.229C-252.215 340.928 -248.038 339.896 -243.584 342.486C-239.13 345.077 -236.072 351.59 -232.015 349.246C-227.991 346.887 -229.91 333.779 -229.554 328.498C-229.198 323.217 -227.649 320.621 -222.547 321.52C-220.481 321.875 -220.025 324.131 -218.255 325.522C-215.635 327.515 -211.737 328.389 -209.414 325.652C-205.529 321.031 -213.003 304.926 -209.839 300.667C-206.708 296.393 -203.136 304.053 -200.305 311.125C-197.474 318.197 -194.435 323.761 -190.813 323.485C-187.223 323.193 -188.247 312.981 -188.247 312.981C-188.247 312.981 -186.753 313.222 -184.417 311.197C-182.112 309.156 -185.096 300.756 -187.729 294.092C-190.394 287.413 -190.518 285.119 -187.354 280.86C-184.222 276.586 -178.82 287.156 -174.643 286.125C-170.466 285.093 -174.186 277.088 -175.416 272.503C-176.614 267.933 -172.174 271.458 -168.12 268.132C-164.05 264.854 -167.579 255.293 -166.876 250.765C-166.204 246.223 -161.552 249.221 -159.401 254.754C-157.296 260.304 -150.187 262.589 -147.985 251.285C-145.75 239.997 -150.829 211.111 -150.505 205.815C-150.149 200.534 -146.907 199.489 -143.904 199.938C-140.902 200.386 -131.281 229.041 -121.387 248.218C-111.524 267.381 -109.222 273.339 -106.622 275.87C-104.054 278.386 -105.637 280.064 -108.708 283.386C-111.859 286.71 -118.699 281.965 -126.92 284.405C-135.125 286.814 -136.495 288.868 -138.9 294.664C-141.352 300.477 -136.656 302.476 -136.198 306.458C-135.772 310.425 -140.69 310.869 -145.497 314.542C-150.335 318.2 -153.315 323.801 -155.285 327.53C-157.271 331.29 -147.63 330.976 -144.807 331.967C-142 332.989 -148.319 335.472 -152.931 338.571C-157.575 341.654 -161.808 345.522 -165.059 352.602C-168.278 359.696 -156.557 358.883 -154.276 359.693C-152.042 360.521 -158.346 362.972 -165.434 365.834C-172.506 368.664 -174.603 369.195 -184.394 381.201C-194.186 393.207 -171.725 388.367 -172.595 392.502C-173.464 396.637 -187.901 398.707 -196.749 404.692C-205.645 410.693 -196.102 415.116 -195.686 421C-195.418 424.97 -203.5 424.811 -209.954 428.484C-213.056 430.223 -214.67 435.18 -216.97 437.458C-223.945 444.451 -212.071 444.965 -212.382 449.327C-212.692 453.688 -217.655 455.052 -220.2 458.586C-222.776 462.104 -225.002 467.358 -223.956 470.601C-222.911 473.843 -218.188 473.973 -216.597 478.377C-215.006 482.78 -226.344 489.463 -226.344 489.463C-226.344 489.463 -228.782 492.773 -228.726 495.623C-228.688 499.17 -226.087 502.604 -224.859 504.639C-222.681 508.302 -216.617 507.345 -212.901 510.251C-209.169 513.203 -216.708 518.085 -217.453 524.514C-218.184 530.911 -214.622 531.586 -213.314 539.385C-212.037 547.169 -206.587 548.821 -204.506 548.321C-202.41 547.789 -198.109 549.052 -195.278 556.124C-192.415 563.211 -186.183 563.55 -180.054 566.741C-173.893 569.947 -170.761 565.673 -165.993 564.884C-161.242 564.047 -161.599 556.309 -164.212 554.713C-166.793 553.131 -167.042 560.659 -169.754 562.898C-172.451 565.104 -173.316 562.223 -178.025 561.158C-182.719 560.061 -181.739 559.155 -180.901 555.005C-180.032 550.87 -182.382 553.83 -184.573 551.101C-186.78 548.404 -185.337 544.464 -183.181 542.078C-181.026 539.692 -176.775 536.774 -179.846 531.196C-182.917 525.617 -188.867 521.884 -192.299 516.486C-195.746 511.121 -195.448 507.694 -193.478 503.965C-191.476 500.252 -190.009 502.362 -185.671 508.739C-181.301 515.132 -171.803 520.475 -171.363 511.391C-170.906 502.355 -183.528 486.271 -183.067 482.334C-182.558 478.38 -180.564 480.702 -175.549 484.421C-170.55 488.173 -163.323 487.573 -159.924 479.936C-156.51 472.267 -164.98 457.101 -164.98 457.101C-164.98 457.101 -161.705 456.071 -158.19 457.666C-154.642 459.275 -147.504 460.594 -142.896 452.395C-138.321 444.181 -146.051 429.602 -146.356 426.947C-146.693 424.277 -143.687 425.707 -138.391 426.032C-133.094 426.357 -129.338 426.458 -126.785 416.89C-124.264 407.306 -130.36 395.229 -128.764 392.616C-127.168 390.004 -117.228 399.361 -112.528 393.441C-107.813 387.489 -112.301 371.865 -114.118 368.02C-115.904 364.19 -116.446 364.011 -113.554 361.23C-110.63 358.465 -102.083 363.827 -99.0616 356.324C-96.0083 348.836 -101.81 332.43 -100.883 326.362C-99.9393 320.341 -96.3395 327.034 -91.4373 326.622C-86.4878 326.193 -89.1982 320.433 -91.0624 313.389C-92.9586 306.331 -95.711 302.472 -100.138 298.013C-104.565 293.553 -101.502 293.05 -98.4412 291.644C-95.3647 290.207 -94.0425 297.071 -87.8903 306.311C-81.7061 315.567 -72.9176 332.454 -70.5866 337.446C-68.2556 342.437 -67.1261 341.877 -70.8874 348.792C-74.6808 355.692 -85.436 368.65 -93.2354 378.859C-101.099 389.038 -99.9141 394.542 -98.8472 402.932C-97.7331 411.304 -84.8218 408.979 -82.4488 412.068C-80.0758 415.158 -86.2555 419.903 -91.2103 427.348C-96.1651 434.794 -94.6297 442.033 -94.3511 446.558C-94.1198 451.099 -91.6308 450.401 -87.2134 447.876C-82.764 445.366 -81.9165 448.201 -80.0856 451.111C-78.2866 454.006 -84.087 459.52 -88.8472 466.391C-93.5601 473.246 -95.7757 476.583 -97.9828 482.787C-100.222 488.976 -97.4596 490.918 -94.1216 493.134C-90.7684 495.317 -83.7779 488.292 -81.0354 485.166C-78.3249 482.025 -76.8261 484.15 -75.4047 487.179C-73.9665 490.255 -85.4296 493.741 -92.3948 498.818C-99.3433 503.942 -100.787 507.882 -102.183 511.805C-103.627 515.745 -104.62 517.586 -101.225 517.868C-97.798 518.166 -86.8016 516.733 -82.3342 518.388C-77.8515 520.012 -87.7738 523.72 -96.1891 526.735C-104.621 529.702 -106.468 535.725 -109.797 539.591C-113.127 543.457 -104.949 542.918 -105.051 545.77C-105.139 548.591 -117.79 554.491 -122.795 557.756C-127.8 561.021 -121.328 559.866 -117.222 561.703C-115.4 562.491 -109.547 565.355 -104.456 565.699C-98.1116 566.13 -92.3726 563.96 -90.0447 563.93C-85.896 563.866 -87.8984 567.579 -90.9882 569.951C-94.0613 572.371 -105.828 574.104 -112.65 573.524C-119.441 572.959 -126.403 579.018 -127.68 583.351C-128.942 587.652 -116.621 594.064 -112.92 597.002C-109.219 599.939 -117.888 605.382 -124.974 609.146C-132.107 612.928 -139.476 607.068 -142.316 606.031C-145.124 605.008 -148.867 603.972 -151.572 600.097C-154.324 596.238 -153.884 587.154 -156.16 588.228C-158.467 589.287 -159.842 598.357 -158.579 607.075C-157.284 615.808 -150.132 616.192 -147.185 619.477C-144.253 622.793 -147.931 625.906 -145.964 630.096C-143.965 634.302 -140.316 632.156 -136.935 633.374C-133.553 634.591 -134.146 642.347 -129.997 642.282C-125.833 642.186 -115.578 627.146 -113.533 621.531C-111.489 615.916 -110.457 620.093 -107.09 621.343C-103.724 622.592 -103.964 624.085 -98.7037 619.295C-93.4907 614.521 -91.9829 601.711 -91.6589 596.414C-91.3347 591.118 -86.9727 591.429 -83.8829 589.057C-80.793 586.684 -81.0885 591.014 -78.7307 594.136C-76.3577 597.226 -75.3301 587.402 -72.9615 576.491C-70.5611 565.595 -71.6331 555.321 -71.6331 555.321C-71.6331 555.321 -68.2325 548.587 -66.4702 546.367C-64.7078 544.147 -62.4589 544.943 -60.4333 547.279C-58.4077 549.615 -54.4671 551.059 -53.5689 545.958C-52.6708 540.856 -57.1865 526.199 -55.5902 523.586C-53.994 520.973 -51.1075 525.209 -46.6669 528.734C-42.2262 532.259 -40.8853 531.172 -39.1229 528.952C-37.3606 526.732 -38.8408 525.557 -36.293 523.005C-33.762 520.406 -37.3099 518.796 -42.3612 509.961C-47.3973 501.095 -50.2016 492.153 -51.205 487.01C-52.1764 481.881 -46.2556 486.581 -42.2229 490.304C-38.175 493.994 -30.0337 500.457 -26.5931 499.82C-23.1845 499.167 -27.9153 492.956 -29.7009 489.126C-31.4865 485.296 -28.4706 484.81 -30.1535 478.127C-31.8517 471.476 -46.8519 459.319 -51.4453 454.467C-56.0386 449.614 -53.7896 450.41 -50.839 445.776C-47.8732 441.109 -44.2433 446.914 -39.6079 449.865C-34.9726 452.816 -29.4357 451.647 -28.9455 446.744C-28.4233 441.855 -34.3576 438.09 -39.9177 433.209C-45.4778 428.328 -55.636 413.495 -57.4804 411.52C-59.3399 409.576 -56.7501 405.123 -53.7976 401.391C-50.8605 397.691 -46.7939 402.332 -41.4337 405.902C-36.0263 409.456 -32.057 409.933 -29.5224 399.415C-26.9878 388.896 -51.8176 370.61 -56.619 367.267C-61.4524 363.908 -61.1149 357.677 -61.2069 355.398C-61.3462 353.136 -56.6655 355.167 -53.0103 359.024C-49.3232 362.896 -33.4487 376.019 -13.4758 393.797C6.46521 411.56 26.9196 430.469 30.7728 434.734C34.626 438.999 34.1492 442.968 33.053 447.661C31.9888 452.37 30.48 452.162 25.6984 453.886C20.9017 455.642 14.0692 456.979 5.47441 460.535C-3.15234 464.076 -5.3226 466.494 -3.09708 470.141C-0.950764 473.79 11.9639 472.446 16.9268 471.083C21.8896 469.719 22.6163 471.241 22.8477 475.782C23.111 480.339 15.4645 482.974 7.0644 485.956C-1.33571 488.939 -6.56386 493.744 -11.0687 499.09C-15.5735 504.436 -8.41897 505.802 3.19688 503.644C14.7975 501.518 11.1621 502.729 9.88646 507.964C8.59555 513.232 6.76793 511.303 -4.33261 515.51C-15.4012 519.732 -23.6086 530.139 -23.6086 530.139C-23.6086 530.139 -24.1307 535.028 -20.3747 535.129C-16.5868 535.245 -11.6693 534.801 -7.54742 536.606C-3.44071 538.442 -10.3793 550.551 -12.9691 555.004C-15.527 559.473 -16.5725 556.231 -26.7349 561.433C-36.8973 566.635 -43.3323 572.906 -45.6955 576.8C-48.0739 580.727 -40.6959 580.552 -32.9101 580.179C-25.1395 579.838 -27.3232 583.19 -33.8957 588.101C-40.4515 593.059 -46.7872 595.495 -52.0287 601.235C-57.3023 606.96 -41.1451 604.571 -34.7188 604.335C-28.2757 604.147 -32.1191 606.867 -34.9776 613.78C-37.8362 620.694 -45.4508 623.344 -51.2831 628.842C-57.1307 634.373 -60.9287 636.173 -66.4557 644.326C-71.966 652.527 -67.3672 650.362 -67.3672 650.362C-67.3672 650.362 -67.5811 653.202 -65.8721 655.544C-64.1311 657.902 -60.4843 659.716 -58.9813 660.431C-56.0075 661.846 -62.5934 667.692 -66.1466 673.098C-69.6999 678.505 -66.6742 685.003 -62.0808 689.855C-57.4875 694.707 -51.8818 689.768 -46.9037 688.372C-41.9729 686.994 -45.4656 691.449 -48.6428 696.642C-51.7881 701.851 -56.8249 705.1 -57.0251 712.691C-57.2571 720.266 -51.4515 716.637 -48.0597 715.937C-44.651 715.285 -45.5307 721.337 -43.4717 727.806C-41.3488 734.306 -32.588 731.142 -30.6444 729.283C-28.7008 727.424 -26.7037 730.727 -22.1692 737.434C-17.6179 744.187 -5.99404 748.111 -0.881891 747.093C4.26222 746.09 0.357103 736.742 -3.5095 733.412C-5.49076 731.725 -7.17887 732.882 -9.55985 733.435C-11.8632 733.907 -14.8123 733.759 -17.859 732.662C-24.0486 730.422 -25.1308 722.065 -23.5631 720.419C-21.9955 718.773 -13.7803 723.349 -8.95028 725.726C-4.10342 728.15 -4.5462 724.136 -6.90579 720.111C-9.25016 716.054 -14.7283 715.369 -17.6735 712.987C-20.6339 710.637 -18.1601 709.971 -18.9369 704.269C-19.7457 698.551 -30.7367 692.968 -30.7367 692.968C-30.7367 692.968 -34.9372 687.95 -34.2338 683.422C-33.5303 678.895 -31.5233 680.281 -28.5022 681.679C-25.5284 683.095 -11.9797 693.11 -8.76397 693.935C-5.59546 694.776 -9.92006 687.464 -14.0366 678.642C-18.1211 669.837 -26.2944 663.359 -28.9273 656.695C-31.5771 649.984 -30.5415 646.241 -27.0622 642.721C-23.551 639.216 -18.4122 645.23 -14.4197 651.757C-10.4424 658.316 0.119198 658.95 0.119198 658.95C0.119198 658.95 -3.79933 650.537 -7.09706 645.517C-10.3309 640.527 -18.6147 630.821 -22.8153 625.803C-27.0159 620.784 -24.9062 619.318 -22.5564 616.358C-20.1747 613.413 -19.3139 615.313 -13.2538 622.275C-7.19361 629.237 1.03502 632.878 4.98906 633.387C8.95832 633.864 11.1787 635.627 11.8215 632.051C12.4964 628.49 8.41643 624.784 1.64481 616.268C-5.12687 607.752 -12.8467 600.157 -16.7286 596.859C-20.5952 593.529 -15.859 592.724 -12.7825 591.286C-9.73805 589.833 -6.03409 593.752 -0.219216 600.323C5.65965 606.924 19.9992 609.592 19.9992 609.592C19.9992 609.592 16.9602 595.127 12.6356 587.815C8.31097 580.502 0.923288 573.693 -3.48875 569.201C-7.91601 564.742 -4.1281 564.858 -1.05499 562.439C2.03487 560.066 3.62577 564.47 7.52102 566.833C11.4163 569.197 23.1927 574.448 24.0355 572.182C24.831 569.934 21.0804 562.816 17.3414 553.861C13.6496 544.889 13.2248 545.04 17.6742 542.53C22.0917 540.005 23.9425 547.983 28.8046 550.376C33.6513 552.8 34.9655 553.582 34.9843 545.631C35.035 537.695 29.4803 525.797 26.6359 519.66C23.7763 513.554 26.2065 514.711 29.4658 513.713C32.7083 512.668 34.1832 520.859 38.2043 526.42C42.2102 532.012 57.0544 541.86 60.4075 544.044C63.7608 546.228 63.9689 544.719 63.9322 539.604C63.8636 534.474 62.9056 528.41 57.7436 516.347C52.5816 504.284 45.0144 498.016 43.9689 494.774C42.9235 491.531 45.9393 491.045 48.8998 493.395C51.8602 495.745 67.7533 509.817 71.4824 511.788C75.1964 513.79 71.4226 500.623 69.7345 492.056C68.0783 483.504 62.6575 480.885 64.0304 479.813C65.3714 478.726 64.6599 477.171 61.2868 469.92C57.897 462.621 44.583 458.128 44.583 458.128C44.583 458.128 41.678 452.942 41.4012 449.32C41.1093 445.731 45.4866 446.01 50.8888 447.679C56.3383 449.331 72.4394 461.895 77.9542 467.695C83.4537 473.528 96.1008 487.663 99.1719 493.242C102.243 498.82 107.304 514.639 109.048 520.371C110.791 526.102 106.328 529.546 102.983 533.444C99.6533 537.31 91.2247 541.259 83.7594 544.255C76.2942 547.251 73.0462 555.313 70.8205 560.567C68.61 565.789 75.6219 563.91 80.9188 564.235C86.2155 564.56 92.2792 563.602 97.2287 563.174C102.146 562.73 103.556 566.773 100.378 571.966C97.2331 577.174 89.642 576.974 84.2897 579.485C78.9055 581.981 72.4205 584.071 64.2972 590.675C56.1738 597.279 56.5578 603.148 58.2648 603.764C59.9716 604.38 68.2557 605.185 74.1953 601.934C80.167 598.698 87.7297 590.964 91.5328 591.049C95.336 591.133 90.44 596.724 88.5768 602.7C86.6985 608.707 82.8265 612.394 77.2342 616.398C71.6419 620.403 67.9414 617.466 61.2884 618.26C54.6507 619.023 43.3554 623.804 39.8156 628.276C36.2909 632.716 39.0987 633.738 44.5616 634.455C50.0244 635.173 57.7497 635.751 62.7731 633.436C67.7326 631.091 70.5403 632.113 69.5635 634.001C68.5547 635.874 61.2821 646.294 59.3218 648.106C57.3933 649.933 48.7514 653.507 41.3467 655.551C33.9268 657.627 32.0771 662.668 35.4303 664.852C38.7516 667.021 45.0285 666.44 44.0063 669.247C42.9841 672.054 37.7106 677.779 30.8041 681.002C23.9129 684.193 18.4393 697.508 15.72 706.684C12.9855 715.892 26.8118 708.511 30.4017 708.22C34.0236 707.944 33.8423 707.583 34.0889 712.092C34.3202 716.633 32.6917 728.132 34.5879 735.19C36.4842 742.249 42.0079 733.114 45.861 737.379C49.7462 741.659 48.8481 746.76 51.5971 749.637C54.3309 752.545 60.5151 761.801 72.0148 763.431C83.5146 765.061 81.7612 752.345 78.4534 749.242C75.1456 746.138 72.2737 753.986 67.0055 752.695C61.7693 751.419 60.0258 745.688 58.9937 741.511C57.9769 737.302 61.8856 738.73 64.42 737.113C66.9224 735.481 56.4448 731.044 52.1989 726.945C47.9529 722.846 46.2681 715.261 47.1431 704.109C48.018 692.958 47.8233 693.532 52.7693 692.121C55.1168 691.474 54.06 695.755 55.8668 699.046C57.9187 702.728 62.8524 705.546 64.8272 706.094C68.6018 707.145 64.9886 701.387 61.7783 693.546C58.6151 685.688 57.1385 676.594 58.2447 669.984C59.383 663.389 62.0094 664.051 63.6289 667.488C65.2332 670.957 70.9826 682.28 73.3843 684.403C75.7707 686.559 79.98 685.542 80.2907 681.181C80.6182 676.866 74.3519 663.415 72.2476 657.865C70.1433 652.315 73.5707 643.711 75.7678 639.424C77.9329 635.121 78.6916 636.659 82.2529 637.334C85.8294 637.977 92.1289 655.562 98.5818 662.358C105.035 669.154 107.287 662.03 108.227 655.027C109.184 648.072 101.243 634.019 96.1498 627.086C91.0564 620.153 94.4803 619.468 98.3523 615.782C102.224 612.096 102.364 614.358 106.97 618.275C111.609 622.208 110.795 623.507 112.544 622.222C114.277 620.969 115.439 620.423 118.233 622.38C120.98 624.354 121.555 624.549 122.147 616.793C122.725 609.068 116.536 594.712 112.114 583.236C107.724 571.776 112.457 569.989 115.245 565.944C118.016 561.851 120.075 568.32 124.937 570.713C129.784 573.137 136.737 582.013 142.352 584.058C147.968 586.103 144.786 577.296 142.016 569.272C139.245 561.248 126.261 544.443 121.362 536.936C116.464 529.429 114.544 516.32 113.346 511.75C112.18 507.196 114.942 509.138 120.094 514.217C125.262 519.264 142.653 547.577 150.419 567.271C158.217 586.981 168.376 601.814 167.464 607.85C166.553 613.887 162.931 614.163 158.513 616.688C154.081 619.245 141.013 619.261 134.486 623.252C127.959 627.244 128.654 628.751 128.422 636.326C128.237 643.884 132.414 642.853 140.438 640.084C148.446 637.267 150.819 640.357 152.381 645.728C153.926 651.051 143.264 654.172 135.016 658.482C126.769 662.792 116.67 671.24 115.55 678.785C114.399 686.315 129.358 679.356 133.267 680.785C137.207 682.229 134.478 684.42 133.488 687.242C132.434 690.035 126.887 693.12 126.887 693.12L117.978 700.056C117.978 700.056 114.048 702.381 110.775 705.138C108.08 707.423 105.966 710.299 105.966 710.299C105.966 710.299 103.45 712.866 103.25 714.771C102.952 717.374 104.993 719.679 105.27 720.909C105.77 722.989 109.74 723.467 112.746 724.897C115.719 726.312 108.952 731.797 104.489 735.241C100.043 738.733 95.8018 748.635 94.8903 754.671C93.9468 760.692 98.1981 757.775 102.755 757.512C107.28 757.234 104.012 760.228 103.365 762.822C102.704 765.448 100.776 767.275 98.2446 769.874C95.7287 772.441 88.1188 780.192 88.1188 780.192C88.1188 780.192 86.6064 787.903 89.2662 792.697C91.9899 797.523 97.5322 789.338 101.177 786.21C104.887 783.113 103.245 786.645 105.271 788.981C107.264 791.302 103.906 796.135 103.906 796.135C103.906 796.135 100.113 803.035 97.4673 810.324C94.8221 817.614 98.568 819.632 102.319 826.749C106.069 833.867 112.417 830.418 115.493 828.98C118.57 827.542 118.92 829.278 122.173 835.217C125.41 841.189 136.447 858.871 141.462 862.591C146.462 866.342 144.039 859.072 143.233 854.336C142.396 849.585 144.422 851.922 144.566 847.167C144.696 842.445 141.693 841.997 138.382 837.911C135.088 833.873 137.771 832.602 140.848 831.164C143.924 829.726 145.534 826.179 143.43 820.629C141.325 815.079 129.732 810.268 125.32 805.776C120.86 801.301 118.872 791.964 118.872 791.964C118.872 791.964 121.962 789.591 126.463 792.165C130.917 794.755 133.027 793.288 134.877 788.247C136.726 783.207 129.854 778.446 128.04 775.583C126.241 772.688 120.528 766.48 119.417 759.089C118.322 751.666 122.114 756.882 127.804 757.041C133.461 757.185 141.126 767.616 144.202 766.178C147.247 764.725 145.617 763.204 143.75 755.179C141.867 747.186 135.228 734.929 133.078 730.299C130.945 725.715 134.411 723.13 137.473 721.724C140.549 720.286 141.9 726.184 146.28 730.66C150.707 735.119 153.21 733.487 155.799 729.034C158.389 724.58 147.335 706.85 145.956 701.92C144.591 696.957 147.052 697.226 148.421 695.172C149.791 693.118 152.585 695.076 155.517 698.392C158.464 701.677 164.158 706.935 166.342 703.583C168.526 700.23 158.08 686.907 157.151 679.877C156.222 672.847 159.783 673.522 163.752 674C167.721 674.477 172.731 685.213 181.125 689.247C189.535 693.249 190.405 689.114 194.137 683.165C197.902 677.232 184.622 664.756 180.058 658.937C175.478 653.15 174.701 647.448 171.519 638.64C168.337 629.833 168.175 621.521 170.192 617.775C172.163 614.047 175.263 618.659 182.571 634.371C189.911 650.098 207.438 679.692 208.876 682.768C210.315 685.844 207.419 687.643 204.482 691.343C201.53 695.075 200.458 693.702 195.615 696.377C190.837 699.084 185.258 702.154 185.258 702.154C185.258 702.154 180.364 708.648 180.822 712.63C181.28 716.612 186.632 714.101 189.051 716.271C191.437 718.426 189.735 719.695 185.873 721.464C182.044 723.249 175.442 729.127 175.442 729.127C175.442 729.127 171.815 736.42 169.831 741.083C167.8 745.763 173.139 744.186 176.927 744.303C180.683 744.404 181.26 745.581 181.326 749.729C181.423 753.893 173.781 761.628 173.781 761.628C173.781 761.628 174.058 765.249 176.774 763.993C179.442 762.753 183.665 760.802 187.857 759.739C192.067 758.722 190.818 762.088 187.293 766.528C183.768 770.968 177.241 774.96 170.64 780.837C164.039 786.715 165.643 790.184 163.78 796.159C161.902 802.167 167.254 799.655 171.63 799.032C175.973 798.393 178.841 798.464 178.378 801.498C177.93 804.5 175.912 808.246 174.247 814.629C172.535 821.029 173.881 821.827 177.355 825.323C180.829 828.819 184.077 820.758 186.842 823.681C189.576 826.59 184.419 828.527 180.81 836.77C177.169 844.998 175.8 847.051 175.926 850.248C176.036 853.477 176.031 860.494 179.033 860.942C182.068 861.406 184.931 859.592 187.157 854.338C189.382 849.084 193.758 848.461 197.472 850.463C201.186 852.466 191.569 858.83 188.784 863.857C186 868.884 189 877.331 188.688 881.613C188.377 885.975 191.412 886.439 196.205 883.701C200.983 880.994 199.619 876.032 202.237 870.612C204.824 865.177 205.211 872.027 206.272 875.237C207.317 878.48 206.267 882.254 204.027 888.443C201.756 894.616 203.277 901.888 204.337 905.098C205.335 908.357 209.255 904.654 210.096 901.486C210.952 898.286 213.708 894.225 217.381 899.032C221.008 903.856 217.464 916.247 215.267 920.534C213.07 924.821 206.627 925.01 203.398 925.12C200.184 925.199 201.09 926.179 202.529 929.255C203.982 932.299 207.625 937.17 214.023 937.901C220.421 938.632 223.769 926.815 222.026 921.084C220.282 915.353 223.678 915.635 225.898 917.397C228.118 919.16 240.7 929.147 240.469 924.606C240.237 920.065 229.298 910.663 228.438 908.764C227.545 906.849 229.502 904.055 230.524 901.248C231.546 898.44 238.115 901.448 238.985 897.314C239.854 893.179 224.572 884.416 224.572 884.416C224.572 884.416 214.081 880.914 212.235 878.036C210.436 875.141 209.672 868.503 213.336 866.326C217 864.148 222.639 872.243 222.639 872.243C222.639 872.243 230.868 875.884 233.912 874.431C236.989 872.993 232.127 870.601 231.821 867.946C231.516 865.291 232.603 866.632 229.698 861.446C226.825 856.276 226.572 858.704 222.297 855.572C218.023 852.439 218.639 850.733 221.28 851.363C223.922 851.992 227.207 849.046 227.882 845.485C228.524 841.909 221.697 836.229 221.697 836.229C221.697 836.229 215.023 831.876 215.471 828.874C215.919 825.872 219.106 827.663 223.436 827.959C227.783 828.302 229.763 831.558 230.259 828.539C230.707 825.537 227.354 823.353 225.555 820.458C223.756 817.563 216.063 808.099 216.063 808.099C216.063 808.099 211.775 805.901 207.14 802.951C202.504 800 204.266 797.78 204.032 792.257C203.814 786.781 207.44 791.605 212.376 792.111C217.265 792.633 218.861 790.021 221.906 788.568C224.982 787.13 228.154 788.953 231.699 789.581C235.26 790.256 226.874 780.188 220.074 772.638C213.289 765.057 199.134 763.732 199.134 763.732C199.134 763.732 196.41 758.907 199.292 758.043C202.174 757.18 210.149 763.249 221.365 767.371C232.596 771.461 230.52 764.944 227.545 762.626C224.584 760.276 224.126 756.294 221.809 750.368C219.523 744.457 220.61 745.798 216.757 741.533C212.904 737.268 216.465 737.944 218.048 736.266C219.616 734.62 223.57 735.129 222.748 730.346C221.942 725.61 211.049 715.289 207.335 713.287C203.621 711.284 204.614 709.443 207.145 706.844C209.661 704.277 211.586 710.369 214.968 711.586C218.35 712.803 222.443 715.575 226.157 717.577C229.871 719.58 225.117 707.319 222.017 702.706C218.917 698.094 217.345 694.641 220.332 695.121C223.335 695.569 238.632 716.416 245.585 725.293C252.522 734.202 272.784 754.588 275.342 759.02C277.867 763.438 274.083 764.303 274.083 764.303C274.083 764.303 259.807 752.765 255.867 751.321C251.958 749.893 246.028 751.227 243.345 752.499C240.661 753.771 247.883 760.188 250.935 764.816C254.035 769.428 256.06 771.765 260.154 774.536C264.23 777.26 265.922 777.908 265.247 781.469C264.604 785.045 258.457 780.904 254.279 781.936C250.102 782.967 249.654 785.969 247.289 788.961C244.907 791.906 242.502 797.702 243.953 799.844C245.42 801.953 257.405 805.696 260.047 806.325C262.673 806.987 262.702 806.02 265.736 806.484C268.771 806.948 269.479 807.52 272.485 808.95C275.458 810.366 273.021 816.146 273.021 816.146C273.021 816.146 267.974 821.313 265.277 823.519C262.548 825.71 261.737 827.991 259.361 832.82C256.937 837.666 257.853 845.631 257.853 845.631C257.853 845.631 261.664 851.797 264.791 854.54C267.949 857.298 273.483 855.147 273.483 855.147L274.441 861.21C274.441 861.21 275.597 867.682 277.201 871.151C278.805 874.62 279.98 873.14 282.048 873.575C284.116 874.01 284.268 875.337 288.043 876.388C291.77 877.456 289.028 880.582 289.028 880.582C289.028 880.582 286.899 890 285.624 895.235C284.333 900.503 285.249 908.467 285.249 908.467C285.249 908.467 285.983 916.071 289.505 919.551C293.01 923.062 293.487 919.093 298.297 916.402C303.123 913.679 302.793 917.091 303.886 920.317C304.932 923.559 302.416 926.126 301.309 932.736C300.171 939.331 301.544 938.259 303.558 945.648C305.62 953.1 310.588 944.72 312.656 945.155C314.724 945.59 315.029 948.245 315.037 954.326C315.06 960.376 313.242 965.432 312.776 967.484C312.341 969.552 311.966 982.784 313.755 987.596C315.495 992.345 321.217 983.618 324.955 979.554C328.645 975.507 328.063 969.23 329.854 966.044C331.63 962.889 334.577 966.174 335.307 959.777C336.053 953.348 327.514 941.952 327.222 938.362C326.946 934.74 331.039 937.512 333.781 934.386C336.492 931.245 325.645 920.907 321.792 916.643C317.907 912.363 321.376 910.759 323.879 909.126C326.381 907.494 335.031 910.002 337.881 909.123C340.763 908.26 332.044 900.621 326.529 894.82C321.015 889.02 304.168 882.885 304.168 882.885C304.168 882.885 298.15 874.022 294.413 865.97C290.675 857.917 287.623 844.387 286.818 839.652C285.98 834.9 290.015 839.526 295.825 840.997C301.667 842.483 307.117 844.135 311.714 841.068C316.358 837.985 308.143 833.409 304.497 827.635C300.884 821.877 295.255 820.767 289.611 819.689C283.95 818.563 283.914 813.448 283.774 811.186C283.635 808.924 287.952 810.155 292.119 811.04C296.254 811.91 303.045 812.475 306.148 809.167C309.267 805.828 304.029 803.649 300.08 796.124C296.116 788.63 296.754 792.07 290.819 788.305C284.885 784.54 285.625 785.128 284.593 780.951C283.576 776.742 286.74 772.483 289.293 775.031C291.892 777.562 301.065 788.201 304.705 792.09C308.393 795.962 314.577 805.218 321.556 812.226C328.551 819.201 342.419 830.937 343.718 831.751C345.032 832.533 347.376 836.59 349.148 841.354C350.889 846.104 353.649 856.044 354.246 862.289C354.796 868.55 362.938 862.896 365.593 862.591C368.249 862.286 365.477 866.378 365.477 866.378C365.477 866.378 364.806 870.921 362.605 874.227C360.422 877.579 359.094 877.732 357.485 881.279C355.875 884.826 356.07 884.252 356.499 889.201C356.944 894.118 354.455 894.816 354.455 894.816C354.455 894.816 356.059 898.285 358.169 896.819C360.278 895.352 371.528 891.491 375.737 890.475C379.947 889.458 377.328 894.879 375.437 901.821C373.545 908.763 370.131 916.432 370.131 916.432C370.131 916.432 370.067 925.302 368.844 935.7C367.622 946.098 372.156 939.785 377.494 938.209C382.818 936.664 386.445 929.371 389.97 924.931C393.463 920.476 392.232 924.792 394.031 927.688C395.83 930.583 395.983 931.91 393.772 937.132C391.547 942.386 388.203 947.187 388.203 947.187L386.247 963C386.247 963 387.903 971.552 387.791 976.321C387.629 981.028 389.415 984.858 392.768 987.042C396.121 989.226 399.253 984.952 399.179 986.838C399.083 990.831 398.817 992.626 400.807 996.357C404.391 1003.08 407.995 998.641 407.454 1002.58C407.805 1000.28 406.982 1010.82 412.811 1014.07" fill="#174A94"/>
</svg>
