<svg width="138" height="141" viewBox="0 0 138 141" fill="none" xmlns="http://www.w3.org/2000/svg">
<path d="M1.5363 43.5977C1.49177 43.7763 1.44724 43.955 1.38045 44.1337C1.18006 44.5357 0.93514 45.0718 0.779284 45.5185C0.757018 45.6971 0.712488 45.8758 0.667957 46.0545C0.489835 46.5682 0.222652 47.3052 0.200387 47.9753H0V52.1072H0.178122C0.222652 52.5316 0.311713 52.956 0.356244 53.358C0.445305 53.7824 0.578896 54.1397 0.667957 54.5194C0.712488 54.7428 0.734753 54.9438 0.779284 55.1671C1.24685 56.6412 1.71442 58.1153 2.18199 59.6341C2.27105 59.8574 2.36012 60.0808 2.44918 60.2818C2.78316 61.3762 3.09487 62.4483 3.47338 63.4757C3.51791 63.699 3.56244 63.9224 3.62924 64.1457C3.7183 64.3244 3.78509 64.4808 3.87415 64.6594C3.91868 64.8605 3.96321 65.0391 4.00774 65.2401C4.98741 67.6746 5.90029 70.1315 7.25847 72.1863C7.74831 72.8563 8.21588 73.5264 8.70571 74.1964C9.28461 74.8888 9.8635 75.5588 10.4647 76.2512C11.2217 77.2116 12.2014 78.0157 12.9584 78.9761C13.4705 79.6238 14.0716 80.2268 14.5837 80.8745C15.5634 82.1476 16.3427 83.6217 16.7657 85.4309C17.0106 86.4583 16.8993 88.0664 16.6544 88.9598C16.2091 90.5455 15.7861 92.0643 15.4743 93.7618C15.4298 94.2085 15.3853 94.6552 15.363 95.1019C15.1404 96.2633 15.0513 97.7597 14.8064 98.8988C14.7396 99.3008 14.6951 99.7252 14.6283 100.127C14.3833 100.887 13.9826 101.512 13.5595 102.07C13.092 102.673 11.9342 103.522 11.1104 103.768C10.7318 103.879 10.3311 103.991 9.95256 104.058C9.64085 104.058 9.32914 104.103 9.01742 104.125C8.48306 104.237 7.99322 104.706 7.85963 105.264C7.65924 106.247 8.52759 107.163 8.88383 107.721C10.242 109.843 11.9787 112.032 13.8267 113.64C14.5392 114.265 15.1626 115.025 15.9419 115.605C17.879 117.102 19.8161 118.598 21.7309 120.095C23.1336 121.368 24.5586 122.641 25.9613 123.914C27.2527 124.919 28.4995 125.879 29.9468 126.75C30.3253 126.996 30.7038 127.085 31.1268 127.264C31.2381 127.353 31.3495 127.42 31.4608 127.487C31.6166 127.532 31.7502 127.554 31.9061 127.599C32.062 127.688 32.2178 127.755 32.3959 127.845C32.5963 127.889 32.7744 127.934 32.9748 127.979C33.1975 128.068 33.4201 128.157 33.6651 128.224C33.8877 128.269 34.1326 128.291 34.3775 128.336C34.6447 128.425 34.8896 128.492 35.1568 128.582C35.3795 128.626 35.6244 128.649 35.847 128.693C36.0252 128.76 36.2033 128.85 36.3591 128.917C36.5595 128.962 36.7599 129.006 36.9826 129.051C37.1384 129.118 37.272 129.185 37.4279 129.274C37.6283 129.319 37.8064 129.386 38.0068 129.431C38.1181 129.498 38.2517 129.587 38.3408 129.654C38.4966 129.699 38.6525 129.743 38.8083 129.788C39.1423 129.922 39.5208 130.19 39.8325 130.369C39.9884 130.436 40.1442 130.503 40.3001 130.547C40.6786 130.793 41.0571 131.016 41.4579 131.24C41.9255 131.508 42.393 131.91 42.8606 132.2C43.818 132.781 44.7309 133.406 45.666 133.987C46.334 134.411 47.0465 134.769 47.6922 135.238C48.9167 136.131 49.9409 137.225 51.121 138.163C51.4327 138.454 51.7444 138.767 52.0784 139.057C52.9022 139.705 53.6592 140.241 54.7502 140.643C54.9061 140.71 55.062 140.799 55.2178 140.866C55.8412 141.045 56.7096 141.045 57.333 140.866C57.5334 140.821 57.6893 140.71 57.8451 140.643C58.0232 140.598 58.2236 140.531 58.4017 140.486C58.5353 140.397 58.6689 140.308 58.8025 140.241C60.6728 139.481 62.0978 138.253 63.5673 137.069C64.1462 136.6 65.3262 135.506 65.5266 134.724C65.7493 133.898 65.4376 133.071 65.0368 132.669C64.7696 132.379 64.1684 131.977 64.5915 131.441C65.1258 130.726 65.8606 130.212 66.5954 129.676C68.1762 128.537 70.0019 127.621 71.6941 126.594C72.0281 126.393 72.362 126.281 72.7183 126.08C74.0987 125.254 75.5014 124.428 76.8596 123.534C77.5944 123.065 78.3069 122.574 79.0862 122.127C79.3979 121.948 79.7096 121.658 80.0436 121.524C80.9787 121.122 82.0474 121.368 82.8935 121.703C83.0939 121.77 83.2943 121.814 83.4724 121.859C83.606 121.948 83.7173 122.015 83.8509 122.082C84.2962 122.283 84.697 122.373 85.0978 122.618C85.7212 122.998 86.3001 123.489 86.8567 123.914C88.4821 125.142 89.9961 126.393 92.1781 127.108C92.8238 127.242 93.4918 127.398 94.1375 127.532C94.516 127.532 94.9167 127.577 95.2952 127.599C95.8519 127.688 97.0097 127.733 97.5886 127.644C98.3233 127.599 99.0803 127.577 99.8151 127.532C101.218 127.309 102.71 127.13 104.045 126.884C104.402 126.84 104.78 126.817 105.159 126.773C106.317 126.527 107.519 126.371 108.677 126.08C110.235 125.678 111.772 125.209 113.174 124.606C113.286 124.517 113.419 124.45 113.553 124.361C115.512 123.512 116.915 122.194 118.473 120.988C118.963 120.608 119.342 120.072 119.832 119.693C120.344 119.201 120.878 118.71 121.39 118.218C122.103 117.638 122.793 116.923 123.372 116.208C123.884 115.583 124.485 115.002 124.975 114.355C126.177 112.769 127.313 111.161 128.381 109.419C129.495 107.587 130.63 105.756 131.565 103.745C131.721 103.388 132.011 102.986 132.167 102.606C132.278 102.338 132.3 101.825 132.256 101.512C132.256 100.552 132.256 99.5912 132.233 98.6308C132.256 98.0947 132.278 97.5587 132.3 97.0226C132.523 95.7049 132.634 94.3201 133.013 93.1364C133.213 92.4887 133.747 92.1537 134.193 91.7516C134.482 91.4166 134.772 91.1039 135.061 90.7689C135.929 89.6075 136.62 88.2897 137.198 86.8156C137.265 86.5699 137.31 86.3242 137.354 86.0786C137.577 85.4085 137.777 84.4928 137.8 83.5994C137.866 83.5994 137.933 83.5994 138 83.5994V82.572H137.822C137.755 82.103 137.666 81.6339 137.599 81.1872C137.51 81.0309 137.421 80.8522 137.354 80.6735C137.31 80.5172 137.265 80.3832 137.221 80.2268C136.775 79.5791 136.33 78.9537 135.885 78.3284C135.662 77.8147 136.063 76.8989 135.796 76.2736C135.662 75.9385 135.328 75.5142 135.061 75.3132C134.861 75.1568 134.571 75.0451 134.438 74.8441C134.393 74.6654 134.348 74.4868 134.326 74.3081C134.259 74.1071 134.193 73.9061 134.126 73.7274C134.081 73.169 134.037 72.6106 133.97 72.0299C133.925 71.6949 133.97 71.2259 134.015 70.9355C134.059 70.6228 134.081 70.3325 134.104 70.0421C134.326 69.2381 134.705 68.434 135.016 67.697C135.061 67.496 135.106 67.2949 135.172 67.0939C135.261 66.9153 135.328 66.7589 135.417 66.5802C135.439 66.3792 135.484 66.1782 135.529 65.9772C136.107 64.0117 136.798 61.1975 136.286 58.7407C136.241 58.4057 136.197 58.0483 136.13 57.7133C135.773 56.4179 135.061 55.3681 134.438 54.3407C133.436 52.6656 132.456 51.0798 131.432 49.4271C131.12 48.9133 130.719 48.3103 130.474 47.7296C130.43 47.5733 130.385 47.4393 130.341 47.2829C130.252 47.1266 130.185 46.9926 130.096 46.8362C129.94 46.3225 129.829 45.8981 129.762 45.3398C129.784 43.687 129.829 42.0342 129.873 40.3591C129.806 39.6444 129.74 38.952 129.651 38.2373C129.539 37.6342 129.272 36.9642 129.049 36.4505C129.005 36.2942 128.96 36.1378 128.894 35.9815C128.025 34.2617 126.778 32.8993 125.042 32.0282C124.908 31.9389 124.797 31.8495 124.685 31.7825C123.817 31.4028 122.904 31.0901 122.014 30.7328C121.813 30.6881 121.613 30.6434 121.412 30.5988C121.212 30.5094 121.012 30.4201 120.811 30.3307C120.655 30.2861 120.477 30.2414 120.321 30.2191C119.364 29.817 118.407 29.3927 117.627 28.812C116.915 28.2759 116.714 27.4049 116.336 26.4891C116.18 26.0871 115.935 25.5734 115.757 25.1714C115.712 24.9704 115.646 24.7917 115.601 24.5907C114.711 22.4465 113.731 20.6151 112.417 18.94C112.172 18.6273 111.816 18.2923 111.482 18.0466C111.081 17.7339 110.681 17.3542 110.235 17.0638C109.167 16.3715 107.719 15.9248 106.361 15.5897C106.072 15.5451 105.782 15.5004 105.493 15.4781C104.001 15.143 102.242 15.009 101.04 14.3837C100.75 14.2273 100.439 13.9816 100.171 13.8029C99.303 13.2446 98.4347 12.6415 97.8112 11.8375C96.2749 9.87201 94.7386 7.68319 92.2894 6.63345C91.577 6.3431 90.6641 6.03041 89.8625 5.87407C89.3504 5.80707 88.8383 5.74006 88.304 5.67306C87.7028 5.56138 86.6118 5.44971 85.9216 5.56138C85.4763 5.56138 85.0087 5.56138 84.5634 5.58372C83.7173 5.67306 82.8712 5.76239 82.0252 5.8294C81.6912 5.8294 81.3349 5.8294 81.001 5.85173C80.3553 5.96341 79.2197 5.94107 78.6631 5.78473C77.9729 5.56138 77.5721 5.00301 77.1713 4.48931C76.7038 3.9086 76.0581 3.43957 75.6128 2.85886C75.3679 2.54617 75.1452 2.16648 74.8335 1.94313C74.6108 1.80912 74.4105 1.67511 74.2101 1.54111C74.0542 1.51877 73.8984 1.4741 73.7202 1.45177C73.0077 1.16141 72.2507 0.78172 71.4714 0.536037C71.2043 0.491367 70.9148 0.424362 70.6476 0.402028C70.3359 0.335023 70.0465 0.245684 69.757 0.178679C69.1559 0.0670046 68.5102 0.178679 67.8645 0.0670046C67.2633 -0.0223349 66.395 -0.0223349 65.8161 0.0670046C65.5044 0.0670046 65.1926 0.111674 64.8809 0.111674C64.4356 0.178679 64.0571 0.290353 63.6563 0.379693C63.4114 0.402028 63.1665 0.446697 62.9216 0.491367C62.3872 0.625376 61.7415 0.893395 61.2517 1.07207C61.029 1.11674 60.8287 1.18375 60.6283 1.22842C60.4724 1.31776 60.3166 1.38476 60.1607 1.4741C59.9603 1.51877 59.7599 1.56344 59.5595 1.60811C59.3814 1.67511 59.2256 1.76445 59.0474 1.85379C58.2014 2.09948 57.3998 2.34516 56.5537 2.54617C56.1752 2.59084 55.7967 2.63551 55.3959 2.68018C54.8393 2.79186 54.2381 2.83653 53.6147 2.92587C53.2585 2.92587 52.88 2.92587 52.5237 2.92587C52.1675 2.92587 51.8335 2.92587 51.4772 2.92587C51.0097 2.83653 50.5198 2.90353 50.0745 2.79186C49.7851 2.72485 49.4956 2.65785 49.2285 2.59084C49.0058 2.54617 48.7832 2.52384 48.5605 2.5015C47.9371 2.30049 47.1578 2.05481 46.5121 1.89846C45.9555 1.83146 45.3766 1.76445 44.8199 1.69745C44.4414 1.63045 43.9961 1.69745 43.6844 1.78679C43.3504 1.83146 43.0165 1.87613 42.6825 1.94313C41.7473 2.21115 40.7677 2.70252 40.0329 3.19389C39.7212 3.3949 39.3872 3.52891 39.0755 3.75226C38.4521 4.19895 37.8732 4.69032 37.2943 5.15935C36.6041 5.8294 35.9361 6.49945 35.2459 7.16949C34.9564 7.37051 34.6447 7.48218 34.3553 7.70553C33.9768 8.01822 33.7986 8.48725 33.4869 8.86694C33.3311 9.00095 33.1752 9.13496 33.0416 9.26897C32.5295 9.671 32.0397 10.1624 31.4163 10.4527C30.9932 10.6761 30.637 10.7654 30.1026 10.9217C29.9022 11.0111 29.7241 11.0781 29.5237 11.1674C29.3011 11.2121 29.0784 11.2344 28.8335 11.2791C28.5218 11.3684 28.2323 11.4355 27.9206 11.5248C27.6534 11.5471 27.3863 11.5918 27.1191 11.6141C26.7406 11.7035 26.3843 11.7928 26.0058 11.8821C25.7164 11.9045 25.4492 11.9492 25.1597 11.9715C23.7793 12.2618 22.3098 12.6639 21.241 13.2669C21.0852 13.3339 20.9516 13.3786 20.818 13.4456C19.6825 14.138 18.7028 14.9867 17.9458 16.0588C17.7231 16.3715 17.6118 16.7065 17.4114 17.0415C17.2333 17.3319 17.0106 17.6892 16.8325 18.0019C16.7657 18.1582 16.7212 18.2923 16.6544 18.4486C16.2536 19.074 15.9864 19.7887 15.6079 20.4587C14.9177 21.6872 14.2498 22.9826 13.4037 24.077C12.4908 25.2607 11.3775 26.4668 10.1084 27.3155C9.81897 27.5166 9.52953 27.6506 9.19555 27.8516C8.43853 28.3429 7.68151 28.946 6.94676 29.482C5.96709 30.1744 4.98741 30.8444 4.25266 31.8048C3.62924 32.6089 3.09487 33.614 2.82769 34.7307C2.76089 35.3338 2.71636 35.9368 2.64956 36.5622C2.64956 36.8525 2.64956 37.1429 2.67183 37.4332C2.78316 38.1033 2.82769 39.6221 2.67183 40.2698C2.40465 41.4758 1.84802 42.5479 1.38045 43.553M120.01 115.315C119.698 115.605 119.386 115.918 119.097 116.231L116.046 118.978C115.379 119.514 114.777 120.139 114.087 120.631C113.286 121.211 112.35 121.658 111.438 122.082C111.282 122.127 111.104 122.172 110.948 122.216C110.747 122.306 110.525 122.395 110.324 122.484C110.124 122.529 109.946 122.551 109.745 122.596C109.567 122.663 109.367 122.73 109.189 122.819C108.944 122.864 108.699 122.909 108.432 122.953C107.63 123.154 106.673 123.378 105.849 123.579C105.56 123.601 105.27 123.646 104.981 123.668C104.58 123.757 104.157 123.847 103.756 123.936C103.355 123.981 102.954 124.025 102.554 124.07C99.9042 124.673 95.7406 125.053 92.9574 124.294C91.1539 123.802 89.9293 122.551 88.6157 121.546C87.9477 121.033 87.2352 120.586 86.5227 120.117C85.6321 119.536 84.363 119.067 83.2943 118.665C82.9158 118.531 82.4482 118.553 82.1588 118.352V118.285C82.4259 117.883 83.3388 117.95 83.8954 117.816C84.4966 117.66 85.2314 117.414 85.788 117.213C86.0106 117.169 86.2333 117.102 86.4782 117.035C86.6118 116.968 86.7454 116.901 86.879 116.834C87.0794 116.789 87.2798 116.744 87.4579 116.7C89.5285 115.829 91.6438 115.136 94.182 114.69C95.4066 114.623 96.6089 114.578 97.8335 114.511C98.1452 114.511 98.4792 114.511 98.7909 114.511H99.9042C100.349 114.444 100.973 114.466 101.396 114.511C101.975 114.511 102.554 114.511 103.133 114.511C104.491 114.511 105.849 114.533 107.207 114.556C109.456 114.556 111.861 114.645 113.887 114.332C114.666 114.287 115.445 114.243 116.225 114.198C117.071 114.064 117.828 114.019 118.651 113.885C119.342 113.841 120.032 113.774 120.722 113.729C120.945 113.729 121.056 113.729 121.145 113.863C121.212 114.243 120.232 115.092 119.965 115.315M127.023 105.666C126.355 107.029 125.398 108.257 124.619 109.508C124.418 109.821 123.839 110.87 123.528 110.96C123.127 111.094 122.659 110.826 122.325 110.736C121.724 110.602 120.566 110.602 119.921 110.736C118.54 110.96 116.915 111.027 115.534 111.272C115.134 111.295 114.733 111.317 114.332 111.339C113.33 111.384 112.306 111.429 111.304 111.451C110.48 111.585 109.545 111.54 108.654 111.54H105.582C104.558 111.54 103.533 111.496 102.509 111.473H101.507C100.773 111.362 99.8596 111.451 99.0581 111.451H97.5663C96.9206 111.496 96.2527 111.518 95.607 111.563C94.9167 111.607 94.2265 111.674 93.5363 111.741C92.8683 111.853 92.2672 111.942 91.577 112.099C90.5305 112.344 89.4395 112.724 88.4821 113.081C88.2817 113.126 88.0813 113.171 87.9032 113.215C87.7696 113.305 87.6137 113.372 87.4802 113.439C87.302 113.483 87.1239 113.528 86.9458 113.573C86.8345 113.64 86.7009 113.707 86.5895 113.774C86.3669 113.818 86.122 113.885 85.8993 113.952C85.7657 114.019 85.6321 114.109 85.4986 114.176C85.0978 114.287 84.7861 114.399 84.4298 114.511C84.1849 114.556 83.9622 114.6 83.7173 114.667C83.5169 114.734 83.3388 114.824 83.1384 114.891C82.6041 115.025 82.0252 115.069 81.5131 115.203C81.1346 115.293 80.7783 115.203 80.3553 115.293H78.9748C78.5073 115.293 78.062 115.248 77.5944 115.248C76.7706 115.114 75.7909 115.449 75.1229 115.203C75.1229 115.181 75.1229 115.159 75.1229 115.136C75.2343 114.98 75.5237 114.98 75.7241 114.913C76.1694 114.734 76.7706 114.444 77.2604 114.287C77.4608 114.243 77.6612 114.198 77.8616 114.131C78.6186 113.818 79.5315 113.528 80.2885 113.215C80.4889 113.171 80.6893 113.126 80.9119 113.081C81.3795 112.903 81.9806 112.657 82.4482 112.501C82.6486 112.456 82.849 112.411 83.0716 112.367C83.2275 112.3 83.3833 112.21 83.5392 112.143C83.7396 112.099 83.94 112.054 84.1626 111.987C84.3408 111.898 84.5189 111.831 84.697 111.741C84.8751 111.697 85.0532 111.674 85.2314 111.63C86.3001 111.228 87.4134 110.915 88.5489 110.558C89.061 110.379 89.6844 110.089 90.1965 109.955C90.3969 109.91 90.6196 109.865 90.8199 109.843C90.9758 109.776 91.1539 109.687 91.3098 109.62C91.5102 109.575 91.7105 109.553 91.8887 109.508C92.0891 109.418 92.2894 109.329 92.4898 109.262C92.6902 109.217 92.8906 109.195 93.091 109.15C94.4492 108.681 95.9632 108.257 97.3437 107.833C97.5886 107.788 97.8112 107.743 98.0561 107.699C100.216 107.051 102.554 106.47 104.847 106.001C105.181 105.957 105.493 105.934 105.804 105.89C107.719 105.443 109.924 105.331 111.95 104.952C112.551 104.907 113.152 104.84 113.753 104.818C115.623 104.505 117.805 104.549 119.72 104.259C120.566 104.214 121.412 104.17 122.258 104.147C123.951 104.08 125.643 103.991 127.313 103.902C127.535 103.902 127.669 103.902 127.803 103.991C127.892 104.46 127.201 105.287 127.001 105.689M129.561 93.7841C129.45 94.5658 129.339 95.3252 129.227 96.1069C129.227 96.5536 129.205 96.978 129.183 97.4247C129.094 97.9384 129.294 99.1221 128.983 99.3455C128.76 99.5018 128.181 99.4348 127.847 99.4348C126.956 99.4348 126.088 99.4572 125.197 99.4795C124.53 99.4795 123.884 99.5242 123.216 99.5465C121.724 99.6358 120.21 99.7475 118.718 99.8592C118.139 99.8592 117.583 99.9039 117.004 99.9262C116.291 100.016 115.579 100.105 114.844 100.172C114.421 100.194 113.998 100.217 113.575 100.239C112.106 100.462 110.436 100.552 109.011 100.82C108.499 100.864 108.009 100.931 107.497 100.976C106.495 101.177 105.315 101.356 104.335 101.557C104.045 101.601 103.756 101.646 103.467 101.668C101.93 102.026 100.394 102.361 98.8577 102.74C98.6573 102.83 98.4346 102.897 98.2343 102.986C97.9893 103.031 97.7222 103.075 97.4772 103.12C96.8983 103.299 96.1191 103.567 95.5402 103.723C94.8499 103.924 94.3378 103.969 93.6699 104.192C92.7347 104.482 91.6883 104.84 90.7531 105.153C90.5305 105.197 90.3301 105.242 90.1297 105.264C89.9293 105.354 89.7067 105.443 89.5063 105.532C89.3059 105.577 89.0833 105.622 88.8829 105.666C88.3262 105.867 87.6583 106.113 87.0794 106.292C86.6563 106.403 86.3224 106.582 85.9439 106.694C85.7657 106.716 85.5653 106.738 85.3872 106.761C85.1423 106.85 85.0532 107.073 84.6747 106.962C84.6747 106.939 84.6302 106.917 84.6302 106.872C84.7638 106.649 85.031 106.761 85.2536 106.649C85.3427 106.56 85.4095 106.47 85.4986 106.381C85.6767 106.336 85.8548 106.269 86.0107 106.225C86.122 106.135 86.2333 106.068 86.3446 106.001C86.7454 105.823 87.0794 105.711 87.4802 105.532C87.8587 105.354 88.304 105.086 88.7047 104.929C88.8606 104.885 88.9942 104.84 89.1278 104.795C89.2391 104.728 89.3504 104.639 89.4618 104.572C89.9071 104.393 90.2633 104.281 90.6863 104.08C90.7977 104.013 90.9313 103.946 91.0426 103.857C92.3117 103.321 93.514 102.83 94.7831 102.271C96.8316 101.356 98.969 100.418 101.062 99.5465C101.262 99.5018 101.44 99.4348 101.641 99.3901C103.266 98.6531 105.07 98.0277 106.784 97.38C106.985 97.3353 107.163 97.2907 107.363 97.246C107.541 97.1567 107.742 97.0673 107.92 97.0003C108.521 96.8216 108.966 96.71 109.59 96.5313C109.745 96.4643 109.924 96.3749 110.102 96.3079C110.324 96.2633 110.547 96.2186 110.77 96.1516C110.948 96.0846 111.126 95.9952 111.304 95.9282C111.549 95.8836 111.816 95.8389 112.061 95.7719C112.284 95.6826 112.506 95.6156 112.729 95.5262C112.929 95.4815 113.152 95.4369 113.352 95.4145C114.466 95.1019 115.757 94.7668 116.893 94.4541C117.16 94.4095 117.449 94.3648 117.716 94.3425C119.676 93.8288 121.835 93.4937 123.862 93.0247C124.218 92.98 124.574 92.9577 124.93 92.913C125.331 92.8237 125.732 92.7344 126.11 92.6674C126.467 92.6227 126.845 92.6003 127.201 92.5557C127.713 92.4663 128.203 92.377 128.715 92.2877C129.049 92.2653 129.361 92.2206 129.695 92.1983C129.74 92.1983 129.806 92.2207 129.873 92.2207C129.918 92.2653 129.962 92.2877 129.985 92.3323C130.074 92.7567 129.717 93.2927 129.628 93.7618M134.571 81.9466C134.682 82.2593 134.638 82.5943 134.705 82.974C134.905 84.2918 134.237 85.8999 133.859 86.7709C133.77 86.905 133.703 87.039 133.614 87.173C133.413 87.6197 132.812 88.8704 132.411 89.0044C132.144 89.0938 131.432 88.9374 131.031 89.0044C130.163 89.1384 129.361 89.2054 128.537 89.3395C128.203 89.3618 127.869 89.3841 127.535 89.4065C126.422 89.6075 125.153 89.7862 124.062 90.0095C123.728 90.0542 123.394 90.0765 123.06 90.1212C121.568 90.4562 119.876 90.7689 118.407 91.1039C118.139 91.1486 117.85 91.1709 117.583 91.2156C117.316 91.3049 117.026 91.3943 116.759 91.4613C116.514 91.5059 116.247 91.5283 116.002 91.5729C115.334 91.774 114.488 91.9973 113.842 92.176C113.62 92.2207 113.375 92.243 113.152 92.2877C112.929 92.377 112.684 92.4663 112.462 92.5333C112.239 92.578 112.039 92.6003 111.816 92.645C111.282 92.8014 110.569 93.0247 110.057 93.2257C109.812 93.2704 109.567 93.3151 109.322 93.3821C109.167 93.4491 108.988 93.5384 108.833 93.6054C108.61 93.6501 108.409 93.6948 108.187 93.7394C108.031 93.8064 107.853 93.8958 107.697 93.9628C106.985 94.1861 106.294 94.3425 105.649 94.6552C105.404 94.7222 105.159 94.7892 104.914 94.8338C104.023 95.2582 103.044 95.5262 102.108 95.8836C101.975 95.9729 101.819 96.0399 101.685 96.1293C100.594 96.5536 99.5924 96.911 98.5237 97.3353C98.3901 97.4247 98.2565 97.4917 98.1229 97.581C97.6331 97.782 97.2546 97.8714 96.7648 98.0724C96.6312 98.1394 96.4976 98.2287 96.364 98.3181C94.8054 98.9658 93.3359 99.5912 91.7996 100.239C91.4434 100.395 90.9981 100.686 90.6418 100.82C88.7493 101.624 86.9458 102.472 85.1423 103.321C84.4521 103.634 83.8509 103.879 83.1607 104.17C83.0494 104.259 82.9158 104.326 82.8044 104.415C82.6486 104.482 82.4927 104.527 82.3369 104.594C81.6244 104.996 80.8674 105.287 80.0881 105.622C79.0862 106.068 78.1287 106.627 77.0823 107.051C76.7038 107.207 76.303 107.52 75.9245 107.676C74.0987 108.458 72.4288 109.463 70.6031 110.223C69.9129 110.513 69.1781 110.915 68.5547 111.295C68.332 111.406 68.0871 111.451 67.909 111.585C67.7977 111.674 66.9516 112.076 66.7735 112.009C66.7735 112.009 66.7512 112.009 66.7289 111.987C66.7289 111.942 66.7512 111.898 66.7735 111.853C66.8848 111.764 67.0852 111.741 67.2188 111.652C67.2856 111.563 67.3524 111.496 67.4192 111.406C67.5305 111.362 67.6641 111.295 67.7977 111.25C67.8867 111.161 67.9758 111.071 68.0871 111.004C69.1336 110.357 70.1801 109.776 71.2488 109.128C73.4976 107.766 75.7464 106.292 77.9952 104.929C78.7967 104.438 79.5983 103.946 80.3775 103.477C80.6893 103.299 81.001 103.165 81.3127 102.964C82.8267 101.936 84.4743 101.065 86.0552 100.105C87.4356 99.2561 88.7938 98.3627 90.241 97.6034C90.7531 97.3353 91.2652 96.9556 91.7551 96.643C92.7793 96.0176 93.8035 95.4592 94.8054 94.8338C95.3398 94.5211 95.8742 94.2755 96.4308 93.9628C97.2323 93.4937 98.0339 92.98 98.9022 92.5557C99.2139 92.3993 99.5479 92.1536 99.8374 91.975C100.461 91.5953 101.129 91.3049 101.73 90.9252C101.886 90.8582 102.064 90.7912 102.242 90.7242C102.865 90.3445 103.533 90.0095 104.246 89.6968C104.624 89.5405 105.047 89.2278 105.426 89.0714C106.361 88.6694 107.252 88.2674 108.209 87.8877C108.343 87.7983 108.476 87.709 108.632 87.642C113.775 85.5649 119.097 83.5994 124.663 81.8796C126.778 81.2319 128.938 80.7182 131.031 80.0928C131.276 80.0482 131.543 80.0035 131.81 79.9588C132.055 79.8695 132.3 79.7801 132.545 79.7131C132.679 79.6908 132.812 79.6685 132.946 79.6461C133.458 79.7131 133.614 80.3832 133.859 80.7182C134.148 81.0979 134.549 81.4999 134.705 81.969M92.8906 90.7019C92.8906 90.7019 92.8906 90.6572 92.8906 90.6349C92.9351 90.5902 92.9797 90.5679 93.0465 90.5455H93.2023C93.2023 90.6796 93.1355 90.7242 93.0465 90.7689H92.9351C92.9351 90.7689 92.9129 90.7466 92.8906 90.7242M131.165 73.8614C131.209 74.1071 131.209 74.3528 131.254 74.5984C131.32 74.7548 131.365 74.8888 131.432 75.0451C131.432 75.1345 131.409 75.2015 131.387 75.2908C131.142 75.6705 130.029 75.6929 129.539 75.8715C129.183 76.0055 128.715 76.0502 128.315 76.1842C128.114 76.2512 127.936 76.3406 127.736 76.4076C127.491 76.4522 127.268 76.4969 127.023 76.5416C125.843 76.8989 124.663 77.2563 123.416 77.5913C123.238 77.6807 123.038 77.7477 122.837 77.837C122.169 78.038 121.635 78.1274 120.989 78.3284C120.789 78.4177 120.611 78.507 120.433 78.5741C117.583 79.4004 114.866 80.3832 112.217 81.4329C111.705 81.6339 111.282 81.7009 110.77 81.9243C110.636 82.0136 110.48 82.0806 110.347 82.1476C110.168 82.1923 109.99 82.2593 109.812 82.304C109.456 82.4603 108.966 82.7283 108.61 82.8847C108.12 83.0857 107.742 83.175 107.252 83.3761C107.118 83.4654 106.985 83.5324 106.851 83.6217C106.049 83.9567 105.27 84.3141 104.513 84.6715C104.068 84.8725 103.712 84.9618 103.288 85.1852C103.155 85.2745 103.021 85.3639 102.91 85.4309C102.776 85.4755 102.643 85.5202 102.509 85.5649C100.862 86.5029 99.0803 87.307 97.4995 88.2897C96.8984 88.6471 96.2527 88.8928 95.696 89.2948C95.1617 89.6521 94.605 89.9425 94.0039 90.2329C93.848 90.3222 93.6699 90.6125 93.3804 90.4785H93.3582C93.3582 90.1658 93.6254 90.2328 93.8035 90.0988C93.848 90.0318 93.8925 89.9648 93.9371 89.8978C94.0484 89.8308 94.182 89.7638 94.2933 89.7191C94.6273 89.4735 94.9835 89.2278 95.3175 88.9821C97.3659 87.5527 99.4589 86.1456 101.507 84.6938C104.09 82.8847 106.74 81.0979 109.478 79.4451C111.193 78.44 112.974 77.5913 114.688 76.5863C114.822 76.5416 114.933 76.4969 115.067 76.4522C115.289 76.3406 115.468 76.2066 115.735 76.1172C115.891 76.0055 116.069 75.9162 116.225 75.8045C116.848 75.5365 117.36 75.2685 117.984 75.0005C118.34 74.8441 118.741 74.5538 119.097 74.3974C120.41 73.8167 121.702 73.1913 122.993 72.6106C123.461 72.3873 123.839 72.298 124.307 72.0969C124.663 71.9406 125.108 71.6726 125.465 71.5162C127.29 70.7345 129.116 70.0421 130.942 69.2828C131.053 69.2828 131.12 69.3274 131.187 69.3498C131.298 69.7518 131.076 70.6005 130.986 71.0472C130.831 72.0076 131.009 73.0797 131.165 73.9284M131.677 55.5915C131.899 55.6808 132.523 56.9316 132.656 57.2219C132.745 57.3783 132.834 57.5123 132.924 57.6686C132.968 57.825 133.013 58.0036 133.057 58.16C133.146 58.3833 133.257 58.5844 133.302 58.8524C133.636 60.4158 133.347 62.4259 133.035 63.7214C132.857 64.4137 132.879 65.2178 132.345 65.5528C132.167 65.6422 131.944 65.6645 131.743 65.7315C131.588 65.8208 131.409 65.9102 131.254 65.9995C131.053 66.0442 130.875 66.0889 130.675 66.1559C129.227 66.7812 127.713 67.3173 126.222 67.9427C125.865 68.099 125.398 68.3894 125.019 68.5234C123.706 69.0147 122.503 69.5284 121.234 70.1091C121.123 70.1761 121.012 70.2655 120.9 70.3325C120.232 70.6228 119.653 70.8685 118.985 71.1589C118.852 71.2482 118.718 71.3152 118.585 71.4046C118.429 71.4492 118.273 71.5162 118.117 71.5609C117.204 72.0523 116.247 72.5213 115.245 72.9457C114.733 73.169 114.043 73.571 113.553 73.8614C113.174 74.1071 112.773 74.1741 112.395 74.4198C111.259 75.1121 110.013 75.6929 108.922 76.4076C108.588 76.6309 108.209 76.7203 107.875 76.9436C107.118 77.435 106.339 77.8817 105.537 78.3507C105.07 78.6187 104.624 78.9984 104.179 79.2888C102.732 80.2268 101.307 81.1426 99.9487 82.1476C99.303 82.6167 98.635 82.974 97.9893 83.4431C95.7851 85.0065 93.5363 86.5476 91.332 88.111C89.8848 89.1161 88.4821 90.2105 87.0348 91.2156C85.8993 91.9973 84.7861 92.7344 83.6728 93.5384C82.7599 94.1861 81.847 94.9008 80.9119 95.5485C78.8635 96.9333 76.8374 98.3627 74.878 99.8368C73.6312 100.775 72.3175 101.601 71.0484 102.517C69.0445 103.991 66.9739 105.398 64.97 106.872C64.3243 107.364 63.6341 107.81 62.9661 108.302C62.6767 108.503 62.4095 108.793 62.031 108.927C61.9864 108.882 61.9864 108.905 61.9864 108.838C62.3872 108.19 63.1665 107.81 63.7009 107.297C64.8587 106.202 66.1278 105.175 67.3969 104.17C68.332 103.433 69.1781 102.584 70.091 101.825C73.5421 99.0775 76.7928 96.0622 80.2439 93.3151C81.3127 92.4663 82.2924 91.4836 83.3833 90.6349C87.3911 87.508 91.1539 84.0908 95.1394 80.9416C98.0339 78.6634 100.862 76.2959 103.778 74.0847C109.011 70.1091 114.399 66.2899 120.032 62.7386C120.833 62.2249 121.635 61.6666 122.414 61.1305C122.548 61.0635 122.682 60.9965 122.815 60.9295C123.617 60.3935 124.485 59.8798 125.264 59.3214C126.333 58.5843 127.491 58.026 128.582 57.3113C129.472 56.7082 130.43 56.1052 131.409 55.5691C131.521 55.5691 131.61 55.5691 131.721 55.5691M66.5508 112.3C66.5508 112.3 66.484 112.367 66.395 112.389C66.395 112.389 66.3727 112.344 66.3727 112.322C66.3727 112.322 66.3727 112.322 66.3727 112.277C66.395 112.277 66.4172 112.277 66.4618 112.255H66.5508C66.5508 112.255 66.5508 112.277 66.5731 112.3M93.9148 14.3613C94.182 13.9146 94.4269 13.2892 94.8277 12.9766C95.1394 13.0212 95.273 13.3562 95.4288 13.5573C95.9409 14.071 96.453 14.5847 96.9651 15.0984C97.5886 15.5897 98.2343 16.0588 98.88 16.5501C99.0581 16.6841 99.4143 16.7065 99.4811 16.9522C99.5702 17.3319 99.1471 17.6222 99.0135 17.8232C98.7018 18.2923 98.4347 18.7613 98.1452 19.2303C97.9448 19.5207 97.7444 19.811 97.5218 20.1014C96.8538 21.2181 96.0968 22.2455 95.4066 23.3176C94.0707 25.4394 92.668 27.4719 91.332 29.5714C90.6863 30.5988 89.9739 31.6038 89.3059 32.6089C87.8587 34.7977 86.4559 37.0089 85.031 39.1977C83.6283 41.3418 82.3369 43.5307 80.9119 45.6748C79.3311 48.0423 77.7948 50.4545 76.303 52.889C75.7686 53.7377 75.1452 54.5864 74.6331 55.4351C72.9409 58.1823 71.1597 60.8402 69.4676 63.6097C68.8219 64.6371 68.1094 65.6645 67.4637 66.6919C65.9497 69.0371 64.4802 71.3822 63.0329 73.7497C62.454 74.6655 61.8751 75.5812 61.2962 76.5192C61.2072 76.6086 61.1181 76.6979 61.0513 76.7873C60.9845 76.9213 60.94 77.0553 60.8732 77.1893C60.7841 77.234 60.6951 77.301 60.606 77.3456C60.5615 77.4573 60.5392 77.5913 60.5169 77.703C60.4947 77.7253 60.4501 77.7477 60.4279 77.77C60.4056 77.77 60.3611 77.77 60.3388 77.77C60.2943 77.4573 60.4501 77.4796 60.5392 77.3233C60.5615 77.167 60.606 77.0106 60.6283 76.8543C60.6951 76.7649 60.7619 76.6756 60.8509 76.5863C60.8954 76.4299 60.9622 76.2736 61.0068 76.1172C61.4521 75.3578 61.8974 74.5091 62.3204 73.7051C63.2778 71.8513 64.2352 69.9751 65.1926 68.1213C65.5044 67.496 65.727 66.8929 66.061 66.2899C66.5731 65.3965 66.9961 64.4361 67.486 63.498C67.6641 63.163 67.9313 62.761 68.0871 62.4036C68.3988 61.6889 68.7551 60.9965 69.1336 60.3265C69.1781 60.1701 69.2449 60.0138 69.3117 59.8574C69.6234 59.3437 69.8906 58.7184 70.2023 58.2047C70.2468 58.0706 70.2914 57.9366 70.3359 57.8026C70.4918 57.4676 70.7367 57.0879 70.9148 56.7529C70.9593 56.6189 71.0039 56.4849 71.0707 56.3285C71.7164 55.0331 72.4511 53.693 73.0968 52.3753C73.2972 51.9732 73.4085 51.6159 73.6089 51.2138C75.0339 48.489 76.3475 45.6301 77.7502 42.9053C78.1065 42.1906 78.3959 41.4982 78.7967 40.8505C78.8635 40.6941 78.9303 40.5378 78.9971 40.3814C79.9545 38.7733 80.756 37.0312 81.6912 35.4231C81.9138 35.0434 82.0029 34.6637 82.2256 34.3064C82.8712 33.2789 83.3833 32.1845 83.9845 31.0901C84.9864 29.3033 86.0774 27.5389 87.0794 25.7744C88.8161 22.7369 90.5082 19.6994 92.423 16.8182C92.6234 16.5055 92.757 16.1928 92.9574 15.8578C93.2691 15.3664 93.6254 14.875 93.9148 14.3837M71.6941 20.3024C71.7386 20.079 71.7609 19.8557 71.8054 19.6323C72.273 18.1136 72.6515 16.4161 73.0968 14.875C73.1413 14.607 73.1859 14.339 73.2527 14.071C73.453 13.4233 73.698 12.6192 73.8538 11.9492C73.8761 11.7705 73.8983 11.5695 73.9429 11.3684C74.0987 10.6761 74.3882 9.82734 74.5663 9.13496C74.6776 8.7106 74.7222 8.28623 74.8558 7.95121C74.9671 7.61619 74.9448 7.08015 75.1675 6.8568C75.5905 6.8568 75.8354 7.43751 76.1026 7.66086C76.637 8.06289 77.3049 8.53192 78.0397 8.73293C78.6408 8.88928 79.3088 8.88928 79.9322 8.97862C80.2439 9.02328 80.4889 8.93395 80.7115 9.06796C80.8228 9.60399 80.4666 9.89434 80.3553 10.3187C80.1994 10.8994 79.91 11.4801 79.7096 11.9938C79.665 12.1725 79.6205 12.3288 79.5983 12.5075C79.4424 12.9096 79.2197 13.4233 79.0416 13.8253C78.9748 14.0263 78.9303 14.2496 78.8635 14.4507C78.6854 14.8527 78.4627 15.3887 78.2846 15.7907C78.2401 15.9694 78.1955 16.1704 78.151 16.3491C77.728 17.3765 77.2604 18.5379 76.8596 19.5653C76.7928 19.7664 76.7483 19.9674 76.7038 20.1684C76.3921 20.8608 76.1249 21.6872 75.7909 22.3572C75.7464 22.5582 75.7018 22.7592 75.635 22.9379C75.2343 23.943 74.8335 25.0821 74.3659 26.0648C74.3214 26.2658 74.2769 26.4445 74.2101 26.6455C74.0542 27.0475 73.8093 27.5612 73.6312 27.9633C73.5866 28.1419 73.5421 28.3206 73.4753 28.4993C72.5624 30.7551 71.6718 33.1003 70.7367 35.3338C70.514 35.8475 70.4472 36.2942 70.2246 36.7855C70.0687 37.1875 69.7793 37.6789 69.6457 38.0809C69.6012 38.2596 69.5566 38.4383 69.5121 38.617C68.1317 41.7885 66.9293 45.0494 65.5934 48.2656C64.302 51.3702 62.9439 54.4077 61.6525 57.5123C61.5857 57.624 61.5189 57.7356 61.4521 57.8473C61.2517 58.294 61.1404 58.6514 60.9622 59.098C60.8732 59.2321 60.7841 59.3884 60.7173 59.5224C59.6931 61.9792 58.6244 64.4137 57.5111 66.7812C57.3107 67.2279 57.1994 67.6076 56.999 68.0543C56.8432 68.434 56.5537 68.8807 56.3979 69.2381C56.1084 69.9528 55.8635 70.5558 55.5518 71.2482C55.3959 71.6279 55.1065 72.0746 54.9506 72.432C54.2827 74.0401 53.5479 75.5812 52.8577 77.1446C52.546 77.8593 52.3011 78.507 51.9893 79.2218C51.9003 79.3558 51.8112 79.4674 51.7444 79.6015C51.6999 79.7578 51.6554 79.9141 51.6108 80.0705C51.544 80.1375 51.4772 80.2045 51.4105 80.2715C51.2101 80.5619 51.3882 80.7852 51.0765 81.0309H51.0097C50.787 80.5842 51.2101 80.2938 51.2769 80.0035C51.544 78.8644 52.0561 77.837 52.4569 76.7873C53.2139 74.7325 54.06 72.633 54.8616 70.5782C55.062 70.0645 55.1287 69.6624 55.3291 69.1487C55.4182 69.0147 55.485 68.8584 55.5741 68.702C55.6186 68.5234 55.6854 68.3223 55.7299 68.1437C56.2197 66.9599 56.7096 65.7315 57.1326 64.4584C57.2217 64.3021 57.2885 64.1457 57.3775 63.9894C57.4221 63.7884 57.4666 63.6097 57.5111 63.4087C57.8006 62.6716 58.1568 61.8452 58.4463 61.0859C58.4908 60.8848 58.5576 60.6838 58.6021 60.4828C59.1588 59.1204 59.6931 57.624 60.2498 56.2615C60.2943 56.1052 60.3166 55.9488 60.3611 55.7925C60.5169 55.3235 60.7841 54.7651 60.9622 54.3407C61.0068 54.1397 61.0736 53.9164 61.1181 53.7153C62.3427 50.6778 63.3669 47.4616 64.5469 44.4017C64.5915 44.2007 64.6583 43.9773 64.7028 43.7763C65.0813 42.7713 65.393 41.7662 65.7493 40.6941C65.8161 40.5378 65.8829 40.3814 65.9719 40.2251C66.0165 40.0017 66.0833 39.7561 66.1278 39.5327C66.3059 39.0413 66.5508 38.416 66.7067 37.9023C67.3078 35.9368 67.8645 33.949 68.4879 32.0282C68.5324 31.8048 68.577 31.5815 68.6215 31.3358C68.6883 31.1571 68.7551 30.9785 68.8441 30.7998C68.8887 30.5318 68.9555 30.2861 69 30.0181C69.5566 28.2089 70.0465 26.2211 70.6254 24.3897C70.6922 24.1217 70.7367 23.8536 70.7812 23.5856C71.0929 22.5135 71.4492 21.2628 71.7386 20.1907M48.0707 45.6078C48.1152 44.8261 48.1597 44.0667 48.2043 43.3073C48.5828 40.9398 48.4269 38.2596 48.7832 35.8921C48.8054 35.1327 48.85 34.3734 48.8722 33.614C49.273 30.9561 49.0503 27.9186 49.4734 25.2607C49.5179 24.278 49.5624 23.2953 49.607 22.3349C50.0077 19.7217 49.7628 16.7288 50.1636 14.0933C50.1859 13.4903 50.2304 12.8872 50.2527 12.2842C50.2527 11.8821 50.2527 11.5025 50.2749 11.1004C50.364 10.006 50.453 8.91161 50.5421 7.8172C50.6312 7.19183 50.4753 6.3431 50.7202 5.87407C51.2546 5.69539 52.0561 5.98574 52.7464 5.87407C53.5257 5.8294 54.3049 5.78473 55.0842 5.76239C55.6186 5.65072 56.153 5.56138 56.7096 5.44971C57.2885 5.33803 57.7338 5.33803 58.1791 5.11468C58.4017 5.11468 58.4908 5.13702 58.6021 5.22636C58.6912 5.53905 58.5576 6.07508 58.5131 6.45478C58.5131 6.76746 58.4685 7.08015 58.4463 7.41517C58.3349 8.08522 58.2459 8.75527 58.1568 9.42531C58.1568 9.738 58.1123 10.0507 58.09 10.3634C58.001 11.0111 57.9119 11.6365 57.8006 12.2842C57.7783 12.5969 57.7561 12.9096 57.7338 13.2222C57.333 15.5897 57.1326 18.1582 56.7318 20.4811C56.7096 20.8161 56.6873 21.1511 56.6428 21.4861C56.5537 21.9998 56.4647 22.5135 56.3756 23.0272C56.3311 23.3846 56.3088 23.7643 56.2643 24.1217C55.7522 26.8688 55.4627 29.817 54.9284 32.5196C54.8838 32.8323 54.8616 33.1449 54.8393 33.4353C54.7502 33.8373 54.6612 34.2393 54.5721 34.6414C54.5499 34.9541 54.5053 35.2444 54.4831 35.5348C54.1713 36.9642 53.9264 38.5723 53.5479 39.9794C53.5034 40.2921 53.4589 40.6048 53.4143 40.9175C52.3456 45.1834 51.2991 49.4717 49.9855 53.5143C49.7628 54.2067 49.696 54.7874 49.4734 55.4798C49.4066 55.6585 49.3175 55.8148 49.2507 55.9935C49.2062 56.2169 49.1617 56.4179 49.1171 56.6412C49.0281 56.8646 48.939 57.0879 48.8499 57.3113C48.8054 57.5123 48.7832 57.7133 48.7386 57.9143C48.4492 58.83 48.1152 59.9021 47.8035 60.8178C47.759 61.0635 47.7144 61.2869 47.6476 61.5326C47.4918 62.0686 47.2246 62.7386 47.0687 63.2747C47.0242 63.498 46.9797 63.7437 46.9129 63.967C46.5121 65.1061 46.2227 66.2675 45.8441 67.4513C45.666 67.9873 45.3988 68.6574 45.243 69.1934C44.9313 70.3102 44.6864 71.4492 44.2633 72.4766C43.9961 73.102 43.9293 73.7497 43.7289 74.4198C43.6399 74.5984 43.5508 74.7995 43.484 74.9781C43.3727 75.3355 43.484 75.7599 43.15 75.8715C43.1278 75.8715 43.1055 75.8492 43.0833 75.8269C42.9497 75.1345 43.2168 74.5538 43.3504 73.9954C43.6176 72.8117 43.7512 71.6056 44.0629 70.4665C44.1075 70.1315 44.152 69.8188 44.1965 69.5061C44.2856 69.1264 44.3746 68.7244 44.486 68.3447C44.5082 68.0543 44.5528 67.7863 44.575 67.496C45.1985 64.5924 45.5992 61.4879 46.2449 58.5397C46.2894 58.0706 46.3562 57.5793 46.423 57.1102C47.0019 54.4971 47.2023 51.6159 47.6922 48.9134C47.7367 48.5113 47.759 48.087 47.7812 47.6849C47.8703 46.9926 47.9816 46.2778 48.0707 45.5855M38.3853 76.4076C38.4075 75.9385 38.4521 75.4918 38.4743 75.0228C38.5634 74.3974 38.6525 73.7944 38.7415 73.169C38.7638 72.7223 38.8083 72.2533 38.8306 71.8066C38.9197 71.1142 39.0087 70.4442 39.12 69.7518C39.1423 69.3051 39.1868 68.8584 39.2091 68.4117C39.6767 65.7315 39.7212 62.761 40.1665 60.0584C40.1888 59.6788 40.211 59.3214 40.2333 58.9417C40.3224 58.3163 40.4114 57.691 40.4782 57.0656C40.5005 56.5965 40.545 56.1275 40.5673 55.6585C40.6563 55.0554 40.6786 54.4524 40.7899 53.9164C40.8567 53.023 40.9235 52.1072 40.9903 51.2138C41.302 49.3377 41.2798 47.1712 41.5692 45.2728C41.6137 44.357 41.6583 43.4413 41.7028 42.5256C41.8141 41.8555 41.7028 41.1855 41.7919 40.4708C41.8809 39.8454 41.8809 38.7287 41.7919 38.1033V37.2099C41.7473 36.5398 41.7251 35.8698 41.6805 35.1997C41.6805 34.552 41.636 33.9043 41.6137 33.2343C41.5915 32.8769 41.5692 32.4972 41.5469 32.1399C41.4579 31.3135 41.3688 30.4871 41.2798 29.6384C41.2798 29.3033 41.2575 28.946 41.2352 28.611C41.1462 27.8516 41.0349 27.1145 40.9235 26.3551C40.879 25.9308 40.8567 25.5287 40.8345 25.1044C40.4782 23.0719 40.2778 20.8608 39.8771 18.8506C39.8325 18.4709 39.788 18.1136 39.7435 17.7339C39.6544 17.3319 39.5653 16.9075 39.4763 16.5055C39.3872 16.0141 39.3872 15.5674 39.2982 15.143C39.1868 14.7187 39.1646 14.2273 39.0532 13.7359C38.8306 12.6192 38.5857 11.4578 38.363 10.2964C38.2962 9.91668 37.9622 9.06796 38.029 8.73293C38.1181 8.35324 38.9197 7.68319 39.2314 7.45984C39.4318 7.25883 39.6321 7.08015 39.8103 6.87914C40.5673 6.2761 41.302 5.71773 42.2594 5.3157C42.393 5.22636 42.5266 5.13702 42.6602 5.07001C42.8161 5.02534 42.9497 4.98067 43.1055 4.95834C43.3282 4.869 43.5286 4.73499 43.7957 4.69032C44.0184 4.69032 44.241 4.64565 44.4637 4.62332C44.9758 4.62332 45.4879 4.62332 45.8887 4.73499C46.1336 4.82433 46.3562 4.91367 46.6012 4.98067C46.9574 5.07001 47.3582 5.04768 47.5363 5.3157C47.7367 5.58372 47.6254 6.29843 47.5363 6.67812C47.3804 7.61619 47.4918 8.64359 47.3359 9.60399C47.3359 10.006 47.3359 10.408 47.3136 10.8101C47.2914 11.2344 47.2691 11.6588 47.2469 12.1055C46.8906 14.406 47.1355 17.1085 46.757 19.409C46.7125 20.012 46.668 20.6151 46.6457 21.1958C46.6457 21.6872 46.6012 22.2009 46.6012 22.6922C46.5121 23.6973 46.423 24.68 46.3562 25.6851C46.3562 25.8861 46.3562 26.0648 46.3562 26.2658C46.3117 27.1369 46.2672 28.0079 46.2449 28.879C45.8887 31.1348 46.0668 33.7256 45.7106 35.9591C45.6883 36.4505 45.6438 36.9419 45.6215 37.4332C45.6215 37.7906 45.5992 38.1479 45.5992 38.5053C45.5102 39.3987 45.4434 40.2698 45.3543 41.1632C45.2875 42.2352 45.243 43.3073 45.1762 44.3794C44.9313 45.8981 44.8422 47.6403 44.5973 49.092C44.5528 49.6057 44.5082 50.1418 44.4637 50.6555C44.0852 52.5093 43.8848 54.5641 43.5286 56.3732C43.5063 56.7082 43.4618 57.0656 43.4172 57.4006C42.8161 60.3488 42.4376 63.4757 41.7473 66.3792C41.7028 66.7366 41.6583 67.0939 41.6137 67.4513C41.4356 68.2777 41.2352 69.3051 41.0348 70.1538C40.9903 70.4665 40.9458 70.8015 40.9013 71.1142C40.7231 71.9183 40.5227 72.9233 40.3224 73.7274C40.2778 74.0401 40.2333 74.3528 40.1888 74.6878C40.0997 75.0451 40.0106 75.4025 39.9216 75.7599C39.8771 76.0725 39.8325 76.3629 39.788 76.6756C39.1646 79.1994 38.7193 81.9243 38.1404 84.4481C38.0958 84.7161 38.0736 84.9842 38.029 85.2522C37.8509 86.0116 37.6505 86.8826 37.4724 87.642C37.3166 88.2897 37.3833 88.5801 37.0939 89.0714C36.8712 89.0044 36.938 88.111 36.9826 87.843C37.0939 86.972 37.2275 86.0786 37.3388 85.2075C37.3834 84.8055 37.3834 84.4035 37.4279 84.0014C37.8509 81.5446 37.9622 78.8421 38.3853 76.3629M42.9497 76.7426C42.9497 76.7426 42.9274 76.7426 42.9051 76.7649C42.9051 76.7649 42.9051 76.7649 42.8829 76.7649C42.8383 76.6086 42.8383 76.4299 42.9274 76.3182C43.0387 76.3852 42.9942 76.6309 42.9497 76.7426ZM26.9855 14.808C27.3195 14.7187 27.6534 14.6293 27.9874 14.54C28.2323 14.5177 28.4995 14.473 28.7444 14.4507C29.4124 14.2943 30.2362 14.071 30.8819 13.87C31.1268 13.8253 31.3495 13.7583 31.5721 13.7136C32.4182 13.3562 33.1975 12.8649 33.9768 12.4405C34.4221 12.5299 34.3775 13.1776 34.4443 13.6466C34.5557 14.2496 34.6893 14.7633 34.7783 15.3217C34.8674 15.7907 34.8674 16.1928 34.9564 16.6171C35.1791 17.4435 35.2904 18.4709 35.4463 19.275C35.4908 19.677 35.5353 20.079 35.5799 20.4811C35.9806 22.6252 36.181 24.9927 36.5373 27.2262C36.5595 27.6059 36.5818 27.9856 36.6263 28.3653C36.7154 28.879 36.7822 29.415 36.849 29.9287C36.8935 30.7551 36.9603 31.5815 37.0048 32.4302C37.0716 33.2119 37.1607 34.016 37.2275 34.8201C37.2275 35.3114 37.272 35.8251 37.2943 36.3165C37.2943 36.9419 37.2943 37.5449 37.2943 38.1703V40.2921C37.2943 41.9449 37.2498 43.5083 37.0271 44.9601C37.0048 45.5631 36.9603 46.1438 36.938 46.7469C36.849 47.6849 36.7377 48.623 36.6263 49.5611C36.5818 50.2311 36.5373 50.9012 36.4927 51.5712C36.3814 52.2412 36.3369 52.956 36.2256 53.6707C36.2033 54.1174 36.181 54.5417 36.1365 54.9661C35.6912 57.6463 35.6689 60.5945 35.2014 63.2523C35.1791 63.7214 35.1346 64.1904 35.1123 64.6594C35.001 65.4858 34.9119 66.3122 34.8006 67.1386C34.7783 67.5853 34.7338 68.032 34.7115 68.4787C34.4666 69.8858 34.3998 71.5609 34.1549 72.968C34.1104 73.4817 34.0881 73.9954 34.0436 74.5091C33.6205 77.0553 33.5092 79.8025 33.0862 82.3486C33.0639 82.773 33.0194 83.1974 32.9971 83.6441C32.908 84.2471 32.819 84.8501 32.7299 85.4532C32.7076 85.9446 32.6631 86.4359 32.6186 86.905C32.5295 87.441 32.4405 87.977 32.3737 88.5131C32.3514 89.0044 32.3069 89.4958 32.2623 89.9648C32.1733 90.6125 32.0842 91.2603 31.9952 91.9303C31.9729 92.2877 31.9506 92.6674 31.9061 93.0247C31.817 93.4714 31.728 93.9181 31.6389 94.3648C31.5276 94.9678 31.5499 95.6602 31.4163 96.2186C31.4163 96.2186 31.4163 96.2186 31.394 96.2186C31.1936 95.7719 31.2159 94.9008 31.3049 94.3648C31.3495 93.2704 31.4163 92.176 31.4608 91.0816C31.5276 89.0491 31.5721 86.9943 31.6389 84.9618C31.6612 83.9121 31.7057 82.84 31.7502 81.7903C31.7948 80.5619 31.8393 79.3558 31.9061 78.1274C31.9061 77.3456 31.9061 76.5639 31.9284 75.7822C31.9284 75.0451 31.9506 74.2858 31.9506 73.5487C32.0174 71.2929 32.0842 69.0594 32.151 66.8036C32.1955 65.4188 32.2401 64.0341 32.2846 62.627C32.2846 62.2249 32.2846 61.8229 32.2846 61.4209C32.2846 61.0412 32.2846 60.6615 32.2846 60.2818C32.2846 59.8128 32.2846 59.3437 32.2846 58.8747C32.2846 58.093 32.2846 57.2889 32.2846 56.5072C32.2846 54.3184 32.3069 52.1296 32.3291 49.9184C32.4405 49.1814 32.3291 48.3997 32.3291 47.6179C32.3291 46.5459 32.2846 45.4961 32.2846 44.4464V43.754C32.2401 43.0169 32.1955 42.3022 32.151 41.5652C32.0842 41.0962 31.9952 40.6271 31.9284 40.1581C31.8838 39.7337 31.8393 39.287 31.817 38.8627C31.3495 36.5845 31.0823 34.1947 30.5257 32.0282C30.4811 31.7378 30.4366 31.4475 30.3921 31.1571C30.303 30.8444 30.2139 30.5094 30.1249 30.1967C30.0803 29.9511 30.0581 29.683 30.0136 29.4374C29.3679 26.8018 28.789 24.0323 28.0097 21.4861C27.9874 21.2851 27.9429 21.0618 27.8984 20.8608C27.8093 20.6151 27.7202 20.3917 27.6312 20.146C27.5866 19.9004 27.5421 19.6323 27.4976 19.3867C27.1859 18.3593 26.8742 17.2425 26.5624 16.2151C26.5179 16.0364 26.2507 15.1654 26.2953 15.076C26.3843 14.8527 26.6515 14.8974 26.9187 14.8303M36.7377 90.5009C36.5818 90.3892 36.6263 89.9425 36.7377 89.7415C36.9158 89.8308 36.7822 90.3445 36.7377 90.5009ZM13.515 28.544C13.9826 28.1866 14.4279 27.6952 14.7841 27.2262C15.0736 26.8688 15.4521 26.5562 15.7193 26.1765C16.3427 25.3054 16.9439 24.412 17.5005 23.4963C18.0348 22.6252 18.4134 21.6872 18.9255 20.8161C19.1481 20.4364 19.2372 20.0344 19.4598 19.6547C20.3504 18.1582 20.9071 16.7065 22.5547 15.9694C22.6883 15.9248 22.7996 15.9024 22.9332 15.8578C23.0668 15.7907 23.1781 15.7014 23.3117 15.6344C23.5566 15.5674 23.7793 15.5227 24.0242 15.4781C24.1578 15.4111 24.3137 15.3441 24.4695 15.277C24.8035 15.2324 24.8925 15.6121 24.9816 15.8354C25.2488 16.5278 25.3156 17.2872 25.5605 18.0019C25.7609 18.5603 25.9835 19.2973 26.1171 19.878C26.1617 20.1014 26.1839 20.3024 26.2285 20.5257C26.5402 21.5755 26.8296 22.8039 27.1636 23.876C27.2081 24.144 27.2527 24.412 27.2972 24.68C27.3863 24.9257 27.4753 25.1714 27.5421 25.4171C27.7425 26.2211 27.8093 26.8242 28.0097 27.6282C28.789 30.7104 29.4124 33.9937 30.0581 37.2546C30.0803 37.5449 30.1026 37.8576 30.1471 38.1479C30.2362 38.5723 30.3253 38.9967 30.3921 39.421C30.4366 39.8454 30.4589 40.2698 30.4811 40.6718C30.5702 41.1855 30.637 41.7215 30.7038 42.2352C30.7038 42.6149 30.7483 43.0169 30.7706 43.3966C30.7706 44.5134 30.8151 45.6301 30.8374 46.7469V48.2656C30.8374 50.7001 30.8374 53.1123 30.8151 55.5468V57.758C30.8151 58.5397 30.8151 59.3437 30.7928 60.1255C30.7928 60.4828 30.7928 60.8625 30.7928 61.2199C30.726 63.0067 30.6592 64.8158 30.6147 66.6026C30.6147 67.3843 30.5924 68.1883 30.5702 68.9924C30.5702 69.7964 30.5479 70.5782 30.5257 71.3822C30.5257 71.9853 30.5257 72.5883 30.5034 73.1914C30.4366 75.0898 30.3921 76.9883 30.3253 78.8867C30.303 79.8248 30.2807 80.7405 30.2362 81.6563C30.2362 82.4603 30.1917 83.242 30.1694 84.0461C30.1694 84.8278 30.1249 85.6319 30.1249 86.4136C30.0358 88.5577 29.9468 90.7019 29.88 92.846C29.88 93.4044 29.88 93.9628 29.88 94.5211C29.88 94.7222 29.88 94.9455 29.88 95.1465C29.8132 95.5262 29.7686 95.9729 29.8354 96.3526C29.9245 97.0003 29.6796 97.3353 30.1471 97.6704C30.5479 97.9607 30.8596 97.5587 31.1936 97.5363C31.394 97.7597 31.1491 99.3231 31.2604 99.8145C31.3049 100.06 31.4385 100.194 31.5499 100.351C32.2623 101.534 33.8654 101.78 34.9787 100.775C35.3349 100.462 35.5131 100.016 35.6244 99.4348C35.6912 99.0775 35.6244 98.3404 35.9138 98.2064H36.0697C36.4037 98.3404 36.2033 98.9658 36.8045 99.1445C36.938 99.1891 37.183 99.1891 37.3166 99.1445C37.6283 98.9881 37.6951 98.6308 37.8732 98.3404C38.0513 98.0947 38.2294 97.8267 38.4076 97.581C38.4298 97.4023 38.4743 97.2237 38.4966 97.045C38.5857 96.777 38.6747 96.5089 38.7415 96.2409C38.7638 96.0176 38.7861 95.7719 38.8083 95.5485C38.8974 95.3029 38.9865 95.0572 39.0978 94.8115C39.1646 94.5435 39.0978 94.2308 39.2091 94.0074C39.2982 93.8064 39.4095 93.6501 39.454 93.4267C39.4763 93.2034 39.5208 92.98 39.5431 92.7567C39.6099 92.6227 39.6989 92.4663 39.7657 92.3323C39.8103 92.0866 39.8548 91.8633 39.8993 91.6176C40.211 90.7242 40.5673 89.7191 40.8567 88.8258C40.9013 88.6024 40.9458 88.3791 40.9903 88.1557C42.1481 84.8278 43.15 81.4106 44.1742 77.9487C44.2633 77.7477 44.3524 77.5467 44.4414 77.3456C44.6196 76.7203 44.7309 76.2289 44.909 75.6035C44.9981 75.4025 45.0649 75.2015 45.1539 75.0005C46.7793 69.2381 48.6496 63.6544 50.2749 57.825C50.3417 57.6463 50.4308 57.4899 50.4976 57.3113C50.5421 57.0656 50.5866 56.8422 50.6312 56.5965C50.7202 56.3732 50.787 56.1722 50.8761 55.9712C51.7222 53.023 52.4792 50.0748 53.3698 47.1712C53.4143 46.8809 53.4811 46.6129 53.5257 46.3225C53.9932 44.7814 54.3717 43.0616 54.7948 41.4535C54.8393 41.2078 54.8838 40.9398 54.9061 40.6941C54.9952 40.3814 55.062 40.0687 55.151 39.7784C55.1955 39.5104 55.2178 39.22 55.2623 38.9297C55.9303 35.9591 56.3533 32.6536 56.9545 29.5937C56.9768 29.1917 57.0213 28.812 57.0658 28.4099C57.2662 27.3155 57.4221 25.9754 57.6447 24.8587C57.6893 24.5237 57.7115 24.1887 57.7561 23.8536C57.8451 23.2506 57.9342 22.6476 58.0455 22.0668C58.09 21.6872 58.1123 21.2851 58.1346 20.9054C58.7357 17.6669 58.9361 14.138 59.4927 10.8324C59.4927 10.4974 59.5373 10.1624 59.5595 9.82734C59.6486 9.2243 59.7377 8.64359 59.8267 8.04055C59.8712 7.52685 59.9158 7.03548 59.938 6.52178C60.0494 5.91874 59.9826 5.07001 60.2943 4.66799C60.4279 4.51164 61.6747 4.15428 61.9642 4.06495C62.1868 3.99794 62.3427 3.88627 62.5431 3.81926C62.7657 3.77459 62.9661 3.72992 63.1888 3.68525C63.4114 3.59591 63.6563 3.50657 63.879 3.41723C64.1239 3.3949 64.3466 3.35023 64.6137 3.32789C64.8809 3.26089 65.1258 3.19389 65.393 3.12688C65.5934 3.10455 65.7715 3.08221 65.9942 3.05988C67.3969 3.05988 68.577 3.12688 69.7125 3.35023C70.2246 3.43957 70.8257 3.37256 71.0707 3.72992C71.182 3.9086 70.9816 4.802 70.9148 5.07001C70.6031 6.20909 70.3136 7.45984 70.0019 8.59892C69 12.3065 68.243 16.1258 67.152 19.7217C67.0852 20.012 67.0407 20.3247 66.9739 20.6151C66.7735 21.2181 66.5508 21.9775 66.3727 22.5805C66.3504 22.8039 66.3059 23.0049 66.2614 23.2283C65.7938 24.6577 65.393 26.2435 64.9477 27.6729C64.9032 27.8962 64.8587 28.1196 64.8364 28.3429C63.6341 32.2739 62.5208 36.2048 61.2517 40.0911C61.1626 40.2474 61.0958 40.4038 61.0068 40.5601C60.9622 40.7835 60.8954 40.9845 60.8509 41.2078C60.5392 41.9672 60.2498 42.8606 59.9603 43.62C59.7377 44.1784 59.6486 44.6697 59.4482 45.2504C59.3814 45.4068 59.2924 45.5408 59.2256 45.6971C59.181 45.8981 59.1365 46.0992 59.092 46.2778C58.5353 47.6849 58.0232 49.2037 57.4443 50.6108C57.3775 50.8342 57.333 51.0575 57.2662 51.2808C56.999 51.8392 56.8209 52.4423 56.5983 53.09C56.5315 53.2463 56.4424 53.3803 56.3756 53.5143C56.3311 53.7153 56.2643 53.9387 56.2197 54.1397C56.0416 54.5641 55.7967 55.1224 55.6186 55.5468C55.4182 56.0828 55.3514 56.5072 55.1287 57.0432C54.7057 58.093 54.2604 59.2544 53.8374 60.3265C53.7928 60.5051 53.726 60.7062 53.7038 60.9072C53.5479 61.3092 53.2807 61.8452 53.1249 62.2696C53.0803 62.4483 53.0358 62.6493 52.9913 62.828C52.9022 62.9843 52.8354 63.1183 52.7464 63.2747C52.5237 63.9 52.3456 64.5031 52.0784 65.0615C52.0116 65.2848 51.9671 65.5082 51.9003 65.7538C51.2769 67.2503 50.698 68.7914 50.1413 70.3772C50.0523 70.5335 49.9632 70.7122 49.8964 70.8685C49.8519 71.0249 49.8296 71.1812 49.7851 71.3152C49.696 71.4716 49.6292 71.6279 49.5624 71.7842C49.5179 71.9629 49.4734 72.1193 49.4288 72.298C49.273 72.7223 49.0058 73.2584 48.8499 73.6604C48.6496 74.1741 48.5605 74.5984 48.3601 75.1122C47.6922 76.7649 47.0242 78.5294 46.3562 80.1822C46.1336 80.7182 46.0445 81.1649 45.8219 81.7009C45.3098 82.907 44.8645 84.1131 44.4192 85.3862C44.3301 85.5425 44.2633 85.6765 44.1742 85.8329C43.9739 86.3466 43.8848 86.7263 43.7067 87.24C43.6176 87.3963 43.5286 87.5527 43.4618 87.709C43.4395 87.8654 43.395 88.0217 43.3504 88.178C43.1723 88.6247 42.9051 89.1384 42.7493 89.5851C42.7047 89.7638 42.6602 89.9202 42.6157 90.0988C41.8587 92.0643 41.0126 94.1191 40.2333 96.0846C40.1888 96.2856 40.122 96.4866 40.0552 96.71C39.4985 97.916 38.9642 99.0775 39.9216 100.306C40.122 100.574 40.5005 100.887 40.8345 100.998C41.1239 101.021 41.4134 101.065 41.7028 101.088C41.8587 101.065 42.059 100.998 42.2594 101.043C42.5934 101.11 42.7715 101.557 43.2836 101.356C43.7957 101.155 43.9293 100.418 44.152 99.9262C44.241 99.8145 44.3078 99.7028 44.3969 99.5912C44.4414 99.4572 44.486 99.3231 44.5082 99.1891C44.5973 99.0551 44.6641 98.9435 44.7531 98.8094C45.0649 98.1394 45.3098 97.514 45.5992 96.8216C45.666 96.6876 45.7551 96.576 45.8441 96.4419C46.1336 95.7496 46.4008 95.1242 46.6902 94.4318C46.7793 94.3201 46.8461 94.1861 46.9129 94.0744C48.8054 89.6521 50.9206 85.4532 52.7909 81.0086C52.88 80.8969 52.9468 80.7852 53.0136 80.6512C53.303 79.9365 53.5702 79.3111 53.8596 78.6187C53.9487 78.4847 54.0155 78.373 54.1045 78.239C54.4385 77.435 54.7948 76.6533 55.151 75.8939C55.1955 75.7375 55.2623 75.5588 55.3291 75.4025C55.485 75.0675 55.7299 74.6655 55.8858 74.3304C56.91 71.8736 58.001 69.4838 59.1142 67.0939C59.3369 66.6472 59.4259 66.2675 59.6041 65.8208C59.6709 65.7092 59.7599 65.5752 59.8267 65.4635C59.8712 65.2848 59.938 65.1285 59.9826 64.9498C60.1607 64.5924 60.3834 64.1457 60.5615 63.8107C60.606 63.6544 60.6505 63.498 60.6951 63.3417C61.697 61.1975 62.6099 59.0087 63.5673 56.7976C63.7231 56.4402 63.9681 56.0158 64.1462 55.6585C64.1907 55.5021 64.2352 55.3458 64.2798 55.1671C64.9477 53.6707 65.6602 52.1072 66.2836 50.5885C66.7289 49.5164 67.0629 48.5337 67.5082 47.4839C67.6641 47.1266 67.8867 46.6575 68.0649 46.3002C68.1094 46.1215 68.1762 45.9428 68.2207 45.7641C68.2875 45.6301 68.3766 45.4738 68.4656 45.3398C68.5102 45.1834 68.5547 45.0271 68.5992 44.8707C68.6883 44.7367 68.7551 44.6027 68.8441 44.4687C71.4714 37.7906 74.0987 31.0901 76.726 24.3897C77.5944 22.2009 78.3737 19.9674 79.2197 17.8009C79.2643 17.6222 79.3088 17.4435 79.3756 17.2425C79.7986 16.1928 80.2662 15.0314 80.667 13.9816C80.7115 13.8253 80.7338 13.6689 80.7783 13.5126C80.8674 13.3562 80.9564 13.1776 81.0455 13.0212C81.3349 12.1948 81.5576 11.4578 81.8693 10.6314C81.9584 10.4751 82.0252 10.3187 82.1142 10.1624C82.2478 9.78267 82.3814 9.06796 82.6931 8.88928C83.0048 8.7106 83.9177 8.84461 84.3408 8.7776C85.5876 8.57659 87.1684 8.59892 88.393 8.7776C88.8161 8.84461 89.2168 8.82227 89.5954 8.91161C89.818 8.97862 90.0629 9.06796 90.2856 9.13496C90.4637 9.17963 90.6641 9.20196 90.8422 9.24663C91.2207 9.42531 91.6438 9.671 92.0223 9.87201C92.2449 9.98368 92.7793 10.2517 92.8015 10.5421C92.8015 10.8547 92.2004 11.6365 92.0445 11.8598C91.7996 12.1725 91.666 12.5075 91.4656 12.8425C91.0649 13.4903 90.6196 14.1826 90.1965 14.808C89.7289 15.5004 89.395 16.2374 88.9274 16.9522C87.0126 19.8557 85.365 22.9826 83.5837 26.0201C82.0252 28.6333 80.6447 31.4028 79.0862 34.016C79.0194 34.1723 78.9748 34.3064 78.908 34.4404C78.3291 35.4008 77.7725 36.4505 77.2604 37.4332C77.2159 37.5672 77.1713 37.6789 77.1045 37.8129C76.3475 39.1307 75.6573 40.5378 74.9893 41.9449C74.6554 42.6373 74.2546 43.3073 73.9429 44.0443C73.8538 44.2007 73.7648 44.357 73.6757 44.5134C73.364 45.2504 72.9855 45.9428 72.6292 46.6352C72.5847 46.7692 72.5402 46.9255 72.4956 47.0596C72.4066 47.1712 72.3398 47.3052 72.2507 47.4393C71.9835 48.087 71.6941 48.6453 71.4046 49.2707C71.0261 50.1194 70.4918 50.9682 70.091 51.8169C69.5344 53.0006 69.0223 54.229 68.3543 55.3235C68.2875 55.5021 68.2207 55.6585 68.1539 55.8372C67.8867 56.3509 67.5973 56.9539 67.2856 57.4676C67.2188 57.6239 67.152 57.7803 67.1075 57.9366C66.9293 58.2717 66.6621 58.6737 66.5063 59.031C66.3282 59.4331 66.1946 59.7904 65.9942 60.1701C64.6583 62.56 63.5895 65.1061 62.2314 67.4736C62.1868 67.6076 62.12 67.764 62.0755 67.898C61.5634 68.7914 61.1181 69.7294 60.6505 70.6675C60.0048 71.9406 59.2701 73.2137 58.6244 74.4868C57.9119 75.8939 57.2217 77.2786 56.4869 78.6411C55.7299 80.0035 55.1733 81.4553 54.3495 82.7283C54.1268 83.0857 54.0155 83.4654 53.8374 83.8451C53.5924 84.4035 53.2139 85.0065 52.9022 85.5425C52.6796 85.9222 52.5905 86.3019 52.3679 86.6816C51.9226 87.4187 51.5663 88.2227 51.1433 88.9598C51.0765 89.1161 51.0097 89.2725 50.9429 89.4288C49.2062 92.377 47.848 95.6602 46.1113 98.6084C45.8887 98.9881 45.7773 99.3901 45.5547 99.7698C45.3543 100.105 45.0426 100.552 44.9535 100.954C44.7977 101.579 45.1094 102.026 45.2207 102.428C45.2652 102.651 45.2875 102.897 45.3098 103.12C45.4211 103.544 45.7996 104.058 46.1336 104.259C46.3117 104.371 46.4898 104.527 46.7125 104.594C49.1617 105.287 49.9187 102.539 50.8316 101.333C51.2101 100.842 51.4995 100.284 51.8335 99.7698C52.6573 98.4521 53.5257 97.179 54.3495 95.8389C56.3088 92.6674 58.4685 89.5851 60.4056 86.3913C60.9177 85.5425 61.4966 84.7161 62.0532 83.8898C63.0106 82.4827 63.8122 80.9639 64.7696 79.5345C65.6157 78.2837 66.4395 76.9883 67.241 75.6705C67.7531 74.8218 68.3766 73.9954 68.8887 73.169C70.9816 69.7741 73.1191 66.4016 75.3011 63.096C76.4811 61.3092 77.5499 59.4554 78.7076 57.6463C81.1123 53.9387 83.4947 50.1864 85.8771 46.4342C87.8587 43.285 89.9961 40.2474 91.9555 37.0759C92.6012 36.0485 93.3804 35.0657 94.0039 34.016C95.9632 30.7774 98.2343 27.7622 100.194 24.5237C100.728 23.675 101.374 22.8486 101.908 21.9998C102.465 21.0841 103.088 20.2131 103.667 19.3197C103.801 19.0963 104.045 18.4486 104.29 18.3816C104.825 18.4486 105.359 18.5379 105.894 18.6049C108.476 19.2527 109.656 19.9674 111.015 21.8882C111.193 22.1562 112.039 23.2506 111.927 23.6303C111.838 23.876 110.859 24.7694 110.614 24.9927C109.656 25.9978 108.699 27.0028 107.742 27.9856C106.962 28.9236 106.027 29.75 105.248 30.7104C104.558 31.5592 103.734 32.3186 103.066 33.1673C101.351 35.3784 99.3698 37.3662 97.6999 39.622C96.5198 41.1855 95.2952 42.7043 94.1152 44.29C91.9555 47.2159 89.9516 50.2981 87.8809 53.3133C86.9013 54.7651 85.8325 56.1722 84.7861 57.5793C82.5595 60.6168 80.3998 63.6544 78.1955 66.6919C75.0116 71.0472 71.7164 75.3132 68.4879 79.6461C67.4192 81.0532 66.3282 82.438 65.2817 83.8898C64.97 84.2918 64.6583 84.6715 64.3243 85.0735C63.3669 86.5253 62.2314 87.8654 61.1626 89.2501C58.5131 92.6897 55.908 96.1293 53.2807 99.5688C52.7464 100.284 52.212 100.998 51.6554 101.713C51.3659 102.115 50.8761 102.539 50.698 103.008C50.4308 103.745 50.787 104.438 51.1655 104.728C51.4772 104.974 52.2788 105.22 52.7686 104.929C53.2362 104.639 53.5702 104.08 53.9042 103.634C54.4163 102.919 54.9729 102.249 55.5073 101.557C58.001 98.3181 60.4947 95.1019 62.9216 91.841C63.9681 90.4339 65.0813 89.0714 66.1055 87.6643C67.5528 85.6765 69.2004 83.7781 70.6254 81.7679C72.3621 79.3558 74.1655 77.0106 75.969 74.6655C76.5479 73.9061 77.0378 73.1244 77.6166 72.365C79.5983 69.7741 81.5353 67.1386 83.4724 64.5031C87.5024 59.0757 91.243 53.4697 95.1617 47.9083C96.8984 45.4291 98.8354 43.1063 100.683 40.7165C102.131 38.8403 103.734 37.0982 105.203 35.2444C105.96 34.284 106.895 33.4353 107.675 32.4749C108.476 31.6262 109.278 30.7774 110.057 29.9287C110.591 29.3703 111.104 28.812 111.616 28.2313C111.861 27.9856 112.083 27.7622 112.328 27.5166C112.484 27.3155 112.929 26.7125 113.241 26.7125C113.686 27.2262 113.864 28.2313 114.132 28.9236C114.377 29.549 114.822 30.1297 115.223 30.6211C115.579 31.0901 116.18 31.5592 116.67 31.8719C116.87 31.9835 117.65 32.3186 117.739 32.4972C117.872 32.8323 117.227 33.2343 117.071 33.3683C116.202 34.1277 115.445 34.9764 114.577 35.6911C113.13 37.0759 111.682 38.483 110.235 39.8677C109.812 40.2921 109.389 40.7388 108.966 41.1632C107.563 42.5479 106.183 43.955 104.78 45.3398C104.045 46.2555 103.044 46.9926 102.309 47.9083C101.708 48.5337 101.106 49.159 100.528 49.8067C99.1471 51.5489 97.4772 53.023 96.0968 54.7874C95.6515 55.2565 95.2285 55.7478 94.7831 56.2169C93.6699 57.691 92.3785 59.0087 91.243 60.4381C88.7047 63.6544 86.0329 66.7589 83.4947 69.9528C82.2256 71.5386 80.8451 73.035 79.576 74.6208C79.153 75.0898 78.7299 75.5588 78.3069 76.0279C76.6815 78.1497 74.789 80.0258 73.1636 82.1253C72.7183 82.6167 72.273 83.108 71.8277 83.5994C70.3359 85.5425 68.577 87.24 67.0629 89.1608C63.545 93.2034 60.0048 97.246 56.4869 101.289C55.8635 102.003 55.1733 102.696 54.5944 103.455C54.3717 103.678 54.1713 103.902 53.9487 104.147C53.7038 104.482 53.2807 104.974 53.6592 105.465C54.0155 105.934 54.6612 105.644 54.9284 105.309C55.8412 104.281 56.7318 103.254 57.6225 102.227C58.0455 101.735 58.4908 101.244 58.9138 100.753C59.3591 100.172 59.9158 99.6582 60.3611 99.0775C61.029 98.3181 61.697 97.5587 62.3872 96.7993C63.0329 95.9729 63.7677 95.2135 64.4579 94.4541C65.1926 93.6278 65.8829 92.779 66.6176 91.9526C67.3301 91.1262 68.0203 90.2999 68.7328 89.4735C69.4453 88.7588 70.091 87.9324 70.7144 87.1283C70.8703 86.9273 71.0707 86.7486 71.2488 86.5699C71.8277 85.9669 72.362 85.2745 72.8741 84.6045C73.1636 84.2694 73.4753 83.9568 73.787 83.6441C75.0339 82.1476 76.303 80.6512 77.5721 79.1548C77.9729 78.6857 78.3737 78.239 78.7967 77.7923C79.665 76.6756 80.6225 75.6482 81.5131 74.5314C81.8248 74.1741 82.1588 73.8167 82.4705 73.4594C83.6951 71.8736 85.0532 70.3772 86.3224 68.8361C87.7251 67.1386 89.1278 65.4412 90.486 63.6767C91.5102 62.3366 92.6457 61.0859 93.6922 59.7458C94.2265 59.1204 94.7832 58.495 95.3175 57.8696C97.9226 54.5641 100.973 51.6605 103.712 48.5113C104.758 47.4393 105.782 46.3895 106.829 45.3398C107.363 44.8037 107.897 44.2454 108.432 43.7093C108.766 43.3743 109.077 43.0393 109.411 42.7043C110.079 42.0566 110.77 41.4088 111.438 40.7388C112.64 39.5997 113.753 38.282 115.045 37.2322C115.557 36.8079 116.002 36.2718 116.536 35.8251C117.249 35.2444 117.85 34.5297 118.562 33.9713C118.83 33.748 119.052 33.3236 119.431 33.2343C119.965 33.1003 120.366 33.48 120.722 33.5693C120.9 33.614 121.101 33.6586 121.279 33.7033C123.528 34.552 124.975 35.1327 126.155 37.0759C126.199 37.2099 126.244 37.3439 126.288 37.4556C126.378 37.6119 126.467 37.7683 126.556 37.9246C126.6 38.1479 126.667 38.3713 126.712 38.617C126.934 39.22 126.956 40.0687 126.956 40.8951C126.956 41.1855 127.045 41.6098 126.912 41.7885C126.801 41.9449 126.489 41.9449 126.311 42.0342C125.843 42.3469 125.442 42.7043 125.019 43.0169C124.663 43.3296 124.307 43.6423 123.951 43.9773C122.837 44.8484 121.813 45.7865 120.7 46.6575C120.21 47.0819 119.72 47.5286 119.23 47.953C116.492 50.0748 113.998 52.4869 111.304 54.6534C110.213 55.5245 109.233 56.5519 108.12 57.4229C107.63 57.8696 107.163 58.294 106.673 58.7407C105.226 59.9914 103.801 61.2422 102.376 62.4706C101.93 62.895 101.485 63.3193 101.017 63.7214C99.3921 65.0391 97.9893 66.5802 96.3417 67.898C95.8074 68.3223 95.362 68.8807 94.8277 69.3274C94.2265 69.8188 93.759 70.4665 93.1801 70.9579C92.4676 71.5609 91.8441 72.2533 91.1539 72.8787C90.3746 73.6157 89.5731 74.3751 88.7938 75.1122C88.3485 75.5588 87.9255 75.9832 87.5024 76.4076C86.0997 77.6136 84.8974 79.0654 83.5169 80.2715C82.8045 80.9415 82.0697 81.6116 81.3572 82.2816C81.1346 82.505 80.9119 82.7283 80.7115 82.9294C79.91 83.5771 79.2643 84.4258 78.485 85.0512C77.0378 86.4136 75.5682 87.776 74.0987 89.1384C73.5198 89.6745 72.9855 90.2775 72.4066 90.7912C69.8238 93.0917 67.3301 95.4592 64.7473 97.782C64.302 98.1841 63.8567 98.6084 63.4337 99.0105C62.1868 100.06 60.94 101.132 59.7154 102.182C59.2701 102.606 58.758 102.986 58.2459 103.343C57.3998 103.946 56.2643 104.706 56.7986 106.381C56.9322 106.604 57.0658 106.828 57.1994 107.051C57.6225 107.587 58.7803 108.101 59.7599 107.699C60.3166 107.475 61.0736 106.828 61.5411 106.448C64.9477 103.745 68.1094 100.753 71.3379 97.8714C73.03 96.3526 74.6776 94.7445 76.3698 93.2034C76.9264 92.6897 77.4385 92.0643 78.0174 91.5953C79.2197 90.4785 80.4221 89.3395 81.6244 88.2227C81.9584 87.8877 82.3146 87.5303 82.6709 87.1953C85.454 84.5375 88.2594 81.8573 91.0426 79.1994C92.5789 77.703 94.1152 76.1842 95.6738 74.6878C96.7648 73.6604 97.8558 72.6553 98.969 71.6279C100.015 70.6452 101.017 69.6178 102.153 68.7244C102.821 68.099 103.511 67.4736 104.201 66.8259C105.671 65.5082 107.14 64.1904 108.677 62.9396C109.901 61.9346 110.992 60.7955 112.239 59.8351C113.197 59.0981 114.043 58.16 115 57.4006C117.115 55.7478 119.052 53.8717 121.145 52.1966C122.014 51.5265 122.771 50.7448 123.639 50.0748C123.995 49.7621 124.351 49.4494 124.708 49.1367C125.242 48.69 125.776 48.2433 126.311 47.8189C126.444 47.6849 127.045 47.0596 127.246 47.2159C127.402 47.3052 127.691 48.5113 127.825 48.7793C128.56 50.1864 129.183 51.5935 130.096 52.8443C130.185 53.0006 130.252 53.157 130.341 53.291C130.519 53.559 130.942 53.9164 130.608 54.2737C130.497 54.4077 130.274 54.4301 130.118 54.5194C129.717 54.7651 129.317 54.9884 128.916 55.2341C127.58 56.0605 126.244 56.9316 124.886 57.7356C124.418 58.026 123.928 58.3833 123.461 58.696C122.815 59.1204 122.147 59.5224 121.479 59.9021C121.19 60.0808 120.9 60.3488 120.611 60.5275C119.676 61.1082 118.807 61.7336 117.917 62.3143C116.469 63.2523 115.045 64.1904 113.642 65.1731C112.996 65.6198 112.328 65.9995 111.705 66.4686C110.547 67.3396 109.322 68.099 108.165 68.9701C106.985 69.8635 105.782 70.7569 104.602 71.6502C104.001 72.0969 103.378 72.4766 102.799 72.9457C101.774 73.8167 100.661 74.6208 99.5924 75.4472C97.8112 76.8543 96.0968 78.373 94.271 79.7131C93.9148 80.0258 93.5586 80.3385 93.2023 80.6512C91.4434 81.9913 89.818 83.443 88.0813 84.7831C87.7473 85.0735 87.3911 85.3862 87.0571 85.6989C85.7212 86.7039 84.4966 87.8654 83.2052 88.8928C81.7357 90.0542 80.3107 91.2603 78.908 92.4887C77.9506 93.3151 76.9264 94.0745 75.969 94.9008C71.7386 98.4968 67.5082 102.07 63.2778 105.666C62.5208 106.314 61.7861 106.962 61.029 107.609C60.7173 107.855 60.3166 108.123 60.0939 108.436C59.6486 109.106 60.4056 109.508 60.9177 109.597C60.9177 109.597 60.94 109.642 60.9622 109.664C60.94 109.955 60.6283 110.066 60.4947 110.267C60.3833 110.424 60.3833 110.625 60.3388 110.87C60.183 111.831 61.1181 112.635 62.12 112.456C62.4095 112.411 62.7212 112.076 62.9884 112.143C63.2556 112.344 63.5227 112.545 63.8122 112.724C64.1684 112.903 64.8141 112.813 65.2372 112.88C65.2817 112.925 65.304 112.947 65.2817 113.014C65.1481 113.305 64.8141 113.439 64.7251 113.796C64.3911 114.98 65.3708 115.963 66.5286 115.695C66.818 115.628 66.9516 115.471 67.1742 115.382C67.5528 115.226 67.8199 115.092 68.1984 114.935C68.3988 114.846 68.5324 114.556 68.8441 114.645C68.9555 114.69 69.4453 115.739 69.3562 115.851C69.2226 116.052 68.1984 116.052 67.8645 116.119C66.9071 116.32 65.7715 116.521 64.8141 116.722C64.4356 116.767 64.0794 116.811 63.7009 116.856C61.3408 117.437 58.758 117.682 56.3088 118.129C55.7967 118.174 55.3069 118.241 54.817 118.263C54.4385 118.352 54.06 118.442 53.6815 118.509C53.4143 118.531 53.1471 118.576 52.9022 118.598C52.2788 118.754 51.544 118.978 50.9651 119.179C50.7648 119.224 50.5644 119.268 50.364 119.313C49.2953 119.76 48.2711 120.34 47.3359 120.943C46.6457 121.39 45.2875 121.68 44.1965 121.747C43.7735 121.77 42.9497 121.837 42.7938 121.569C42.6825 121.368 42.7938 120.988 42.8161 120.809C42.9497 120.117 43.0832 119.581 43.1946 118.888C43.5954 116.409 42.7047 114.801 41.2352 113.93C41.1016 113.841 40.9458 113.841 40.7677 113.796C40.0774 113.617 39.8103 113.684 39.1423 113.796C38.1181 113.997 37.4947 114.444 36.6931 114.846C36.3369 115.025 35.9584 115.203 35.6467 115.449C35.09 115.873 34.0658 116.499 33.3533 115.873C33.0639 115.605 32.6854 114.913 32.5073 114.511C32.2846 114.019 32.1955 113.595 32.0174 113.037C31.6834 112.099 31.3495 111.027 31.06 110.066C31.0155 109.843 30.971 109.642 30.9487 109.441C29.9022 105.934 29.1007 102.137 28.455 98.2511C28.3659 97.6257 28.9226 97.514 29.1452 97.2013C29.2343 97.0673 29.3011 96.9556 29.3901 96.8216C29.6796 96.3303 29.6128 95.0349 29.5015 94.3425C29.2343 92.7344 29.1452 90.9252 28.878 89.3618C28.8335 88.8928 28.8112 88.4014 28.7667 87.9324C28.5218 86.5476 28.4105 84.9172 28.1878 83.5324C28.1433 82.974 28.0987 82.3933 28.0319 81.8349C27.787 80.5172 27.698 78.9091 27.4531 77.5913C27.4085 77.0776 27.364 76.5863 27.3195 76.0725C26.7628 72.834 26.5847 69.3498 26.0058 66.1335C25.9835 65.7315 25.939 65.3295 25.9167 64.9275C25.8277 64.3914 25.7386 63.8554 25.6496 63.3193C25.605 62.828 25.5605 62.3366 25.516 61.8452C24.9816 59.1651 24.8035 56.2615 24.2469 53.626C24.2023 53.291 24.1578 52.9783 24.1133 52.6433C23.9797 52.0179 23.7348 51.2585 23.5344 50.6778C23.4898 50.4545 23.4453 50.2311 23.3785 50.0078C23.2227 49.5611 22.9777 48.9804 22.7996 48.556C22.7551 48.355 22.7106 48.1763 22.666 47.9753C22.1762 46.7022 21.5528 45.4068 20.9961 44.2007C19.9942 41.9895 19.0145 39.8454 17.8122 37.8353C17.3446 37.0535 17.0106 36.2271 16.5431 35.4678C15.6747 34.083 14.9177 32.6312 14.0494 31.2241C13.8045 30.8444 13.5595 30.3978 13.2924 29.9957C13.1588 29.817 12.9584 29.5937 12.8916 29.3703C12.7803 29.0353 13.4705 28.5663 13.6486 28.4323M51.0097 81.1649C51.0319 81.3436 51.0097 81.5223 50.9651 81.6563C50.8984 81.7009 50.8984 81.7233 50.787 81.7456C50.6534 81.5222 50.7648 81.2766 50.9206 81.1649C50.9429 81.1649 50.9651 81.1649 51.0097 81.1649ZM50.5644 82.4156C50.5644 82.4156 50.5644 82.4156 50.5644 82.4603H50.4976C50.4976 82.4603 50.4976 82.371 50.4753 82.3263C50.4753 82.2816 50.5198 82.237 50.5421 82.1923C50.6312 82.237 50.6312 82.3263 50.5866 82.438M5.34366 42.3916C5.41045 42.1236 5.45499 41.8779 5.49952 41.6099C5.58858 41.2748 5.6999 40.9175 5.7667 40.4931C5.87802 39.7561 5.92255 38.7957 5.81123 38.0139C5.81123 37.5896 5.78896 37.1429 5.78896 36.7185C5.85576 36.2718 5.78896 35.8698 5.87802 35.4901C6.30106 33.7703 7.45886 32.7429 8.8393 31.9835C9.3514 32.0729 9.90803 33.4576 10.2197 33.882C10.999 35.0211 11.6002 36.2718 12.3127 37.5002C12.9361 38.5276 13.5373 39.5774 14.0716 40.6941C14.2275 41.0068 14.4501 41.3642 14.6283 41.6545C14.6951 41.8109 14.7619 41.9895 14.8287 42.1459C15.1404 42.6596 15.4075 43.2403 15.7193 43.7317C15.7861 43.888 15.8529 44.0667 15.9197 44.2454C16.3427 44.9601 16.6099 45.7195 16.9661 46.5012C17.8345 48.355 18.6805 50.3428 19.3262 52.4423C19.3708 52.6879 19.4153 52.9113 19.4598 53.157C19.6825 54.0727 19.9051 55.2565 20.0833 56.2392C20.1055 56.5742 20.15 56.9316 20.1723 57.2666C20.5508 59.2991 20.7289 61.5996 21.1297 63.6544C21.2856 64.4808 21.2856 65.3741 21.4414 66.1112C21.5082 66.8259 21.575 67.5406 21.6641 68.233C22.0649 70.3772 22.1762 72.7893 22.5547 74.9335C22.5992 75.3355 22.6215 75.7599 22.6438 76.1619C22.7773 76.9436 22.8219 77.6807 22.9777 78.4847C23.0223 78.7974 23.0668 79.1548 22.9777 79.4451C22.9777 79.4674 22.9332 79.4898 22.9332 79.4898C22.6215 79.4451 22.5992 79.0654 22.4879 78.8197C22.1317 78.1274 21.8422 77.435 21.5082 76.7203C20.5954 74.7771 19.6379 72.7893 18.7696 70.8015C18.547 70.2878 18.4579 69.8411 18.2352 69.3274C18.0794 68.9477 17.8345 68.4564 17.6786 68.0543C17.6341 67.831 17.5673 67.63 17.5227 67.4066C17.0552 66.2452 16.6544 64.8604 16.2314 63.632C16.1868 63.4087 16.1423 63.2077 16.0978 62.9843C15.9419 62.5376 15.697 61.9792 15.5411 61.5549C15.4743 61.3539 15.4298 61.1305 15.3853 60.9295C13.8712 57.2889 12.3349 53.76 10.3756 50.5438C9.24008 48.6453 8.03775 46.7915 6.7909 45.0047C6.45692 44.5357 6.10068 43.9327 5.65537 43.5977C5.47725 43.4636 5.12101 43.3296 5.05421 43.1063C4.96515 42.7936 5.2546 42.5479 5.32139 42.3469M3.49564 46.8809C3.60697 46.6129 3.56244 46.3672 3.76283 46.1885C4.09681 46.2555 4.54211 47.0819 4.72023 47.3499C5.29913 48.2656 5.96709 49.1144 6.52372 50.0971C6.7909 50.5885 7.16941 51.0575 7.45886 51.5489C8.10455 52.5763 8.66118 53.6707 9.26234 54.7204C9.30687 54.8544 9.3514 54.9661 9.39593 55.1001C9.55179 55.4128 9.77444 55.7702 9.95256 56.0605C10.0194 56.2169 10.0639 56.3732 10.1307 56.5295C10.6873 57.6239 11.2885 58.8077 11.7783 59.9691C12.1568 60.8848 12.4685 61.8229 12.847 62.7163C13.092 63.297 13.1365 63.833 13.3591 64.4584C13.8712 66.0219 14.4056 67.7193 15.0068 69.2157C15.0513 69.3944 15.0958 69.5731 15.1626 69.7741C15.3185 70.1761 15.5857 70.6898 15.7415 71.0919C15.7861 71.2706 15.8306 71.4269 15.8974 71.6056C16.365 72.6777 16.8548 73.7497 17.3001 74.8441C17.4782 75.2462 17.7677 75.6705 17.9235 76.0725C18.3243 77.033 18.7028 77.8817 19.1258 78.7974C19.1926 78.9091 19.2817 79.0208 19.3485 79.1324C19.393 79.2664 19.4376 79.4228 19.5044 79.5568C20.1055 80.7405 20.7289 81.9689 21.241 83.2197C21.5082 83.8674 21.9313 84.5375 22.2207 85.1852C22.4211 85.6542 22.5324 86.0339 22.7328 86.5029C22.7996 86.6146 22.8664 86.7263 22.9332 86.8156C23 86.9943 23.0445 87.173 23.0891 87.3517C23.3785 88.044 23.757 88.8481 24.0242 89.5851C24.0687 89.8085 24.1133 90.0095 24.1578 90.2329C24.2469 90.4339 24.3359 90.6349 24.4027 90.8359C24.425 91.2156 24.4695 91.6176 24.4918 91.9973C24.6031 92.5557 24.6922 93.0917 24.8035 93.6501C24.9148 94.3425 24.759 95.0795 24.8925 95.7272C24.9593 95.9952 25.0484 96.2409 25.1152 96.5089C25.1597 96.978 25.2043 97.4693 25.2488 97.9607C25.4492 98.9211 25.6273 100.06 25.8277 100.998C25.8722 101.311 25.8945 101.601 25.939 101.914C26.696 105.197 27.364 108.525 28.3214 111.563C28.3659 111.831 28.4327 112.099 28.4773 112.367C28.544 112.523 28.6108 112.657 28.6776 112.813C28.7222 113.037 28.7667 113.282 28.8112 113.506C28.9003 113.662 28.9671 113.841 29.0339 113.997C29.0784 114.22 29.1229 114.444 29.1675 114.645C29.635 115.829 30.1249 116.856 30.8596 117.772C31.394 118.442 32.2178 118.933 33.1307 119.201C34.2662 119.514 36.0252 118.732 36.6931 118.33C36.8712 118.263 37.0494 118.174 37.2275 118.084C37.7619 117.705 38.3408 117.392 38.8974 117.035C39.0755 116.923 39.2982 116.633 39.6767 116.744C40.1442 116.856 40.2556 117.66 40.1665 118.263C40.0997 118.665 39.9661 118.978 39.8993 119.335C39.8548 119.67 39.8103 119.983 39.7657 120.318C39.6544 120.787 39.4763 121.39 39.5876 121.993C39.8103 123.378 40.5895 124.249 41.8141 124.629C42.2149 124.673 42.6157 124.718 43.0165 124.763C43.3727 124.83 43.8625 124.763 44.152 124.718C44.4414 124.718 44.7309 124.718 44.9981 124.718C45.332 124.673 45.666 124.629 46 124.584C46.2449 124.517 46.4676 124.428 46.7125 124.361C46.8906 124.316 47.091 124.271 47.2691 124.249C48.9835 123.556 50.2972 122.44 52.1675 121.881C54.0378 121.323 56.242 121.211 58.2459 120.809C58.6689 120.765 59.0697 120.72 59.4927 120.675C61.8306 120.229 64.302 119.871 66.6176 119.358C66.9293 119.335 67.2633 119.291 67.575 119.246C67.9758 119.157 68.3988 119.067 68.8219 118.978C69.2004 118.933 69.6012 118.888 69.9797 118.844C71.2043 118.598 72.696 118.509 73.9874 118.285C74.4327 118.285 74.878 118.263 75.3011 118.241C75.7909 118.174 76.8374 118.129 77.3272 118.218C78.1287 118.352 79.1975 118.062 79.7986 118.375V118.442C79.0639 118.732 78.3291 119 77.6834 119.402C76.4589 120.162 75.3011 121.033 74.0987 121.792C72.9409 122.507 71.7609 123.199 70.6031 123.914C70.2469 124.115 69.9129 124.227 69.5566 124.428C69.4453 124.495 69.3562 124.584 69.2449 124.651C69.1336 124.696 69 124.74 68.8664 124.785C67.3969 125.656 65.9051 126.527 64.5469 127.51C63.9458 127.956 63.2778 128.381 62.8325 128.962C62.454 129.453 61.9864 129.967 61.7415 130.57C61.697 130.815 61.6302 131.061 61.5634 131.307C61.4966 131.53 61.3853 131.843 61.4521 132.178C61.5411 132.714 61.7193 133.25 61.9642 133.63C62.0532 133.764 62.3427 134.054 62.2759 134.277C62.2091 134.545 61.4076 135.081 61.1626 135.26C59.8267 136.287 58.4017 137.382 56.6651 137.985C55.485 138.387 54.2604 136.779 53.637 136.31C52.6573 135.483 51.6776 134.657 50.698 133.831C49.1617 132.691 47.5586 131.642 45.9109 130.57C43.7067 129.14 41.5024 127.621 38.8974 126.616C37.7619 126.17 36.515 125.879 35.3127 125.544C35.0455 125.5 34.7561 125.455 34.4889 125.41C33.9322 125.276 33.2865 125.031 32.7967 124.83C32.6186 124.785 32.4627 124.718 32.2846 124.673C28.2769 122.641 25.516 119.224 22.1094 116.566C19.2372 114.31 16.1646 112.277 13.9158 109.396C13.6041 109.039 13.2924 108.704 12.9806 108.346C12.8248 108.101 12.6467 107.855 12.4685 107.609C12.3127 107.386 12.0678 107.207 11.9342 106.939C11.9342 106.56 13.3146 106.135 13.6486 105.934C14.94 105.153 15.9642 104.058 16.7657 102.763C17.0329 102.338 17.122 101.869 17.3001 101.356C17.3669 101.177 17.456 101.021 17.5227 100.842C17.6786 100.284 17.7677 99.6358 17.9013 99.0998C17.9458 98.6978 17.9681 98.3181 18.0126 97.916C18.1016 97.38 18.1684 96.8216 18.2575 96.2856C18.302 95.6826 18.3466 95.0572 18.3911 94.4541C18.4579 94.0968 18.5247 93.7618 18.6137 93.4044C18.6583 93.0694 18.7028 92.7344 18.7696 92.4217C18.9477 91.9303 19.1926 91.3273 19.3262 90.8136C19.3708 90.5679 19.393 90.3445 19.4376 90.1212C19.7938 88.7141 20.0165 86.6593 19.7047 84.9842C19.5266 83.9791 19.1704 82.9517 18.7696 82.1476C18.7028 81.9689 18.636 81.7903 18.5692 81.6116C17.9903 80.6512 17.4337 79.6685 16.7657 78.7974C14.8287 76.2736 12.3127 74.2411 10.5092 71.6056C9.21781 69.7518 8.10455 67.63 7.25847 65.3518C7.05808 64.8158 6.96902 64.3691 6.7909 63.833C6.7241 63.699 6.65731 63.565 6.59051 63.4087C6.54598 63.2077 6.47919 63.0067 6.43466 62.8056C6.34559 62.6046 6.25653 62.3813 6.16747 62.1803C5.98935 61.5996 5.90029 61.1529 5.6999 60.5498C5.61084 60.3488 5.52178 60.1478 5.45499 59.9468C5.23233 59.2097 5.03195 58.495 4.76476 57.825C4.72023 57.6016 4.6757 57.3783 4.63117 57.1773C4.54211 56.9986 4.47531 56.8199 4.38625 56.6412C4.34172 56.4625 4.31946 56.2615 4.27493 56.0828C4.18587 55.8818 4.09681 55.6808 4.03001 55.5021C3.98548 55.2788 3.94095 55.0778 3.91868 54.8544C3.69603 54.2067 3.45111 53.4027 3.29526 52.6656C3.2062 51.8616 3.11713 51.0352 3.02807 50.2311C2.87222 49.2484 3.27299 47.5956 3.54017 46.9479" fill="#174A94"/>
</svg>
