<svg width="172" height="175" viewBox="0 0 172 175" fill="none" xmlns="http://www.w3.org/2000/svg">
<path d="M64.4416 106.995C53.2296 103.939 43.1443 101.459 33.2238 98.4161C23.4683 95.4284 13.8089 92.0981 4.28695 88.4388C2.43202 87.7261 1.4015 84.8344 0 82.9568C1.75875 81.737 3.36635 79.9965 5.31746 79.4346C8.56015 78.5026 12.0227 77.9955 15.4028 77.8996C30.4621 77.461 45.5351 77.1595 60.6081 76.9677C66.1866 76.8991 67.7393 74.487 67.8492 68.9365C68.2889 48.187 69.2644 27.4513 70.3636 6.72919C70.4873 4.42674 72.6308 2.23393 73.8262 0C75.5574 1.83648 78.1818 3.37145 78.8826 5.53685C82.9909 18.3374 86.5359 31.3298 90.5205 44.1851C93.2686 53.0386 96.4151 61.7824 99.0257 69.5395C122.151 65.7432 144.396 62.0428 166.669 58.548C168.331 58.2877 170.228 59.3841 172 59.85C171.011 61.4809 170.42 63.7286 168.977 64.6468C154.756 73.7333 140.411 82.6416 126.053 91.5224C121.999 94.0305 117.809 96.2781 113.027 99.0191C121.931 112.477 130.532 125.305 138.927 138.257C141.51 142.245 143.791 146.493 145.742 150.824C146.443 152.387 145.77 154.552 145.729 156.443C143.599 156.389 140.947 157.142 139.436 156.156C128.924 149.289 118.606 142.149 108.328 134.94C102.365 130.746 96.5937 126.265 89.9434 121.317C87.6076 124.387 85.3817 127.101 83.4031 129.979C76.3269 140.23 69.6217 150.742 62.202 160.747C58.6158 165.598 54.0128 169.792 49.3961 173.739C47.8709 175.041 44.8755 174.63 42.5534 175C42.3336 172.876 41.413 170.518 42.0038 168.655C45.1366 158.897 48.5579 149.234 52.0892 139.614C55.8952 129.198 59.9348 118.864 64.4279 107.009L64.4416 106.995ZM12.3937 82.8608C19.937 83.8339 27.4667 85.2181 35.0375 85.6567C46.4007 86.3145 57.8188 86.1912 69.1957 86.6023C75.2689 86.8216 78.3604 83.7791 78.0169 77.5707C77.7696 73.2536 78.0444 68.8954 77.5635 64.6057C76.2032 52.3945 74.5681 40.2107 73.043 28.0132C72.7132 28.068 72.3835 28.1228 72.0537 28.1776V80.3939C52.1441 80.3254 32.2345 77.5296 12.3662 82.8745L12.3937 82.8608ZM133.005 151.29C133.5 150.701 133.995 150.112 134.489 149.536C131.288 146.398 128.182 143.163 124.871 140.148C115.651 131.774 105.813 124.017 97.267 115.027C90.5755 107.982 86.4122 107.694 81.4245 116C76.1758 124.73 70.3362 133.117 65.1836 141.916C59.8799 150.961 55.0983 160.308 50.0831 169.518C50.6602 169.888 51.2235 170.244 51.8006 170.614C64.4966 151.866 77.1788 133.104 88.9541 115.712C103.065 127.115 118.028 139.216 133.005 151.318V151.29ZM78.0719 9.38797C77.6734 9.52502 77.275 9.66207 76.8902 9.78542C76.8902 10.6762 76.7254 11.5945 76.9177 12.4442C81.9054 34.5642 86.8382 56.6979 92.1831 78.7356C92.4854 79.9691 96.47 81.2848 98.4212 80.9147C101.911 80.2569 105.071 77.9818 108.548 77.0088C121.848 73.2536 135.217 69.7862 148.545 66.127C150.194 65.6747 151.719 64.7153 153.3 63.989C143.489 64.6605 134.159 66.9493 124.679 67.9223C114.799 68.9365 105.539 70.9374 97.4731 77.4885C90.9465 54.5873 84.5161 31.9876 78.0719 9.38797ZM160.019 69.0324C159.538 68.3335 159.043 67.6208 158.562 66.9218C151.087 70.6907 143.681 74.6104 136.111 78.1737C126.547 82.6964 116.737 86.712 107.229 91.3717C101.623 94.1127 100.688 98.9917 104.563 103.926C116.544 119.22 128.705 134.392 140.796 149.618L143.159 147.85C130.944 130.966 118.729 114.067 107.132 98.0323C124.349 88.5896 142.197 78.8041 160.046 69.0187L160.019 69.0324ZM6.65026 87.0683C25.969 98.9369 49.4923 95.7162 68.3988 105.831C60.6218 125.689 52.7487 145.74 44.8893 165.79C55.1532 147.425 64.0981 128.554 72.9331 109.641C75.7223 103.679 73.5788 99.581 66.9973 98.4024C57.8051 96.7578 48.5304 95.5654 39.352 93.8386C28.6071 91.824 17.9447 89.4256 6.62278 87.0683H6.65026ZM15.073 85.8485C14.9494 86.2186 14.8257 86.5886 14.702 86.9587C16.7631 87.6165 18.7829 88.4936 20.8851 88.8911C28.0026 90.2342 35.12 91.6047 42.2924 92.5777C51.4983 93.8249 60.7317 94.8802 69.9789 95.5791C71.614 95.7025 73.414 93.6467 75.1315 92.6051C73.6201 91.6047 72.1911 89.9052 70.5835 89.7271C63.3974 88.9048 56.1563 88.4525 48.9289 87.9728C37.6482 87.219 26.3537 86.5475 15.0593 85.8485H15.073ZM148.449 69.5258C148.271 69.1421 148.092 68.7446 147.913 68.3609C146.828 68.539 145.687 68.5665 144.671 68.9228C130.738 73.8018 116.709 78.4615 102.969 83.8339C99.8089 85.0674 97.6242 88.7677 94.9998 91.3306C95.4945 92.0706 95.9891 92.797 96.47 93.5371C113.796 85.5333 131.123 77.5296 148.449 69.5258ZM94.2991 102.884C93.8594 103.583 93.4335 104.282 92.9938 104.981C101.1 118.22 112.56 128.225 126.286 137.846C125.654 135.817 125.613 134.844 125.118 134.227C117.218 124.511 109.413 114.739 101.197 105.296C99.8089 103.706 96.6487 103.651 94.2991 102.884ZM85.2718 83.9435C86.2885 83.5598 87.3053 83.1624 88.3221 82.7786C84.3924 63.2489 80.4627 43.7329 76.533 24.2031C75.5712 25.1488 75.3788 26.0396 75.475 26.8756C77.4948 43.9659 79.4459 61.0698 81.7268 78.1326C82.0016 80.1884 84.0489 82.0111 85.2855 83.9298L85.2718 83.9435ZM62.3806 137.064C71.6827 131.404 82.7023 109.627 79.3772 103.227C73.3315 115.273 67.8492 126.169 62.3806 137.064Z" fill="#102F5C"/>
</svg>
