<svg width="145" height="477" viewBox="0 0 145 477" fill="none" xmlns="http://www.w3.org/2000/svg">
<path opacity="0.4" d="M-7.46645 260.561C-7.46645 260.561 12.2298 263.724 37.9782 258.229C63.7426 252.702 98.8964 229.89 110.142 220.537C121.387 211.185 110.692 208.363 110.692 208.363C110.692 208.363 139.516 169.049 142.597 161.248C145.678 153.446 134.329 152.325 134.329 152.325C134.329 152.325 141.556 114.901 140.829 106.143C140.102 97.3848 134.408 94.6467 134.408 94.6467L135.325 89.021C135.325 89.021 137.339 68.3926 133.681 64.2097C130.038 59.9951 101.133 71.5431 101.133 71.5431C101.133 71.5431 100.074 69.2218 92.0602 67.5467C90.013 67.116 65.9482 79.542 65.9482 79.542C65.9482 79.542 64.3134 72.0389 54.909 74.4792C45.4886 76.9513 12.3181 107.6 12.3181 107.6C12.3181 107.6 5.76964 103.638 -1.25806 115.505C-8.26985 127.34 -11.7168 157.074 -11.7168 157.074C-11.7168 157.074 -14.7419 153.687 -20.8269 155.605C-26.9437 157.508 -26.2626 179.966 -25.4728 203.553C-24.6831 227.14 -19.4016 258.629 -19.4016 258.629C-19.4016 258.629 -26.4475 264.282 -39.6103 271.916C-52.8048 279.535 -90.7193 287.039 -108.99 292.746C-127.261 298.454 -166.266 303.621 -166.266 303.621C-166.266 303.621 -149.073 282.575 -142.425 270.358C-135.762 258.109 -136.222 243.598 -136.222 243.598C-136.222 243.598 -134.215 240.309 -116.906 224.731C-99.5983 209.153 -78.2121 180.148 -73.6056 171.919C-69.0309 163.673 -78.7861 159.533 -78.7861 159.533C-78.7861 159.533 -64.738 124.658 -61.9797 112.12C-59.2373 99.6135 -66.9348 98.3361 -66.9348 98.3361C-66.9348 98.3361 -64.8972 59.7001 -68.8596 42.1186C-72.822 24.5372 -82.3328 32.0157 -82.3328 32.0157C-82.3328 32.0157 -92.6684 2.92218 -104.635 0.973829C-116.57 -0.958603 -131.007 29.8639 -131.007 29.8639C-131.007 29.8639 -136.631 24.6146 -143.017 26.1036C-149.403 27.5927 -167.281 64.007 -167.281 64.007C-167.281 64.007 -171.455 63.3045 -177.721 68.4332C-183.988 73.562 -197.622 114.97 -197.622 114.97C-197.622 114.97 -199.701 114.603 -204.938 113.407C-210.175 112.211 -209.632 118.013 -210.289 128.422C-210.931 138.8 -202.815 166.382 -188.121 184.338C-173.442 202.245 -148.503 210.943 -143.399 214.698C-138.295 218.453 -142.305 230.004 -143.066 236.742C-143.827 243.481 -142.43 250.507 -146.181 260.04C-149.933 269.573 -169.189 297.023 -174.773 302.295C-180.357 307.567 -188.286 310.152 -207.834 319.275C-227.383 328.399 -268.366 352.303 -290.276 366.845C-312.17 381.354 -306.441 382.201 -302.62 385.033C-298.8 387.865 -298.872 384.21 -298.872 384.21C-298.872 384.21 -287.375 375.938 -275.989 367.73C-264.603 359.522 -225.549 339.463 -201.167 326.878C-176.784 314.293 -134.376 306.697 -128.355 304.826C-122.286 302.94 -115.17 301.499 -106 304.828C-96.8305 308.157 -64.1531 328.574 -64.1531 328.574C-64.1531 328.574 -64.3934 336.807 -63.999 345.199C-63.6046 353.591 -58.2446 378.199 -51.7961 391.538C-45.3793 404.862 -41.8369 396.775 -41.8369 396.775C-41.8369 396.775 -20.0914 435.652 -10.4956 447.31C-0.915756 458.999 0.305503 445.093 0.305503 445.093C0.305503 445.093 21.8468 461.194 39.7948 472.429C57.7428 483.664 61.4288 468.012 61.4288 468.012C61.4288 468.012 95.3273 474.602 105.947 475.596C116.582 476.637 117.847 464.543 117.847 464.543C117.847 464.543 123.669 466.55 128.617 469.192C133.581 471.803 142.093 470.665 144.451 467.075C146.84 463.501 132.355 444.179 132.355 444.179C132.355 444.179 134.519 442.003 136.721 437.3C138.906 432.629 131.685 424.232 124.34 414.022C116.98 403.844 111.703 392.127 111.703 392.127C111.703 392.127 112.943 391.238 116.848 391.527C120.753 391.816 128.207 388.277 121.545 378.212C114.899 368.114 85.3101 351.037 85.3101 351.037C85.3101 351.037 95.9112 345.896 96.8722 342.082C97.8649 338.284 88.2977 335.273 72.7574 326.599C57.2329 317.972 22.906 318.486 22.906 318.486C22.906 318.486 24.8383 313.369 21.4966 309.584C18.1389 305.831 8.41241 310.337 -1.85073 313.38C-12.1139 316.424 -55.8071 323.733 -55.8071 323.733C-55.8071 323.733 -61.8136 318.769 -74.5011 312.402C-87.1886 306.035 -104.889 297.708 -104.889 297.708C-104.889 297.708 -85.2587 294.752 -58.715 288.622C-32.1396 282.507 -7.59332 260.498 -7.59332 260.498M-6.065 251.36C-0.94729 248.916 8.54753 241.47 8.54753 241.47C8.54753 241.47 1.60372 222.312 -0.970652 216.128C-3.52907 209.911 -9.08884 203.979 -5.6091 202.742C-2.16108 201.489 1.17109 209.645 3.94945 216.926C6.72781 224.208 14.1 236.261 14.1 236.261C14.1 236.261 21.8601 230.688 27.7825 223.318C33.6889 215.98 35.2196 213.009 35.2196 213.009C35.2196 213.009 24.6747 206.961 20.7346 193.687C16.7945 180.413 14.3478 166.694 12.9447 162.132C11.5417 157.569 11.8574 151.164 14.3445 153.725C16.8315 156.286 20.5646 177.094 23.9881 187.046C27.3957 196.95 39.6443 207.99 39.6443 207.99C39.6443 207.99 50.8898 198.637 55.7002 191.505C60.4949 184.325 58.4213 181.494 58.4213 181.494C58.4213 181.494 45.8527 157.087 45.8866 141.591C45.9206 126.095 42.9106 115.873 44.4135 111.058C45.9165 106.244 50.0033 103.322 50.3923 114.178C50.7654 125.066 49.8577 147.999 54.6405 160.702C59.4076 173.357 63.6357 178.383 63.6357 178.383C63.6357 178.383 71.5181 167.74 79.4908 152.091C87.4795 136.41 89.1546 132.756 89.1546 132.756C89.1546 132.756 85.5088 115.572 84.7064 104.986C83.9041 94.4007 82.5447 91.65 85.3698 92.1131C88.1948 92.5763 90.0836 107.327 91.3049 115.1C92.5739 122.857 94.6594 127.563 94.6594 127.563C94.6594 127.563 105.015 104.001 109.133 94.2137C113.282 84.4424 114.56 81.0262 117.068 81.0917C119.577 81.1573 112.352 103.069 110.978 107.153C109.588 111.268 108.933 112.968 108.933 112.968C108.933 112.968 123.949 107.099 123.956 111.438C123.962 115.777 105.664 119.641 105.664 119.641C105.664 119.641 100.193 131.017 91.5217 146.554C82.8507 162.091 79.49 166.968 79.49 166.968C79.49 166.968 87.7517 171.552 97.4569 169.541C107.178 167.498 111.963 164.688 111.781 167.899C111.6 171.109 99.602 176.027 90.2665 175.956C80.9311 175.885 75.1683 175.658 75.1683 175.658C75.1683 175.658 62.3945 194.149 57.8411 199.898C53.2877 205.648 47.832 210.19 47.832 210.19C47.832 210.19 69.4723 210.111 78.7641 208.37C88.0559 206.629 91.5793 207.204 89.4153 209.38C87.2512 211.556 68.0566 218.55 59.1505 218.177C50.2127 217.789 41.7692 216.415 41.7692 216.415C41.7692 216.415 30.2572 231.521 20.7623 238.968C11.2675 246.415 5.60778 249.859 1.66542 252.097C-2.27696 254.335 -11.2784 253.994 -6.16068 251.551M-137.347 220.837C-137.735 216.784 -136.19 206.979 -137.432 201.701C-138.723 196.439 -158.836 180.578 -168.372 170.7C-177.876 160.839 -187.505 142.363 -182.563 147.469C-177.62 152.574 -157.806 174.253 -150.881 180.393C-143.925 186.55 -138.106 190.384 -138.106 190.384C-138.106 190.384 -139.927 166.32 -139.473 154.813C-138.987 143.323 -147.657 136.545 -156.244 121.058C-164.831 105.571 -167.551 93.267 -166.086 90.9795C-164.62 88.6919 -160.523 103.079 -155.687 113.223C-150.851 123.367 -138.741 139.429 -138.741 139.429C-138.741 139.429 -136.24 106.674 -132.961 95.6304C-129.698 84.6186 -130.359 81.9797 -130.359 81.9797C-130.359 81.9797 -140.165 64.8864 -140.447 55.795C-140.728 46.7036 -138.403 43.177 -137.838 46.4833C-137.29 49.8214 -134.794 62.888 -132.059 68.3575C-129.325 73.8271 -126.977 74.6077 -126.977 74.6077C-126.977 74.6077 -120.144 50.4706 -113.358 40.0337C-106.556 29.5651 -105.222 29.8363 -106.393 35.0167C-107.611 40.213 -120.193 72.8011 -120.193 72.8011C-120.193 72.8011 -113.081 73.2676 -107.115 67.7094C-101.149 62.1513 -90.3176 53.148 -90.4675 56.3743C-90.6015 59.5689 -98.1022 69.9257 -104.128 73.6242C-110.121 77.3387 -121.136 82.7498 -121.136 82.7498C-121.136 82.7498 -130.781 115.102 -131.738 131.885C-132.664 148.684 -131.731 164.705 -131.731 164.705C-131.731 164.705 -120.366 158.992 -114.391 149.143C-108.4 139.262 -100.616 115.682 -97.7908 116.145C-94.9498 116.576 -102.619 138.821 -107.398 145.97C-112.177 153.118 -126.101 167.491 -128.63 169.921C-131.176 172.382 -132.677 183.364 -132.294 189.88C-131.88 196.413 -130.546 203.487 -130.546 203.487C-130.546 203.487 -119.135 190.955 -111.365 181.012C-103.595 171.069 -100.959 163.601 -99.1704 166.05C-97.3817 168.499 -109.505 187.117 -115.777 194.709C-122.065 202.333 -129.91 210.449 -129.91 210.449C-129.91 210.449 -131.213 218.188 -132.631 220.46C-134.049 222.731 -136.975 224.843 -137.363 220.79M-35.393 332.586C-30.269 334.481 -15.3778 342.312 -15.3778 342.312C-15.3778 342.312 22.2558 332.599 31.7953 333.766C41.3664 334.95 47.2062 336.29 46.2015 338.292C45.2129 340.262 25.4 339.626 11.0104 341.951C-3.41085 344.261 -10.2102 346.099 -10.2102 346.099C-10.2102 346.099 8.50514 354.935 17.3526 360.329C26.2318 365.74 29.1815 367.3 29.1815 367.3C29.1815 367.3 55.6815 359.358 64.1409 360.7C72.5844 362.073 71.8011 364.504 66.559 365.772C61.3009 367.071 33.6508 370.896 33.6508 370.896C33.6508 370.896 57.6212 387.062 61.424 390.562C65.195 394.045 80.0289 384.584 85.5823 386.178C91.0881 387.788 87.909 389.454 82.1407 391.77C76.3882 394.054 64.4967 393.934 64.4967 393.934C64.4967 393.934 72.7862 400.361 76.0312 404.814C79.2603 409.298 81.656 410.063 81.656 410.063C81.656 410.063 94.6742 403.191 97.0328 406.404C99.4072 409.664 84.1113 412.608 84.1113 412.608C84.1113 412.608 95.8712 422.09 98.9716 427.305C102.104 432.457 105.57 437.419 100.51 435.476C95.4332 433.565 85.827 419.396 80.5189 414.544C75.2108 409.693 71.7841 408.45 71.7841 408.45C71.7841 408.45 75.2482 428.844 76.5703 434.122C77.9083 439.368 73.4666 437.616 71.4248 434.722C69.4148 431.844 65.5364 404.917 65.5364 404.917C65.5364 404.917 61.6303 397.825 53.0401 390.968C44.4657 384.159 38.5679 380.324 38.5679 380.324C38.5679 380.324 35.4016 390.669 40.2663 409.459C45.1311 428.249 47.4165 435.88 45.1875 438.739C42.9584 441.598 41.9648 438.593 39.4967 427.37C37.0446 416.116 32.4052 395.927 33.4511 389.57C34.5288 383.23 33.3034 377.285 33.3034 377.285C33.3034 377.285 28.0444 371.781 22.7149 369.425C17.3695 367.1 11.9447 364.775 11.9447 364.775C11.9447 364.775 8.95705 380.54 9.88805 390.394C10.8191 400.249 18.4816 410.221 17.6492 413.303C16.8169 416.386 9.43746 414.87 7.80272 407.367C6.16798 399.864 2.58723 381.997 4.15923 374.671C5.74718 367.314 5.63355 361.21 5.63355 361.21C5.63355 361.21 -9.07998 351.996 -14.4571 349.656C-19.8342 347.315 -26.0979 343.814 -26.0979 343.814C-26.0979 343.814 -27.7389 353.651 -24.2622 361.044C-20.7855 368.437 -18.7851 375.686 -22.1322 374.365C-25.4952 373.075 -30.6416 366.872 -31.4653 358.781C-32.2891 350.691 -32.2487 339.534 -32.2487 339.534C-32.2487 339.534 -40.7836 336.364 -43.4166 335.202C-46.0813 334.024 -54.6757 329.074 -51.8347 329.505C-48.9937 329.937 -40.5329 330.643 -35.4088 332.538" fill="#164180"/>
</svg>
