<svg width="487" height="752" viewBox="0 0 487 752" fill="none" xmlns="http://www.w3.org/2000/svg">
<path opacity="0.4" d="M-247.997 322.984C-250.148 331.958 -215.984 377.251 -215.984 377.251C-215.984 377.251 -219.518 382.074 -217.039 393.175C-214.597 404.242 -171.504 447.484 -171.504 447.484C-171.504 447.484 -173.254 449.877 -178.059 455.698C-182.864 461.52 -175.274 464.494 -162.692 471.841C-150.143 479.225 -110.489 486.478 -78.7232 479.437C-47.0277 472.398 -20.3056 446.688 -12.3669 442.624C-4.42826 438.561 7.48405 450.875 15.4025 456.131C23.3915 461.385 33.0891 464.071 42.5777 474.743C52.1027 485.448 74.2677 526.868 77.2833 537.173C80.2987 547.478 78.5233 559.05 77.5561 589.302C76.5524 619.521 80.5119 685.92 84.7461 722.445C89.0167 759.004 93.6868 752.375 99.689 749.44C105.655 746.472 100.986 744.24 100.986 744.24C100.986 744.24 97.9201 724.617 94.8958 705.17C91.8715 685.722 91.5433 624.134 91.2653 585.701C90.9873 547.269 108.406 489.382 109.859 480.646C111.383 471.907 114.138 462.064 124.076 452.704C134.085 443.341 180.35 415.302 180.35 415.302C180.35 415.302 190.501 420.796 201.228 425.598C211.954 430.4 246.193 439.226 266.963 439.606C287.697 439.952 279.802 430.423 279.802 430.423C279.802 430.423 342.188 427.749 362.887 423.154C383.548 418.526 367.014 408.25 367.014 408.25C367.014 408.25 400.798 391.498 426.23 376.107C451.664 360.787 434.412 346.23 434.412 346.23C434.412 346.23 464.146 307.985 472.13 295.307C480.15 282.662 465.842 273.435 465.842 273.435C465.842 273.435 472.052 267.422 478.456 262.884C484.86 258.346 488.831 246.977 485.856 241.754C482.88 236.531 449.557 242.464 449.557 242.464C449.557 242.464 448.21 238.347 443.77 232.647C439.331 226.947 424.18 230.707 406.769 233.453C389.358 236.199 371.398 235.435 371.398 235.435C371.398 235.435 371.074 233.293 373.906 228.567C376.74 223.911 377.103 212.319 360.265 214.303C343.461 216.251 303.308 242.481 303.308 242.481C303.308 242.481 303.602 225.985 299.449 222.393C295.367 218.798 285.454 228.864 264.809 242.846C244.163 256.829 223.045 300.093 223.045 300.093C223.045 300.093 217.9 294.419 211.012 296.256C204.194 298.091 203.67 313.077 200.95 327.86C198.264 342.607 179.697 401.947 179.697 401.947C179.697 401.947 169.651 406.298 153.659 418.136C137.667 429.974 116.067 446.886 116.067 446.886C116.067 446.886 124.761 420.485 134.026 383.367C143.22 346.252 131.319 301.638 131.319 301.638C131.319 301.638 147.738 279.018 157.158 243.271C166.614 207.558 160.364 149.185 155.802 129.192C151.241 109.2 140.923 120.798 140.923 120.798C140.923 120.798 110.015 59.925 102.219 51.1693C94.4567 42.3771 85.8292 55.8203 85.8292 55.8203C85.8292 55.8203 43.6079 23.1372 32.1816 18.5014C20.7552 13.8657 13.7445 19.202 13.7445 19.202L7.32938 14.5266C7.32938 14.5266 -17.1916 -0.932906 -24.7122 0.997585C-32.3059 2.86011 -36.1892 46.3496 -36.1892 46.3496C-36.1892 46.3496 -39.7953 46.1973 -46.9597 55.1398C-48.7489 57.4284 -48.5225 95.4039 -48.5225 95.4039C-48.5225 95.4039 -58.9252 92.7433 -61.8023 106.085C-64.716 119.393 -47.4339 180.263 -47.4339 180.263C-47.4339 180.263 -56.5133 185.992 -46.1208 202.208C-35.7282 218.425 -0.732824 241.519 -0.732824 241.519C-0.732824 241.519 -6.8873 243.153 -8.37185 251.997C-9.85639 260.84 18.6131 274.181 48.6565 288.1C78.6294 302.021 121.357 315.27 121.357 315.27C121.357 315.27 123.988 327.672 125.172 348.951C126.355 370.23 111.665 422.476 107.209 448.935C102.753 475.395 84.4929 527.523 84.4929 527.523C84.4929 527.523 69.0956 492.742 58.0004 476.622C46.9418 460.535 28.4909 451.952 28.4909 451.952C28.4909 451.952 25.6429 447.325 17.1769 415.859C8.71084 384.394 -14.0107 339.252 -21.4255 328.329C-28.8768 317.373 -40.2176 326.995 -40.2176 326.995C-40.2176 326.995 -74.956 287.37 -88.8464 276.01C-102.771 264.687 -109.199 273.497 -109.199 273.497C-109.199 273.497 -156.23 246.495 -180.698 240.423C-205.169 234.281 -201.892 250.896 -201.892 250.896C-201.892 250.896 -244.834 245.491 -254.83 259.16C-264.824 272.899 -235.42 310.422 -235.42 310.422C-235.42 310.422 -245.526 314.105 -247.713 323.045M247.654 298.252C255.161 287.038 260.578 280.559 262.397 283.07C264.216 285.582 250.858 309.892 244.672 329.424C238.413 348.889 236.358 358.565 236.358 358.565C236.358 358.565 259.268 340.759 271.63 333.041C284.028 325.357 287.85 322.642 287.85 322.642C287.85 322.642 294.711 284.446 301.777 274.731C308.843 265.015 311.37 267.571 309.655 274.905C307.977 282.273 295.215 319.34 295.215 319.34C295.215 319.34 330.62 299.53 337.379 297.027C344.102 294.49 341.706 269.901 347.215 264.054C352.723 258.137 352.8 263.252 351.979 271.895C351.158 280.538 343.534 295.393 343.534 295.393C343.534 295.393 356.792 289.054 364.442 287.79C372.093 286.526 374.582 284.071 374.582 284.071C374.582 284.071 374.233 263.432 379.778 262.526C385.36 261.654 379.365 282.592 379.365 282.592C379.365 282.592 398.717 273.88 407.165 273.223C415.614 272.565 423.972 271.345 418.366 276.49C412.724 281.6 388.936 284.682 379.533 288.269C370.059 291.859 366.336 295.347 366.336 295.347C366.336 295.347 394.07 303.913 401.471 305.552C408.838 307.227 403.842 311.644 398.997 312.383C394.116 313.089 357.959 300.979 357.959 300.979C357.959 300.979 346.607 301.389 332.61 307.789C318.649 314.224 310.142 319.19 310.142 319.19C310.142 319.19 321.036 329.67 347.648 335.487C374.224 341.271 385.236 343.203 387.413 347.82C389.556 352.473 385.154 351.784 369.549 347.758C353.944 343.732 325.737 336.772 318.487 331.456C311.237 326.14 303.002 323.86 303.002 323.86C303.002 323.86 292.769 326.948 286.461 332.188C280.116 337.394 273.847 342.739 273.847 342.739C273.847 342.739 291.704 356.427 304.592 361.469C317.516 366.545 334.837 363.237 338.191 366.223C341.475 369.21 334.922 377.496 324.553 374.798C314.148 372.067 289.514 365.296 281.336 358.707C273.192 352.082 265.434 348.338 265.434 348.338C265.434 348.338 244.563 360.952 238.254 366.192C231.946 371.433 223.533 377.031 223.533 377.031C223.533 377.031 234.808 385.344 246.29 385.6C257.738 385.893 268.05 387.992 264.251 391.342C260.525 394.759 249.497 397.31 238.9 393.174C228.27 389.075 214.321 382.023 214.321 382.023C214.321 382.023 204.959 390.692 201.84 393.311C198.648 395.862 186.989 403.484 189.343 400.222C191.698 396.96 197.971 386.779 203.54 381.601C209.143 376.386 228.422 362.699 228.422 362.699C228.422 362.699 240.113 309.503 247.654 298.252ZM120.628 293.869C120.803 285.92 117.493 269.342 117.493 269.342C117.493 269.342 89.1331 265.988 79.7515 265.232C70.4064 264.51 59.4711 267.694 60.1019 262.623C60.7303 257.482 73.0153 258.486 83.8928 259.611C94.7701 260.737 114.514 259.071 114.514 259.071C114.514 259.071 112.453 245.837 107.011 233.819C101.604 221.765 98.8562 217.981 98.8562 217.981C98.8562 217.981 84.6119 227.356 65.5327 223.914C46.417 220.438 27.7194 214.829 21.1141 213.726C14.5428 212.586 6.68854 208.139 11.4719 206.661C16.1847 205.185 44.6556 213.618 59.2347 215.598C73.8139 217.579 95.366 209.211 95.366 209.211C95.366 209.211 90.8409 189.253 84.9219 178.7C79.003 168.147 74.0899 168.959 74.0899 168.959C74.0899 168.959 35.6243 169.288 16.2455 159.433C-3.13335 149.577 -17.8082 146.894 -22.8547 141.993C-27.8671 137.055 -28.9625 130.105 -15.1439 136.49C-1.32524 142.875 26.8018 158.487 45.6896 160.523C64.5774 162.56 73.5032 160.438 73.5032 160.438C73.5032 160.438 65.2159 143.863 50.7048 124.018C36.1573 104.139 32.6457 99.7119 32.6457 99.7119C32.6457 99.7119 8.84109 93.44 -4.91837 87.7235C-18.6778 82.007 -22.916 81.9482 -20.5954 78.7227C-18.2409 75.4606 1.35324 82.4492 11.8856 85.7758C22.384 89.1389 29.5962 89.4435 29.5962 89.4435C29.5962 89.4435 6.7159 61.6048 -2.93885 50.2332C-12.5571 38.8957 -15.973 35.1712 -14.321 32.0051C-12.7031 28.8755 10.176 51.7369 14.3902 56.068C18.6384 60.3627 20.3306 62.2784 20.3306 62.2784C20.3306 62.2784 22.5279 39.7831 27.9559 42.5173C33.3473 45.2174 26.5921 70.56 26.5921 70.56C26.5921 70.56 37.3661 84.6093 51.3068 105.287C65.245 125.894 69.2124 133.199 69.2124 133.199C69.2124 133.199 80.1742 125.814 83.7879 112.34C87.3676 98.9024 86.9156 91.1878 90.8062 93.3773C94.6994 95.6373 93.2626 113.728 87.2541 125.382C81.2456 137.036 77.2957 144.063 77.2957 144.063C77.2957 144.063 92.2978 171.727 96.6203 181.067C100.906 190.373 103.087 200.037 103.087 200.037C103.087 200.037 116.733 172.928 120.443 160.156C124.189 147.419 127.153 143.429 128.463 147.511C129.808 151.558 126.375 179.993 120.271 190.945C114.096 201.899 107.064 211.578 107.064 211.578C107.064 211.578 118.614 235.484 121.927 252.132C125.203 268.746 125.956 277.968 126.253 284.311C126.516 290.691 120.414 301.714 120.592 293.835M-213.644 282.631C-207.931 287.403 -175.11 323.743 -175.11 323.743C-175.11 323.743 -170.054 315.089 -173.163 304.152C-176.308 293.181 -180.737 273.925 -176.81 276.148C-172.883 278.372 -164.689 294.315 -163.916 304.1C-163.07 313.954 -163.231 331.187 -163.231 331.187C-163.231 331.187 -128.888 363.695 -108.558 375.458C-88.1583 387.219 -67.5041 396.216 -67.5041 396.216C-67.5041 396.216 -67.3995 378.386 -75.9726 364.681C-84.5118 350.939 -109.041 326.337 -106.723 323.041C-104.405 319.745 -81.4622 343.416 -75.5117 353.862C-69.5952 364.345 -60.4593 390.844 -59.019 395.593C-57.5786 400.341 -44.7685 409.128 -36.3438 412.742C-27.9532 416.393 -18.2166 419.184 -18.2166 419.184C-18.2166 419.184 -26.7053 396.968 -34.1604 380.964C-41.652 364.925 -49.3135 356.976 -45.1736 356.262C-40.9971 355.582 -25.3857 382.518 -19.8507 395.168C-14.3158 407.817 -9.15734 422.775 -9.15734 422.775C-9.15734 422.775 -0.240406 429.302 1.67467 432.516C3.58975 435.73 4.36911 440.75 -0.965689 438.648C-6.298 436.616 -17.5342 428.408 -24.9377 426.698C-32.3777 424.955 -64.9823 440.146 -83.3112 445.855C-101.713 451.496 -130.893 451.878 -121.36 448.957C-111.83 445.966 -72.1957 434.864 -60.0831 430.049C-47.9705 425.235 -39.4589 420.409 -39.4589 420.409C-39.4589 420.409 -70.7728 407.489 -84.8193 399.665C-98.9023 391.807 -112.824 398.346 -137.675 399.348C-162.492 400.314 -179.557 395.953 -181.511 392.634C-183.465 389.316 -162.882 393.339 -147.126 393.688C-131.37 394.037 -103.591 389.011 -103.591 389.011C-103.591 389.011 -143.025 365.194 -154.751 354.144C-166.443 343.058 -170.142 342.273 -170.142 342.273C-170.142 342.273 -197.73 343.728 -209.252 338.389C-220.774 333.051 -223.75 327.828 -219.252 329.219C-214.718 330.644 -196.816 335.717 -188.235 335.795C-179.655 335.874 -177.168 333.349 -177.168 333.349C-177.168 333.349 -203.01 309.571 -211.738 294.494C-220.539 279.35 -219.322 277.824 -213.573 282.629" fill="#174A94"/>
</svg>
