<svg width="394" height="533" viewBox="0 0 394 533" fill="none" xmlns="http://www.w3.org/2000/svg">
<path opacity="0.4" d="M48.4666 113.83C42.1422 107.09 33.184 122.839 22.8304 121.83C12.4769 120.821 11.7844 138.819 9.96841 156.853C8.27696 174.93 33.1695 213.723 37.9646 218.831C42.5926 224.021 45.0634 228.2 42.1104 234.853C39.2819 241.548 19.4706 229.116 9.08227 226.981C-1.30603 224.846 6.54691 240.178 6.54691 240.178C6.54691 240.178 -0.413949 242.269 1.1831 260.07C2.78015 277.871 47.1572 314.51 59.7799 318.656C72.4848 322.969 69.0013 327.911 67.1719 334.528C65.3424 341.144 51.4978 346.326 37.304 354.174C23.1103 362.021 42.9698 386.997 47.7097 394.312C52.4496 401.628 55.6856 403.144 50.1287 413.785C44.4447 424.799 70.2737 446.512 70.2737 446.512C70.2737 446.512 41.3361 477.331 37.9222 484.523C34.4658 491.84 25.3264 503.213 16.725 515.047C8.0812 527.005 23.8933 526.666 30.3161 524.114C36.7389 521.562 43.3168 514.052 51.9954 503.219C60.6738 492.386 72.1595 485.15 86.0949 471.926C100.073 458.577 149.138 442.942 162.556 439.424C175.975 435.907 171.188 443.051 170.406 455.173C169.712 466.629 174.458 486.613 182.058 495.734C187.015 501.593 205.667 519.895 223.042 529.273C240.417 538.651 239.819 527.73 253.181 512.92C266.462 497.942 269.346 482.08 268.6 467.908C267.813 453.861 276.72 466.906 288.309 470.005C299.898 473.104 314.733 476.053 327.725 474.2C340.717 472.347 381.21 457.003 391.731 450.971C402.252 444.939 389.785 435.835 390.456 428.129C391.127 420.424 399.272 428.756 409.975 427.1C420.72 425.32 445.993 415.527 452.87 406.726C465.284 390.619 448.474 377.119 446.17 372.857C443.7 368.678 445.529 362.061 450.256 357.959C454.857 353.814 465.043 341.405 466.386 325.994C467.686 310.707 469.489 294.756 469.489 294.756C469.489 294.756 450.387 302.329 440.753 306.157C431.119 309.985 426.853 320.507 422.362 326.777C417.872 333.047 416.211 332.622 409.336 327.504C402.585 322.429 398.956 317.16 390.613 313.911C382.313 310.536 370.681 328.022 365.688 334.957C360.612 341.724 364.849 349.704 358.356 350.005C351.864 350.307 348.45 337.039 344.012 328.016C339.823 319.078 334.67 324.845 319.926 334.314C305.139 343.909 290.497 363.714 290.497 363.714C290.497 363.714 285.198 366.23 278.874 359.49C272.549 352.75 269.226 351.9 251.395 362.688C233.439 373.434 204.9 400.212 199.848 403.23C184.274 412.279 135.347 432.415 142.334 426.157C163.542 407.468 173.319 393.806 185.67 381.158C198.021 368.509 231.031 345.336 240.463 340.465C249.896 335.595 277.116 333.978 295.128 327.567C313.308 321.072 352.371 301.346 389.988 273.195C427.647 244.92 414.014 235.977 414.014 235.977C414.014 235.977 426.791 221.663 421.198 217.677C415.481 213.648 390.013 214.606 384.653 206.663C379.25 198.844 391.434 193.236 411.967 169.168C432.334 145.183 465.081 97.0064 469.235 84.359C473.432 71.5868 477.086 38.7266 472.842 31.9967C468.64 25.142 478.136 9.85392 471.274 2.65274C464.411 -4.54844 437.979 11.1145 431.207 16.3317C424.393 21.6736 413.229 23.8688 399.643 34.4279C386.057 44.987 347.257 89.7169 347.257 89.7169C347.257 89.7169 341.687 88.9394 338.608 82.0485C335.53 75.1577 333.334 46.4357 328.203 41.91C323.071 37.3843 317.087 56.6484 310.105 69.0318C303.123 81.4153 303.088 80.29 292.007 96.1536C280.927 112.017 282.447 128.818 278.473 145.842C274.582 163.033 274.771 166.159 266.575 166.16C258.421 166.037 255.412 161.396 248.417 162.362C241.296 163.285 232.127 193.16 223.698 217.579C215.27 241.998 228.31 252.688 231.422 267.664C234.367 282.721 229.292 289.489 212.903 316.077C196.433 342.498 158.45 382.774 139.173 398.638C119.939 414.379 93.1247 438.124 92.5605 428.328C91.9962 418.533 126.391 393.325 141.145 375.646C155.898 357.967 158.424 352.979 165.066 335.052C171.665 317.249 155.022 310.625 148.732 305.01C142.443 299.395 148.168 295.214 158.934 283.141C169.701 271.068 179.684 264.575 186.395 248.898C193.106 233.221 197.058 226.49 202.525 216.933C207.992 207.376 192.034 204.463 172.326 202.366C152.617 200.269 150.439 209.551 144.429 199.02C138.419 188.489 145.596 191.9 172.307 171.321C198.894 150.7 212.971 121.1 209.635 108.832C206.173 96.5225 177.786 112.217 168.564 102.963C159.343 93.7081 173.097 76.1075 179.563 66.4717C186.029 56.836 180.751 49.0592 189.576 41.477C198.401 33.8947 205.703 37.3477 215.63 40.0219C225.558 42.696 234.521 46.5739 241.413 35.2734C248.43 24.0152 238.218 6.62989 210.774 10.9534C183.205 15.2347 174.233 19.5659 150.014 34.0313C125.794 48.4967 124.068 65.4482 117.757 70.1259C111.446 74.8036 110.873 73.2173 99.5986 66.3278C88.3664 59.3134 77.0358 61.5911 64.4747 81.4062C51.956 101.096 76.6115 124.22 68.6389 128.473C60.6663 132.726 54.5445 120.069 48.22 113.329" fill="#174A94"/>
</svg>
