<svg width="244" height="757" viewBox="0 0 244 757" fill="none" xmlns="http://www.w3.org/2000/svg">
<path opacity="0.4" d="M-24.2034 406.959C-24.2034 406.959 3.19582 417.872 42.1184 418.244C81.0742 418.576 139.15 396.994 158.39 387.125C177.631 377.256 163.109 369.737 163.109 369.737C163.109 369.737 217.371 322.305 224.332 312.042C231.293 301.779 215.279 296.502 215.279 296.502C215.279 296.502 237.771 244.835 239.545 231.964C241.32 219.093 233.987 213.307 233.987 213.307L237.124 205.486C237.124 205.486 246.68 176.372 242.75 169.157C238.853 161.902 193.425 169.245 193.425 169.245C193.425 169.245 192.645 165.555 181.622 160.554C178.807 159.273 140.08 169.443 140.08 169.443C140.08 169.443 140.14 158.091 125.784 158.58C111.395 159.11 53.6542 192.638 53.6542 192.638C53.6542 192.638 45.4833 184.809 31.5177 199.666C17.5853 214.482 3.02607 256.273 3.02607 256.273C3.02607 256.273 -0.246483 250.41 -9.64473 251.216C-19.0836 251.989 -25.341 284.613 -31.8054 318.9C-38.2698 353.186 -40.801 400.323 -40.801 400.323C-40.801 400.323 -52.7894 406.208 -74.2425 412.98C-95.7363 419.719 -152.86 418.323 -181.062 420.668C-209.264 423.013 -267.208 417.894 -267.208 417.894C-267.208 417.894 -235.616 393.071 -222.087 377.586C-208.524 362.061 -204.51 340.975 -204.51 340.975C-204.51 340.975 -200.553 336.878 -170.558 319.981C-140.563 303.084 -100.355 268.128 -91.0554 257.739C-81.7967 247.318 -94.5373 238.199 -94.5373 238.199C-94.5373 238.199 -63.0249 192.408 -55.0031 175.207C-47.0145 158.046 -57.709 153.722 -57.709 153.722C-57.709 153.722 -42.3136 98.6327 -42.3628 71.988C-42.4121 45.3432 -58.5456 53.0674 -58.5456 53.0674C-58.5456 53.0674 -64.0791 7.75803 -80.7173 1.08898C-97.315 -5.5469 -128.081 34.2713 -128.081 34.2713C-128.081 34.2713 -134.504 24.8841 -144.198 24.9739C-153.891 25.0637 -191.426 71.8406 -191.426 71.8406C-191.426 71.8406 -197.222 69.4813 -207.917 74.8611C-218.612 80.2408 -251.633 135.591 -251.633 135.591C-251.633 135.591 -254.514 134.391 -261.685 130.977C-268.855 127.563 -269.942 136.109 -274.247 150.917C-278.519 165.684 -275.7 208.097 -260.287 238.741C-244.881 269.311 -211.701 289.9 -205.547 296.963C-199.394 304.026 -208.904 319.401 -212.174 328.878C-215.445 338.355 -215.693 348.943 -224.18 361.488C-232.667 374.034 -269.298 407.431 -279.055 413.238C-288.812 419.045 -301.085 420.218 -332.232 427.08C-363.378 433.942 -430.217 455.22 -466.518 469.138C-502.785 483.015 -494.791 486.084 -490.192 491.401C-485.594 496.719 -484.518 491.422 -484.518 491.422C-484.518 491.422 -465.263 483.193 -446.189 475.021C-427.115 466.848 -364.3 450.496 -325.062 440.199C-285.825 429.901 -222.188 432.613 -212.897 431.855C-203.532 431.09 -192.8 431.305 -180.643 439.064C-168.486 446.823 -127.919 486.816 -127.919 486.816C-127.919 486.816 -130.92 498.617 -133.057 510.853C-135.193 523.089 -135.392 560.322 -130.389 581.648C-125.425 602.941 -117.707 592.415 -117.707 592.415C-117.707 592.415 -98.865 655.518 -88.7778 675.432C-78.7239 695.386 -72.4789 675.716 -72.4789 675.716C-72.4789 675.716 -46.5887 705.892 -24.3144 727.888C-2.04014 749.884 8.32424 728.489 8.32424 728.489C8.32424 728.489 55.11 748.926 70.1119 753.783C85.1212 758.714 90.8451 741.672 90.8451 741.672C90.8451 741.672 98.5989 746.445 104.886 751.852C111.206 757.219 123.855 758.322 128.414 753.902C133.014 749.515 118.344 716.967 118.344 716.967C118.344 716.967 122.167 714.525 126.86 708.449C131.519 702.414 123.806 687.97 116.501 670.871C109.162 653.814 105.325 635.206 105.325 635.206C105.325 635.206 107.402 634.323 112.943 635.999C118.484 637.675 130.38 634.972 124.012 618.301C117.678 601.589 80.4915 567.411 80.4915 567.411C80.4915 567.411 97.4448 563.41 100.061 558.217C102.717 553.058 89.8843 545.629 70.2584 528.103C50.6398 510.652 0.945783 500.327 0.945783 500.327C0.945783 500.327 5.38324 493.568 1.78193 487.029C-1.85261 480.531 -17.3392 483.897 -33.1285 484.979C-48.9178 486.062 -114.317 482.522 -114.317 482.522C-114.317 482.522 -121.383 473.424 -137.636 460.147C-153.89 446.869 -176.745 429.15 -176.745 429.15C-176.745 429.15 -147.468 431.212 -107.193 430.924C-66.8778 430.67 -24.3659 406.827 -24.3659 406.827M-19.215 394.135C-11.0431 392.259 5.05713 384.575 5.05713 384.575C5.05713 384.575 1.21417 354.696 -0.506438 344.943C-2.1938 335.148 -8.30314 324.796 -2.88361 324.133C2.49527 323.437 4.67373 336.279 6.33509 347.681C7.99645 359.082 14.7477 378.85 14.7477 378.85C14.7477 378.85 27.7408 373.311 38.6618 364.587C49.5496 355.903 52.7159 352.11 52.7159 352.11C52.7159 352.11 39.451 339.984 38.0454 319.561C36.6397 299.138 37.532 278.556 36.9785 271.521C36.425 264.485 38.9454 255.346 41.7082 259.842C44.4711 264.339 43.1494 295.565 44.8805 311.028C46.6043 326.417 60.7182 346.294 60.7182 346.294C60.7182 346.294 79.9587 336.425 89.1989 327.685C98.4316 318.871 96.3522 314.118 96.3522 314.118C96.3522 314.118 86.0858 274.851 91.1305 252.503C96.1752 230.156 95.1275 214.436 98.8482 207.974C102.569 201.512 109.407 198.615 106.469 214.403C103.497 230.232 94.7942 263.03 97.6 282.9C100.398 302.696 104.879 311.31 104.879 311.31C104.879 311.31 119.683 298.496 136.231 278.487C152.813 258.437 156.408 253.705 156.408 253.705C156.408 253.705 156.687 227.736 158.942 212.203C161.197 196.671 160.122 192.264 164.049 193.843C167.976 195.422 165.946 217.314 165.202 228.923C164.533 240.524 166.024 247.987 166.024 247.987C166.024 247.987 188.562 217.328 197.659 204.534C206.796 191.773 209.74 187.256 213.338 188.16C216.937 189.063 199.449 218.349 196.15 223.798C192.817 229.288 191.324 231.53 191.324 231.53C191.324 231.53 214.883 227.903 213.493 234.165C212.103 240.428 184.456 240.103 184.456 240.103C184.456 240.103 172.895 254.753 155.375 274.376C137.855 293.998 131.434 299.951 131.434 299.951C131.434 299.951 141.877 309.228 156.528 309.455C171.213 309.642 179.023 307.131 177.726 311.705C176.428 316.278 157.532 319.506 144.085 316.394C130.639 313.282 122.397 311.097 122.397 311.097C122.397 311.097 98.0054 333.657 89.5819 340.486C81.1584 347.314 71.8225 352.108 71.8225 352.108C71.8225 352.108 103.072 358.971 117.039 359.454C131.007 359.938 135.906 361.903 132.082 364.345C128.258 366.786 98.3086 370.69 85.5785 367.281C72.8078 363.84 61.0679 359.136 61.0679 359.136C61.0679 359.136 39.5879 377.22 23.4877 384.904C7.38747 392.587 -1.88911 395.733 -8.2988 397.691C-14.7085 399.649 -27.5863 396.255 -19.4145 394.379M-198.795 307.773C-198.049 301.799 -192.657 288.15 -192.749 280.135C-192.915 272.127 -216.821 242.757 -227.396 225.431C-237.93 208.138 -245.867 178.376 -240.381 187.336C-234.896 196.296 -213.296 233.963 -205.284 245.055C-197.232 256.18 -190.073 263.589 -190.073 263.589C-190.073 263.589 -184.942 228.281 -180.578 211.825C-176.172 195.402 -186.497 182.828 -193.894 157.714C-201.291 132.6 -201.249 113.971 -198.397 111.143C-195.545 108.315 -194.272 130.394 -190.564 146.589C-186.857 162.784 -174.561 189.863 -174.561 189.863C-174.561 189.863 -160.393 143.409 -152.102 128.532C-143.844 113.696 -143.947 109.675 -143.947 109.675C-143.947 109.675 -152.585 81.851 -150.061 68.6427C-147.537 55.4343 -143.044 51.0958 -143.296 56.0482C-143.58 61.0414 -144.192 80.699 -142.009 89.4723C-139.827 98.2457 -136.691 100.129 -136.691 100.129C-136.691 100.129 -119.051 67.5053 -105.895 54.6344C-92.7052 41.7227 -90.8692 42.5438 -94.228 49.641C-97.6606 56.7458 -126.321 99.7091 -126.321 99.7091C-126.321 99.7091 -116.21 102.675 -105.81 96.5786C-95.4102 90.4824 -76.879 80.9841 -78.1355 85.5908C-79.3587 90.1568 -93.5199 102.682 -103.406 106.076C-113.251 109.503 -130.888 113.76 -130.888 113.76C-130.888 113.76 -155.234 157.329 -162.026 181.236C-168.778 205.176 -172.596 228.593 -172.596 228.593C-172.596 228.593 -154.357 224.014 -142.56 211.729C-130.73 199.404 -111.897 167.89 -107.971 169.469C-104.011 171.008 -122.248 200.631 -131.448 209.405C-140.647 218.179 -165.37 234.428 -169.804 237.118C-174.27 239.849 -179.976 255.21 -181.525 264.735C-183.033 274.295 -183.388 284.931 -183.388 284.931C-183.388 284.931 -162.884 270.529 -148.468 258.687C-134.052 246.845 -127.841 236.92 -126.049 241.03C-124.258 245.14 -147.752 268.095 -159.249 277.027C-170.78 286.001 -184.715 295.181 -184.715 295.181C-184.715 295.181 -189.09 305.927 -191.869 308.748C-194.647 311.568 -199.55 313.672 -198.803 307.699M-87.7163 501.876C-80.934 506.263 -61.973 522.363 -61.973 522.363C-61.973 522.363 -4.54205 520.48 8.84546 525.24C22.2736 530.033 30.2676 533.849 28.1727 536.413C26.1111 538.937 -2.27109 531.633 -23.7826 530.349C-45.3347 529.032 -55.7377 529.492 -55.7377 529.492C-55.7377 529.492 -31.5828 548.274 -20.5565 558.91C-9.4895 569.58 -5.73643 572.781 -5.73643 572.781C-5.73643 572.781 35.0594 569.865 46.8326 574.528C58.5724 579.232 56.6585 582.487 48.6863 582.626C40.6809 582.805 -0.446907 579.41 -0.446907 579.41C-0.446907 579.41 28.9269 610.463 33.2855 616.739C37.6035 622.981 62.0565 614.112 69.5555 618.202C76.9805 622.299 71.8565 623.679 62.787 625.161C53.7507 626.602 36.632 622.594 36.632 622.594C36.632 622.594 46.5203 634.541 49.7669 642.011C52.9802 649.523 56.1903 651.399 56.1903 651.399C56.1903 651.399 77.189 645.681 79.5565 651.076C81.9314 656.545 58.9126 655.862 58.9126 655.862C58.9126 655.862 72.8235 673.334 75.6156 681.859C78.4741 690.302 81.8758 698.578 75.2007 694.143C68.4923 689.749 59.1998 666.209 53.1051 657.498C47.0104 648.786 42.4667 645.889 42.4667 645.889C42.4667 645.889 40.8901 676.431 41.0963 684.473C41.3357 692.473 35.4917 688.514 33.4788 683.679C31.5065 678.879 34.5913 638.777 34.5913 638.777C34.5913 638.777 31.2416 627.285 21.0578 614.623C10.8813 602.034 3.608 594.599 3.608 594.599C3.608 594.599 -4.29531 608.504 -3.33376 637.183C-2.37222 665.863 -1.53469 677.61 -5.67258 681.016C-9.81044 684.423 -10.2755 679.767 -10.2185 662.779C-10.1283 645.75 -10.3138 615.125 -6.75547 606.291C-3.15646 597.489 -3.00783 588.516 -3.00783 588.516C-3.00783 588.516 -8.82166 578.88 -15.7516 573.762C-22.7148 568.685 -29.7925 563.582 -29.7925 563.582C-29.7925 563.582 -39.1853 585.364 -41.019 599.883C-42.8527 614.402 -35.0114 631.26 -37.2062 635.439C-39.4009 639.619 -49.5597 635.053 -49.4995 623.7C-49.4394 612.347 -48.8458 585.413 -44.2159 575.35C-39.5529 565.246 -37.7493 556.403 -37.7493 556.403C-37.7493 556.403 -56.0082 538.366 -63.0121 533.255C-70.0159 528.145 -77.9246 521.073 -77.9246 521.073C-77.9246 521.073 -83.4635 534.738 -80.8306 546.526C-78.1977 558.314 -77.6483 569.418 -82.0516 566.432C-86.4881 563.486 -91.914 552.878 -90.4943 540.939C-89.0746 529 -85.4195 512.915 -85.4195 512.915C-85.4195 512.915 -96.7121 505.59 -100.136 503.064C-103.601 500.505 -114.406 490.593 -110.446 492.131C-106.486 493.67 -94.5059 497.416 -87.7236 501.802" fill="#164180"/>
</svg>
