<svg width="628" height="847" viewBox="0 0 628 847" fill="none" xmlns="http://www.w3.org/2000/svg">
<path opacity="0.4" d="M122.888 263.582C91.2804 275.492 89.0692 282.441 60.6987 301.906C32.3282 321.371 27.1923 333.354 27.1923 333.354C27.1923 333.354 78.8186 325.413 117.752 313.589C156.729 301.753 241.777 250.769 241.777 250.769C241.777 250.769 176.413 299.202 130.506 359.705C107.818 389.584 88.5531 429.354 91.2668 439.166C93.9804 448.978 110.786 429.543 127.968 415.285C145.107 401.039 173.249 380.581 206.484 348.152C239.761 315.711 273.852 259.808 273.852 259.808C273.852 259.808 287.255 262.439 294.894 263.495C302.577 264.539 309.444 274.258 309.444 274.258C309.444 274.258 293.62 281.803 264.102 304.754C234.54 327.717 227.756 341.212 198.591 388.359C169.384 435.517 149.699 474.761 149.699 474.761C149.699 474.761 162.621 468.019 173.977 459.597C185.376 451.163 195.375 437.835 253.745 393.174C312.116 348.512 335.415 283.975 335.415 283.975L353.785 289.457L339.318 301.908C339.318 301.908 323.493 321.072 306.667 347.906C289.798 374.753 282.242 396.911 267.294 449.632C252.26 502.376 259.86 518.231 259.86 518.231C259.86 518.231 273.785 492.198 279.317 477.994C284.891 463.777 298.502 436.776 335.015 397.103C371.528 357.43 372.856 301.128 372.856 301.128C372.856 301.128 392.355 310.523 401.08 315.503C409.848 320.472 409.513 326.902 409.513 326.902C409.513 326.902 389.221 345.189 372.834 369.79C356.446 394.39 354.191 412.97 343.021 460.421C331.881 507.818 325.993 559.089 325.993 559.089C325.993 559.089 332.818 557.201 343.57 542.609C354.322 528.017 383.152 487.3 401.524 443.139C419.938 398.965 431.734 338.666 431.734 338.666C431.734 338.666 440.502 343.635 453.466 348.5C466.387 353.376 472.42 367.551 472.42 367.551C472.42 367.551 466.47 376.59 457.848 387.424C449.225 398.259 437.911 418.288 426.595 449.936C415.322 481.572 412.982 526.581 410.017 546.413C407.052 566.245 397.689 591.337 389.411 601.755C372.209 623.412 382.397 625.876 382.397 625.876C382.397 625.876 394.442 623.601 404.984 612.235C415.569 600.858 431.727 586.883 457.855 536.397C483.972 485.869 499.623 389.694 499.623 389.694C499.623 389.694 505.288 391.25 510.353 394.12C515.363 396.959 522.983 405.414 532.794 414.319C542.69 423.201 550.308 443.275 550.308 443.275L538.909 451.708C538.909 451.708 512.605 474.827 472.782 540.719C432.97 606.654 433.729 685.615 433.729 685.615C433.729 685.615 465.515 644.127 491.661 605.163C517.819 566.241 548.885 514.344 555.732 493.438C562.622 472.521 570.263 461.957 570.263 461.957C570.263 461.957 587.903 476.091 597.756 484.984C607.609 493.878 608.256 500.036 608.256 500.036C608.256 500.036 586.941 506.988 561.013 535.283C535.085 563.579 510.982 606.111 495.615 653.666C480.292 701.21 480.98 718.976 480.98 718.976C480.98 718.976 493.631 711.252 530.583 669.345C567.534 627.439 624.673 525.024 624.673 525.024C624.673 525.024 629.141 525.901 640.685 533.271C652.23 540.64 664.253 569.002 664.253 569.002L652.897 577.424C652.897 577.424 605.821 609.456 559.568 663.395C530.295 697.53 506.664 733.135 495.446 754.01C488.928 766.145 488.525 772.823 488.525 772.823C488.525 772.823 495.033 771.115 504.498 764.824C524.688 751.479 560.248 724.469 588.356 698.739C629.607 660.924 678.011 584.209 678.011 584.209L711.913 626.589C711.913 626.589 704.106 628.748 690.745 637.724C677.384 646.701 630.579 679.714 601.478 707.83C572.293 735.971 545.236 798.378 545.236 798.378C545.236 798.378 596.55 777.849 635.233 746.025C673.917 714.202 723.991 643.362 723.991 643.362C723.991 643.362 725.62 649.249 731.444 655.032C737.268 660.815 757.183 686.994 757.183 686.994C757.183 686.994 745.576 687.036 725.618 698.893C705.66 710.75 685.745 722.595 663.198 747.843C640.652 773.091 603.93 815.99 581.112 840.257C558.295 864.524 641.256 817.286 675.41 791.996C709.563 766.707 767.653 702.1 767.653 702.1L792.307 730.138C792.307 730.138 819.111 747.018 822.377 739.731C825.655 732.487 815.646 726.851 810.698 716.601C805.751 706.351 771.015 668.427 771.015 668.427C771.015 668.427 821.159 670.403 848.422 666.031C875.729 661.648 898.588 648.988 923.66 644.166C935.865 641.801 951.038 634.895 963.419 627.522L956.965 604.187C934.522 607.225 899.146 611.82 848.09 622.818C796.296 633.973 759.533 653.647 759.533 653.647C759.533 653.647 755.972 647.743 750.719 641.205C743.451 632.194 733.794 621.685 733.794 621.685C733.794 621.685 741.372 618.533 746.821 619.138C752.269 619.744 765.525 618.19 781.767 615.811C798.009 613.431 806.401 613.223 829.197 607.974C852.036 602.714 880.886 592.622 898.172 582.56C912.855 574.045 932.432 564.13 944.282 558.327L939.598 541.391C937.547 540.948 935.325 540.552 932.901 540.258C912.13 537.553 872.779 544.211 859.313 548.992C845.89 553.76 839.732 554.407 806.538 560.419C773.388 566.419 724.996 605.152 724.996 605.152C724.996 605.152 707.733 584.577 698.861 575.412C689.989 566.247 693.099 562.218 693.099 562.218C693.099 562.218 722.744 562.469 762.503 553.631C802.251 544.751 826.738 537.978 859.18 521.612C881.908 510.137 909.406 493.164 923.753 484.099L919.989 470.49C917.037 470.112 913.578 470.059 909.493 470.729C891.289 473.652 854.38 477.522 788.954 496.673C723.571 515.812 674.971 546.153 674.971 546.153L638.835 503.335C638.835 503.335 659.273 500.852 676.287 501.427C693.343 501.991 721.693 489.926 772.525 471.642C823.4 453.347 890.643 417.85 898.721 416.672C906.842 415.482 902.27 410.409 897.927 406.329C893.67 402.225 870.894 400.075 836.657 402.15C802.421 404.225 749.751 419.848 693.803 442.715C637.897 465.57 625.287 484.901 625.287 484.901C625.287 484.901 620.401 478.859 614.077 471.102C607.71 463.357 593.828 451.353 593.828 451.353C593.828 451.353 626.478 443.379 655.162 436.502C683.888 429.614 728.312 391.978 746.203 376.467C764.094 360.957 772.237 340.749 785.18 326.607C798.122 312.465 795.556 306.838 790.817 304.98C786.078 303.121 771.401 318.799 756.288 325.092C741.174 331.384 725.642 332.511 702.302 347.416C679.004 362.309 645.185 381.169 621.135 397.326C597.085 413.484 574.894 424.902 568.778 425.538C562.619 426.185 543.414 398.753 543.414 398.753C543.414 398.753 581.533 383.985 601.93 369.895C622.326 355.804 666.688 325.579 707.241 289.059C747.783 252.497 755.654 231.308 747.867 226.068C740.081 220.828 692.108 226.702 627.454 275.214C562.758 323.737 527.372 378.942 527.372 378.942L492.406 351.645C492.406 351.645 494.974 345.653 516.309 331.303C537.687 316.94 592.57 282.749 629.25 239.862C665.93 196.974 689.311 155.651 683.758 150.85C678.205 146.048 643.238 168.394 568.877 223.816C494.516 279.237 474.766 337.511 474.766 337.511L445.29 322.426C445.29 322.426 490.215 275.145 503.744 262.954C517.229 250.775 528.649 223.323 545.371 192.292C562.136 161.25 578.316 116.638 581.175 104.228C584.12 91.7955 567.043 110.25 560.55 117.326C554.057 124.403 541.553 136.311 517.879 157.646C494.247 178.969 474.999 189.574 452.933 224.195C430.824 258.828 425.404 307.811 425.404 307.811C425.404 307.811 408.411 299.836 405.259 292.258C402.107 284.68 409.205 272.155 417.995 258.105C426.741 244.068 437.827 223.046 449.143 191.398C460.459 159.75 480.742 84.4747 488.509 59.0896C496.275 33.7044 484.167 43.3907 469.804 60.0377C455.442 76.6847 434.857 113.009 412.882 163.402C390.961 213.826 390.376 249.9 390.021 263.729C389.582 277.582 384.927 287.319 384.927 287.319L365.7 278.906C365.7 278.906 380.001 220.026 387.551 155.666C395.046 91.2757 378.702 39.8158 375.947 18.3968C373.192 -3.0221 378.662 -21.4347 370.541 -20.2449C362.377 -19.0434 351.001 -3.22228 335.58 82.3267C320.202 167.864 343.142 266.086 343.142 266.086L331.326 257.736C331.326 257.736 320.932 197.237 309.159 150.85C297.386 104.463 266.294 45.5088 253.184 24.8412C240.074 4.17353 241.39 -2.52766 234.48 -12.2352C227.57 -21.9427 223.354 -14.4392 222.497 20.6535C221.64 55.7461 225.251 91.7157 252.752 145.325C280.266 198.977 301.369 244.896 301.369 244.896L276.904 232.65C276.904 232.65 270.161 219.728 259.889 205.669C249.703 191.587 226.594 146.222 210.165 121.192C193.736 96.1607 154.607 49.9919 138.658 34.3345C122.752 18.6653 117.156 13.8754 115.612 19.5836C114.025 25.3037 117.365 60.2921 136.883 100.312C156.401 140.332 194.478 163.6 214.894 180.135C235.311 196.669 252.011 222.681 252.011 222.681L237.085 218.359C237.085 218.359 222.117 202.431 186.608 173.171C151.099 143.911 98.9717 123.472 78.8181 115.361C58.6101 107.218 38.4448 99.0645 45.0832 107.791C51.7216 116.517 78.8796 157.593 109.212 175.61C139.502 193.638 220.125 229.433 220.125 229.433L212.275 231.604L176.265 211.989C176.265 211.989 164.282 206.853 147.979 205.025C131.633 203.208 80.9875 210.878 56.3961 213.454C31.762 216.042 -24.2478 234.701 13.6833 242.167C51.6571 249.62 204.844 238.941 204.844 238.941C204.844 238.941 177.874 243.047 123.052 263.674" fill="#174A94"/>
</svg>
