<svg width="519" height="1007" viewBox="0 0 519 1007" fill="none" xmlns="http://www.w3.org/2000/svg">
<path opacity="0.5" d="M-570.138 691.932C-606.882 697.334 -630.274 725.186 -630.274 725.186C-630.274 725.186 -625.554 751.03 -566.795 765.094C-507.966 779.203 -491.884 728.945 -491.884 728.945C-491.884 728.945 -463.951 722.316 -434.044 723.318C-412.197 724.063 -364.755 747.25 -303.452 738.352C-242.149 729.453 -219.526 685.043 -219.526 685.043C-219.526 685.043 -207.521 686.94 -175.358 699.573C-143.196 712.205 -102.007 738.74 -102.007 738.74C-102.007 738.74 -96.3246 746.391 -93.0499 775.719C-89.7057 805.092 -97.519 927.547 -103.154 964.991C-108.79 1002.43 -100.451 1005.32 -87.0956 1006.02C-73.7846 1006.79 -78.2295 977.305 -78.2295 977.305C-78.2295 977.305 -69.2715 901.135 -66.6363 828.269C-63.9317 755.447 -79.8985 666.963 -79.8985 666.963C-79.8985 666.963 -71.399 666.227 -54.2859 664.729C-37.1729 663.231 10.7746 653.629 57.003 630.486C103.187 607.413 154.915 573.68 154.915 573.68C154.915 573.68 193.549 594.565 234.572 606.202C288.526 621.503 346.625 616.238 346.625 616.238C346.625 616.238 365.272 636.685 385.404 642.408C402.154 647.143 431.143 638.251 447.477 629.397C463.741 620.499 503.006 614.063 503.006 614.063C503.006 614.063 478.608 570.15 428.761 570.014C378.889 569.764 350.758 595.075 350.758 595.075C350.758 595.075 340.839 599.41 310.326 600.274C279.927 601.114 252.139 589.908 252.139 589.908C252.139 589.908 270.156 568.317 311.368 547.354C352.649 526.436 376.602 519.907 376.602 519.907C376.602 519.907 408.764 532.539 445.739 523.561C482.713 514.583 518.199 465.37 518.199 465.37C518.199 465.37 481.752 442.748 442.6 446.709C403.449 450.67 377.242 501.605 377.242 501.605C377.242 501.605 367.842 505.586 320.604 524.949C273.367 544.311 236.057 584.129 226.434 581.111C222.267 579.818 210.713 577.523 199.127 572.367C184.034 565.655 168.79 555.809 168.79 555.809C168.79 555.809 174.388 549.199 185.91 538.836C197.433 528.473 273.565 451.372 273.565 451.372C273.565 451.372 305.56 462.428 343.727 452.351C381.938 442.205 426.633 402.015 426.633 402.015C426.633 402.015 413.96 391.364 392.269 386.701C361.363 380.065 333.463 383.58 333.463 383.58C333.463 383.58 342.361 362.623 343.927 348.538C345.834 331.928 343.798 313.678 343.798 313.678C343.798 313.678 290.764 350.984 274.865 375.693C258.967 400.401 260.661 436.948 260.661 436.948L244.064 452.491C244.064 452.491 213.843 485.969 156.389 537.69C98.935 589.411 66.0299 598.15 66.0299 598.15C66.0299 598.15 71.8328 592.75 87.9448 563.574C105.983 530.927 113.47 504.366 123.526 475.627C132.148 450.968 140.279 437.946 140.279 437.946C140.279 437.946 176.361 421.638 192.947 407.949C209.464 394.216 218.879 332.642 218.879 332.642L193.061 338.565C193.061 338.565 151.093 350.913 136.545 371.979C122.066 393.089 126.713 412.617 123.62 424.648C120.573 436.61 106.412 469.778 90.7659 512.771C75.1195 555.764 36.4323 607.535 36.4323 607.535C36.4323 607.535 28.7119 615.627 6.39923 624.184C-15.9829 632.697 -84.4097 641.253 -84.4097 641.253C-84.4097 641.253 -94.813 618.632 -95.8886 544.372C-96.9554 474.233 -76.3653 397.175 -76.3653 397.175C-76.3653 397.175 -59.424 401.151 -5.99247 392.313C57.4783 381.862 105.941 330.268 105.941 330.268C105.941 330.268 140.918 330.691 169.37 321.26C197.823 311.829 203.256 284.347 203.256 284.347C203.256 284.347 194.247 276.234 181.491 270.918C156.581 260.572 135.464 279.201 135.464 279.201C135.464 279.201 147.99 264.973 147.406 237.561C147.132 222.985 134.395 207.689 134.395 207.689C134.395 207.689 109.356 220.968 95.4954 253.054C81.6349 285.14 88.9018 322.311 88.9018 322.311C88.9018 322.311 75.0507 337.847 59.3758 348.885C35.9745 365.269 12.6386 370.527 12.6386 370.527C12.6386 370.527 12.3587 353.204 14.2834 339.936C21.7767 288.105 29.1698 261.386 29.1698 261.386C29.1698 261.386 54.5113 245.949 60.4904 225.575C66.4696 205.201 64.7758 145.535 64.7758 145.535C64.7758 145.535 33.8497 154.854 14.7202 193.954C-4.40932 233.055 15.0412 256.073 15.0412 256.073C15.0412 256.073 9.43191 277.859 5.42114 303.116C0.516096 334.365 -5.78359 371.776 -5.78359 371.776C-5.78359 371.776 -9.63272 375.192 -27.9825 377.859C-46.4018 380.481 -71.6232 375.52 -71.6232 375.52C-71.6232 375.52 -43.7192 308.919 -33.4111 275.345C-23.1475 241.841 -15.0461 135.93 -15.0461 135.93C-15.0461 135.93 17.4471 96.754 24.9404 70.491C32.4087 44.114 14.0593 0.541404 14.0593 0.541404L-16.9362 35.3847C-16.9362 35.3847 -27.291 23.8647 -34.3235 19.8574C-41.356 15.8501 -55.3992 4.1267 -55.3992 4.1267C-55.3992 4.1267 -60.782 13.6159 -64.035 29.2672C-67.288 44.9186 -65.9599 65.6548 -65.9599 65.6548L-112.853 55.8479C-112.853 55.8479 -113.289 86.2322 -97.7571 115.072C-82.2945 143.867 -36.8899 136.558 -36.8899 136.558C-36.8899 136.558 -37.5999 149.917 -40.2127 198.404C-42.8256 246.891 -55.9982 289.996 -60.2359 299.532C-64.3595 309.043 -72.7349 326.121 -74.6727 321.649C-84.8455 297.902 -93.8873 246.664 -93.8873 246.664C-93.8873 246.664 -86.1666 215.452 -91.3215 199.322C-96.5209 183.262 -132.441 149.712 -132.441 149.712C-132.441 149.712 -153.517 180.22 -153.792 206.985C-153.997 233.793 -112.34 249.951 -112.34 249.951C-112.34 249.951 -109.581 267.683 -103.646 293.618C-97.737 319.439 -84.4955 345.736 -84.4955 345.736L-89.5512 371.403C-89.5512 371.403 -111.757 367.391 -145.017 335.346C-174.313 307.207 -199.185 219.788 -199.185 219.788C-199.185 219.788 -196.931 219.172 -186.667 208.787C-176.404 198.402 -171.295 171.888 -172.624 151.152C-173.952 130.416 -191.705 99.0781 -191.705 99.0781C-191.705 99.0781 -196.949 103.758 -202.799 110.303C-209.589 118.011 -217.073 127.724 -217.073 127.724C-217.073 127.724 -223.305 120.016 -231.047 113.595C-237.626 108.114 -267.988 91.4415 -267.988 91.4415C-267.988 91.4415 -272.565 104.875 -270.564 124.866C-268.761 142.869 -260.59 157.498 -260.59 157.498C-260.59 157.498 -285.424 143.969 -307.323 144.072C-329.178 144.105 -355.775 163.343 -355.775 163.343C-355.775 163.343 -330.21 185.374 -307.188 209.696C-284.166 234.019 -256.432 231.377 -235.164 228.128C-225.169 226.584 -220.959 225.359 -220.959 225.359C-220.959 225.359 -207.071 266.568 -197.329 285.631C-185.189 309.363 -166.724 339.588 -166.724 339.588C-166.724 339.588 -183.682 339.618 -194.83 339.444C-242.606 338.673 -284.202 330.687 -284.202 330.687C-284.202 330.687 -288.737 317.109 -300.259 304.353C-311.737 291.527 -326.911 284.174 -354.859 283.936C-382.806 283.698 -403.516 306.897 -403.516 306.897C-403.516 306.897 -397.537 309.643 -385.763 315.115C-373.919 320.632 -367.372 334.125 -348.217 348.726C-326.832 365.046 -296.08 344.056 -296.08 344.056C-296.08 344.056 -266.517 351.107 -253.264 352.431C-223.298 355.331 -200.273 357.908 -190.606 358.408C-180.869 358.952 -159.996 356.626 -150.603 363.22C-141.211 369.814 -100.466 394.596 -100.466 394.596C-100.466 394.596 -116.088 481.493 -119.228 540.909C-122.368 600.325 -100.148 706.131 -100.148 706.131C-100.148 706.131 -131.664 690.19 -168.66 677.308C-205.656 664.426 -271.432 635 -271.432 635C-271.432 635 -275.716 578.772 -274.571 558.148C-272.651 521.463 -245.752 497.618 -245.752 497.618C-245.752 497.618 -239.751 499.104 -223.713 495.155C-207.701 491.092 -186.991 467.892 -180.921 446.304C-174.894 424.785 -167.313 395.933 -167.313 395.933C-167.313 395.933 -222.293 401.528 -241.949 428.438C-261.649 455.417 -252.143 482.657 -252.143 482.657C-252.143 482.657 -264.239 491.772 -276.174 510.59C-288.179 529.363 -296.22 556.941 -296.22 556.941C-296.22 556.941 -308.633 533.329 -319.517 515.593C-336.255 488.333 -368.104 469.24 -368.104 469.24C-368.104 469.24 -362.583 434.271 -378.985 399.29C-395.319 364.354 -442.304 355.762 -442.304 355.762C-442.304 355.762 -445.191 410.344 -432.224 440.286C-419.213 470.159 -383.04 475.755 -383.04 475.755C-383.04 475.755 -364.964 488.98 -355.093 499.113C-335.957 518.795 -320.845 541.096 -307.673 567.349C-294.501 593.602 -296.06 622.68 -296.06 622.68C-296.06 622.68 -347.498 587.827 -398.643 562.468C-470.51 526.797 -479.393 503.483 -479.393 503.483C-479.393 503.483 -470.253 468.673 -482.967 433.896C-495.726 399.188 -567.888 385.566 -567.888 385.566C-567.888 385.566 -564.787 426.343 -550.309 474.591C-535.9 522.795 -497.904 509.769 -497.904 509.769C-497.904 509.769 -488.672 519.983 -477.264 532.764C-465.786 545.59 -406.752 579.129 -396.122 584.555C-385.493 589.981 -377.36 596.553 -386.042 599.72C-394.725 602.886 -420.748 612.499 -473.92 605.927C-527.067 599.469 -595.815 566.575 -595.815 566.575C-595.815 566.575 -586.422 526.93 -599.434 497.058C-612.445 467.185 -650.908 435.927 -650.908 435.927C-650.908 435.927 -667.516 450.875 -660.897 486.457C-654.323 522.108 -638.127 538.734 -638.127 538.734C-638.127 538.734 -673.795 523.468 -696.108 532.025C-718.926 540.455 -738.605 566.175 -738.605 566.175C-738.605 566.175 -747.379 570.557 -710.863 593.222C-674.346 615.888 -611.693 580.227 -611.693 580.227C-611.693 580.227 -605.714 582.973 -579.53 592.86C-553.277 602.79 -519.241 617.699 -458.378 625.564C-422.178 630.199 -357.96 611.996 -357.96 611.996C-357.96 611.996 -327.042 626.575 -308.935 640.211C-286.906 656.748 -240.968 676.622 -240.968 676.622C-240.968 676.622 -264.539 713.176 -303.804 719.611C-343.069 726.047 -387.65 712.624 -421.393 707.21C-455.137 701.796 -498.32 714.053 -498.32 714.053C-498.32 714.053 -533.369 686.643 -570.138 691.932Z" fill="#174A94"/>
</svg>
