<svg width="708" height="991" viewBox="0 0 708 991" fill="none" xmlns="http://www.w3.org/2000/svg">
<path opacity="0.5" d="M199.514 835.952C166.123 852.211 152.246 885.832 152.246 885.832C152.246 885.832 164.559 909.039 224.82 904.68C285.162 900.342 285.296 847.573 285.296 847.573C285.296 847.573 309.918 832.81 338.728 824.722C359.778 818.828 412.011 826.586 467.754 799.57C523.498 772.553 531.635 723.382 531.635 723.382C531.635 723.382 543.651 721.561 578.128 723.878C612.605 726.195 659.889 739.035 659.889 739.035C659.889 739.035 667.618 744.61 679.607 771.575C691.675 798.562 721.25 917.649 727.199 955.044C733.148 992.439 741.969 992.666 754.912 989.299C767.833 986.011 754.681 959.246 754.681 959.246C754.681 959.246 740.19 883.933 720.672 813.68C701.233 743.449 659.261 663.933 659.261 663.933C659.261 663.933 667.141 660.661 683 654.06C698.859 647.458 741.66 623.809 778.727 587.772C815.774 551.816 854.882 504.022 854.882 504.022C854.882 504.022 898.023 512.249 940.644 510.939C996.7 509.211 1050.49 486.627 1050.49 486.627C1050.49 486.627 1074.44 500.479 1095.36 499.848C1112.76 499.297 1137.71 482.057 1150.6 468.679C1163.41 455.28 1198.89 437.274 1198.89 437.274C1198.89 437.274 1162.36 402.792 1114.8 417.733C1067.19 432.574 1048.03 465.205 1048.03 465.205C1048.03 465.205 1039.88 472.336 1011.06 482.385C982.338 492.376 952.463 490.096 952.463 490.096C952.463 490.096 963.109 464.068 996.054 431.627C1029.08 399.206 1049.94 385.741 1049.94 385.741C1049.94 385.741 1084.41 388.058 1116.94 368.322C1149.47 348.585 1168.42 290.946 1168.42 290.946C1168.42 290.946 1126.84 280.403 1090.72 296.015C1054.59 311.628 1045.01 368.102 1045.01 368.102C1045.01 368.102 1037.26 374.739 998.084 407.477C958.911 440.215 935.386 489.45 925.301 489.482C920.938 489.509 909.231 490.815 896.629 489.404C880.213 487.569 862.705 482.792 862.705 482.792C862.705 482.792 866.042 474.8 873.893 461.438C881.743 448.076 931.001 351.565 931.001 351.565C931.001 351.565 964.842 352.43 998.176 331.286C1031.53 310.062 1061.98 258.24 1061.98 258.24C1061.98 258.24 1046.68 251.919 1024.6 254.033C993.131 257.051 967.6 268.836 967.6 268.836C967.6 268.836 969.745 246.171 966.979 232.271C963.776 215.862 956.317 199.082 956.317 199.082C956.317 199.082 917.044 250.676 909.36 279.035C901.676 307.394 914.34 341.718 914.34 341.718L903.219 361.552C903.219 361.552 884.535 402.599 845.407 469.271C806.279 535.942 777.556 554.221 777.556 554.221C777.556 554.221 781.454 547.319 787.991 514.637C795.314 478.064 794.421 450.483 795.318 420.049C796.081 393.936 799.894 379.066 799.894 379.066C799.894 379.066 829.356 352.612 841.028 334.549C852.62 316.465 842.978 254.925 842.978 254.925L820.159 268.378C820.159 268.378 783.888 292.836 776.39 317.315C768.971 341.814 779.304 359.023 779.994 371.427C780.706 383.75 777.236 419.647 775.32 465.358C773.405 511.07 752.18 572.115 752.18 572.115C752.18 572.115 747.268 582.162 728.587 597.065C709.826 611.947 647.188 640.79 647.188 640.79C647.188 640.79 630.432 622.373 606.956 551.914C584.733 485.38 581.062 405.702 581.062 405.702C581.062 405.702 598.412 404.37 646.671 379.792C704.012 350.64 734.608 286.809 734.608 286.809C734.608 286.809 768.075 276.637 792.345 259.045C816.614 241.453 813.485 213.614 813.485 213.614C813.485 213.614 802.444 208.605 788.678 207.395C761.805 205.064 747.31 229.206 747.31 229.206C747.31 229.206 754.947 211.856 746.103 185.904C741.435 172.093 724.669 161.363 724.669 161.363C724.669 161.363 704.817 181.592 701.306 216.366C697.795 251.141 715.96 284.376 715.96 284.376C715.96 284.376 707.454 303.372 695.85 318.633C678.498 341.326 657.844 353.393 657.844 353.393C657.844 353.393 652.339 336.965 650.163 323.736C641.634 272.065 640.603 244.361 640.603 244.361C640.603 244.361 660.092 221.985 659.631 200.757C659.171 179.529 639.517 123.167 639.517 123.167C639.517 123.167 612.856 141.4 606.443 184.454C600.03 227.508 625.53 243.569 625.53 243.569C625.53 243.569 626.77 266.031 630.583 291.319C635.355 322.588 640.661 360.153 640.661 360.153C640.661 360.153 638.025 364.573 621.34 372.662C604.576 380.731 579.035 383.628 579.035 383.628C579.035 383.628 585.497 311.706 585.172 276.588C584.825 241.548 560.527 138.144 560.527 138.144C560.527 138.144 579.655 90.9781 578.857 63.6787C578.001 36.2782 547.337 0.292497 547.337 0.292497L528.326 42.8763C528.326 42.8763 514.973 35.0261 507.058 33.3326C499.143 31.639 482.213 24.71 482.213 24.71C482.213 24.71 479.951 35.3826 481.582 51.285C483.213 67.1874 490.749 86.5515 490.749 86.5515L443.085 91.3813C443.085 91.3813 451.856 120.475 475.38 143.27C498.825 166.042 539.895 145.347 539.895 145.347C539.895 145.347 543.257 158.296 555.426 205.303C567.595 252.311 568.071 297.382 566.915 307.753C565.86 318.065 563.04 336.876 559.841 333.199C542.964 313.639 518.854 267.533 518.854 267.533C518.854 267.533 516.777 235.448 506.987 221.631C497.175 207.895 452.793 186.774 452.793 186.774C452.793 186.774 441.927 222.227 449.757 247.822C457.666 273.439 502.259 276.245 502.259 276.245C502.259 276.245 510.25 292.313 523.748 315.24C537.188 338.066 557.76 359.129 557.76 359.129L560.701 385.123C560.701 385.123 538.322 388.013 496.93 367.523C460.497 349.559 410.359 273.75 410.359 273.75C410.359 273.75 412.321 272.482 418.965 259.48C425.608 246.478 422.461 219.66 414.926 200.296C407.391 180.932 380.994 156.428 380.994 156.428C380.994 156.428 377.409 162.474 373.812 170.482C369.671 179.882 365.474 191.403 365.474 191.403C365.474 191.403 357.202 185.94 347.882 182.161C339.953 178.926 305.971 172.213 305.971 172.213C305.971 172.213 305.671 186.401 313.622 204.851C320.784 221.467 332.995 232.941 332.995 232.941C332.995 232.941 305.233 227.553 284.39 234.272C263.568 240.911 244.031 267.291 244.031 267.291C244.031 267.291 275.061 280.561 304.359 296.785C333.658 313.009 359.295 302.106 378.585 292.578C387.645 288.085 391.288 285.643 391.288 285.643C391.288 285.643 416.986 320.725 432.035 335.951C450.782 354.902 477.521 378.13 477.521 378.13C477.521 378.13 461.366 383.285 450.687 386.49C404.913 400.2 362.85 405.164 362.85 405.164C362.85 405.164 354.422 393.592 339.582 384.916C324.764 376.161 308.077 373.74 281.365 381.963C254.654 390.185 241.927 418.56 241.927 418.56C241.927 418.56 248.456 419.37 261.334 421.026C274.292 422.704 284.612 433.586 307.285 441.712C332.602 450.803 355.57 421.498 355.57 421.498C355.57 421.498 385.881 419.281 398.914 416.536C428.354 410.241 451.081 405.735 460.447 403.289C469.892 400.864 489.086 392.336 500.032 395.782C510.979 399.228 557.309 410.531 557.309 410.531C557.309 410.531 568.69 498.085 583.661 555.669C598.632 613.254 651.802 707.39 651.802 707.39C651.802 707.39 616.941 701.724 577.782 700.63C538.622 699.536 467.027 691.374 467.027 691.374C467.027 691.374 445.944 639.073 440.801 619.068C431.539 583.519 449.97 552.657 449.97 552.657C449.97 552.657 456.14 552.26 470.233 543.646C484.267 534.932 496.994 506.557 496.253 484.143C495.491 461.809 493.995 432.016 493.995 432.016C493.995 432.016 443.28 453.971 432.68 485.565C422.058 517.238 439.355 540.328 439.355 540.328C439.355 540.328 430.581 552.674 424.893 574.22C419.126 595.744 419.8 624.463 419.8 624.463C419.8 624.463 400.829 605.709 385.092 592.093C360.896 571.17 324.764 562.599 324.764 562.599C324.764 562.599 319.455 527.597 293.244 499.213C267.112 470.85 219.728 476.866 219.728 476.866C219.728 476.866 233.478 529.766 254.891 554.386C276.325 578.927 312.497 573.325 312.497 573.325C312.497 573.325 333.725 580.466 346.198 587.14C370.389 600.116 391.536 616.804 412.029 637.846C432.522 658.888 439.828 687.077 439.828 687.077C439.828 687.077 380.26 669.407 323.841 660.697C244.552 648.424 229.036 628.886 229.036 628.886C229.036 628.886 227.225 592.942 204.591 563.636C181.936 534.411 109.032 543.244 109.032 543.244C109.032 543.244 124.317 581.175 152.704 622.788C181.013 664.38 213.293 640.475 213.293 640.475C213.293 640.475 225.181 647.42 239.919 656.154C254.738 664.909 321.149 679.03 332.921 680.988C344.694 682.946 354.434 686.752 347.115 692.396C339.796 698.039 317.897 715.07 265.226 724.882C212.614 734.794 137.138 724.225 137.138 724.225C137.138 724.225 134.105 683.596 112.671 659.055C91.2373 634.514 45.1238 616.348 45.1238 616.348C45.1238 616.348 33.812 635.618 50.879 667.533C67.9247 699.528 88.3886 710.479 88.3886 710.479C88.3886 710.479 49.7746 706.712 31.0933 721.615C11.8914 736.549 0.909967 767.015 0.909967 767.015C0.909967 767.015 -6.12903 773.844 35.5312 784.409C77.1914 794.973 126.131 742.039 126.131 742.039C126.131 742.039 132.66 742.848 160.608 744.356C188.635 745.885 225.586 749.804 285.978 738.901C321.886 732.373 377.594 695.607 377.594 695.607C377.594 695.607 411.473 700.156 432.855 707.68C458.853 716.782 508.65 721.837 508.65 721.837C508.65 721.837 497.234 763.807 461.752 781.813C426.271 799.818 379.718 800.503 345.917 805.544C312.116 810.585 274.659 835.324 274.659 835.324C274.659 835.324 232.963 819.794 199.514 835.952Z" fill="#174A94"/>
</svg>
