<svg width="33" height="19" viewBox="0 0 33 19" fill="none" xmlns="http://www.w3.org/2000/svg">
<path fill-rule="evenodd" clip-rule="evenodd" d="M28.1133 11.7093C29.1742 12.7632 30.294 13.7548 31.2456 14.9149C31.666 15.4305 32.0639 15.9625 32.3684 16.5608C32.7998 17.4113 32.4091 18.3473 31.6595 18.3981L26.9999 18.3959C25.7981 18.4974 24.8393 18.0051 24.0332 17.1692C23.3881 16.5006 22.7907 15.7891 22.1703 15.098C21.916 14.8155 21.6498 14.5497 21.3318 14.3396C20.6957 13.9195 20.1436 14.0482 19.7801 14.7231C19.4099 15.4096 19.3259 16.1698 19.2895 16.9349C19.2396 18.0512 18.908 18.3447 17.8058 18.3958C15.4503 18.5088 13.2149 18.1463 11.1383 16.9374C9.30742 15.8716 7.88768 14.3671 6.65195 12.6638C4.24596 9.34712 2.40345 5.70263 0.747471 1.95605C0.374723 1.11194 0.647322 0.658823 1.56274 0.642785C3.08284 0.612742 4.60273 0.61488 6.12462 0.640647C6.74243 0.649842 7.15144 1.01037 7.38999 1.60418C8.21241 3.66159 9.21873 5.61902 10.4819 7.43341C10.8183 7.91646 11.1613 8.39951 11.6497 8.73951C12.1901 9.11596 12.6015 8.99119 12.8557 8.37877C13.017 7.99045 13.0877 7.57219 13.124 7.15628C13.2444 5.72541 13.2603 4.297 13.0491 2.87115C12.9194 1.98128 12.4268 1.40521 11.554 1.23682C11.1086 1.15096 11.1749 0.982354 11.3906 0.723722C11.7651 0.277664 12.1174 0 12.8196 0H18.0856C18.9147 0.16647 19.0988 0.545384 19.2123 1.39409L19.2168 7.34541C19.2078 7.67397 19.3781 8.64895 19.9598 8.86642C20.4253 9.02123 20.7322 8.64232 21.0115 8.34199C22.2724 6.98051 23.1722 5.37151 23.9761 3.70542C24.3329 2.97283 24.6397 2.21201 24.937 1.45183C25.1572 0.887732 25.5029 0.610175 26.1274 0.622471L31.1957 0.627068C31.346 0.627068 31.498 0.629314 31.6436 0.654653C32.4976 0.802733 32.7317 1.17652 32.4679 2.02501C32.0523 3.35623 31.2436 4.4656 30.4529 5.58011C29.6077 6.76999 28.7038 7.91913 27.8656 9.11607C27.0955 10.2091 27.1566 10.76 28.1133 11.7093Z" fill="#174A94"/>
</svg>
