<svg width="189" height="181" viewBox="0 0 189 181" fill="none" xmlns="http://www.w3.org/2000/svg">
<g filter="url(#filter0_b_285_28408)">
<path d="M41.5 2.32716C35.9 4.92715 33 8.42715 33 12.6272C33 14.1272 32.3 16.2272 31.6 17.2272C30.3 18.9272 30.1 18.6272 28.6 14.1272C27.7 11.4272 26 8.32716 25 7.42715C23.1 5.72716 23 5.72716 21 10.0272C18.2 16.3272 18.4 21.4272 21.6 24.6272C24.2 27.2272 24.2 27.2272 22.5 30.8272C20.9 34.2272 20.8 34.3272 19.4 32.4272C17.3 29.4272 11.8 23.9272 11 23.9272C10.1 23.9272 9 29.0272 9 33.3272C9 37.2272 12.2 42.5272 15 43.4272C16.4 43.8272 16.9 44.6272 16.6 45.6272C16.3 46.4272 16 47.6272 16 48.2272C16 48.9272 15.6 50.0272 15.1 50.7272C14.5 51.8272 13.7 51.5272 11.8 49.6272C10.4 48.2272 7.9 46.4272 6.1 45.5272L3 43.8272V48.6272C3 55.2272 5.6 60.1272 9.8 61.4272C12.8 62.2272 13 62.6272 13 66.6272C13 69.0272 12.8 70.9272 12.5 70.9272C12.2 70.9272 9.3 69.5272 6 67.9272L0 64.9272V67.5272C0 73.8272 7.1 82.5272 11.6 81.6272C13.5 81.3272 14.1 81.9272 15.3 85.6272C16.9 90.4272 16.9 90.4272 13.2 88.5272C10.8 87.3272 6 86.5272 2.2 86.8272C0.2 87.0272 4.8 94.7271 8.7 97.6272C11 99.4272 12.9 100.027 15.5 99.8272C18.6 99.5272 19.3 99.9272 21 102.727C22.1 104.527 23 106.027 23 106.227C23 106.327 19.9 106.427 16.1 106.427C12.3 106.427 8.8 106.827 8.3 107.227C7.9 107.727 9.9 110.327 12.9 113.127C17.7 117.527 18.7 118.027 21.9 117.727C23.9 117.427 26.2 116.927 27 116.627C28 116.127 29.2 117.027 30.7 119.327L32.9 122.727L29 123.327C26.9 123.627 23.9 124.427 22.4 124.927C19.8 125.927 19.8 126.027 21.6 128.127C25.7 132.627 35.6 134.527 39.1 131.327C40.7 129.827 41.1 129.927 43.6 132.327C45.2 133.727 46.2 135.027 46 135.127C45.7 135.327 43.3 136.727 40.5 138.127C37.8 139.627 35.4 141.227 35.2 141.727C34.7 143.327 41.3 145.427 46.8 145.427C51.1 145.427 52.5 145.027 54 143.227C55.7 141.127 55.8 141.127 59.4 142.727C63.4 144.527 63.9 145.527 61.2 146.327C58.7 147.127 52.5 153.727 53.3 154.627C53.7 155.027 56.7 155.527 59.9 155.727C66.7 156.227 71.6 154.227 72.6 150.527L73.2 148.227L80.7 150.527C84.9 151.827 88.4 153.027 88.6 153.227C88.9 153.427 86.6 155.227 83.6 157.227C77.2 161.427 74 167.127 74 174.227C74 182.627 79.2 181.627 80.4 173.127C81.4 165.427 89 155.927 94.3 155.927C95.2 155.927 98 157.727 100.4 160.027C104.8 164.027 108 170.627 108 175.527C108 178.127 110.4 180.327 112.5 179.527C114.7 178.727 114.5 169.327 112.1 164.927C110.5 161.827 105.7 157.427 100.4 154.327C98.8 153.327 99.6 152.827 106.5 150.727L114.5 148.227L116.3 151.127C117.2 152.727 119.2 154.427 120.8 155.027C123.6 156.127 133.5 155.827 134.7 154.527C135.6 153.727 128 145.927 126.3 145.927C123.9 145.927 124.9 144.327 128.3 142.727C131.4 141.227 131.7 141.227 134.3 143.527C137.4 146.227 140.8 146.527 147.5 144.827C154.7 143.027 154.8 141.627 148 138.427C144.7 136.827 142 135.227 142 134.927C142 134.627 143.4 133.227 145.1 132.027C147.3 130.427 148.5 130.027 148.9 130.827C150.3 133.027 155.5 133.727 159.5 132.327C163.9 130.827 168.4 127.827 168.2 126.427C168.2 125.827 165.4 124.827 162.1 124.027C158.7 123.227 156 122.327 156 122.027C156.1 121.727 157.2 120.127 158.5 118.427C160.4 116.127 161.2 115.727 162.2 116.727C162.8 117.327 164.9 117.927 166.8 117.927C169.5 117.927 171.2 116.927 175.3 113.027C178.2 110.327 180.1 107.727 179.7 107.227C179.2 106.827 175.7 106.427 171.9 106.427C168.1 106.427 165 106.327 165 106.227C165 106.127 165.7 104.427 166.7 102.527C168.3 99.1272 168.5 99.0272 172.5 99.6272C176.2 100.127 177.1 99.8272 180.4 96.9272C184.3 93.4272 187.4 88.4272 186.6 87.0272C185.9 86.0272 176.9 87.4272 173.9 88.9272C171.9 90.0272 171.8 89.9272 172.4 88.3272C172.8 87.2271 173.4 85.2271 173.7 83.6272C174.1 81.5272 174.7 81.0272 176.1 81.4272C178.9 82.3272 183.8 79.2272 185.9 75.1272C187.9 71.1272 189.5 64.9272 188.6 64.9272C188.2 64.9272 185.3 66.2272 182 67.9272C178.7 69.5272 175.8 70.9272 175.5 70.9272C175.2 70.9272 175 69.1272 175 66.9272C175 63.9272 175.5 62.7272 176.8 62.3272C179.9 61.3272 181.4 60.3272 183.3 57.8272C185.2 55.1272 186.9 43.9272 185.4 43.9272C184.1 43.9272 180.1 46.7272 176.4 50.1272C172.9 53.3272 172.6 53.2272 171.6 47.7272C171 44.6272 171.2 44.0272 173 43.4272C176.4 42.3272 179 37.0272 179 31.4272C179 24.1272 177.9 23.1272 174.2 26.9272C172.4 28.6272 170.4 31.0272 169.6 32.1272C168.1 34.1272 168.1 34.1272 166.4 30.6272C164.7 27.1272 164.7 26.9272 166.6 24.8272C169.2 21.9272 169.2 12.4272 166.6 8.42715C164.5 5.32716 164.2 5.52716 160.4 12.8272C157.9 17.7272 157.5 18.0272 156.3 16.3272C155.6 15.3272 155 13.1272 155 11.3272C155 7.72716 151.3 3.92715 145.3 1.42715C138.3 -1.47284 137.4 0.0271606 141.4 8.52716C144 14.0272 147.1 16.9272 150.6 16.9272C151.8 16.9272 153.3 17.6272 154 18.4272C155 19.6272 154.9 19.9272 153.4 19.9272C151 20.0272 143 23.6272 143 24.6272C143.1 25.0272 145.3 26.5272 148 27.8272C151.9 29.7272 153.9 30.1272 157.3 29.6272C161.3 29.0272 161.8 29.2272 162.9 31.5272C164.6 35.2272 164.4 35.4272 159.1 35.5272C156.4 35.5272 153.4 35.9272 152.5 36.3272C150.8 36.9272 150.9 37.2272 153.1 39.5272C156.4 43.1272 158.8 44.2272 164 44.9272C168 45.3272 168.5 45.7272 169.1 48.5272L169.7 51.6272L163.3 51.1272C155.6 50.5272 155.4 51.3272 161.3 57.5272C164.1 60.5272 166.5 62.1272 168.5 62.3272C171.3 62.6272 171.5 63.0272 171.8 66.8272C172.1 71.0272 172.1 71.0272 169.8 69.6272C166.8 67.7272 160 65.5272 159.3 66.2272C159 66.5272 159.6 68.8272 160.5 71.4272C162.3 76.0272 166.4 79.9272 169.5 79.9272C170.9 79.9272 171.1 80.5272 170.5 83.6272C169.6 88.5272 169.4 88.6272 166.7 86.2271C164.2 83.9272 160.7 81.9272 159.1 81.9272C155.8 81.9272 160.4 95.7271 164 96.6272C166.4 97.2271 166.5 98.1272 164.5 101.827L163.1 104.627L158.4 100.327C155.8 97.9272 153.3 95.9272 152.9 95.9272C152.4 95.9272 152 98.2271 152 100.927C152 106.327 153.9 111.227 156.7 112.827C158.2 113.627 158.2 114.027 155.9 117.327C153 121.627 152.4 121.727 151.6 118.327C150.7 114.827 146.8 108.927 145.3 108.927C144.7 108.927 143.6 111.327 142.9 114.327C141.8 119.227 141.9 120.227 143.7 123.827L145.8 127.927L143.2 129.927C140.1 132.427 139 132.427 139 129.927C139 127.227 135.9 120.927 134.6 120.927C134 120.927 132.4 123.227 131.1 126.027C129 130.827 128.8 133.227 130.4 137.027C130.9 138.127 130 139.027 127.5 140.227C125.5 141.127 123.7 141.927 123.5 141.927C123.2 141.927 123 139.727 123 137.027C123 127.727 121 126.627 115.8 133.127C113.2 136.527 112.5 138.227 112.6 141.527L112.7 145.727L103.4 148.727L94.1 151.627L84.7 148.527L75.2 145.427L75.7 142.327C76.3 138.627 74.4 134.527 70.1 130.527C67.3 127.827 67 127.727 66.3 129.527C65.9 130.527 65.5 133.827 65.5 136.627C65.5 139.527 65.4 141.927 65.4 141.927C65.3 141.927 63.6 141.227 61.6 140.427C58.4 139.127 58 138.527 58.6 136.627C59 135.427 59.3 133.327 59.2 131.927C59 129.227 54.9 120.027 53.8 119.927C52.8 119.927 49 128.327 49 130.827C49 133.027 49 133.027 45.6 130.327L42.2 127.527L44.1 125.127C45.2 123.727 46 121.127 46 118.927C46 114.727 44.2 108.927 43 108.927C41.8 108.927 38.1 114.327 36.8 118.027L35.7 121.327L32.9 117.927L30.1 114.627L33 111.227C35.6 108.327 36 107.127 36 101.827V95.7271L33.3 97.4272C31.7 98.3272 29.3 100.427 27.8 102.127L25.2 105.127L23.5 101.827C21.9 98.7271 21.9 98.5272 23.6 97.2271C24.6 96.5272 25.7 95.9272 26.2 95.9272C27.4 95.9272 29.7 90.7271 30.5 86.1272C30.9 83.5272 30.8 81.9272 30.2 81.9272C28.1 81.9272 23.4 84.1272 21.3 86.1272C18.9 88.4272 18.8 88.3272 17.6 82.6272C17 80.3272 17.3 79.9272 19.3 79.9272C22.9 79.9272 30 71.2272 30 66.8272C30 65.4272 24.5 66.6272 19.7 69.0272L15.9 70.9272L16.2 66.7272C16.4 63.7272 17 62.4272 18 62.3272C18.8 62.2272 20.3 62.1272 21.2 62.1272C23.6 61.8272 28.8 57.2272 30.6 53.6272L32.2 50.6272L25.2 51.2272L18.2 51.8272L19.3 48.4272C20.1 45.6272 20.7 45.0272 22.5 45.5272C23.6 45.8272 25.8 45.5272 27.3 45.0272C30.9 43.6272 37 38.7272 37 37.2272C37 35.9272 26.8 34.3272 25.1 35.4272C23.5 36.3272 23.7 34.3272 25.6 30.8272C26.8 28.3272 27.4 28.0272 28.5 28.9272C30.9 30.9272 36.5 30.4272 41.4 27.8272C43.9 26.5272 46 25.2272 46 24.9272C46 23.8272 40.4 21.1272 36.7 20.4272C33.7 19.8272 33.2 19.4272 34.1 18.3272C34.7 17.5272 36.1 16.9272 37.2 16.9272C42.7 16.9272 47.4 11.3272 48.7 3.32716C49.4 -0.872849 48.5 -0.972839 41.5 2.32716Z" fill="url(#paint0_linear_285_28408)"/>
</g>
<defs>
<filter id="filter0_b_285_28408" x="-30" y="-30.001" width="248.857" height="240.04" filterUnits="userSpaceOnUse" color-interpolation-filters="sRGB">
<feFlood flood-opacity="0" result="BackgroundImageFix"/>
<feGaussianBlur in="BackgroundImageFix" stdDeviation="15"/>
<feComposite in2="SourceAlpha" operator="in" result="effect1_backgroundBlur_285_28408"/>
<feBlend mode="normal" in="SourceGraphic" in2="effect1_backgroundBlur_285_28408" result="shape"/>
</filter>
<linearGradient id="paint0_linear_285_28408" x1="157.505" y1="166.162" x2="55.5907" y2="6.17012" gradientUnits="userSpaceOnUse">
<stop stop-color="#174A94"/>
<stop offset="1" stop-color="#15386B"/>
</linearGradient>
</defs>
</svg>
